<?xml version="1.0" encoding="utf-8"?>
<!-- Generator: Adobe Illustrator 21.0.2, SVG Export Plug-In . SVG Version: 6.00 Build 0)  -->
<svg version="1.1" id="Calque_1" xmlns="http://www.w3.org/2000/svg" xmlns:xlink="http://www.w3.org/1999/xlink" x="0px" y="0px"
	 viewBox="0 0 241.9 291.6" style="enable-background:new 0 0 241.9 291.6;" xml:space="preserve">
<style type="text/css">
	.st0{opacity:0.4;}
	.st1{fill:url(#SVGID_1_);}
	.st2{clip-path:url(#SVGID_3_);}
	.st3{fill:#810010;}
	.st4{fill:#FF2E2A;}
	.st5{fill:none;stroke:#908C92;stroke-width:1.8528;stroke-miterlimit:10;}
	.st6{fill:#3E7C37;}
	.st7{fill:#78CD41;}
	.st8{fill:url(#SVGID_4_);}
	.st9{fill:url(#SVGID_5_);}
	.st10{fill:url(#SVGID_6_);}
	.st11{fill:url(#SVGID_7_);}
	.st12{fill:url(#SVGID_8_);}
	.st13{fill:url(#SVGID_9_);}
	.st14{fill:url(#SVGID_10_);}
	.st15{fill:url(#SVGID_11_);}
	.st16{fill:url(#SVGID_12_);}
	.st17{fill:url(#SVGID_13_);}
	.st18{fill:url(#SVGID_14_);}
	.st19{fill:url(#SVGID_15_);}
	.st20{fill:url(#SVGID_16_);}
	.st21{fill:url(#SVGID_17_);}
	.st22{fill:url(#SVGID_18_);}
	.st23{fill:url(#SVGID_19_);}
	.st24{fill:url(#SVGID_20_);}
	.st25{fill:url(#SVGID_21_);}
	.st26{fill:url(#SVGID_22_);}
	.st27{fill:url(#SVGID_23_);}
	.st28{fill:url(#SVGID_24_);}
	.st29{fill:url(#SVGID_25_);}
	.st30{fill:url(#SVGID_26_);}
	.st31{fill:url(#SVGID_27_);}
	.st32{fill:url(#SVGID_28_);}
	.st33{fill:url(#SVGID_29_);}
	.st34{fill:url(#SVGID_30_);}
	.st35{fill:url(#SVGID_31_);}
	.st36{fill:url(#SVGID_32_);}
	.st37{fill:url(#SVGID_33_);}
	.st38{fill:url(#SVGID_34_);}
	.st39{fill:url(#SVGID_35_);}
	.st40{fill:url(#SVGID_36_);}
	.st41{fill:url(#SVGID_37_);}
	.st42{fill:url(#SVGID_38_);}
	.st43{fill:url(#SVGID_39_);}
	.st44{fill:url(#SVGID_40_);}
	.st45{fill:url(#SVGID_41_);}
	.st46{fill:url(#SVGID_42_);}
	.st47{fill:url(#SVGID_43_);}
	.st48{fill:url(#SVGID_44_);}
	.st49{fill:#CACCCE;}
	.st50{fill:#5C3922;}
	.st51{fill:url(#SVGID_45_);}
	.st52{fill:url(#SVGID_46_);}
	.st53{fill:url(#SVGID_47_);}
	.st54{fill:url(#SVGID_48_);}
	.st55{fill:url(#SVGID_49_);}
	.st56{fill:url(#SVGID_50_);}
	.st57{fill:url(#SVGID_51_);}
	.st58{fill:url(#SVGID_52_);}
	.st59{fill:url(#SVGID_53_);}
	.st60{fill:url(#SVGID_54_);}
	.st61{fill:url(#SVGID_55_);}
	.st62{fill:url(#SVGID_56_);}
	.st63{fill:url(#SVGID_57_);}
	.st64{fill:url(#SVGID_58_);}
	.st65{fill:url(#SVGID_59_);}
	.st66{fill:url(#SVGID_60_);}
	.st67{fill:url(#SVGID_61_);}
	.st68{fill:url(#SVGID_62_);}
	.st69{fill:url(#SVGID_63_);}
	.st70{fill:url(#SVGID_64_);}
	.st71{fill:url(#SVGID_65_);}
	.st72{fill:url(#SVGID_66_);}
	.st73{fill:url(#SVGID_67_);}
	.st74{fill:url(#SVGID_68_);}
	.st75{fill:url(#SVGID_69_);}
	.st76{fill:url(#SVGID_70_);}
	.st77{fill:url(#SVGID_71_);}
	.st78{fill:url(#SVGID_72_);}
	.st79{fill:url(#SVGID_73_);}
	.st80{fill:#FFFFFF;}
</style>
<g class="st0">
	
		<radialGradient id="SVGID_1_" cx="61.5154" cy="99.8619" r="196.0756" gradientTransform="matrix(4.489659e-11 -0.8559 -1 -3.842580e-11 238.5992 198.094)" gradientUnits="userSpaceOnUse">
		<stop  offset="0" style="stop-color:#464548"/>
		<stop  offset="0.1915" style="stop-color:#333034"/>
		<stop  offset="0.2998" style="stop-color:#221C20"/>
		<stop  offset="0.406" style="stop-color:#140B11"/>
		<stop  offset="0.4802" style="stop-color:#0E0209"/>
		<stop  offset="0.9889" style="stop-color:#0E0209"/>
		<stop  offset="1" style="stop-color:#0E0209"/>
	</radialGradient>
	<polygon class="st1" points="244,-0.3 244,292.7 -0.4,292.7 -0.4,-0.3 	"/>
</g>
<g>
	<g>
		<g>
			<defs>
				<polygon id="SVGID_2_" points="123.2,85.2 118.5,143.1 118.5,171 119.8,199.6 123.2,224.3 186.3,224.3 182.8,104.2 				"/>
			</defs>
			<clipPath id="SVGID_3_">
				<use xlink:href="#SVGID_2_"  style="overflow:visible;"/>
			</clipPath>
			<g class="st2">
				<path class="st3" d="M160.9,129.9c0,1.4,1,2.5,2.5,2.5c1.4,0,2.5-1,2.5-2.5c0-1.4-1-2.5-2.5-2.5
					C162.1,127.3,160.9,128.5,160.9,129.9z M154,112c-1,0-1.9,0.8-1.9,1.9c0,1,0.8,1.9,1.9,1.9c1,0,1.9-0.8,1.9-1.9
					C155.9,112.8,155,112,154,112z"/>
				<polygon class="st4" points="160.8,139 158.2,138.2 159.1,140.5 157.4,142.7 160.1,142.7 161.6,144.8 162.3,142.4 164.8,141.6 
					162.8,140 162.8,137.5 				"/>
				<polygon class="st4" points="154.2,118.9 151.5,121.3 148.1,120.4 149.4,123.8 147.6,126.8 151.1,126.3 153.5,129.2 
					154.2,125.7 157.5,124.3 154.3,122.4 				"/>
				<path class="st4" d="M135.9,116.5c-0.7,0-1.4,0.5-1.4,1.2v22.5c0,0.7,0.5,1.4,1.2,1.4l0,0c0.7,0,1.2-0.5,1.2-1.2v-22.5
					C137.1,117.2,136.6,116.7,135.9,116.5z M125.4,131.9c-0.3-0.7-1.2-0.8-1.7-0.5c-0.7,0.3-0.8,1.2-0.5,1.7l5.1,9.1
					c0.2,0.5,0.7,0.7,1.2,0.7c0.2,0,0.3,0,0.5-0.2c0.7-0.3,0.8-1.2,0.5-1.7L125.4,131.9z M148.9,133.1c0.3-0.7,0.2-1.4-0.5-1.7
					c-0.7-0.3-1.4-0.2-1.7,0.5l-5.2,9.1c-0.2,0.5-0.2,1,0,1.4c0.2,0.2,0.2,0.3,0.3,0.3c0.7,0.3,1.4,0.2,1.7-0.5L148.9,133.1z
					 M124.9,145.1l-7.8-5.1c-0.5-0.3-1.4-0.2-1.7,0.3s-0.2,1.4,0.3,1.7l7.8,5.1c0.2,0.2,0.5,0.2,0.7,0.2c0.3,0,0.8-0.2,1-0.5
					C125.6,146.3,125.4,145.6,124.9,145.1z M145.7,148c0.2,0.5,0.7,0.7,1.2,0.7c0.2,0,0.3,0,0.5-0.2l8.5-4.2c0.7-0.3,0.8-1,0.5-1.7
					s-1-0.8-1.7-0.5l-8.5,4.2C145.7,146.6,145.4,147.5,145.7,148z"/>
				<g>
					<path class="st3" d="M137.8,154.7l-23.7-5.9c-1-0.2-2,0.3-2.4,1.2c-0.3,0.8-9.3,22.7-3.7,34.5c1.4,2.9,3.4,4.9,6.1,6.1
						l-2.9,11.8l-6.3-1.5c-1.2-0.3-2.2,0.3-2.5,1.5c-0.3,1.2,0.3,2.2,1.5,2.5l16.7,4.2c0.2,0,0.3,0,0.5,0c1,0,1.9-0.7,2-1.5
						c0.3-1.2-0.3-2.2-1.5-2.5l-6.3-1.5l2.9-11.8c0.2,0,0.3,0,0.7,0c2.7,0,5.4-0.8,7.6-2.7c10.5-7.9,12.9-31.1,12.9-32.1
						C139.5,155.9,138.8,155.1,137.8,154.7z M123.9,185.9c-2,1.5-4.2,2-6.8,1.7l0,0l0,0l0,0l0,0c-2.4-0.8-4.1-2.2-5.2-4.6
						c-4.1-8.5,1.2-24.4,3-29.4l20,4.9C134.2,163.9,131.5,180.3,123.9,185.9z"/>
					<path class="st3" d="M113.9,182c0.8,1.7,2,2.9,3.7,3.4c0.3,0,0.8,0.2,1.2,0.2c5.9,0,9.6-9.3,11.5-15.6h-17.3
						C112.4,175.2,112.6,179.3,113.9,182z"/>
				</g>
				<g>
					<path class="st4" d="M167.7,203.3c-0.3-1.2-1.4-1.9-2.5-1.5l-6.3,1.5l-2.9-11.8c2.7-1.2,4.7-3.4,6.1-6.1
						c5.6-11.8-3.4-33.7-3.7-34.5c-0.3-1-1.4-1.5-2.4-1.2l-23.7,5.9c-1,0.2-1.7,1.2-1.5,2.2s2.4,24.4,12.9,32.1
						c2.4,1.9,4.9,2.7,7.6,2.7c0.2,0,0.3,0,0.7,0l2.9,11.8l-6.3,1.5c-1.2,0.3-1.9,1.4-1.5,2.5c0.2,1,1,1.5,2,1.5c0.2,0,0.3,0,0.5,0
						l16.7-4.2C167.2,205.5,167.9,204.5,167.7,203.3z M152.8,188.1L152.8,188.1C152.8,188.2,152.8,188.2,152.8,188.1
						C152.8,188.2,152.8,188.2,152.8,188.1L152.8,188.1c-2.5,0.5-4.7-0.2-6.9-1.7c-7.4-5.6-10.3-22-11-27.4l20-4.9
						c1.9,5.2,7.1,21,3,29.4C157,185.9,155.4,187.4,152.8,188.1z"/>
					<path class="st4" d="M156.9,170.5h-17.3c1.9,6.3,5.6,15.6,11.5,15.6c0.3,0,0.7,0,1.2-0.2c1.9-0.5,2.9-1.7,3.7-3.4
						C157.4,179.8,157.7,175.7,156.9,170.5z"/>
				</g>
			</g>
		</g>
	</g>
	<line class="st5" x1="166.5" y1="220.7" x2="48.8" y2="220.7"/>
	<path class="st3" d="M66,153.4c-4.4-5.6-6.6-12.2-6.6-19.8c0-9.8,3.6-17.8,10.5-23.7c6.4-5.4,16.7-8.1,31-8.1H120V210h-16.4v-44.3
		h-2.9l-31,44.3H50l33.5-46.2C76.2,162.4,70.4,158.8,66,153.4z M103.8,117.2H98c-15.1,0-22.5,5.6-22.5,16.6
		c0,11.8,7.8,17.8,23.2,17.8h5.2v-34.3H103.8z"/>
	<g>
		<g>
			<path class="st6" d="M120.8,190.3c-1-24.4,0.2-65.8,0.8-86.3l-2.9,0.2c-0.7,20.6-1.9,61.9-0.8,86.3c1.4,33.7,10,52.9,10.5,53.6
				l2.5-1.2C131,242.7,122.2,223.2,120.8,190.3z"/>
			<path class="st7" d="M129.6,241.8c-0.2-0.5-0.3-1.2-0.7-1.9c-0.2-0.8-0.5-1.7-0.8-2.7c-0.2-0.5-0.3-1-0.5-1.5
				c-0.2-0.5-0.3-1.2-0.5-1.7c-0.3-1.2-0.7-2.5-1-3.9c-0.2-0.7-0.3-1.4-0.5-2.2c-0.2-0.7-0.3-1.5-0.5-2.4c-0.2-0.8-0.3-1.7-0.5-2.5
				c-0.2-0.3-0.2-0.8-0.3-1.4c0-0.5-0.2-0.8-0.2-1.4c-0.2-0.8-0.3-1.9-0.5-2.7c-0.2-0.8-0.3-1.9-0.5-2.9c0-0.5-0.2-1-0.2-1.5
				c0-0.2,0-0.5-0.2-0.7c0-0.2,0-0.5-0.2-0.7c-0.2-1-0.3-2-0.3-3c0-0.5-0.2-1-0.2-1.5c0-0.5-0.2-1-0.2-1.5c-0.2-1-0.2-2-0.3-3.2
				c-0.2-1-0.2-2.2-0.3-3.2c-0.2-1-0.2-2.2-0.3-3.4c0-1.2-0.2-2.2-0.2-3.4c0-0.5,0-1.2-0.2-1.7v-0.8v-0.8c0-2.4-0.2-4.6-0.2-6.9
				c0-1.2,0-2.4-0.2-3.6c0-1.2,0-2.4,0-3.6c0-2.4,0-4.7,0-7.1s0-4.7,0-7.1s0-4.7,0-7.1c0-4.7,0-9.3,0.2-13.9c0-4.6,0.2-8.8,0.2-13
				c0.2-4.1,0.2-7.9,0.2-11.7c0.2-3.6,0.2-6.9,0.2-9.8c0-0.5,0-1,0-1.7h-0.3c0,0.5,0,1,0,1.5c-0.2,2.9-0.2,6.3-0.3,9.8
				s-0.2,7.4-0.3,11.7c-0.2,4.1-0.2,8.5-0.3,13c-0.2,4.6-0.2,9.1-0.3,13.9c0,2.4,0,4.7-0.2,7.1c0,2.4,0,4.7,0,7.1s0,4.7,0,7.1
				c0,1.2,0,2.4,0,3.6c0,1.2,0,2.4,0,3.6c0,2.4,0,4.7,0.2,6.9v0.8v0.8c0,0.5,0,1.2,0.2,1.7c0,1.2,0.2,2.2,0.2,3.4s0.2,2.2,0.3,3.4
				c0.2,1.2,0.2,2.2,0.3,3.2c0.2,1,0.2,2.2,0.3,3.2c0,0.5,0.2,1,0.2,1.5c0,0.5,0.2,1,0.2,1.5c0.2,1,0.3,2,0.5,3c0,0.2,0,0.5,0.2,0.7
				c0,0.2,0.2,0.5,0.2,0.7c0.2,0.5,0.2,1,0.3,1.5c0.2,1,0.3,1.9,0.5,2.9c0.2,0.8,0.3,1.9,0.5,2.7c0.2,0.5,0.2,0.8,0.3,1.4
				s0.2,0.8,0.3,1.4c0.2,0.8,0.3,1.7,0.5,2.5c0.2,0.8,0.3,1.5,0.7,2.4c0.2,0.7,0.3,1.5,0.7,2.2c0.8,2.9,1.5,5.2,2.4,7.3
				c0.3,1,0.7,1.9,1,2.7c0.3,0.7,0.5,1.4,0.8,1.9c0.2,0.5,0.3,0.8,0.5,1.2c0.2,0.3,0.2,0.3,0.2,0.3h0.2c0,0,0-0.2-0.2-0.3
				C130,242.7,129.8,242.4,129.6,241.8z"/>
		</g>
		<g>
			<g>
				
					<linearGradient id="SVGID_4_" gradientUnits="userSpaceOnUse" x1="68.6499" y1="178.8703" x2="78.7909" y2="185.9126" gradientTransform="matrix(0.9997 2.356718e-02 2.356718e-02 -0.9997 -13.0941 294.1975)">
					<stop  offset="0" style="stop-color:#5F0000"/>
					<stop  offset="5.259776e-02" style="stop-color:#7D0000"/>
					<stop  offset="0.1099" style="stop-color:#9A0000"/>
					<stop  offset="0.1747" style="stop-color:#B60000"/>
					<stop  offset="0.248" style="stop-color:#CD0000"/>
					<stop  offset="0.3336" style="stop-color:#E00000"/>
					<stop  offset="0.4394" style="stop-color:#ED0000"/>
					<stop  offset="0.5878" style="stop-color:#F60000"/>
					<stop  offset="1" style="stop-color:#F90000"/>
				</linearGradient>
				<path class="st8" d="M63.5,109.2c-1-0.2-3.2-0.5-3.2-0.2c0,1.7,1.5,4.9,2.4,6.4c1,1.7,1.7,1,3.4,1.4c1.2,0.3,2,1.4,3.4,1.4
					c0.2-2.5-1.5-4.4-3-6.3c-0.7-0.7-1.5-2.2-2.2-2.7C64,109.2,63.9,109.2,63.5,109.2z"/>
				
					<radialGradient id="SVGID_5_" cx="99.2098" cy="200.7715" r="42.8478" gradientTransform="matrix(0.9997 2.356718e-02 2.356718e-02 -0.9997 -13.0941 294.1975)" gradientUnits="userSpaceOnUse">
					<stop  offset="0" style="stop-color:#5F0000"/>
					<stop  offset="0.2452" style="stop-color:#F90000"/>
					<stop  offset="0.2738" style="stop-color:#FB0000"/>
					<stop  offset="0.3691" style="stop-color:#FF2F00"/>
					<stop  offset="0.4634" style="stop-color:#FF4200"/>
					<stop  offset="0.5547" style="stop-color:#FF4800"/>
					<stop  offset="0.685" style="stop-color:#FF3D00"/>
					<stop  offset="0.8855" style="stop-color:#FC0A00"/>
					<stop  offset="1" style="stop-color:#F90000"/>
				</radialGradient>
				<path class="st9" d="M111.4,106.2c0,0-7.6-0.2-15.6-0.3c-7.1-0.2-14.4-0.3-16.4-0.3c-4.2-0.2-10.3,1.5-15.9,3
					c-1.9,0.5-3,0.2-1.9,2c0.8,1.2,2.7,1.7,3.6,2.9c1.5,2,2.2,4.4,4.6,5.8c1.2,0.7,2.2,1,3.4,1.9c1.2,0.8,1.9,1.9,3.2,2.4
					c3,1,5.9,0,8.5,1.9c2.5,2,4.4,2.7,7.4,3.7c1.5,0.5,2.5,0.8,4.2,0.8c1.9,0,2.4,0.3,4.1,1.2c1.2,0.7,2.4,1.4,3.9,1.2
					c1.5,0,2.9-1,4.4-1s2.2,0.8,3.9,0.2c1.4-0.7,2-2.2,3.4-2.9c1.9-1,3.7,0,5.4-0.7c1.9-0.7,3.2-2.2,5.2-3c2.2-0.8,3.9-1,6.3-1
					c1.4,0,5.1,0.7,5.8-0.5c-0.5,0.8-6.4-4.2-6.9-4.7c-2.4-2-4.9-2.5-7.6-3.7C119.8,112.8,115.4,109.6,111.4,106.2z"/>
				
					<radialGradient id="SVGID_6_" cx="44.5282" cy="164.3091" r="39.5401" gradientTransform="matrix(1.0584 -1.505952e-02 -1.044331e-02 -1.0548 57.9421 280.6986)" gradientUnits="userSpaceOnUse">
					<stop  offset="0" style="stop-color:#5F0000"/>
					<stop  offset="0.3983" style="stop-color:#F90000"/>
					<stop  offset="0.6077" style="stop-color:#FC0000"/>
					<stop  offset="0.9804" style="stop-color:#FF4400"/>
					<stop  offset="0.9892" style="stop-color:#FF4500"/>
				</radialGradient>
				<path class="st10" d="M111.4,106c-3.2-0.3-6.4,0.5-9.6-0.2c-1.7-0.3-3.2-0.8-5.1-1c-2-0.2-9.6-0.7-10.5,1.9
					c-1.4-1.2-5.1-2-6.9-2.2c-2.5-0.2-4.4,1.4-6.8,1.9c-3.7,0.7-8.6,1-12,2.9c3.2,0,5.9,0.7,8.8,2.2c1.5,0.8,2.5,1.5,4.2,1.9
					c0.7,0.2,1.4,0.2,2,0.5c0.7,0.3,1.2,1.5,1.7,1.9c1.5,0.8,2.9-0.7,4.6-1.2c1.4-0.3,2.5,0,3.9-1c0.7-0.5,0.3-1,1.4-1.4
					c0.8-0.3,1.2,0.2,1.9,0.2c1.5,0.2,2.9-0.2,4.4-0.3c0.8,0,1.7,0,2.5,0.2c-0.2,1.7,2.9,4.9,0.7,5.2c0.8,0,2.2-0.2,2.9,0.3
					c0.7,0.5,0.8,1.5,1.7,2c1.2,0.7,3.9,0.8,3.4,3c1.4,0,2.7-0.5,3.9-0.5c1.4-0.2,2.9,0.2,4.1-0.3c3-0.8,5.2-1.2,7.1-3.7
					c2.7-3.6,2.5-5.4-0.7-8.1c-2-1.7-4.1-3.9-6.8-4.2C111.7,106,111.5,106,111.4,106z"/>
				
					<linearGradient id="SVGID_7_" gradientUnits="userSpaceOnUse" x1="95.2528" y1="184.9177" x2="82.2222" y2="166.1163" gradientTransform="matrix(0.9997 2.356718e-02 2.356718e-02 -0.9997 -13.0941 294.1975)">
					<stop  offset="0" style="stop-color:#F90000"/>
					<stop  offset="8.361662e-02" style="stop-color:#FB0000"/>
					<stop  offset="0.3727" style="stop-color:#FF3400"/>
					<stop  offset="0.4766" style="stop-color:#FF4B00"/>
					<stop  offset="0.6542" style="stop-color:#FF631D"/>
					<stop  offset="0.8298" style="stop-color:#FF6F2D"/>
					<stop  offset="1" style="stop-color:#FF7232"/>
				</linearGradient>
				<path class="st11" d="M97.3,125.3c0.2-0.2,0.5-0.3,0.7-0.5c1.4-1.4,2.9-2.4,4.4-3.7c-2,1.2-3.9,2.4-6.1,3.2
					c-1,0.3-2.4,1.2-3.4,1c-0.5,0-0.8-0.7-1.4-0.8s-1.4,0-1.9,0c0.2-1.2,2.9-1.9,3.9-2.5c1.4-1,3.6-2.2,4.6-3.6
					c-2,1-4.2,1.9-6.6,2.4c-2.5,0.5-4.1,0-6.4-0.8c2.5-1.9,5.8-2.4,8.3-4.4c-2.4,0.8-4.9,1.5-7.3,2c-1.2,0.2-2.5,0.7-3.7,0.5
					c-1.5-0.2-1.4-0.8-2.5-1.7c-1-0.7-1,0-2-0.2c-3-0.3-5.6-1.7-8.3-3.4c-2.5-1.7-4.4-3.7-7.8-3.4l-0.2,0.3l0,0c0,0.2,0.2,0.5,0.5,1
					c0.7,1,2.2,1.5,3.2,2.5c0.3,0.2,0.7,0.5,1,0.8c1.2,1.4,1.5,3,2.7,4.4c0.3,0.3,0.8,0.7,1.4,1c1.2,0.7,2.2,1,3.4,1.9
					c1.2,0.8,1.9,1.9,3.2,2.4c3,1,5.9,0,8.5,1.9c2.5,2,4.4,2.7,7.4,3.7c1.5,0.5,2.5,0.8,4.2,0.8c0.8,0,1.4,0,1.9,0.2
					c-0.3-2.2-0.7-0.7-1.5-1.7c-0.5-0.5-1-0.8-0.8-1.7C96.3,126.2,96.8,125.7,97.3,125.3z"/>
				
					<linearGradient id="SVGID_8_" gradientUnits="userSpaceOnUse" x1="110.5986" y1="171.7131" x2="120.3651" y2="166.8298" gradientTransform="matrix(0.9997 2.356718e-02 2.356718e-02 -0.9997 -13.0941 294.1975)">
					<stop  offset="0" style="stop-color:#F90000"/>
					<stop  offset="8.361662e-02" style="stop-color:#FB0000"/>
					<stop  offset="0.3727" style="stop-color:#FF3400"/>
					<stop  offset="0.4766" style="stop-color:#FF4B00"/>
					<stop  offset="0.6542" style="stop-color:#FF631D"/>
					<stop  offset="0.8298" style="stop-color:#FF6F2D"/>
					<stop  offset="1" style="stop-color:#FF7232"/>
				</linearGradient>
				<path class="st12" d="M111.4,128.9c-0.3-1.5,0.7-3.4,0.5-5.1c-1.7,1.2-3.6,7.9-5.4,6.8c-0.3-2,2.2-3.4,2.7-5.1
					c-0.5,0.5-1.2,1-1.9,0.8c1.9-4.4-1.7-2.5-4.1-0.8c-1.2,0.8-3.4,3.4-5.1,4.7c1,0.2,1.5,0.5,2.7,1.2c1.2,0.7,2.4,1.4,3.9,1.2
					c1.5,0,2.9-1,4.4-1s2.2,0.8,3.9,0.2c0.7-0.3,1.2-0.8,1.7-1.4C113.2,130,111.9,131.1,111.4,128.9z"/>
				
					<linearGradient id="SVGID_9_" gradientUnits="userSpaceOnUse" x1="121.7495" y1="175.0503" x2="148.2529" y2="175.0503" gradientTransform="matrix(0.9997 2.356718e-02 2.356718e-02 -0.9997 -13.0941 294.1975)">
					<stop  offset="0" style="stop-color:#C20000"/>
					<stop  offset="0.3785" style="stop-color:#D70000"/>
					<stop  offset="1" style="stop-color:#F90000"/>
				</linearGradient>
				<path class="st13" d="M132.5,119.2c-2.4-1.7-4.6-2.2-7.3-3.2c-0.7-0.3-1.4-0.7-2.2-1c-0.3,0.2-0.8,0.2-1.2,0.3c-2,0.7-3,2-4.7,3
					c-1.2,0.7-2.5,1-2.9,2.4c-0.3,0.7,0,1.4-0.3,2c-0.3,0.5-1,0.7-1.4,1.4c2.2,1.2-1.5,6.8,2.7,4.9c1.2-0.5,1.9-1.2,3-1.5
					c1.4-0.3,2.4-0.3,3.6-0.8c2.2-0.8,3.6-1.5,5.4-1.7c0.2,0,0.3-0.2,0.3-0.2c2-0.7,3.6-0.8,5.9-0.8c1.4,0,4.9,0.7,5.6-0.5
					C138.8,124.1,133,119.6,132.5,119.2z"/>
				
					<linearGradient id="SVGID_10_" gradientUnits="userSpaceOnUse" x1="70.5882" y1="174.6508" x2="148.3259" y2="174.6508" gradientTransform="matrix(0.9997 2.356718e-02 2.356718e-02 -0.9997 -13.0941 294.1975)">
					<stop  offset="0" style="stop-color:#FCCBA4"/>
					<stop  offset="7.826372e-02" style="stop-color:#FFAE80"/>
					<stop  offset="0.1981" style="stop-color:#FF8751"/>
					<stop  offset="0.3036" style="stop-color:#FF6828"/>
					<stop  offset="0.3896" style="stop-color:#FF5200"/>
					<stop  offset="0.4453" style="stop-color:#FF4800"/>
					<stop  offset="0.5468" style="stop-color:#FF4200"/>
					<stop  offset="0.6273" style="stop-color:#FF3400"/>
					<stop  offset="0.9164" style="stop-color:#FB0000"/>
					<stop  offset="1" style="stop-color:#F90000"/>
				</linearGradient>
				<path class="st14" d="M61.8,110.6c0,0,0,0,0.2,0.2l0.2,0.2c0.2,0,0.2,0.2,0.3,0.3c0.2,0.2,0.5,0.3,1,0.7
					c0.3,0.2,0.8,0.5,1.4,0.8c0.2,0.2,0.5,0.3,0.7,0.7c0.2,0.3,0.3,0.5,0.7,0.8c0.3,0.7,0.8,1.4,1.2,2c0.5,0.7,1,1.4,1.7,2
					c0.3,0.3,0.7,0.5,1.2,0.8c0.5,0.2,0.8,0.5,1.4,0.7c0.5,0.2,1,0.5,1.4,0.7c0.2,0.2,0.5,0.3,0.7,0.5c0.2,0.2,0.3,0.3,0.7,0.5
					c0.3,0.3,0.8,0.7,1.2,1c0.5,0.3,1,0.5,1.5,0.7c1.2,0.3,2.2,0.3,3.6,0.5c0.7,0,1.2,0,1.9,0.2s1.4,0.3,1.9,0.5
					c0.2,0,0.3,0.2,0.5,0.2c0.2,0,0.3,0.2,0.5,0.3l0.2,0.2l0.2,0.2l0.3,0.3l0.2,0.2l0.3,0.3l0.3,0.3c0.2,0.2,0.3,0.2,0.3,0.2
					c1.2,0.7,2.4,1.2,3.6,1.7c0.7,0.2,1.2,0.5,1.9,0.7c0.7,0.2,1.4,0.3,1.9,0.5c0.7,0.2,1.4,0.2,1.9,0.2c0.3,0,0.7,0,1,0h0.3H98
					c0.2,0,0.2,0,0.3,0h0.3c0.7,0.2,1.4,0.5,1.9,0.8c0.7,0.3,1.2,0.7,1.9,0.8c0.7,0.3,1.2,0.5,1.9,0.5c0.2,0,0.3,0,0.5,0h0.2h0.2
					c0.3,0,0.7-0.2,0.8-0.2c0.7-0.2,1.2-0.5,1.9-0.7c0.3,0,0.7-0.2,1-0.2h0.2h0.3c0.2,0,0.3,0,0.5,0.2c0.3,0,0.7,0.2,1,0.2
					s0.5,0,0.8,0c0.3,0,0.5-0.2,0.8-0.3c0.3-0.2,0.5-0.3,0.7-0.5c0.5-0.3,0.8-0.8,1.4-1.4c0.2-0.2,0.5-0.5,0.7-0.7l0.2-0.2l0.2-0.2
					h0.2l0,0l0,0l0,0l0.2-0.2c0.7-0.3,1.4-0.3,1.9-0.3c0.7,0,1.2,0,1.9,0c0.3,0,0.5,0,0.8,0c0.2,0,0.3,0,0.3,0h0.2h0.2
					c0.3-0.2,0.5-0.2,0.8-0.3c0.2,0,0.2-0.2,0.3-0.2c0.2,0,0.2-0.2,0.3-0.2c0.8-0.5,1.9-1.2,2.7-1.7c0.2,0,0.2-0.2,0.3-0.2
					s0.2-0.2,0.3-0.2s0.2-0.2,0.3-0.2c0.2,0,0.2,0,0.3-0.2c0.5-0.2,0.8-0.3,1.4-0.3c0.8-0.2,1.9-0.3,2.7-0.3s1.7,0,2.4,0
					s1.4,0.2,2,0.2c1.2,0.2,2.2,0,2.7-0.2c0.3-0.2,0.5-0.2,0.7-0.3l0,0l0,0l0,0l0,0l0,0c0,0,0,0,0,0.2c-0.2,0.2-0.3,0.3-0.7,0.3
					c-0.7,0.2-1.5,0.3-2.7,0.2c-0.7,0-1.2-0.2-2-0.2c-0.7,0-1.5,0-2.4,0s-1.7,0.2-2.5,0.5c-0.5,0.2-0.8,0.3-1.4,0.3
					c-0.2,0-0.2,0-0.3,0.2c-0.2,0-0.2,0.2-0.3,0.2s-0.2,0.2-0.3,0.2s-0.2,0.2-0.3,0.2c-0.8,0.5-1.7,1.2-2.7,1.7
					c-0.2,0-0.2,0.2-0.3,0.2c-0.2,0-0.2,0.2-0.3,0.2c-0.3,0.2-0.5,0.2-0.8,0.3c-0.7,0.2-1.2,0.3-1.9,0.3c-0.7,0-1.2,0-1.7,0
					c-0.5,0-1.2,0.2-1.7,0.3l-0.2,0.2l0,0l0,0h-0.2c0,0-0.2,0-0.2,0.2c0,0-0.2,0-0.2,0.2c-0.2,0.2-0.5,0.3-0.7,0.7
					c-0.3,0.5-0.8,1-1.4,1.4c-0.2,0.2-0.5,0.5-0.8,0.5c-0.3,0.2-0.7,0.3-1,0.3c-0.3,0-0.7,0-1,0s-0.7-0.2-1-0.2c-0.2,0-0.3,0-0.5,0
					h-0.2h-0.2c-0.3,0-0.5,0-0.8,0.2c-0.7,0.2-1.2,0.3-1.9,0.7c-0.3,0.2-0.7,0.2-1,0.3h-0.3c-0.2,0-0.2,0-0.3,0s-0.3,0-0.5,0
					c-0.7,0-1.4-0.3-2-0.5c-0.7-0.3-1.2-0.7-1.9-0.8c-0.7-0.3-1.2-0.7-1.9-0.8h-0.2h-0.2h-0.2h-0.2c-0.3,0-0.7,0-1,0
					c-0.7,0-1.4,0-2-0.2c-0.7-0.2-1.4-0.3-2-0.5c-0.7-0.2-1.4-0.5-1.9-0.7c-1.4-0.5-2.5-1-3.7-1.7c-0.2-0.2-0.3-0.2-0.5-0.3
					l-0.3-0.3l-0.3-0.3l-0.3-0.3l-0.3-0.3l-0.2-0.2l-0.2-0.2c-0.2-0.2-0.2-0.2-0.3-0.2c-0.2,0-0.3-0.2-0.3-0.2
					c-1-0.5-2.4-0.7-3.6-0.7c-0.7,0-1.2,0-1.9-0.2c-0.2,0-0.3,0-0.5,0c-0.2,0-0.3,0-0.5,0s-0.3,0-0.5-0.2c-0.2,0-0.3,0-0.5-0.2
					c-0.5-0.2-1.2-0.5-1.7-0.8s-0.8-0.7-1.4-1.2c-0.2-0.2-0.3-0.3-0.7-0.5c-0.2-0.2-0.3-0.3-0.7-0.5c-0.5-0.3-0.8-0.5-1.4-0.7
					c-0.5-0.2-0.8-0.5-1.4-0.7c-0.5-0.3-0.8-0.5-1.2-0.8c-0.7-0.7-1.2-1.4-1.7-2.2c-0.3-0.7-0.8-1.4-1.2-2c-0.2-0.3-0.3-0.5-0.5-0.8
					c-0.2-0.2-0.3-0.5-0.7-0.7c-0.5-0.3-0.8-0.7-1.4-0.8c-0.3-0.3-0.7-0.5-1-0.7c-0.2-0.2-0.2-0.2-0.3-0.3c0-0.2-0.2-0.2-0.2-0.2
					C61.8,110.6,61.8,110.6,61.8,110.6z"/>
			</g>
			<g>
				
					<linearGradient id="SVGID_11_" gradientUnits="userSpaceOnUse" x1="136.0726" y1="240.998" x2="140.0177" y2="241.6378" gradientTransform="matrix(0.9997 2.356718e-02 2.356718e-02 -0.9997 -13.0941 294.1975)">
					<stop  offset="0" style="stop-color:#F90000"/>
					<stop  offset="0.9892" style="stop-color:#FF4500"/>
				</linearGradient>
				<path class="st15" d="M131.2,63.7c-0.8-1.5-2.5-2.4-3.7-3.7c-1.9-2.2-3-5.9-2.2-8.8c0.3-1.2,1.5-3,2.9-3.4
					c1.4-0.3,2.2,0.8,2.5,2.2c0.5,2.4,0.5,4.9,0.8,7.3c0.2,2.5-0.2,5.1,0.2,7.4L131.2,63.7z"/>
				
					<linearGradient id="SVGID_12_" gradientUnits="userSpaceOnUse" x1="135.0634" y1="237.113" x2="138.2402" y2="237.9186" gradientTransform="matrix(0.9997 2.356718e-02 2.356718e-02 -0.9997 -13.0941 294.1975)">
					<stop  offset="0" style="stop-color:#F90000"/>
					<stop  offset="0.9892" style="stop-color:#FF4500"/>
				</linearGradient>
				<path class="st16" d="M131,65.1c-0.8-2.2-3.9-3-4.6-5.2c-0.3-1,0.5-2.2,0.8-3c0.5-0.8,1.5-1.5,1.5-2.5v0.2
					c1.2,0.5,1.2,4.1,1.5,5.2c0.3,1.7,1,3.7,0.8,5.6L131,65.1z"/>
				
					<radialGradient id="SVGID_13_" cx="123.257" cy="178.0336" r="81.7516" gradientTransform="matrix(0.9997 2.356718e-02 2.356718e-02 -0.9997 -13.0941 294.1975)" gradientUnits="userSpaceOnUse">
					<stop  offset="0" style="stop-color:#5F0000"/>
					<stop  offset="8.874080e-02" style="stop-color:#610000"/>
					<stop  offset="0.1658" style="stop-color:#6A0000"/>
					<stop  offset="0.2386" style="stop-color:#790000"/>
					<stop  offset="0.3088" style="stop-color:#900000"/>
					<stop  offset="0.3771" style="stop-color:#B00000"/>
					<stop  offset="0.443" style="stop-color:#DA0000"/>
					<stop  offset="0.4802" style="stop-color:#F90000"/>
					<stop  offset="0.6565" style="stop-color:#FF4800"/>
					<stop  offset="0.8257" style="stop-color:#FF3D00"/>
					<stop  offset="0.9713" style="stop-color:#FF2800"/>
					<stop  offset="1" style="stop-color:#F90000"/>
				</radialGradient>
				<path class="st17" d="M107.1,98.4c-3-2.5-5.9-4.9-8.5-7.9c-2.7-3-4.4-7.6-6.6-11c-1.9-3-2.7-6.3-4.2-9.3
					c-0.8-1.7-2.5-5.9-0.2-7.4c1-0.7,2.5-0.2,3.9-1s2.4-2,3.6-2.9c1-0.7,2.5-1.2,3.6-2c1-1,1-2.2,2.5-2.9c1.9-0.7,2.4-0.3,3.9-2
					c1.2-1.2,1.4-1.5,3-1.7c0.8-0.2,1,0.2,1.9-0.2c0.7-0.3,0.8-1.2,1.7-1.5c1.9-0.5,2,1.4,3.9,1.4c1.5,0,3-0.7,4.6-1.2
					c0.7-0.2,1.5-0.5,2.2-0.7c0.7-0.2,1.5,0,2.2,0c0.5,0,1.2-0.2,1.7-0.3c0.8-0.2,2,0,2.9,0.3c0.5,0.2,0.5,0.7,0.5,1
					c0,0.7-0.2,1-0.7,1.4c-0.3,0.3-0.7,0.7-1,1c-0.3,0.3-0.5,0.8-0.3,1.4c0.2,0.8,1,1.7,1,2.5c0,0.3-0.2,0.5-0.3,0.7
					c-0.3,0.5-0.8,0.7-1.2,1.2c-0.3,0.5-0.5,0.8-0.3,1.4c0.2,0.5,0.5,1.2,1,1.4c1,0.5,2,1,3,1.7c0.5,0.3,0.7,0.8,1,1.5
					c0.2,0.5,0.3,1,0.3,1.7c0,0.5-0.2,1-0.3,1.5c-0.2,1.2,1,1.9,1.7,2.7c0.8,1.2,0.5,2.7,0.5,3.9c0,0.5,0,1,0.2,1.4
					c0.7,1.4,2.4,0.8,3.6,1.4c0.5,0.2,1,0.7,1.4,1.2c0.2,0.5,0.7,1,0.8,1.5s0.3,1,0.5,1.5s0.3,1.2,0.5,1.7c0.2,0.7,0.7,1.2,0.8,1.7
					c0.3,0.7,0.5,1.5,1,2.2c0.5,0.8,0.7,1.5,0.8,2.5c0.2,1,0.2,1.9-0.2,2.9c-0.5,1.5-1.9,2.7-2.9,3.9c-1.2,1.4-2.5,2.9-3.9,4.1
					c-1.9,1.5-4.2,2.4-6.4,3.2c-2.4,1-5.2,1.7-7.8,1.9c-1.4,0.2-2.7,0.2-3.9,0.3C113.2,105.2,111.2,101.6,107.1,98.4z"/>
				
					<linearGradient id="SVGID_14_" gradientUnits="userSpaceOnUse" x1="133.5335" y1="227.976" x2="152.2789" y2="227.976" gradientTransform="matrix(0.9997 2.356718e-02 2.356718e-02 -0.9997 -13.0941 294.1975)">
					<stop  offset="0" style="stop-color:#FCCBA4"/>
					<stop  offset="7.826372e-02" style="stop-color:#FFAE80"/>
					<stop  offset="0.1981" style="stop-color:#FF8751"/>
					<stop  offset="0.3036" style="stop-color:#FF6828"/>
					<stop  offset="0.3896" style="stop-color:#FF5200"/>
					<stop  offset="0.4453" style="stop-color:#FF4800"/>
					<stop  offset="0.5468" style="stop-color:#FF4200"/>
					<stop  offset="0.6273" style="stop-color:#FF3400"/>
					<stop  offset="0.9164" style="stop-color:#FB0000"/>
					<stop  offset="1" style="stop-color:#F90000"/>
				</linearGradient>
				<path class="st18" d="M126.3,47.7L126.3,47.7c0.3,0,0.3,0,0.7,0c0.2,0,0.5,0,0.7,0c0.3,0,0.7,0,1,0.2c0.2,0,0.3,0.2,0.5,0.2
					c0.2,0.2,0.3,0.2,0.5,0.3c0.2,0.2,0.3,0.5,0.3,0.7c0,0.3,0,0.5-0.2,0.8c0,0.2-0.2,0.2-0.2,0.3c0,0,0,0.2-0.2,0.2l-0.2,0.2
					c-0.2,0.2-0.3,0.3-0.7,0.7c-0.2,0.2-0.5,0.3-0.5,0.7l0,0l0,0v0.2v0.2c0,0.2,0,0.3,0,0.5c0,0.3,0.2,0.5,0.3,0.8
					c0.2,0.3,0.3,0.7,0.5,0.8c0.2,0.2,0.2,0.3,0.3,0.5c0,0.2,0.2,0.5,0,0.7c0,0.2-0.2,0.3-0.3,0.5c-0.2,0.2-0.2,0.3-0.3,0.5
					c-0.3,0.3-0.7,0.5-0.8,0.7c-0.3,0.2-0.5,0.5-0.5,0.8c0,0.3,0.2,0.7,0.3,1c0.2,0.3,0.5,0.5,0.8,0.7c0.7,0.5,1.5,0.7,2.2,1.2
					c0.2,0.2,0.3,0.2,0.5,0.3c0.2,0,0.2,0.2,0.3,0.2l0,0l0,0l0,0l0,0l0.2,0.2c0,0,0.2,0.2,0.2,0.3c0,0,0,0.2,0.2,0.2v0.2
					c0,0.2,0.2,0.2,0.2,0.3c0,0.2,0.2,0.2,0.2,0.3c0.2,0.5,0.2,0.8,0.3,1.4c0,0.2,0,0.2,0,0.3v0.2v0.2c0,0.2,0,0.5-0.2,0.7
					c0,0.2-0.2,0.5-0.2,0.7s0,0.2,0,0.3c0,0.2,0,0.2,0,0.2c0,0.3,0.3,0.5,0.7,0.8s0.7,0.7,0.8,1.2v0.2l0,0l0,0v0.2l0.2,0.3
					c0,0.2,0.2,0.5,0.2,0.7s0,0.2,0,0.3V71v0.3c0,0.2,0,0.2,0,0.3V72v0.2v0.2c0,0.2,0,0.5,0,0.7c0,0.5,0,0.8,0,1.2
					c0,0.2,0.2,0.3,0.2,0.5l0.2,0.2l0,0l0,0l0,0c0,0,0,0,0.2,0c0.3,0.2,0.7,0.2,1.2,0.3c0.3,0,0.8,0.2,1.4,0.2h0.2h0.2h0.2
					c0,0,0.2,0,0.2,0.2c0.2,0.2,0.3,0.2,0.5,0.3c0.3,0.3,0.7,0.7,0.8,1c0.5,0.7,0.7,1.5,1,2.2c0,0.2,0.2,0.3,0.2,0.5s0,0.3,0.2,0.5
					c0,0.2,0,0.2,0,0.3s0,0.2,0,0.2c0,0.2,0.2,0.3,0.2,0.5c0.2,0.7,0.5,1.4,0.8,1.9c0.3,0.7,0.5,1.2,0.8,1.7
					c0.2,0.3,0.3,0.5,0.3,0.8c0.2,0.3,0.2,0.5,0.3,0.8c0.2,0.5,0.3,1,0.3,1.5c0.2,0.5,0.2,0.8,0.2,1.2c0,0.8,0,1.4-0.2,1.9
					c0,0.2,0,0.2,0,0.3v0.2c0,0.2,0,0.2,0,0.2s0,0,0-0.2v-0.2c0,0,0-0.2,0-0.3c0.2-0.3,0.2-1,0-1.7c0-0.3-0.2-0.8-0.2-1.2
					c-0.2-0.5-0.2-0.8-0.5-1.4c-0.2-0.2-0.2-0.5-0.3-0.7c-0.2-0.3-0.2-0.5-0.3-0.8c-0.3-0.5-0.5-1-0.8-1.7s-0.5-1.2-0.8-1.9
					c0-0.2-0.2-0.3-0.2-0.5s0-0.2-0.2-0.3c0-0.2,0-0.2,0-0.3S140,80.2,140,80c0-0.2-0.2-0.3-0.2-0.5c-0.2-0.7-0.5-1.4-1-2
					c-0.2-0.3-0.5-0.7-0.7-0.8c-0.2-0.2-0.3-0.2-0.5-0.3c0,0,0,0-0.2,0h-0.2h-0.2l0,0l0,0l0,0c-0.3-0.2-0.7-0.2-1.2-0.2
					c-0.3,0-0.8-0.2-1.4-0.3c0,0-0.2,0-0.2-0.2l0,0l0,0l0,0l0,0c-0.2,0-0.2-0.2-0.3-0.2c-0.2-0.2-0.3-0.3-0.3-0.7
					c-0.2-0.5,0-1,0-1.4c0-0.2,0-0.3,0-0.7v-0.2v-0.2V72c0-0.2,0-0.2,0-0.3v-0.3V71c0-0.2,0-0.2,0-0.3s-0.2-0.3-0.2-0.7l-0.2-0.3
					v-0.2l0,0l0,0l0,0c-0.2-0.3-0.5-0.7-0.8-0.8c-0.2-0.2-0.3-0.3-0.5-0.5c-0.2-0.2-0.3-0.3-0.3-0.7c0-0.2,0-0.3,0-0.3
					c0-0.2,0-0.2,0-0.3s0.2-0.5,0.2-0.7c0-0.2,0.2-0.3,0.2-0.7v-0.2v-0.2c0,0,0-0.2,0-0.3c0-0.5-0.2-0.8-0.2-1.2
					c0-0.2,0-0.2-0.2-0.3c0-0.2,0-0.2-0.2-0.3v-0.2c0,0,0,0,0-0.2c0,0,0-0.2-0.2-0.2l-0.2-0.2l0,0l0,0l0,0l-0.2-0.2
					c-0.2-0.2-0.3-0.2-0.5-0.3c-0.7-0.3-1.5-0.7-2.2-1.2c-0.3-0.2-0.7-0.5-1-0.8s-0.5-0.8-0.5-1.2c0-0.2,0-0.5,0.2-0.7
					c0.2-0.2,0.3-0.3,0.3-0.5c0.3-0.3,0.7-0.5,0.8-0.7c0.2-0.2,0.2-0.3,0.3-0.3c0.2-0.2,0.2-0.3,0.2-0.5c0-0.2,0-0.3,0-0.3
					c0-0.2-0.2-0.3-0.2-0.5c-0.2-0.3-0.3-0.7-0.5-0.8c-0.2-0.3-0.3-0.7-0.3-1c0-0.2,0-0.3,0-0.5c0-0.2,0-0.2,0-0.3v-0.2l0,0l0,0
					c0.2-0.3,0.3-0.5,0.7-0.7c0.2-0.2,0.5-0.3,0.7-0.5l0.2-0.2c0,0,0-0.2,0.2-0.2c0-0.2,0.2-0.2,0.2-0.3c0.2-0.2,0.2-0.5,0.2-0.7
					s0-0.5-0.2-0.7c-0.2-0.2-0.3-0.3-0.5-0.3c-0.2-0.2-0.3-0.2-0.5-0.2c-0.7-0.2-1.4-0.2-1.7-0.2C126.8,47.7,126.6,47.7,126.3,47.7
					L126.3,47.7z"/>
				
					<linearGradient id="SVGID_15_" gradientUnits="userSpaceOnUse" x1="149.2234" y1="224.5412" x2="139.2687" y2="218.343" gradientTransform="matrix(0.9997 2.356718e-02 2.356718e-02 -0.9997 -13.0941 294.1975)">
					<stop  offset="0" style="stop-color:#F90000"/>
					<stop  offset="8.361662e-02" style="stop-color:#FB0000"/>
					<stop  offset="0.3727" style="stop-color:#FF3400"/>
					<stop  offset="0.4766" style="stop-color:#FF4B00"/>
					<stop  offset="0.6542" style="stop-color:#FF631D"/>
					<stop  offset="0.8298" style="stop-color:#FF6F2D"/>
					<stop  offset="1" style="stop-color:#FF7232"/>
				</linearGradient>
				<path class="st19" d="M131.8,66.3c-0.2,0.8-0.3,0.8,0.3,1.5c0.3,0.3,1,0.7,1.4,1.2c0.8,1.2,0.7,3.2,0.8,4.6
					c0.2,0.8,0,1.5,0.8,2.2c0.5,0.3,1.5,0.5,2.2,0.8c1.5,0.8,2.2,2.2,2.5,3.7c0.2,0.7,0.3,1.5,0.3,2.2c0,0.5-0.2,0.5,0.2,1
					c0.2,0.3,0.7,0.2,0.7,0.8c0.2,0.8-0.7,1.4,0,2.2c0.3,0.5,1,0.8,1.4,1.5c0.8,1.9,0.7,3.6-0.7,4.9c-0.5,0.7-1.2,1.4-1.9,2
					c-0.5,0.5-1.2,2-1.7,2c-0.3-1.5-0.5-3-0.7-4.6c-0.2-0.8,0-1.5,0-2.4c-0.2-0.8-0.5-1.5-0.7-2.4c0-0.3,0-0.8-0.2-1.2
					c-0.2-0.5-0.2-0.3-0.5-0.8c-0.5-0.7-0.8-1.2-1.2-1.9c-0.8-1.5-1.9-2.5-1.9-4.2c0.2-1.5,1-2.5,0.3-4.1s-1-3.2-1.4-4.7
					c-0.3-1.4-0.5-3.2-1.4-4.4c-0.8-1.4-1.5-2.5-2.2-3.9c-0.3-0.8-1.4-2-1.4-3c1,0.3,2.2,1.9,2.9,2.5
					C131.5,63.2,132.3,64.6,131.8,66.3z"/>
				
					<linearGradient id="SVGID_16_" gradientUnits="userSpaceOnUse" x1="122.2695" y1="224.7418" x2="124.9636" y2="225.2316" gradientTransform="matrix(0.9997 2.356718e-02 2.356718e-02 -0.9997 -13.0941 294.1975)">
					<stop  offset="0" style="stop-color:#F90000"/>
					<stop  offset="0.9892" style="stop-color:#FF4500"/>
				</linearGradient>
				<path class="st20" d="M116.3,79c-0.3-4.2-1-8.6-1.9-12.7c-0.7-2.7-1.5-5.2-2.4-7.9c-0.3-1.4-0.5-2.9-0.8-4.2
					c-0.3-1.2-1-2.7-0.8-4.1c0.2,1.2,1.5,1.7,2.4,2.2c0.8,0.7,2,1.7,2.4,2.9c0.5,1.2,0,1.9-0.2,3c-0.2,1,0.2,2,0.2,3.2
					c0,1,0,2.2,0,3.2c0.2,1.2,0.8,2.4,1.2,3.6c0.8,2.5,1.2,4.7,1.5,7.3c0.2,1.9,0.3,3.7,0.5,5.4c0.2,1.7,0.8,3.2,0.8,5.1
					c0,1.5-0.2,3-0.5,4.6c-0.2,0.7-0.3,1.4-0.5,2.2c-0.2,0.7,0,1.5-0.3,2.2c-0.8-1.7-0.2-4.6-0.3-6.6C117.1,85.1,116.5,82,116.3,79z
					"/>
				
					<linearGradient id="SVGID_17_" gradientUnits="userSpaceOnUse" x1="125.7822" y1="237.5423" x2="129.6379" y2="237.5423" gradientTransform="matrix(0.9997 2.356718e-02 2.356718e-02 -0.9997 -13.0941 294.1975)">
					<stop  offset="0" style="stop-color:#F90000"/>
					<stop  offset="0.9892" style="stop-color:#FF4500"/>
				</linearGradient>
				<path class="st21" d="M118.8,54.1c-0.2-1-0.7-1.9,0.2-2.9c0.3-0.3,0.8-0.2,1.2-0.5c0.2-0.5-0.2-1.2,0-1.5
					c0.3-0.5,2.2-1.4,2.7-1.2c1.4,0.2,0.8,1.2,0.5,2.2c-0.3,1.9-1.2,3.6-1.4,5.4c-0.2,1.9-0.3,3.7-0.7,5.6c-0.2,0.8,0,1.9-0.2,2.7
					c-0.2,0.8-0.7,1.5-0.8,2.5c-0.3,1.5-0.2,3.4-0.3,5.1c-1.5-1.9,0-4.9-0.2-7.1C119.7,61,119.5,57.5,118.8,54.1z"/>
				
					<linearGradient id="SVGID_18_" gradientUnits="userSpaceOnUse" x1="105.8636" y1="235.369" x2="111.4977" y2="238.5618" gradientTransform="matrix(0.9997 2.356718e-02 2.356718e-02 -0.9997 -13.0941 294.1975)">
					<stop  offset="0" style="stop-color:#F90000"/>
					<stop  offset="0.9892" style="stop-color:#FF4500"/>
				</linearGradient>
				<path class="st22" d="M99.2,56.1c0.5-0.5,1.7-1.5,2.4-1.5c0.2,1.2-0.2,1.9,0.5,2.9c0.5,1,0.8,1.5,0.8,2.7c0,1,0.8,3.4-0.3,4.1
					c-0.8,0.5-1.4-0.5-1.7-1.2C99.4,61.2,96.8,58.3,99.2,56.1z"/>
				
					<linearGradient id="SVGID_19_" gradientUnits="userSpaceOnUse" x1="111.7359" y1="238.8745" x2="116.4314" y2="241.1284" gradientTransform="matrix(0.9997 2.356718e-02 2.356718e-02 -0.9997 -13.0941 294.1975)">
					<stop  offset="0" style="stop-color:#F90000"/>
					<stop  offset="0.9892" style="stop-color:#FF4500"/>
				</linearGradient>
				<path class="st23" d="M104.4,54.8c-0.7-1-1-1.7,0-2.4c0.3-0.2,0.8-0.2,1.2-0.5c0.3-0.3,0.5-0.8,0.8-1c1.4-0.5,1.2,1.2,1.2,2
					c0.2,1,0.5,2,0.7,3c0.2,1,0.2,2,0.2,3c0,1,1,2.7,0,3.2C106.8,60.2,105.8,57.2,104.4,54.8z"/>
				
					<linearGradient id="SVGID_20_" gradientUnits="userSpaceOnUse" x1="123.7692" y1="207.7746" x2="148.9364" y2="224.3024" gradientTransform="matrix(0.9997 2.356718e-02 2.356718e-02 -0.9997 -13.0941 294.1975)">
					<stop  offset="0" style="stop-color:#F90000"/>
					<stop  offset="0.3983" style="stop-color:#F90000"/>
					<stop  offset="0.6077" style="stop-color:#FC0000"/>
					<stop  offset="0.9804" style="stop-color:#FF4400"/>
					<stop  offset="0.9892" style="stop-color:#FF4500"/>
				</linearGradient>
				<path class="st24" d="M124.4,84.4c0.5-2,0.3-4.2,0.7-6.1c0.3-2.2,1.2-4.2,1.5-6.3c0.3-2.4,0.5-4.7,0.5-7.3c0-1.5-0.2-3-0.2-4.4
					c1.9,3.7,0.8,7.6,0.7,11.7c-0.2,2.2-0.3,4.4-0.5,6.4c-0.2,1,0,2-0.3,3c-0.3,1-0.8,2-0.7,3c0,0.2-0.2,0.5-0.2,0.7
					c1.9,0.2,2.2-6.9,2.5-8.1c0.3-1.2,0.8-2,1-3.4c0.2-0.7,0-2.9,0.8-2.7c0,1.7-0.8,3.6-1.2,5.4c-0.2,1.5,0,3-0.2,4.6
					c0,1.9-0.7,3.9-1.4,5.6c-0.5,1.7-1.5,3-1.5,4.9c-0.2,2.2,1.7,2.7,1.7,4.7c1-0.2,1.7-1.5,2.4-2.2c0.8-0.8,1.5-1.5,2.2-2.7
					c0.3-0.8,1.5-5.1,2.5-4.9c0.7,0.2,0.8,2.2,0.7,2.9c-0.2,1-1.2,2-1.9,2.9c-0.8,1-0.7,1.5-1,2.7c-0.2,1-1.4,1.7-1.4,2.7
					c1.2,0,2.7-1.7,3.4-2.7c0.5-0.8,1.4-3,2.2-3.2c0.2,3.7-4.1,10.5-7.9,10.7c-1,0-2.4,0.3-3.2,0c-1.7-0.5-1.4-2-1.5-3.4
					c-0.2-1.2-0.5-2.2-1-3.2c-0.3-0.5-1.2-1.9-1.4-2.4c-0.2-1.2,0.8-2.5,1-3.7C123.6,87.9,123.9,86.1,124.4,84.4z"/>
				
					<linearGradient id="SVGID_21_" gradientUnits="userSpaceOnUse" x1="94.8235" y1="228.7172" x2="100.363" y2="228.7172" gradientTransform="matrix(0.9997 2.356718e-02 2.356718e-02 -0.9997 -13.0941 294.1975)">
					<stop  offset="0" style="stop-color:#F90000"/>
					<stop  offset="0.9892" style="stop-color:#FF4500"/>
				</linearGradient>
				<path class="st25" d="M87.4,65.1c0.2-0.5,1-1.9,1.4-2c0.8-0.3,1,0.7,1.7,1.4c0.3,0.3,0.7,0.3,0.8,0.8c0.2,0.3,0,1.2,0,1.5
					c0.2,1,0.8,2,1,3c0.2,1,0.2,2.2-1,2.7c-1.5,0.7-2.5-1.2-3.4-2.2C87.2,69,86.9,66.6,87.4,65.1z"/>
			</g>
			<g>
				
					<linearGradient id="SVGID_22_" gradientUnits="userSpaceOnUse" x1="-18.6063" y1="79.4044" x2="-8.8587" y2="88.2971" gradientTransform="matrix(1.0594 -0.169 -0.1812 -1.1361 109.8869 197.1612)">
					<stop  offset="0" style="stop-color:#EE0000"/>
					<stop  offset="1" style="stop-color:#FF0000"/>
				</linearGradient>
				<path class="st26" d="M66.4,99.4c0,0-3.2,5.2,7.1,6.8c9.5,1.4,17.8,6.3,18.1,5.9C91.9,111.6,78.7,95,66.4,99.4z"/>
				
					<radialGradient id="SVGID_23_" cx="11.0601" cy="78.5558" r="47.1427" gradientTransform="matrix(1.0594 -0.169 -0.1812 -1.1361 109.8869 197.1612)" gradientUnits="userSpaceOnUse">
					<stop  offset="0" style="stop-color:#5F0000"/>
					<stop  offset="0.3322" style="stop-color:#F90000"/>
					<stop  offset="0.8441" style="stop-color:#FF4800"/>
					<stop  offset="0.8897" style="stop-color:#FF3D00"/>
					<stop  offset="0.9599" style="stop-color:#FC0A00"/>
					<stop  offset="1" style="stop-color:#F90000"/>
				</radialGradient>
				<path class="st27" d="M115.6,105.4c0,0-8.8,1.5-14.5,4.9c-5.8,3.4-11,5.2-16.4-1.2c-5.2-6.4-4.9-7.3-10-5.6s-7.9,3.4-9.5-4.4
					c-1.5-7.9-2.2-13-0.5-17.3c1.7-4.2,3.9-8.6,6.6-10.1c2.7-1.7,0.8-3,4.2-4.7c3.6-1.5,5.9-1.7,8.3-3.7c2.2-2,4.4-0.2,5.9-1
					s-0.7-2.2,3.9-2.5c4.6-0.3,6.3,1,10-1.7c3.7-2.7,2.7-0.2,2.5,3.2s0.2,17.4,2.2,23.3C110.4,90.5,115.6,105.4,115.6,105.4z"/>
				
					<linearGradient id="SVGID_24_" gradientUnits="userSpaceOnUse" x1="-26.745" y1="108.171" x2="17.146" y2="108.171" gradientTransform="matrix(1.0594 -0.169 -0.1812 -1.1361 109.8869 197.1612)">
					<stop  offset="0" style="stop-color:#F90000"/>
					<stop  offset="8.361662e-02" style="stop-color:#FB0000"/>
					<stop  offset="0.3727" style="stop-color:#FF3400"/>
					<stop  offset="0.4532" style="stop-color:#FF4200"/>
					<stop  offset="0.5547" style="stop-color:#FF4800"/>
					<stop  offset="0.6104" style="stop-color:#FF5200"/>
					<stop  offset="0.6964" style="stop-color:#FF6828"/>
					<stop  offset="0.8019" style="stop-color:#FF8751"/>
					<stop  offset="0.9217" style="stop-color:#FFAE80"/>
					<stop  offset="1" style="stop-color:#FCCBA4"/>
				</linearGradient>
				<path class="st28" d="M64.7,81.7c1.7-4.2,3.9-8.6,6.6-10.1c2.7-1.7,0.8-3,4.2-4.7c3.6-1.5,5.9-1.7,8.3-3.7c2.2-2,4.4-0.2,5.9-1
					s-0.7-2.2,3.9-2.5c4.6-0.3,6.3,1,10-1.7c1.9-1.4,2.5-1.4,2.7-0.7c-0.2-1-0.7-1.2-2.7,0.3c-3.7,2.7-5.4,1.4-10,1.7
					c-4.6,0.3-2.4,1.7-3.9,2.5s-3.7-1-5.9,1s-4.7,2.2-8.3,3.7c-3.6,1.5-1.5,3-4.2,4.7s-4.7,5.9-6.6,10.1c-1.4,3.4-1.2,7.3-0.3,12.5
					C63.5,88.8,63.3,85.1,64.7,81.7z"/>
				
					<linearGradient id="SVGID_25_" gradientUnits="userSpaceOnUse" x1="4.8766" y1="77.2556" x2="-14.6291" y2="92.1415" gradientTransform="matrix(1.0594 -0.169 -0.1812 -1.1361 109.8869 197.1612)">
					<stop  offset="0" style="stop-color:#F90000"/>
					<stop  offset="8.361662e-02" style="stop-color:#FB0000"/>
					<stop  offset="0.3727" style="stop-color:#FF3400"/>
					<stop  offset="0.4532" style="stop-color:#FF4200"/>
					<stop  offset="0.5547" style="stop-color:#FF4800"/>
					<stop  offset="0.6104" style="stop-color:#FF5200"/>
					<stop  offset="0.6964" style="stop-color:#FF6828"/>
					<stop  offset="0.8019" style="stop-color:#FF8751"/>
					<stop  offset="0.9217" style="stop-color:#FFAE80"/>
					<stop  offset="1" style="stop-color:#FCCBA4"/>
				</linearGradient>
				<path class="st29" d="M85.2,109.6c4.9,5.9,10.7,3.2,13.9,1s14.7-5.8,14.7-5.8s-25.4,5.9-30.8,1.5
					C82.5,107.2,85.2,109.6,85.2,109.6z"/>
				<g>
					
						<linearGradient id="SVGID_26_" gradientUnits="userSpaceOnUse" x1="-31.5313" y1="92.4636" x2="-7.2453" y2="77.5842" gradientTransform="matrix(1.0594 -0.169 -0.1812 -1.1361 109.8869 197.1612)">
						<stop  offset="0" style="stop-color:#F90000"/>
						<stop  offset="8.361662e-02" style="stop-color:#FB0000"/>
						<stop  offset="0.3727" style="stop-color:#FF3400"/>
						<stop  offset="0.4532" style="stop-color:#FF4200"/>
						<stop  offset="0.5547" style="stop-color:#FF4800"/>
						<stop  offset="0.6104" style="stop-color:#FF5200"/>
						<stop  offset="0.6964" style="stop-color:#FF6828"/>
						<stop  offset="0.8019" style="stop-color:#FF8751"/>
						<stop  offset="0.9217" style="stop-color:#FFAE80"/>
						<stop  offset="1" style="stop-color:#FCCBA4"/>
					</linearGradient>
					<path class="st30" d="M84.7,106.7c-1.4-0.3-4.2-4.2-6.8-4.6c-2.4-0.3-4.1,1.4-5.6,1.7c-1.2,0.3-3.2,0.5-4.4-0.2
						c-1.5-1-2.9-4.9-2.9-4.9c0,0.2,0,0.2,0,0.3c0.7,3.9,1.7,5.4,3.2,5.8c0.7,0,1.4,0,2,0c1.2-0.2,2.7-0.8,4.2-1.4
						c5.1-1.7,4.7-0.7,10,5.6c0.2,0.2,0.3,0.3,0.3,0.5c0.7,0.7,1.2,1.2,1.5,1.5C84.8,109.1,86,106.9,84.7,106.7z"/>
					
						<linearGradient id="SVGID_27_" gradientUnits="userSpaceOnUse" x1="-32.2363" y1="91.3829" x2="-7.918" y2="76.4835" gradientTransform="matrix(1.0594 -0.169 -0.1812 -1.1361 109.8869 197.1612)">
						<stop  offset="0" style="stop-color:#F90000"/>
						<stop  offset="8.361662e-02" style="stop-color:#FB0000"/>
						<stop  offset="0.3727" style="stop-color:#FF3400"/>
						<stop  offset="0.4532" style="stop-color:#FF4200"/>
						<stop  offset="0.5547" style="stop-color:#FF4800"/>
						<stop  offset="0.6104" style="stop-color:#FF5200"/>
						<stop  offset="0.6964" style="stop-color:#FF6828"/>
						<stop  offset="0.8019" style="stop-color:#FF8751"/>
						<stop  offset="0.9217" style="stop-color:#FFAE80"/>
						<stop  offset="1" style="stop-color:#FCCBA4"/>
					</linearGradient>
					<path class="st31" d="M86.7,111.1c0.2,0.2,0.3,0.3,0.5,0.3C87,111.4,86.9,111.3,86.7,111.1z"/>
				</g>
				<g>
					
						<linearGradient id="SVGID_28_" gradientUnits="userSpaceOnUse" x1="-0.4572" y1="108.7327" x2="-6.1015" y2="123.2706" gradientTransform="matrix(1.0594 -0.169 -0.1812 -1.1361 109.8869 197.1612)">
						<stop  offset="0" style="stop-color:#F90000"/>
						<stop  offset="0.9892" style="stop-color:#FF4500"/>
					</linearGradient>
					<path class="st32" d="M93.1,74.7c-0.8-3.7-3.4-6.6-5.2-6.9c-0.8-1.7-2.4-3.9-3.4-5.2c-0.3,0.2-0.5,0.3-0.8,0.5
						c-0.7,0.7-1.5,1-2.4,1.5c1.5,0.8,3.4,2.2,4.4,3C87.7,69.3,90.2,73.2,93.1,74.7z"/>
					
						<linearGradient id="SVGID_29_" gradientUnits="userSpaceOnUse" x1="1.1574" y1="116.5305" x2="4.3073" y2="116.5305" gradientTransform="matrix(1.0594 -0.169 -0.1812 -1.1361 109.8869 197.1612)">
						<stop  offset="0" style="stop-color:#F90000"/>
						<stop  offset="0.9892" style="stop-color:#FF4500"/>
					</linearGradient>
					<path class="st33" d="M89.7,62.2L89.7,62.2c1,2.2,2.5,4.9,3.9,6.1c-0.2-1.9-0.3-5.9-1-8.5C89.2,60.2,91.1,61.4,89.7,62.2z"/>
					
						<linearGradient id="SVGID_30_" gradientUnits="userSpaceOnUse" x1="-19.5338" y1="94.7681" x2="-18.1676" y2="99.3927" gradientTransform="matrix(1.0594 -0.169 -0.1812 -1.1361 109.8869 197.1612)">
						<stop  offset="0" style="stop-color:#F90000"/>
						<stop  offset="0.9892" style="stop-color:#FF4500"/>
					</linearGradient>
					<path class="st34" d="M72.6,88.1c-0.7-0.5-5.9-1-8.8-3c0,0.5-0.2,1.2-0.2,1.7c1.9,2,5.2,5.2,6.4,4.9c1.7-0.7,3,0.2,4.9,0.8
						c1.7,0.7,5.2,0.7,5.9,1.4C78.2,90.6,73.3,88.8,72.6,88.1z"/>
					
						<linearGradient id="SVGID_31_" gradientUnits="userSpaceOnUse" x1="-22.3768" y1="89.486" x2="-23.0364" y2="94.1026" gradientTransform="matrix(1.0594 -0.169 -0.1812 -1.1361 109.8869 197.1612)">
						<stop  offset="0" style="stop-color:#F90000"/>
						<stop  offset="0.9892" style="stop-color:#FF4500"/>
					</linearGradient>
					<path class="st35" d="M64.7,95.4c0.2,1,0.3,2.2,0.7,3.4c1.4-0.2,3-0.3,3.4-0.8c0.7-0.8,3,0,4.7-1.7c-1.5-0.2-2.9-0.3-4.2-0.8
						C68.2,94.9,66,95,64.7,95.4z"/>
				</g>
				
					<radialGradient id="SVGID_32_" cx="14.7289" cy="77.7675" r="50.6773" gradientTransform="matrix(1.0594 -0.169 -0.1812 -1.1361 109.8869 197.1612)" gradientUnits="userSpaceOnUse">
					<stop  offset="0" style="stop-color:#5F0000"/>
					<stop  offset="9.107846e-02" style="stop-color:#790000"/>
					<stop  offset="0.2199" style="stop-color:#9B0000"/>
					<stop  offset="0.3546" style="stop-color:#BB0000"/>
					<stop  offset="0.4946" style="stop-color:#D50000"/>
					<stop  offset="0.6424" style="stop-color:#E80000"/>
					<stop  offset="0.803" style="stop-color:#F40000"/>
					<stop  offset="1" style="stop-color:#F90000"/>
				</radialGradient>
				<path class="st36" d="M108.3,84.6c-2-5.9-2.4-20-2.2-23.3c0.2-1.7,0.8-3-1-2.7c-1.2,0.2-2.5,1.5-3.6,2.2c-2,1-3.4,0.5-5.4,1
					c-0.5,0.2-0.5,0.8-0.8,0.8c-0.5,0.2-1-0.3-1.4-0.3c-0.8,0-2.4-0.3-2.9,0.7c-0.8,1.7,2.9,2.9,1.5,4.9c-2.5-2-5.9,0.3-8.6,0.7
					c0,0.5-0.3,0.8-0.3,1.2c-1.7-0.7-3-2.2-4.9-2.4c-1.7,0-2.7,1.2-4.2,1.7c-0.5,0.2-1,0.3-1.7,0.3c-0.2,0.5-0.3,1-1,1.7
					c0.7,0.5,1.4,1.2,1.5,1.2c0.5,0.2,2.9,4.6,1.4,3.4c-1-0.8-3.6-2-5.1-2.7c-0.7,0.7-1.2,1.4-1.7,2.2l4.7,1.9c0,0,2.9,3.4,1.5,2.5
					c-0.8-0.5-5.1-1-7.9-1.2c-0.2,0.5-0.5,1-0.7,1.5c1.4,1.2,3,3,3.9,4.9c1.4,2.5,4.4,1.5,6.1,3s4.4,5.4,5.9,9.3
					c1.7,3.9,5.9,3.4,9.6,8.5c3.6,5.1,5.4,1.9,8.5,0c3-1.7,12.9-1,12.9-1c0.3-1.4,0.5-2.9,0.7-4.4C111.9,95.4,109.7,88.3,108.3,84.6
					z"/>
				
					<linearGradient id="SVGID_33_" gradientUnits="userSpaceOnUse" x1="100.3944" y1="227.192" x2="97.0451" y2="234.2431" gradientTransform="matrix(0.9997 2.356718e-02 2.356718e-02 -0.9997 -13.0941 294.1975)">
					<stop  offset="0" style="stop-color:#F90000"/>
					<stop  offset="8.361662e-02" style="stop-color:#FB0000"/>
					<stop  offset="0.3727" style="stop-color:#FF3400"/>
					<stop  offset="0.4766" style="stop-color:#FF4B00"/>
					<stop  offset="0.6542" style="stop-color:#FF631D"/>
					<stop  offset="0.8298" style="stop-color:#FF6F2D"/>
					<stop  offset="1" style="stop-color:#FF7232"/>
				</linearGradient>
				<path class="st37" d="M83.8,63.7c0.2-0.2,0.3-0.2,0.5-0.3c1.7-1,3.6-0.2,5.4-0.8c1.4-0.5,0.8-1.2,1.5-2c0.7-0.7,1.9-0.3,2.7-0.3
					c1,0,1.9-0.2,2.7-0.2c2,0,4.1-0.3,5.8-1.2c0.3-0.2,3.4-1.9,2.9-0.5c-0.3,1.4-3,2-4.2,2.4c-0.8,0.3-6.3,0.7-6.4,1.4
					c-0.5,1.7-3.9-0.2-3.2,2.2c0.5,1.5,2.9,1.7,2.2,3.9c-0.7,0.3-1.9-0.2-2.7-0.3c-1.2-0.2-2-0.2-3.2,0c-2,0.3-3.6,1.2-4.4,3.2h-0.5
					c-0.3-1.4-2.2-2.9-3.4-3.4c-1.7-0.8-3.6,0.7-5.4,0c0.8-1.2,3.7-1.9,5.1-2.2C80.8,65.3,82.3,64.6,83.8,63.7z"/>
				
					<linearGradient id="SVGID_34_" gradientUnits="userSpaceOnUse" x1="103.1025" y1="212.503" x2="98.2192" y2="208.371" gradientTransform="matrix(0.9997 2.356718e-02 2.356718e-02 -0.9997 -13.0941 294.1975)">
					<stop  offset="0" style="stop-color:#C20000"/>
					<stop  offset="0.4795" style="stop-color:#E10000"/>
					<stop  offset="1" style="stop-color:#FF0000"/>
				</linearGradient>
				<path class="st38" d="M105.8,98.3c-1.5-1.4-2.7-3-4.1-4.7c-2.5-3.2-5.6-5.6-7.9-9c-2.2-3.4-4.7-6.3-7.3-9.5
					c-2.5-3.4-3.7-7.3-8.5-7.8c-1.4-0.2-2.7-0.7-3.7,0.7c1.5,1.4,3.7,1.4,5.2,2.4c2,1.5,2.2,3.9,3.6,6.1c2.5,4.2,6.4,7.4,9.1,11.5
					c2.2,3.4,5.2,5.9,8.3,8.3c3,2.4,5.9,5.6,9.5,6.9c0.5,0.2,1.2,0.3,1.7,0.5C110.5,103.3,107,99.3,105.8,98.3z"/>
				
					<linearGradient id="SVGID_35_" gradientUnits="userSpaceOnUse" x1="93.6416" y1="215.5295" x2="90.2608" y2="208.58" gradientTransform="matrix(0.9997 2.356718e-02 2.356718e-02 -0.9997 -13.0941 294.1975)">
					<stop  offset="0" style="stop-color:#C20000"/>
					<stop  offset="0.4795" style="stop-color:#E10000"/>
					<stop  offset="1" style="stop-color:#FF0000"/>
				</linearGradient>
				<path class="st39" d="M88.7,90.5c-2.4-2.4-3.9-5.2-5.8-7.9c-1.4-1.9-2.4-4.7-4.4-5.9c-1.2-0.7-2.4-1-3.7-1.9
					c-1-0.7-2.5-1.5-3.7-1.5c-0.5,0-1,0-1.5,0.2c1.5,2,3.9,3.2,5.6,5.4c1.9,2.5,4.6,3.9,7.1,5.9c1.4,1.2,2,2.4,3,3.7
					c1,1.2,2.4,2.2,3.6,3.2c1.9,1.7,4.4,3.4,6.8,4.6c0.5,0.3,1,0.7,1.5,0.8c-1-1.2-2.7-1.7-3.9-2.7C91.4,93.3,90.1,92,88.7,90.5z"/>
			</g>
			<g>
				
					<linearGradient id="SVGID_36_" gradientUnits="userSpaceOnUse" x1="-79.8495" y1="354.5558" x2="-50.4865" y2="343.3445" gradientTransform="matrix(1.3612 0.3519 0.2371 -0.9171 137.5402 451.7437)">
					<stop  offset="0" style="stop-color:#5F0000"/>
					<stop  offset="0.1022" style="stop-color:#610000"/>
					<stop  offset="0.1875" style="stop-color:#6A0000"/>
					<stop  offset="0.2668" style="stop-color:#780000"/>
					<stop  offset="0.3423" style="stop-color:#8E0000"/>
					<stop  offset="0.4152" style="stop-color:#AD0000"/>
					<stop  offset="0.4852" style="stop-color:#D60000"/>
					<stop  offset="0.5312" style="stop-color:#F90000"/>
					<stop  offset="0.8441" style="stop-color:#FF4800"/>
					<stop  offset="0.8897" style="stop-color:#FF3D00"/>
					<stop  offset="0.9599" style="stop-color:#FC0A00"/>
					<stop  offset="1" style="stop-color:#F90000"/>
				</linearGradient>
				<path class="st40" d="M112.6,103.7c0,0,5.8-1.7,12.2-3.2c6.4-1.5,13.7-2.9,15.6-4.2c3.9-3.2,11.3-5.9,12.9-6.3
					c1.5-0.3,0.2-1.4,4.2-0.3c4.1,1,3,1.4,1.5,2c-1.5,0.8-1.4,3.7-0.7,5.4c0.8,1.5,0,8.8-4.9,10.1c-4.9,1-16.1,3.4-17.8,5.8
					c-1.9,2.2-6.9,6.3-6.9,6.4c-0.2,0-13.4,0.7-14.4,2.2c-1,1.5,0.3,3.4,1.2,5.8c0.8,2.4,1.2,8.8-2.5,4.7c-3.7-4.1-4.2-6.9-2.4-9.1
					c1.9-2.2,1-2.7,1.4-4.7c0.2-2,2.2-3.9,3-7.3C116.3,107.6,112.6,103.7,112.6,103.7z"/>
				
					<linearGradient id="SVGID_37_" gradientUnits="userSpaceOnUse" x1="-48.758" y1="372.4738" x2="-55.3387" y2="374.1974" gradientTransform="matrix(1.3612 0.3519 0.2371 -0.9171 137.5402 451.7437)">
					<stop  offset="0" style="stop-color:#5F0000"/>
					<stop  offset="0.3322" style="stop-color:#F90000"/>
					<stop  offset="0.8441" style="stop-color:#FF4800"/>
					<stop  offset="0.8897" style="stop-color:#FF3D00"/>
					<stop  offset="0.9599" style="stop-color:#FC0A00"/>
					<stop  offset="1" style="stop-color:#F90000"/>
				</linearGradient>
				<path class="st41" d="M160.4,90.5c0,0-0.5-0.2-1.4-0.3c-0.3-0.2-0.8-0.3-1.5-0.5c-0.3,0-0.7-0.2-1-0.2c-0.3,0-0.7-0.2-1-0.2
					c-0.3,0-0.5,0-0.7,0.2c-0.2,0.2,0,0.3,0,0.5c0.2,0.3,0.5,0.8,0.8,1.4c0.7,1,1.5,2.2,2,3.4c0,0.2,0.2,0.3,0.2,0.5
					c-0.2-1.5,0-3,1-3.6C160.1,91.1,160.8,91,160.4,90.5z"/>
				
					<linearGradient id="SVGID_38_" gradientUnits="userSpaceOnUse" x1="-69.8384" y1="329.1576" x2="-79.2534" y2="317.9908" gradientTransform="matrix(1.3612 0.3519 0.2371 -0.9171 137.5402 451.7437)">
					<stop  offset="0" style="stop-color:#5F0000"/>
					<stop  offset="0.3322" style="stop-color:#F90000"/>
					<stop  offset="0.8441" style="stop-color:#FF4800"/>
					<stop  offset="0.8897" style="stop-color:#FF3D00"/>
					<stop  offset="0.9599" style="stop-color:#FC0A00"/>
					<stop  offset="1" style="stop-color:#F90000"/>
				</linearGradient>
				<path class="st42" d="M114.8,121.6c0,0,0.2-0.2,0.3-0.2c-0.7,0.3-1.5,0.7-2.2,1.2c-0.5,0.3-1,0.7-1.5,1.2
					c-0.2,0.2-0.5,0.3-0.7,0.7c-0.2,0.2-0.2,0.2-0.3,0.3c0,0-0.2,0.2-0.2,0.3c-0.3,1.7,0.3,3.7,2.4,6.3c0.7,0.7,1.4,1.4,1.7,1.7
					c0.5,0.3,0.7,0.5,0.7,0.7c2,0.8,1.7-4.1,1-5.9C115.1,125,113.6,122.9,114.8,121.6z"/>
				
					<linearGradient id="SVGID_39_" gradientUnits="userSpaceOnUse" x1="-77.4028" y1="347.5749" x2="-47.703" y2="347.5749" gradientTransform="matrix(1.3612 0.3519 0.2371 -0.9171 137.5402 451.7437)">
					<stop  offset="0" style="stop-color:#FF734F"/>
					<stop  offset="3.089669e-02" style="stop-color:#FF6F48"/>
					<stop  offset="0.1642" style="stop-color:#FF5E29"/>
					<stop  offset="0.297" style="stop-color:#FF4F01"/>
					<stop  offset="0.4279" style="stop-color:#FF4600"/>
					<stop  offset="0.5547" style="stop-color:#FF4200"/>
					<stop  offset="0.6422" style="stop-color:#FF4B00"/>
					<stop  offset="0.7774" style="stop-color:#FD5D25"/>
					<stop  offset="0.9423" style="stop-color:#F4744D"/>
					<stop  offset="1" style="stop-color:#F17C59"/>
				</linearGradient>
				<path class="st43" d="M114.9,133.3c0,0-0.3-0.2-0.7-0.5c-0.5-0.3-1.2-1-2-1.9c-0.3-0.3-0.8-0.8-1.2-1.4c-0.3-0.5-0.8-1.2-1.2-2
					c-0.2-0.3-0.3-0.8-0.3-1.4c0-0.2,0-0.5,0-0.7c0-0.3,0.2-0.5,0.3-0.8c0-0.2,0.2-0.3,0.3-0.3c0.2-0.2,0.2-0.2,0.3-0.3
					c0.2-0.2,0.5-0.5,0.7-0.7c0.5-0.3,1-0.8,1.5-1.2c1.2-0.7,2.4-1.4,3.7-1.9c1.4-0.5,2.9-0.7,4.4-0.8c0.8,0,1.5,0,2.4,0
					c0.3,0,0.8,0,1.2,0c0.3,0,0.8,0,1.2,0c0.3,0,0.8,0,1.2,0c0.3,0,0.8,0,1.2-0.2c0.3,0,0.8-0.2,1.2-0.3c0.3-0.2,0.7-0.3,1-0.5
					c0.5-0.5,1-1,1.5-1.5c0.5-0.5,1-1,1.5-1.5c1-1,1.9-2,3-2.9c1.2-0.8,2.7-1.7,4.2-2.2c1.5-0.7,3.2-1.2,4.9-1.5
					c1.7-0.5,3.4-0.8,5.1-1.2c0.8-0.2,1.7-0.3,2.4-0.5c0.3-0.2,0.7-0.2,1-0.3c0.3-0.2,0.7-0.2,1-0.3c1.2-0.5,1.9-1.2,2.4-1.9
					c0.5-0.7,0.7-1.4,1-2.2c0.3-1.4,0.5-2.7,0.5-4.1c0-1.4-0.3-2.5-0.8-3.7c-0.3-0.7-0.5-1.2-0.8-1.7c-0.3-0.5-0.7-1.2-1-1.7
					c-0.3-0.5-0.7-1-0.8-1.4c0-0.2-0.2-0.3,0-0.5c0.2-0.2,0.5-0.2,0.8-0.2c0.3,0,0.7,0.2,1,0.2c0.3,0.2,0.7,0.2,1,0.3
					c0.7,0.2,1.2,0.3,1.5,0.5c0.8,0.3,1.4,0.3,1.4,0.3s-0.5-0.2-1.4-0.3c-0.3-0.2-0.8-0.3-1.5-0.5c-0.3,0-0.7-0.2-1-0.2
					s-0.7-0.2-1-0.2c-0.3,0-0.5,0-0.7,0.2c-0.2,0.2,0,0.3,0,0.5c0.2,0.3,0.5,0.8,0.8,1.4c0.7,1,1.5,2.2,2,3.4c0.5,1.2,0.8,2.5,1,3.7
					c0.2,1.4,0,2.7-0.3,4.1c-0.2,0.3-0.2,0.7-0.3,1c-0.2,0.3-0.3,0.7-0.5,1c-0.2,0.3-0.5,0.7-0.8,1c-0.3,0.3-0.8,0.7-1.5,1
					c-0.3,0.2-0.7,0.3-1,0.3c-0.3,0.2-0.7,0.2-1.2,0.3c-0.8,0.2-1.7,0.3-2.5,0.5c-1.7,0.3-3.4,0.7-5.1,1.2c-1.7,0.5-3.4,1-4.9,1.5
					c-1.5,0.7-3,1.4-4.2,2.2c-1.2,0.8-2,1.9-3,2.9c-0.5,0.5-1,1-1.5,1.5s-1,1-1.7,1.5c-0.3,0.2-0.7,0.5-1.2,0.7
					c-0.5,0.2-0.8,0.3-1.4,0.3c-0.5,0-0.8,0.2-1.4,0.2c-0.3,0-0.8,0-1.2,0c-0.8,0-1.5,0-2.4-0.2c-0.7,0-1.5,0-2.2,0
					c-1.5,0.2-2.9,0.3-4.2,0.8c-1.4,0.5-2.5,1-3.7,1.7c-0.5,0.3-1,0.7-1.5,1.2c-0.2,0.2-0.5,0.3-0.7,0.7c-0.2,0.2-0.2,0.2-0.3,0.3
					c-0.2,0.2-0.2,0.2-0.2,0.3c-0.3,0.5-0.3,0.8-0.3,1.4c0,0.5,0.2,0.8,0.3,1.2c0.3,0.7,0.7,1.4,1,2c0.3,0.5,0.8,1,1.2,1.5
					c0.8,0.8,1.5,1.5,1.9,1.9C114.6,133.1,114.9,133.3,114.9,133.3z"/>
				
					<linearGradient id="SVGID_40_" gradientUnits="userSpaceOnUse" x1="-49.4195" y1="375.2496" x2="-58.8868" y2="355.6086" gradientTransform="matrix(1.3612 0.3519 0.2371 -0.9171 137.5402 451.7437)">
					<stop  offset="0" style="stop-color:#FF7232"/>
					<stop  offset="0.1702" style="stop-color:#FF6F2D"/>
					<stop  offset="0.3458" style="stop-color:#FF631D"/>
					<stop  offset="0.5234" style="stop-color:#FF4B00"/>
					<stop  offset="0.6273" style="stop-color:#FF3400"/>
					<stop  offset="0.9164" style="stop-color:#FB0000"/>
					<stop  offset="1" style="stop-color:#F90000"/>
				</linearGradient>
				<path class="st44" d="M154.8,89.8c0-0.2-5.9,1.4-8.3,2.7c-2.4,1.2-4.4,4.7-5.8,5.6c-1.4,0.7-9.3,5.2-2.7,4.2c6.6-1,9.1-2.2,13-2
					c3.9,0.2,6.8-0.5,7.3-0.8C159.1,99.1,160.1,94.4,154.8,89.8z"/>
				
					<linearGradient id="SVGID_41_" gradientUnits="userSpaceOnUse" x1="-67.007" y1="346.3749" x2="-78.4272" y2="324.5068" gradientTransform="matrix(1.3612 0.3519 0.2371 -0.9171 137.5402 451.7437)">
					<stop  offset="0" style="stop-color:#F90000"/>
					<stop  offset="8.361662e-02" style="stop-color:#FB0000"/>
					<stop  offset="0.3727" style="stop-color:#FF3400"/>
					<stop  offset="0.4766" style="stop-color:#FF4B00"/>
					<stop  offset="0.6542" style="stop-color:#FF631D"/>
					<stop  offset="0.8298" style="stop-color:#FF6F2D"/>
					<stop  offset="1" style="stop-color:#FF7232"/>
				</linearGradient>
				<path class="st45" d="M112.6,122.3c0,0,5.8-2.7,8.1-2.7c2.4,0,4.9,0.8,6.9-0.2c2-0.8,5.4-3.9,1.7-5.6
					c-3.9-1.7-11.2-4.4-13.7-1.9c-2.5,2.5-2.5,5.1-1.4,6.4C115.4,119.4,114.3,121.1,112.6,122.3z"/>
				
					<linearGradient id="SVGID_42_" gradientUnits="userSpaceOnUse" x1="-64.177" y1="352.6588" x2="-54.7222" y2="346.8141" gradientTransform="matrix(1.3612 0.3519 0.2371 -0.9171 137.5402 451.7437)">
					<stop  offset="0" style="stop-color:#F90000"/>
					<stop  offset="8.361662e-02" style="stop-color:#FB0000"/>
					<stop  offset="0.3727" style="stop-color:#FF3400"/>
					<stop  offset="0.4766" style="stop-color:#FF4B00"/>
					<stop  offset="0.6542" style="stop-color:#FF631D"/>
					<stop  offset="0.8298" style="stop-color:#FF6F2D"/>
					<stop  offset="1" style="stop-color:#FF7232"/>
				</linearGradient>
				<path class="st46" d="M135.9,112.6c0,0,3.9-2.9,11.3-4.7c-3.9-2-6.9-1.4-9.3-1.2c-2.5-0.2-8.3,3.7-8.3,3.9
					C134.7,109.8,136.7,111.3,135.9,112.6z"/>
				
					<linearGradient id="SVGID_43_" gradientUnits="userSpaceOnUse" x1="-70.1197" y1="350.2573" x2="-42.869" y2="370.4076" gradientTransform="matrix(1.3612 0.3519 0.2371 -0.9171 137.5402 451.7437)">
					<stop  offset="0" style="stop-color:#DF0000"/>
					<stop  offset="0.9892" style="stop-color:#FF3D00"/>
				</linearGradient>
				<path class="st47" d="M134.9,98.4c2-0.7,4.2-1.4,6.1-2c1.4-0.7,2.2-2,4.2-1.9c-0.7,1.2-2.7,2.4-4.1,3.7c-1.2,1-3.7,2.7-4.2,4.1
					c-0.8,2.5,4.2,0,5.4-0.5c1.4-0.7,3.4-2.4,5.9-1.7c-0.2,0.3-0.2,0.8-0.5,1c3-0.3,5.2-1.9,8.6-1.5c-1.5,1-3.9,2-5.4,3.4
					c0.7,0,1.7,0.2,2.4,0c-0.3,0.7-2.5,0.5-3.6,1c0.7,0,1.5,0.3,2.2,0.3c-2.7,1-8.3,1.4-11.8,2c3.2,0.7,5.9-0.5,9-0.2
					c-0.8,0.8-3,0.8-4.6,1.4c0.5,0.3,0.7,0.8,1,1.2c-2.4,0.3-5.6-1.2-8.1-0.8c-2.2,0.3-3.7,1.7-5.8,2.2c-0.3-1.4-0.2-4.1-2.2-4.9
					c-2.4-1-5.2-0.2-7.6-0.3c0.7-1.2,3-2,4.6-2.7C129,100.6,131.7,99.3,134.9,98.4z"/>
			</g>
			
				<radialGradient id="SVGID_44_" cx="125.3598" cy="195.1019" r="10.6863" gradientTransform="matrix(0.9997 2.356718e-02 2.356718e-02 -0.9997 -13.0941 294.1975)" gradientUnits="userSpaceOnUse">
				<stop  offset="0" style="stop-color:#000000"/>
				<stop  offset="0.1071" style="stop-color:#050505"/>
				<stop  offset="0.2308" style="stop-color:#131313"/>
				<stop  offset="0.3628" style="stop-color:#2A2A2A"/>
				<stop  offset="0.5006" style="stop-color:#4A4A4A"/>
				<stop  offset="0.6429" style="stop-color:#747474"/>
				<stop  offset="0.789" style="stop-color:#A7A7A7"/>
				<stop  offset="0.9354" style="stop-color:#E2E2E2"/>
				<stop  offset="1" style="stop-color:#FFFFFF"/>
			</radialGradient>
			<path class="st48" d="M122.7,99.4c-0.3-0.8-1.2-1.4-1.7-2.4c-0.8-2.4-1.9-3.2-4.7-2.9c-2.5,0.3-4.6,0.7-5.8,3
				c-0.5,1.2-1,2-0.5,3.2c0.5,1.2,1.7,1.5,1.5,2.9c-1,0.3-2,0.7-3,1.4c0.2,0.8,1,1,1.5,1.7c0.5,0.7,0.5,1.7,1,2.2
				c0.3,0.3,1.7,1,2,1.2c0.8,0.7,0.8,1.2,2.4,0.8c0,0.7,0,1.5,0,2.2c2.4,0.5,2.9-3.2,4.7-3.9c1-0.3,2,0.2,2.9,0c1.7-0.3,0.8-1,1.9-2
				c1.4-1.5,3.4-1.2,2.5-4.1c-0.5-2-1.5-0.8-2.9-0.5C121.9,102.8,123.6,101.3,122.7,99.4z"/>
			<g>
				<path class="st49" d="M129.8,102.1c-1.2,0.2-2.4,0.5-3.6,1c-1.2,0.3-2.5,0.7-3.9,0.8c-1.2,0.2-2.4,0.2-3.6,0.2
					c-0.2,0-0.2,0-0.3,0c0-0.3-0.2-0.5-0.2-0.8c0.5,0,1.2-0.2,1.7-0.2c1.2,0,2.2-0.2,3.4-0.3c2-0.5,3.9-1.7,5.2-3.4l0,0
					c-1.4,1.5-3.2,2.7-5.2,3.2c-1,0.3-2.2,0.3-3.2,0.3c-0.5,0-1.2,0.2-1.7,0.2l0,0c0.5-0.2,1.2-0.5,1.7-0.8c0.8-0.3,1.7-0.7,2.5-1.2
					c0.8-0.5,1.9-1,2.7-1.5c0.8-0.5,1.9-1,2.5-1.7l0,0c-0.8,0.7-1.7,1.2-2.5,1.7c-0.8,0.5-1.9,1-2.7,1.5c-0.7,0.3-1.4,0.7-2.2,1
					c0.5-0.3,1-0.8,1.4-1.2c0.8-0.8,1.7-1.7,2.5-2.5c0.5-0.5,1-1,1.5-1.5c0.3-0.3,0.5-0.5,0.8-0.8c0.2-0.3,0.5-0.5,0.7-0.7l0,0
					c-0.5,0.2-0.8,0.7-1.2,1c-0.5,0.5-1,1-1.5,1.5c-0.8,0.8-1.7,1.9-2.5,2.7c-0.7,0.7-1.4,1.2-2,1.7H120c-1,0.3-1.9,0.5-2.9,0.7l0,0
					c1.9-1.4,3.7-2.5,5.2-4.2c0.8-0.8,1.5-1.7,2.2-2.7c0.7-0.8,1.4-1.9,2.2-2.5l0,0c-0.8,0.7-1.5,1.7-2.2,2.5
					c-0.7,0.8-1.4,1.7-2.2,2.5c-1.5,1.7-3.6,2.9-5.4,4.4l-0.2-0.2c0.7-0.7,1.4-1.5,2-2.2c0.8-0.8,1.5-1.7,2.4-2.5
					c1.5-1.7,2.9-3.6,4.1-5.6l0,0c-1.2,2-2.7,3.9-4.2,5.6c-0.7,0.8-1.5,1.7-2.4,2.5c-0.7,0.8-1.5,1.5-2.2,2.4
					c-0.2,0-0.2-0.2-0.3-0.2c0.5-0.8,1-1.9,1.5-2.9c0.7-1.2,1.2-2.4,1.7-3.6c1-2.4,1.2-5.1,2.5-7.3l0,0c-0.7,1-1,2.2-1.4,3.4
					c-0.3,1.4-0.7,2.5-1.2,3.7c-0.5,1.2-1,2.4-1.7,3.6c-0.5,1-1.2,1.9-1.7,2.9c0-0.2,0-0.5,0.2-0.7c0.2-0.3,0.2-0.8,0.3-1.2
					c0.2-0.7,0.3-1.2,0.5-1.9c0.3-1.4,0.7-2.7,1-4.1c0.3-1.2,0.7-2.4,1-3.6c0.3-1.2,0.7-2.4,1.2-3.4l0,0c-0.5,1-0.8,2.2-1.2,3.2
					c-0.3,1.2-0.7,2.4-1,3.6c-0.3,1.4-0.7,2.7-1.2,4.1c-0.2,0.3-0.2,0.7-0.3,1c0-0.2,0-0.2,0-0.3c0.2-1.4,0.3-2.7,0.3-4.1
					c0-0.7,0.2-1.2,0.2-1.9c0-0.7,0-1.4,0-1.9c0-1.4,0-2.7,0.7-3.9l0,0c-0.5,1.2-0.7,2.4-0.7,3.6c0,0.7,0,1.4,0,2
					c0,0.7-0.2,1.2-0.2,1.9c-0.2,1.4-0.2,2.7-0.3,4.1c0,0.5-0.2,1-0.2,1.4c0,0.2,0,0.3-0.2,0.5c0-0.5,0-1.2,0-1.7
					c0-1.2-0.2-2.2-0.2-3.4c-0.2-2.5-0.5-5.1-0.5-7.6l0,0c0,2.5,0.3,5.1,0.5,7.4c0,1.2,0.2,2.2,0.2,3.4c0,0.5,0,1,0,1.7
					c0,0.2,0,0.5,0,0.7c0,0.3-0.2,0.5-0.2,0.8c0,0.2-0.2,0.5-0.2,0.7l0,0c0.2-0.3,0.2-0.5,0.3-0.8c0,0.2,0,0.2,0,0.3l0,0
					c0,0.2-0.2,0.2-0.2,0.3l0,0c0,0,0.2-0.2,0.2-0.3l0,0l0,0c0,0,0,0,0-0.2l0.2,0.2l-0.2,0.2l0,0l0.2-0.2l0.2,0.2l0,0l-0.2,0.2l0,0
					l0.2-0.2l0,0c0.2,0.2,0.3,0.2,0.3,0.3c-0.2,0-0.2,0-0.3,0l0,0l0,0l0,0l0,0l0.2,0.2h-0.2l0,0l0,0l0,0c-0.2,0-0.5,0-0.7,0.2
					c-0.2,0-0.3,0-0.5,0l0,0h-0.2c-0.2-0.2-0.2-0.3-0.3-0.5c0.2,0.2,0.3,0.3,0.5,0.3l0,0c-0.2,0-0.2-0.2-0.3-0.2l0,0l0,0
					c-0.2-0.2-0.3-0.2-0.5-0.3c-0.5-1.4-0.8-2.9-1.2-4.2c-0.7-2.7-1.5-5.2-1.7-8.1l0,0c0.2,2.7,1,5.4,1.7,8.1
					c0.3,1.2,0.5,2.2,0.8,3.4c0,0.2,0.2,0.3,0.2,0.5c-0.3-0.5-0.5-1.2-0.8-1.7c-0.5-1.2-0.8-2.2-1.4-3.4c-0.8-2.2-1.9-4.4-2-6.8l0,0
					c0.2,2.4,1.2,4.7,2,6.9c0.5,1.2,1,2.4,1.4,3.6c0.2,0.3,0.3,0.7,0.5,1.2c-0.5-0.5-0.8-1-1.2-1.5c-0.8-1-1.5-2-2.2-3.2
					c-0.7-1-1.2-2.2-1.7-3.2c-0.5-1.2-1-2.4-1.2-3.6l0,0c0,1.2,0.5,2.4,1,3.4c0.5,1.2,1.2,2.2,1.7,3.4c0.7,1.2,1.4,2.2,2.2,3.4
					c0.3,0.5,0.8,1,1.2,1.5c-0.7-0.5-1.4-1-1.9-1.7c-0.2-0.2-0.3-0.3-0.5-0.5c-0.7-0.8-1.5-1.7-2.2-2.5c-1.5-2-2.9-4.2-3.7-6.8l0,0
					c0.8,2.5,2.2,4.7,3.7,6.8c0.3,0.5,0.7,0.8,1,1.4c-0.5-0.5-1-1-1.5-1.7c-1.7-1.9-2.7-4.4-4.7-5.9l0,0c1,0.8,1.9,1.9,2.5,2.9
					c0.7,1,1.4,2,2.2,3c0.8,0.8,1.7,1.7,2.5,2.5c1,1.2,2.2,2.2,3.4,3.2l0,0c-0.5-0.5-1.2-1-1.7-1.7c0.5,0.3,0.8,0.8,1.4,1.2
					c0.2,0.2,0.2,0.3,0.3,0.3c0,0.2,0.2,0.2,0.2,0.3c-0.2,0-0.2,0-0.3,0l0,0c0.2,0,0.2,0.2,0.3,0.2v0.2c0,0,0,0-0.2,0
					c-1-0.7-2-1.4-2.9-2c-1-0.8-2.2-1.5-3-2.5c-2-1.9-3.4-4.2-5.1-6.4l0,0c1.7,2.2,3,4.6,5.1,6.4c1,0.8,2,1.7,3,2.5
					c0.8,0.5,1.5,1.2,2.4,1.7c-0.5,0-1.2,0-1.7-0.2c-1.5-0.8-2.7-2-3.9-3.2c-1-1-2-2-3-3c-0.7-0.7-1.4-1.2-1.9-1.7
					c-0.5-0.5-1.2-1-1.5-1.7l0,0c0.3,0.7,0.8,1,1.4,1.5c0.7,0.7,1.4,1.2,1.9,1.7c1,1,2,2,3,3c0.8,1,1.9,1.9,2.9,2.7
					c0.2,0.2,0.5,0.3,0.7,0.5c0,0,0,0-0.2,0c-0.2-0.2-0.3-0.2-0.5-0.3c-1.2-0.8-2.4-1.5-3.6-2.4c-1.2-0.7-2.4-1.5-3.6-2.2
					c-0.5-0.3-1.2-0.7-1.7-1c-0.5-0.3-1.2-0.7-1.7-1l0,0c0.3,0.5,0.8,0.7,1.5,1c0.7,0.3,1.2,0.7,1.9,1c1.2,0.7,2.4,1.5,3.6,2.2
					c1.2,0.8,2.5,1.5,3.7,2.4l0,0c-0.2,0-0.3-0.2-0.5-0.2c-0.2,0-0.3,0-0.5-0.2c-1-0.3-1.9-0.8-2.9-1.4c-1.2-0.5-2.4-0.8-3.7-1.2
					c-1.2-0.3-2.5-0.3-3.9-0.5l0,0c2.7,0.2,5.4,0.7,7.8,1.9c0.7,0.3,1.4,0.7,2,1c-0.8-0.2-1.7-0.2-2.4-0.3c-1-0.2-2-0.2-3.2-0.2
					c-1,0-2,0-3,0.5l0,0c1-0.3,2-0.5,3-0.5c1,0,2.2,0.2,3.2,0.3c1,0.2,1.9,0.2,2.9,0.5c0.3,0.2,0.8,0.3,1.2,0.5h0.2
					c0.5,0.3,1.2,0.8,1.9,1.2c0,0,0,0,0,0.2c-0.5,0.2-0.8,0.2-1.4,0.2c-1.2,0.2-2.5-0.2-3.7-0.3c-2.2-0.3-4.6-0.3-6.6,0.3l0,0
					c1.2-0.2,2.2-0.5,3.4-0.5s2.4,0,3.7,0.2c1.2,0.2,2.4,0.3,3.6,0.3c0.3,0,0.7-0.2,1-0.2c-0.3,0.3-0.7,0.7-1,1
					c-0.5,0.2-1,0.3-1.5,0.5c-1,0.2-2,0-3.2,0.2c-1,0.2-2,0.2-3,0.3c-0.8,0.2-1.9,0.3-2.5,1l0,0c0.8-0.7,1.9-0.8,2.9-1
					c0.5,0,1-0.2,1.5-0.2s1-0.2,1.5-0.2c0.8,0,1.7,0,2.5-0.2l0,0c-1,0.5-2,1-2.9,1.5c-0.8,0.5-1.9,0.8-2.7,1.2
					c-0.8,0.3-1.5,0.8-2,1.7l0,0c0.5-0.8,1.4-1.4,2.2-1.7c0.8-0.3,1.7-0.7,2.5-1.2c1-0.5,1.9-1,2.9-1.4c0.2,0,0.2-0.2,0.3-0.2
					c0.3,0,0.5,0,0.8-0.2c-1.2,0.8-2.5,1.5-3.7,2.4c-0.8,0.5-1.9,1.2-2.5,2c-0.7,0.7-1.4,1.5-1.5,2.5l0,0c0.2-1.2,1-2,1.7-2.7
					c0.8-0.7,1.7-1.4,2.7-1.9c1.2-0.8,2.5-1.5,3.7-2.4l0,0c0.3-0.2,0.7-0.3,1.2-0.5c0.2,0,0.3,0,0.3-0.2l0,0c0,0,0,0-0.2,0
					c0.3-0.2,0.7-0.3,0.8-0.5c0.2,0,0.2,0,0.3,0.2l0,0c0,0.2,0,0.2-0.2,0.3c-0.3,0.3-0.8,0.5-1.2,0.7c-1.2,0.7-2.4,1.4-3.4,2.2
					c-1,0.8-1.9,1.9-2.7,3c-0.8,1.2-1.4,2.4-1.5,3.7l0,0c0.2-1.4,0.8-2.7,1.7-3.7c0.8-1.2,1.9-2.2,2.9-3c1-0.8,2.2-1.5,3.4-2.2
					c0.3-0.2,0.7-0.3,0.8-0.5c-0.2,0.5-0.3,0.8-0.5,1.4c-0.2,0.2-0.3,0.3-0.5,0.5c-0.8,0.8-1.9,1.9-2.7,2.9
					c-0.7,0.8-1.2,1.9-1.7,2.9c-0.3,0.8-1,2-0.7,3l0,0c-0.2-1,0.3-2.2,0.8-3.2s1-2,1.9-2.9c0.8-1,1.9-1.9,2.7-2.9
					c-0.5,1.2-1,2.5-1.5,3.7c-0.8,2-1.4,4.6-0.5,6.8l0,0c-0.8-2.2-0.2-4.6,0.7-6.8c0.5-1.2,1-2.2,1.5-3.4c0-0.2,0.2-0.3,0.2-0.5
					c0.2-0.2,0.5-0.5,0.7-0.7c-0.2,0.5-0.3,0.8-0.5,1.4c-0.3,1.4-0.5,2.5-0.5,3.9c0,1,0.2,2.2,0.3,3.2c0.2,0.8,0.2,1.9,0.8,2.4l0,0
					c-0.7-0.7-0.8-1.7-0.8-2.5c-0.2-1-0.2-2-0.2-3.2c0-1.4,0.2-2.7,0.5-3.9c0.2-0.5,0.3-1,0.7-1.7c0-0.2,0.2-0.2,0.2-0.3
					c-0.2,1.5,0,3.2,0.3,4.9c0.3,1.9,0.7,3.6,1,5.4l0,0c-0.3-1.7-0.7-3.4-1-5.2c-0.2-0.8-0.2-1.9-0.3-2.7c0-0.8,0-1.5,0-2.4
					c0.2-0.3,0.3-0.7,0.5-1l0,0c0,0,0-0.2,0.2-0.2c0.3,0,0.8,0.2,1.2,0.2c0.2,0.2,0.5,0.3,0.7,0.5c0,0.2,0,0.3,0.2,0.5
					c-0.3-0.3-0.7-0.8-1.2-1l0,0c0.5,0.3,0.8,0.7,1.2,1.2c0.2,0.8,0.3,1.7,0.5,2.7c0.2,0.8,0.5,1.7,0.8,2.5c0.3,0.8,0.8,1.5,1.4,2.4
					l0,0c-0.3-0.8-0.8-1.5-1.2-2.4c-0.3-0.8-0.7-1.7-1-2.5c-0.2-0.8-0.3-1.5-0.5-2.4l0.2,0.2c0.5,0.7,1,1.4,1.5,2
					c1,1.4,2.2,2.7,3.2,4.1l0,0c-0.5-0.7-1-1.4-1.5-2c-0.5-0.7-1.2-1.5-1.7-2.2c-0.5-0.7-1.2-1.5-1.7-2.2l-0.2-0.2
					c0-0.2,0-0.5-0.2-0.7c0.2,0,0.3,0.2,0.3,0.2l0.2,0.2c0.7,0.7,1.4,1.5,2,2.2c0.7,0.5,1.2,1,2,1.5c0.7,0.3,1.5,0.8,1.7,1.5l0,0
					c-0.2-0.7-0.8-1-1.4-1.5c-0.3-0.2-0.7-0.3-1-0.5c-0.5-0.3-0.8-0.7-1.2-1c-0.5-0.5-1-1-1.4-1.5c0.3,0.2,0.5,0.5,0.8,0.7
					c0.8,0.7,1.9,1.2,2.9,1.5c1.2,0.3,2.4,0.5,3.4,1.2l0,0c-1-0.5-2-0.8-3.2-1.2c-1-0.3-2-0.8-3-1.5c-0.5-0.5-1-0.8-1.5-1.4
					c0.8,0.5,1.9,0.8,2.9,1.2c1,0.3,2,0.5,2.9,0.5c0.8,0,2-0.3,2.9,0l0,0c-0.7-0.3-1.7-0.2-2.5-0.2c-1,0-2-0.2-3-0.3
					c-1-0.3-2-0.7-3-1.2c-0.2,0-0.3-0.2-0.5-0.3c-0.2-0.2-0.2-0.3-0.3-0.3c0.3,0.2,0.7,0.2,1,0.2c0.7,0.2,1.5,0.2,2.2,0.3
					c0.7,0.2,1.5,0.2,2.2,0.2c0.5,0,1.2,0.2,1.9,0c0.3,0,0.7-0.2,0.8-0.2s2-0.7,2-0.2l0,0c0-0.5-1.2-0.2-1.4,0
					c-0.3,0.2-0.8,0.2-1.2,0.3c-0.5,0.2-1,0.2-1.5,0.2c-1.7,0-3.2-0.3-4.9-0.5c-0.5,0-1-0.2-1.5-0.3l0,0c1.2,0.2,2.4,0,3.7-0.2
					c1.2-0.2,2.5-0.3,3.7-0.7C127.3,102.8,128.5,102.5,129.8,102.1L129.8,102.1z M112.6,105.9c-0.2,0-0.3,0.2-0.7,0.2
					C112.2,105.9,112.4,105.9,112.6,105.9C112.6,105.7,112.6,105.9,112.6,105.9z M118.5,104c-0.2-0.2-0.5-0.5-0.7-0.7l0,0
					c0.2,0,0.3,0,0.5,0C118.3,103.5,118.5,103.8,118.5,104z M119.7,102.3c-0.3,0.2-0.8,0.5-1.2,0.7c0-0.2,0-0.2,0-0.3
					C118.8,102.7,119.2,102.5,119.7,102.3z M118.3,102.7c0,0.2,0,0.2,0,0.3c-0.2,0-0.2,0-0.3,0.2c-0.2,0-0.2,0-0.3,0
					c-0.2-0.2-0.3-0.2-0.3-0.3C117.6,102.8,118,102.8,118.3,102.7z M117.1,102.8L117.1,102.8L117.1,102.8c0.2,0.2,0.3,0.2,0.3,0.3
					l0,0C117.3,103,117.1,103,117.1,102.8z M117.1,103.3c0.2,0,0.2,0,0.3,0l0,0C117.3,103.3,117.3,103.3,117.1,103.3L117.1,103.3z
					 M115.8,103.7c0.2,0,0.3,0.2,0.5,0.2c0,0-0.2,0-0.3,0l0,0c0,0-0.2,0-0.2,0.2c0,0,0,0-0.2,0C115.8,103.8,115.6,103.8,115.8,103.7
					C115.6,103.8,115.8,103.7,115.8,103.7L115.8,103.7z M115.8,104L115.8,104c0.2,0,0.3-0.2,0.5-0.2c0,0.2-0.2,0.3-0.2,0.5
					c0,0,0,0-0.2,0.2C115.9,104.3,115.9,104.2,115.8,104z M116.1,104.5c-0.2,0.2-0.2,0.2-0.3,0.3l-0.2,0.2c0-0.2,0.2-0.5,0.2-0.7
					c0,0,0,0,0.2,0C115.8,104.2,115.9,104.3,116.1,104.5z M115.6,103.7L115.6,103.7L115.6,103.7L115.6,103.7L115.6,103.7z
					 M115.4,103.8L115.4,103.8c0,0-0.2,0-0.3,0C115.1,103.8,115.3,103.8,115.4,103.8z M114.6,103.3c0.2,0.2,0.3,0.2,0.5,0.3
					c-0.3,0-0.8-0.2-1.2-0.2c-0.2,0-0.2,0-0.3-0.2C113.9,103.5,114.3,103.5,114.6,103.3z M112.9,103.3c0.2,0,0.2,0,0.3,0.2
					c0.5,0.3,1.2,0.5,1.9,0.5c0.2,0,0.3,0,0.5,0l0,0c-0.3,0.2-0.7,0.2-1,0.3l0,0h-0.2l0,0l0,0l0,0
					C113.9,104,113.4,103.7,112.9,103.3z M113.7,105.4c-0.2,0-0.3,0-0.5,0.2c0.3-0.3,0.7-0.5,0.8-0.8c0.2,0,0.2,0,0.3,0
					s0.3,0.2,0.3,0.2C114.6,104.8,114.1,105,113.7,105.4z M115.1,104.5c-0.2,0-0.2,0-0.3-0.2c0.3,0,0.5-0.2,0.8-0.2
					C115.4,104.3,115.3,104.3,115.1,104.5z M115.3,104.5c0.2-0.2,0.2-0.2,0.3-0.3c0,0.2,0,0.2-0.2,0.3l0,0
					C115.3,104.7,115.3,104.5,115.3,104.5z M115.8,105.4c-0.2,0.3-0.5,0.7-0.7,0.8c0.2-0.3,0.3-0.8,0.5-1.2c0.2-0.2,0.5-0.3,0.7-0.5
					C115.9,104.8,115.8,105.2,115.8,105.4z M116.1,104.8L116.1,104.8L116.1,104.8c0-0.2,0-0.2,0.2-0.3l0,0l0,0l0,0c0,0,0,0,0-0.2
					c0.2-0.2,0.2-0.2,0.3-0.3C116.5,104.3,116.3,104.7,116.1,104.8z M116.3,104.2c0-0.2,0-0.2,0.2-0.3h0.2
					C116.5,104,116.5,104,116.3,104.2z M116.6,103.8c-0.2,0-0.5-0.2-0.7-0.2C116.3,103.7,116.5,103.7,116.6,103.8L116.6,103.8z
					 M116.5,103.7c0.2,0,0.2,0,0.3,0c0,0,0,0,0,0.2C116.6,103.7,116.6,103.7,116.5,103.7z M117,103.8h-0.2l0,0
					C117,103.8,117,103.8,117,103.8C117.1,103.8,117,103.8,117,103.8z M116.8,103.7C116.8,103.7,117,103.5,116.8,103.7
					c0.2-0.2,0.3-0.2,0.3-0.2c0.2,0.2,0.3,0.3,0.5,0.3C117.3,103.8,117.1,103.7,116.8,103.7z M118,104L118,104
					c-0.2-0.2-0.5-0.3-0.7-0.5h0.2c0.2,0.2,0.5,0.3,0.7,0.7C118.1,104,118.1,104,118,104z M118.3,104.2
					C118.3,104.2,118.5,104.2,118.3,104.2c0.2,0,0.2,0.2,0.2,0.2l0,0C118.5,104.3,118.3,104.3,118.3,104.2z M121,96.4
					c1.2-2,1.9-4.4,3.2-6.4l0,0C122.9,92,122.2,94.4,121,96.4c-1.2,2.2-2.7,4.2-4.4,5.9l0,0C118.3,100.5,119.8,98.6,121,96.4z
					 M113.9,91.8c-0.2-1-0.3-2-0.2-3l0,0c-0.2,1.2,0,2.4,0.2,3.4s0.5,2,0.7,3.2c0.2,1.4,0.3,2.7,0.7,4.1c0.2,1.4,0.5,2.7,0.5,4.1
					l0,0c-0.2-1.4-0.3-2.7-0.5-4.1c-0.2-1.4-0.5-2.7-0.7-4.2C114.6,93.9,114.3,92.8,113.9,91.8z"/>
				<path class="st50" d="M131.2,101.8c-0.2-0.3-0.7-0.5-0.7-0.8c-0.3-0.7,0-2,0.2-2.9c0.5-1.7,0.3-3.9,0.3-5.6c0-0.8,0.7-2.4,0-3.2
					c-0.5-0.7-1.7-0.3-1.9-1.4c-0.8,1-0.8,0-1.5-0.5c-0.2-0.2-1-0.2-1-0.3c-0.5-0.5,0-0.7-0.3-1.2c-0.7-1.4-2.5-0.7-3.4-2.2
					c-1.4,0.8-1.2,0-2.4-0.2c-0.8-0.2-1.5,0.8-2.4-0.2c-0.7,0.3-1,0.5-1.7,0.5c-0.2,0-0.5-0.3-0.7-0.3s-0.3,0.5-0.7,0.5
					c-1.2,0.2-1.9-0.5-2.7,1c-0.2-0.3-0.5-0.3-0.7-0.5c-0.2,1,1,3.2,0.3,4.1c-0.2-0.5-0.8-1.2-1.4-1.4c-1-0.3-1,0.3-1.9,0.7
					c-0.3,0-0.8-0.2-1-0.2c-0.2,0.2-0.5,0.7-0.5,0.7c-0.5,0.2-1.2,0.2-1.9,0.2c-0.2,1.4-0.8,0.2-1.5,0.5c-0.7,0.2-0.5,1.4-1.5,0.7
					c0,0.3-0.2,0.5-0.2,1c-0.3-0.2-0.7,0-1.2,0c0,0.3,0.2,0.8,0.2,1.2c-1.9-0.8-1.2,1-1.4,2c-0.2-0.2-0.5-0.2-0.7-0.2
					c0.3,0.7,0,2.4-0.7,2.5c0,0.3,0,0.7,0,1c-1,0.2-0.2,0.5-0.2,1.2c0,0.3,0,1,0.2,1.2c0,0.7,1.2,2.4,1,2.7c0.5,0.7,1.2,1,1.7,1.5
					c-0.5,1.9,3.7,0.3,1.4,3c-1,1-2.4,1.2-1.9,2.9s0.3,2.7,2.2,3.2c-0.3,1.5,2.4,2.2,3.4,2.9c0.5,0.3,0.3,0.7,1,0.7
					c0.3,0,0.8-0.3,1.2-0.2c0.7,0.3,0.5,1.5,1.2,1.9c1.2,0.7,3.2,0,4.6,0c1.7,0,2.7-0.7,4.6-0.7c0.5-1,0.2-2.7,1.5-3.2
					c0.3-0.2,0.7,0.3,1.2,0.2c0.3-0.2,0.3-0.3,0.7-0.5c0.5-0.2,1.4-0.3,1.9-0.5c0.5-0.3,0.8-1,1.4-1.4c0.5-0.3,1.4-0.5,1.9-1
					c0.3-0.3,1.2-1.2,1.4-1.5c0.3-0.7,0-1,0.3-1.7c0.7-0.8,1.2-1.5,1.7-2.5c0.3-0.7,0.7-1.5,0.8-2.4
					C131.3,102.5,131.5,102.5,131.2,101.8z M127.1,105.9c-0.2,0.5,0,1.2-0.3,1.5c-0.5,1-1.4,0.2-2.4,0.8c-1.2,0.8-0.3,1.4-2,1
					c-1.5-0.3-1.7-0.7-2.2,1c-0.2,0.3-0.2,1-0.5,1.2c-0.5,0.5-0.8,0-1.2,0.2c-0.7,0.5-0.8,1.9-1.7,2c-0.3,0.2-0.8-0.3-1.4-0.3
					c-0.5,0-0.8,0.7-1.5,0.7c-0.2,0-0.3-0.5-0.5-0.5c-0.3-0.2-0.5,0.2-0.8,0c-0.3-0.3-0.7-0.7-0.7-1c-0.2,0.2-0.5,0.2-0.7,0.3
					c0.2-1.4-1.5-0.5-2.2-1.4c-0.7-0.7-0.7-1.9-2-1.4c-0.2-1,0.5-1,0.7-1.7c0.2-0.3-0.3-0.5-0.2-0.8c0.2-0.2,0.3-0.3,0.5-0.5
					c0.5-1.2,2.4-2,0.7-2.9c-1-0.5-2.4-0.3-2.5-1.9c0-0.7,0.5-0.5,0-1.4c-0.3-0.5-1-0.5-0.8-1.4c-0.5-0.3-1.2-0.7-1.4-1.2
					c-0.3-1.2,0.5-0.5,1.2-1c0.2-0.2,0.2-1.2,0.5-1.5c0.5-0.5,1-0.3,1.4-0.8c0.8,0,1.5,0.2,2.2,0.2c0.3,0,0.5-0.3,1-0.2
					c0.5,0.2,0.5,0.3,0.8,0.7c1,0.5,2.7,0.7,3-0.7c0.2-0.5-0.3-1,0-1.5c0.2-0.5,0.8-0.7,1.4-0.8c0.5-0.3,0.7-0.5,1.2-0.8
					c0.2,0,0.5-0.5,0.5-0.5c0.2,0,0.7,0.2,0.7,0.2c0.5-0.2,2.2-1.9,2.9-1.4c0.5,0.2,0.3,1.2,0.7,1.4c0.3,0.2,1.2,0.2,1.7,0.2
					c0,1,1.7,0.7,2.4,1.2c1,0.8,0.7,1.9,0.7,2.9c-0.2,1.4,0.3,1.7-0.5,2.9c-0.5,0.7-1.5,2.2,0.3,2.2c-1.2,1,1.9,2.5,1.9,4.2
					C127.8,105.7,127.3,105.5,127.1,105.9z"/>
			</g>
			<g>
				
					<radialGradient id="SVGID_45_" cx="124.1066" cy="196.1231" r="9.8391" gradientTransform="matrix(0.9997 2.356718e-02 2.356718e-02 -0.9997 -13.0941 294.1975)" gradientUnits="userSpaceOnUse">
					<stop  offset="0" style="stop-color:#553E20"/>
					<stop  offset="9.355849e-02" style="stop-color:#4A361D"/>
					<stop  offset="0.5201" style="stop-color:#1C1004"/>
					<stop  offset="0.8344" style="stop-color:#000000"/>
					<stop  offset="1" style="stop-color:#000000"/>
				</radialGradient>
				<path class="st51" d="M111.7,98.4c-0.2,0.3-0.3,0.5-0.3,1c0,0.3,0.2,0.7,0,1.2c-0.2,0.7-0.5,1.5-0.7,2.2c-0.3,1.4,0,3.2,1.5,3.7
					c0.8,0.3,1.4,0.5,2,1c0.7,0.5,1.4,0.7,2.2,0.3c0.3-0.2,0.5-0.3,0.8-0.5c0.3-0.2,0.7-0.2,1.2-0.2c0.3,0,0.8,0,1-0.2
					c0.2,0,0.2-0.2,0.2-0.3c0.2-0.2,0.3-0.2,0.5-0.3c0.7-0.5,0.7-1.2,0.8-2c0-0.3,0-0.8,0.2-1.2s0.7-0.5,0.8-0.8
					c0.8-1.5-0.3-2.4-1.4-3.4c-0.7-0.5-0.8-1.4-1.5-1.9c-1.2-0.8-2.9-1.2-4.2-1c-0.7,0-1.5,0.2-2.2,0.5
					C112.4,97.2,112.1,97.9,111.7,98.4z"/>
				
					<radialGradient id="SVGID_46_" cx="123.5684" cy="197.1621" r="4.8321" gradientTransform="matrix(0.9997 2.356718e-02 2.356718e-02 -0.9997 -13.0941 294.1975)" gradientUnits="userSpaceOnUse">
					<stop  offset="0" style="stop-color:#D2CA2A"/>
					<stop  offset="0.1099" style="stop-color:#C2B328"/>
					<stop  offset="0.5238" style="stop-color:#97731D"/>
					<stop  offset="0.8286" style="stop-color:#7E5215"/>
					<stop  offset="0.9892" style="stop-color:#764712"/>
				</radialGradient>
				<path class="st52" d="M111.4,98.1c0.2,0.2,0.3,0.2,0.5,0.2c0.2,0,0.5,0.2,0.2,0.3c-0.2,0-0.3,0-0.5,0c-0.2,0-0.3,0.2-0.5,0.2
					c-0.3,0.2-0.7,0.2-0.8,0.5c-0.2,0.3-0.2,0.7,0,1s0,0.7,0.2,1c0.2,0.5,0.3,0.5,0.8,0.5c0.2,0,0.3,0,0.3,0.2s0.2,0.3,0.2,0.7
					c0,0.3-0.2,0.8,0,1c0,0.2,0.3,0.3,0.5,0.5c0.2,0.2,0.3,0.2,0.7,0.3c0.3,0.2,0.8,0,1-0.5c0.2-0.3,0.5-0.7,0.8-0.5
					s0.7,0.5,0.8,0.8c0.2,0.3,1,0.2,1.4,0c0.3-0.2,0.8-0.2,0.8-0.7s-0.3-0.7,0-1.2c0.3-0.3,0.7-0.5,1.2-0.5c0.2,0,0.3,0,0.5-0.2
					c0.2-0.2,0.2-0.5,0.3-0.7c0.2-0.3,0.7-0.5,0.5-1c-0.2-0.3-0.7-0.7-0.8-1c-0.3-0.5,0.5-0.5,0.7-0.8c0.2-0.2,0-0.3-0.2-0.7
					c-0.2-0.3-0.2-0.5-0.3-0.8c-0.2-0.3-0.3-0.3-0.7-0.3c-0.2,0-0.3-0.3-0.5-0.3c-0.2,0-0.5,0.2-0.7,0.3s-0.3,0.2-0.7,0
					c-0.5-0.3,0-1-0.5-1.4c-0.2-0.2-0.5,0-0.8,0c-0.3,0-0.5,0-0.7,0c-0.5-0.2-0.5,0.3-0.5,0.8c0,0.2,0,0.5-0.2,0.5s-0.3-0.2-0.5-0.2
					c-0.3-0.2-0.7-0.3-1-0.2c-0.2,0-0.3,0.2-0.5,0.3c-0.2,0.2-0.3,0.3-0.5,0.5C111.2,97.4,111,97.7,111.4,98.1z"/>
				
					<radialGradient id="SVGID_47_" cx="123.4422" cy="197.1108" r="5.6177" gradientTransform="matrix(0.9997 2.356718e-02 2.356718e-02 -0.9997 -13.0941 294.1975)" gradientUnits="userSpaceOnUse">
					<stop  offset="0" style="stop-color:#E3D192"/>
					<stop  offset="0.7849" style="stop-color:#BA756B"/>
					<stop  offset="0.8792" style="stop-color:#994543"/>
					<stop  offset="0.9583" style="stop-color:#812129"/>
					<stop  offset="1" style="stop-color:#781020"/>
				</radialGradient>
				<path class="st53" d="M114.8,100.1c-0.2,0.5-0.2,1-0.5,1.5c-0.2,0.5-0.5,1-0.7,1.7c0,0.5,0,0.8,0,1.4c0,0.3-0.5,0.5-0.8,0.2
					c-0.2-0.2-0.2-0.3-0.3-0.3c-0.2-0.2-0.3-0.2-0.5-0.2c-0.3-0.2-0.7-0.5-0.5-1c0.2-0.5,0.7-0.8,0.8-1.2c0.2-0.3,0.5-0.7,0.8-1
					c0.2-0.3,0.3-0.5,0.7-0.7c0.2-0.2,0.3-0.5,0.7-0.7c-0.2,0-0.3,0.3-0.5,0.3c-0.3,0.2-0.5,0.2-0.8,0.3c-0.5,0.2-0.8,0.3-1.4,0.5
					c-0.2,0.2-0.5,0.2-0.7,0.3s-0.3,0.3-0.7,0.3c-0.2,0-0.3-0.3-0.2-0.5c0-0.2,0.2-0.3,0.3-0.5c0.2-0.3-0.5-0.7-0.2-1
					c0.3-0.5,1-0.5,1.5-0.5c0.5,0,1,0,1.4,0c0.2,0,0.5,0,0.7,0c0.2,0,0.3,0.2,0.7,0.2c-0.2-0.3-0.8-0.5-1.2-0.7
					c-0.2-0.2-0.5-0.2-0.7-0.3c-0.2-0.2-0.3-0.3-0.5-0.3c-0.3-0.2-1,0-1.2-0.3c0-0.5,0.7-0.5,0.8-0.8c0-0.2,0-0.3,0.2-0.3
					c0.2-0.2,0.5-0.2,0.7,0c0.5,0.2,1,0.5,1.4,0.8c0.2,0.2,0.3,0.3,0.3,0.7c0.2,0.2,0.2,0.3,0.3,0.5c0.2,0.3,0.2,0.7,0.3,1
					c0-0.7-0.2-1.4-0.2-1.9c0-0.2,0-0.5,0-0.7s-0.2-0.3-0.2-0.5c0-0.2-0.2-0.3,0-0.5c0.2-0.2,0.3-0.3,0.7-0.2
					c0.2,0.2,0.3,0.3,0.7,0.2c0.2,0,0.3-0.2,0.7-0.2c0.3,0,0.5,0.3,0.5,0.7c0,0.2-0.2,0.3-0.3,0.5c-0.2,0.2-0.2,0.5-0.3,0.7
					c-0.3,0.7-0.7,1.2-0.8,2c0.3-0.3,0.3-0.7,0.7-1c0.3-0.2,0.7-0.5,1-0.7c0.5-0.3,0.8-0.8,1.4-1c0.3,0,0.7,0,0.8,0.3
					c0.2,0.2,0,0.3,0.2,0.5c0,0.2,0.2,0,0.3,0.2c0.2,0,0.2,0.2,0.3,0.2c0.2,0.2,0.3,0.5,0.2,0.7c-0.2,0.2-0.7,0.2-0.8,0.2
					c-0.3,0-0.8-0.2-1.2,0c-0.8,0.2-1.5,0.7-2.4,1c1.4,0,2.9,0,4.1,0.8c0.3,0.2,1,0.7,0.7,1.2c-0.2,0.2-0.3,0.2-0.5,0.3
					c-0.2,0.2,0,0.3,0,0.5c0,0.3-0.2,0.8-0.7,0.7c-0.2-0.2-0.3-0.3-0.7-0.7c-0.2-0.2-0.3-0.5-0.5-0.7c-0.8-0.8-2.2-1-3-1.9
					c0.5,0.3,0.7,0.8,1,1.4c0.3,0.3,0.5,0.8,0.7,1.2c0.3,0.5,0.7,1,0.8,1.7c0.2,0.5,0.2,0.8-0.3,1c-0.2,0-0.3,0-0.7,0.2
					c-0.2,0.2-0.3,0.3-0.5,0.3c-0.5,0.2-0.7-0.7-0.7-1c0-0.5-0.3-1-0.5-1.4c0-0.3-0.2-0.5-0.2-0.8c0-0.2-0.2-0.5-0.2-0.7
					C114.8,101,114.8,100.5,114.8,100.1L114.8,100.1z"/>
			</g>
			<g>
				
					<radialGradient id="SVGID_48_" cx="-33.9194" cy="-46.9931" r="2.1213" gradientTransform="matrix(0.88 -0.2828 -0.2992 -0.8382 143.484 49.2024)" gradientUnits="userSpaceOnUse">
					<stop  offset="0" style="stop-color:#5B191F"/>
					<stop  offset="0.4714" style="stop-color:#250004"/>
					<stop  offset="0.8175" style="stop-color:#000000"/>
					<stop  offset="1" style="stop-color:#000000"/>
				</radialGradient>
				<path class="st54" d="M129.5,97.9c0.2,0.3-0.5,0.8-1.5,1.2c-1,0.3-1.9,0.3-2,0c-0.2-0.3,0.5-0.8,1.5-1.2
					C128.5,97.6,129.5,97.6,129.5,97.9z"/>
				
					<radialGradient id="SVGID_49_" cx="-136.1921" cy="-179.0726" r="2.1216" gradientTransform="matrix(0.7371 -0.5373 -0.5663 -0.7027 122.6181 -101.9623)" gradientUnits="userSpaceOnUse">
					<stop  offset="0" style="stop-color:#5B191F"/>
					<stop  offset="0.4714" style="stop-color:#250004"/>
					<stop  offset="0.8175" style="stop-color:#000000"/>
					<stop  offset="1" style="stop-color:#000000"/>
				</radialGradient>
				<path class="st55" d="M125.2,96.2c0.2,0.3-0.2,1-1,1.5c-0.8,0.5-1.7,0.8-1.9,0.5c-0.2-0.3,0.2-1,1-1.5
					C124.2,96.2,125.1,95.9,125.2,96.2z"/>
				
					<radialGradient id="SVGID_50_" cx="-279.2271" cy="-272.095" r="2.1207" gradientTransform="matrix(0.5121 -0.7371 -0.7757 -0.4891 54.4618 -243.8815)" gradientUnits="userSpaceOnUse">
					<stop  offset="0" style="stop-color:#5B191F"/>
					<stop  offset="0.4714" style="stop-color:#250004"/>
					<stop  offset="0.8175" style="stop-color:#000000"/>
					<stop  offset="1" style="stop-color:#000000"/>
				</radialGradient>
				<path class="st56" d="M123.7,93.7c0.3,0.2,0.2,1-0.5,1.9c-0.5,0.8-1.2,1.4-1.5,1c-0.3-0.2-0.2-1,0.5-1.9
					C122.7,94,123.4,93.5,123.7,93.7z"/>
				
					<radialGradient id="SVGID_51_" cx="-277.2196" cy="-270.0129" r="2.1221" gradientTransform="matrix(0.5121 -0.7371 -0.7757 -0.4891 54.4618 -243.8815)" gradientUnits="userSpaceOnUse">
					<stop  offset="0" style="stop-color:#5B191F"/>
					<stop  offset="0.4714" style="stop-color:#250004"/>
					<stop  offset="0.8175" style="stop-color:#000000"/>
					<stop  offset="1" style="stop-color:#000000"/>
				</radialGradient>
				<path class="st57" d="M123.2,91.3c0.3,0.2,0.2,1-0.5,1.9c-0.5,0.8-1.2,1.4-1.5,1c-0.3-0.2-0.2-1,0.5-1.9
					C122.2,91.5,122.9,91,123.2,91.3z"/>
				
					<radialGradient id="SVGID_52_" cx="-412.6691" cy="-304.1618" r="2.1219" gradientTransform="matrix(0.2965 -0.8377 -0.8809 -0.2841 -25.9002 -339.6948)" gradientUnits="userSpaceOnUse">
					<stop  offset="0" style="stop-color:#5B191F"/>
					<stop  offset="0.4714" style="stop-color:#250004"/>
					<stop  offset="0.8175" style="stop-color:#000000"/>
					<stop  offset="1" style="stop-color:#000000"/>
				</radialGradient>
				<path class="st58" d="M120.5,91c0.3,0.2,0.3,1,0,1.9c-0.3,0.8-0.8,1.5-1.2,1.5c-0.3-0.2-0.3-1,0-1.9
					C119.7,91.5,120.2,90.8,120.5,91z"/>
				
					<radialGradient id="SVGID_53_" cx="-412.5556" cy="-302.0699" r="2.1218" gradientTransform="matrix(0.2965 -0.8377 -0.8809 -0.2841 -25.9002 -339.6948)" gradientUnits="userSpaceOnUse">
					<stop  offset="0" style="stop-color:#5B191F"/>
					<stop  offset="0.4714" style="stop-color:#250004"/>
					<stop  offset="0.8175" style="stop-color:#000000"/>
					<stop  offset="1" style="stop-color:#000000"/>
				</radialGradient>
				<path class="st59" d="M118.8,90.3c0.3,0.2,0.3,1,0,1.9c-0.3,0.8-0.8,1.5-1.2,1.5c-0.3-0.2-0.3-1,0-1.9
					C117.8,90.8,118.3,90.1,118.8,90.3z"/>
				
					<radialGradient id="SVGID_54_" cx="-635.58" cy="-287.1088" r="2.1214" gradientTransform="matrix(-6.020774e-02 -0.883 -0.9276 5.525538e-02 -190.3677 -453.1041)" gradientUnits="userSpaceOnUse">
					<stop  offset="0" style="stop-color:#5B191F"/>
					<stop  offset="0.4714" style="stop-color:#250004"/>
					<stop  offset="0.8175" style="stop-color:#000000"/>
					<stop  offset="1" style="stop-color:#000000"/>
				</radialGradient>
				<path class="st60" d="M114.4,90.5c0.3,0,0.7,0.7,0.8,1.7c0,1-0.2,1.7-0.5,1.9s-0.7-0.7-0.8-1.7
					C113.7,91.3,113.9,90.5,114.4,90.5z"/>
				
					<radialGradient id="SVGID_55_" cx="-913.0284" cy="-129.2761" r="2.1216" gradientTransform="matrix(-0.5364 -0.7236 -0.7591 0.5089 -476.0533 -502.002)" gradientUnits="userSpaceOnUse">
					<stop  offset="0" style="stop-color:#5B191F"/>
					<stop  offset="0.4714" style="stop-color:#250004"/>
					<stop  offset="0.8175" style="stop-color:#000000"/>
					<stop  offset="1" style="stop-color:#000000"/>
				</radialGradient>
				<path class="st61" d="M111,91.3c0.3-0.2,1,0.3,1.7,1c0.5,0.8,0.8,1.5,0.5,1.9c-0.3,0.2-1-0.3-1.7-1
					C110.9,92.3,110.7,91.7,111,91.3z"/>
				
					<radialGradient id="SVGID_56_" cx="-1030.1521" cy="39.9497" r="2.1218" gradientTransform="matrix(-0.7607 -0.5101 -0.5341 0.7228 -652.873 -461.6714)" gradientUnits="userSpaceOnUse">
					<stop  offset="0" style="stop-color:#5B191F"/>
					<stop  offset="0.4714" style="stop-color:#250004"/>
					<stop  offset="0.8175" style="stop-color:#000000"/>
					<stop  offset="1" style="stop-color:#000000"/>
				</radialGradient>
				<path class="st62" d="M108.2,91.5c0.2-0.3,1-0.2,1.9,0.5c0.8,0.5,1.4,1.2,1.2,1.5c-0.2,0.3-1,0.2-1.9-0.5
					C108.3,92.3,107.8,91.7,108.2,91.5z"/>
				
					<radialGradient id="SVGID_57_" cx="-1105.1423" cy="316.2959" r="2.1214" gradientTransform="matrix(-0.9177 -0.1424 -0.1474 0.8732 -862.4035 -335.5121)" gradientUnits="userSpaceOnUse">
					<stop  offset="0" style="stop-color:#5B191F"/>
					<stop  offset="0.4714" style="stop-color:#250004"/>
					<stop  offset="0.8175" style="stop-color:#000000"/>
					<stop  offset="1" style="stop-color:#000000"/>
				</radialGradient>
				<path class="st63" d="M103.4,97.4c0-0.3,0.8-0.5,1.9-0.3c1,0.2,1.7,0.5,1.7,0.8c0,0.3-0.8,0.5-1.9,0.3
					C104.1,98.3,103.4,97.7,103.4,97.4z"/>
				
					<radialGradient id="SVGID_58_" cx="-523.8799" cy="-275.5111" r="2.1214" gradientTransform="matrix(0.1056 -0.8787 -0.9234 -0.1026 -89.6421 -393.6745)" gradientUnits="userSpaceOnUse">
					<stop  offset="0" style="stop-color:#5B191F"/>
					<stop  offset="0.4714" style="stop-color:#250004"/>
					<stop  offset="0.8175" style="stop-color:#000000"/>
					<stop  offset="1" style="stop-color:#000000"/>
				</radialGradient>
				<path class="st64" d="M110,93.2c0.3,0,0.5,0.8,0.5,1.9c-0.2,1-0.5,1.7-0.8,1.7c-0.3,0-0.5-0.8-0.5-1.9
					C109.2,93.9,109.5,93.2,110,93.2z"/>
				
					<radialGradient id="SVGID_59_" cx="-110.6023" cy="-97.5667" r="2.1211" gradientTransform="matrix(0.72 -0.5579 -0.5878 -0.6865 130.2164 -29.8537)" gradientUnits="userSpaceOnUse">
					<stop  offset="0" style="stop-color:#5B191F"/>
					<stop  offset="0.4714" style="stop-color:#250004"/>
					<stop  offset="0.8175" style="stop-color:#000000"/>
					<stop  offset="1" style="stop-color:#000000"/>
				</radialGradient>
				<path class="st65" d="M109.5,97.9c0.2,0.3-0.2,1-1,1.5c-0.8,0.7-1.7,0.8-1.9,0.5c-0.2-0.3,0.2-1,1-1.5
					C108.5,97.9,109.3,97.7,109.5,97.9z"/>
				
					<radialGradient id="SVGID_60_" cx="43.5269" cy="282.0179" r="2.1213" gradientTransform="matrix(0.9292 2.280545e-02 2.184725e-02 -0.8843 62.1928 351.6919)" gradientUnits="userSpaceOnUse">
					<stop  offset="0" style="stop-color:#5B191F"/>
					<stop  offset="0.4714" style="stop-color:#250004"/>
					<stop  offset="0.8175" style="stop-color:#000000"/>
					<stop  offset="1" style="stop-color:#000000"/>
				</radialGradient>
				<path class="st66" d="M110.5,103.7c0,0.3-0.8,0.7-1.9,0.7s-1.9-0.3-1.9-0.7c0-0.3,0.8-0.7,1.9-0.7
					C109.9,103,110.7,103.3,110.5,103.7z"/>
				
					<radialGradient id="SVGID_61_" cx="37.7767" cy="283.3676" r="2.1216" gradientTransform="matrix(0.9292 2.280545e-02 2.184725e-02 -0.8843 62.1928 351.6919)" gradientUnits="userSpaceOnUse">
					<stop  offset="0" style="stop-color:#5B191F"/>
					<stop  offset="0.4714" style="stop-color:#250004"/>
					<stop  offset="0.8175" style="stop-color:#000000"/>
					<stop  offset="1" style="stop-color:#000000"/>
				</radialGradient>
				<path class="st67" d="M105.3,102.3c0,0.3-0.8,0.7-1.9,0.7s-1.9-0.3-1.9-0.7c0-0.3,0.8-0.7,1.9-0.7S105.3,102,105.3,102.3z"/>
				
					<radialGradient id="SVGID_62_" cx="-518.7585" cy="-316.5781" r="2.1216" gradientTransform="matrix(8.577999e-02 -0.8807 -0.9255 -8.363432e-02 -140.5071 -377.1754)" gradientUnits="userSpaceOnUse">
					<stop  offset="0" style="stop-color:#5B191F"/>
					<stop  offset="0.4714" style="stop-color:#250004"/>
					<stop  offset="0.8175" style="stop-color:#000000"/>
					<stop  offset="1" style="stop-color:#000000"/>
				</radialGradient>
				<path class="st68" d="M108.5,104.5c0.3,0,0.7,0.8,0.5,1.9c-0.2,1-0.5,1.7-0.8,1.7s-0.7-0.8-0.5-1.9
					C107.7,105.2,108,104.5,108.5,104.5z"/>
				
					<radialGradient id="SVGID_63_" cx="-136.4166" cy="-140.704" r="2.1211" gradientTransform="matrix(0.6876 -0.5938 -0.6255 -0.6557 116.6392 -67.015)" gradientUnits="userSpaceOnUse">
					<stop  offset="0" style="stop-color:#5B191F"/>
					<stop  offset="0.4714" style="stop-color:#250004"/>
					<stop  offset="0.8175" style="stop-color:#000000"/>
					<stop  offset="1" style="stop-color:#000000"/>
				</radialGradient>
				<path class="st69" d="M112.4,105.4c0.3,0.3-0.2,1-0.8,1.7c-0.7,0.7-1.5,1-1.9,0.7c-0.3-0.3,0.2-1,0.8-1.7
					C111.4,105.4,112.2,105,112.4,105.4z"/>
				
					<radialGradient id="SVGID_64_" cx="-136.4772" cy="-139.3434" r="2.1211" gradientTransform="matrix(0.6876 -0.5938 -0.6255 -0.6557 116.6392 -67.015)" gradientUnits="userSpaceOnUse">
					<stop  offset="0" style="stop-color:#5B191F"/>
					<stop  offset="0.4714" style="stop-color:#250004"/>
					<stop  offset="0.8175" style="stop-color:#000000"/>
					<stop  offset="1" style="stop-color:#000000"/>
				</radialGradient>
				<path class="st70" d="M111.5,104.5c0.3,0.3-0.2,1-0.8,1.7c-0.7,0.7-1.5,1-1.9,0.7c-0.3-0.3,0.2-1,0.8-1.7
					C110.4,104.5,111.2,104.2,111.5,104.5z"/>
				
					<radialGradient id="SVGID_65_" cx="-447.2426" cy="-309.3308" r="2.1216" gradientTransform="matrix(0.186 -0.8664 -0.9107 -0.179 -85.7023 -336.4759)" gradientUnits="userSpaceOnUse">
					<stop  offset="0" style="stop-color:#5B191F"/>
					<stop  offset="0.4714" style="stop-color:#250004"/>
					<stop  offset="0.8175" style="stop-color:#000000"/>
					<stop  offset="1" style="stop-color:#000000"/>
				</radialGradient>
				<path class="st71" d="M113.6,104.7c0.3,0,0.5,0.8,0.3,1.9c-0.2,1-0.7,1.7-1,1.5c-0.3,0-0.5-0.8-0.3-1.9
					C112.7,105.4,113.1,104.7,113.6,104.7z"/>
				
					<radialGradient id="SVGID_66_" cx="-117.6553" cy="-111.8954" r="2.1216" gradientTransform="matrix(0.7395 -0.5343 -0.5631 -0.7051 140.5252 -34.1607)" gradientUnits="userSpaceOnUse">
					<stop  offset="0" style="stop-color:#5B191F"/>
					<stop  offset="0.4714" style="stop-color:#250004"/>
					<stop  offset="0.8175" style="stop-color:#000000"/>
					<stop  offset="1" style="stop-color:#000000"/>
				</radialGradient>
				<path class="st72" d="M118.1,106.7c0.2,0.3-0.2,1-1,1.5c-0.8,0.5-1.7,0.8-1.9,0.5c-0.2-0.3,0.2-1,1-1.5
					C117.1,106.7,118,106.5,118.1,106.7z"/>
				
					<radialGradient id="SVGID_67_" cx="-923.2635" cy="-93.4019" r="2.1211" gradientTransform="matrix(-0.7146 -0.5672 -0.5944 0.6789 -593.468 -354.975)" gradientUnits="userSpaceOnUse">
					<stop  offset="0" style="stop-color:#5B191F"/>
					<stop  offset="0.4714" style="stop-color:#250004"/>
					<stop  offset="0.8175" style="stop-color:#000000"/>
					<stop  offset="1" style="stop-color:#000000"/>
				</radialGradient>
				<path class="st73" d="M120.7,104c0.2-0.3,1,0,1.9,0.7c0.8,0.7,1.2,1.4,1,1.7c-0.2,0.3-1,0-1.9-0.7
					C120.8,105,120.3,104.3,120.7,104z"/>
				
					<radialGradient id="SVGID_68_" cx="-920.7495" cy="-93.7219" r="2.1214" gradientTransform="matrix(-0.7146 -0.5672 -0.5944 0.6789 -593.468 -354.975)" gradientUnits="userSpaceOnUse">
					<stop  offset="0" style="stop-color:#5B191F"/>
					<stop  offset="0.4714" style="stop-color:#250004"/>
					<stop  offset="0.8175" style="stop-color:#000000"/>
					<stop  offset="1" style="stop-color:#000000"/>
				</radialGradient>
				<path class="st74" d="M119,102.3c0.2-0.3,1,0,1.9,0.7c0.8,0.7,1.2,1.4,1,1.7c-0.2,0.3-1,0-1.9-0.7
					C119.2,103.3,118.8,102.7,119,102.3z"/>
				
					<radialGradient id="SVGID_69_" cx="-999.0569" cy="332.8484" r="2.1216" gradientTransform="matrix(-0.9184 0.134 0.1429 0.8744 -844.551 -55.3333)" gradientUnits="userSpaceOnUse">
					<stop  offset="0" style="stop-color:#5B191F"/>
					<stop  offset="0.4714" style="stop-color:#250004"/>
					<stop  offset="0.8175" style="stop-color:#000000"/>
					<stop  offset="1" style="stop-color:#000000"/>
				</radialGradient>
				<path class="st75" d="M118.6,101.8c0-0.3,0.7-0.8,1.7-0.8c1-0.2,1.9,0,1.9,0.3c0,0.3-0.7,0.8-1.7,0.8
					C119.7,102.3,118.8,102.1,118.6,101.8z"/>
				
					<radialGradient id="SVGID_70_" cx="-999.9009" cy="330.1059" r="2.1214" gradientTransform="matrix(-0.9184 0.134 0.1429 0.8744 -844.551 -55.3333)" gradientUnits="userSpaceOnUse">
					<stop  offset="0" style="stop-color:#5B191F"/>
					<stop  offset="0.4714" style="stop-color:#250004"/>
					<stop  offset="0.8175" style="stop-color:#000000"/>
					<stop  offset="1" style="stop-color:#000000"/>
				</radialGradient>
				<path class="st76" d="M119.2,99.3c0-0.3,0.7-0.8,1.7-0.8c1-0.2,1.9,0,1.9,0.3c0,0.3-0.7,0.8-1.7,0.8
					C120,99.8,119.2,99.6,119.2,99.3z"/>
				
					<radialGradient id="SVGID_71_" cx="-883.0106" cy="536.6105" r="2.1216" gradientTransform="matrix(-0.7626 0.5042 0.5315 0.7269 -837.9045 152.7145)" gradientUnits="userSpaceOnUse">
					<stop  offset="0" style="stop-color:#5B191F"/>
					<stop  offset="0.4714" style="stop-color:#250004"/>
					<stop  offset="0.8175" style="stop-color:#000000"/>
					<stop  offset="1" style="stop-color:#000000"/>
				</radialGradient>
				<path class="st77" d="M119,98.4c-0.2-0.3,0.3-1,1.2-1.5c0.8-0.5,1.7-0.7,1.9-0.5c0.2,0.3-0.3,1-1.2,1.5
					C120.2,98.4,119.3,98.6,119,98.4z"/>
				
					<radialGradient id="SVGID_72_" cx="-724.6666" cy="-215.965" r="2.1214" gradientTransform="matrix(-0.5449 -0.7179 -0.753 0.5169 -441.6066 -297.6929)" gradientUnits="userSpaceOnUse">
					<stop  offset="0" style="stop-color:#5B191F"/>
					<stop  offset="0.4714" style="stop-color:#250004"/>
					<stop  offset="0.8175" style="stop-color:#000000"/>
					<stop  offset="1" style="stop-color:#000000"/>
				</radialGradient>
				<path class="st78" d="M115.1,109.4c0.3-0.2,1,0.2,1.7,1c0.7,0.8,0.8,1.5,0.5,1.9c-0.3,0.2-1-0.2-1.7-1
					C114.9,110.4,114.8,109.6,115.1,109.4z"/>
				
					<radialGradient id="SVGID_73_" cx="-335.0627" cy="-305.6943" r="2.1213" gradientTransform="matrix(0.1377 -0.8746 -0.9192 -0.133 -115.2605 -222.9805)" gradientUnits="userSpaceOnUse">
					<stop  offset="0" style="stop-color:#5B191F"/>
					<stop  offset="0.4714" style="stop-color:#250004"/>
					<stop  offset="0.8175" style="stop-color:#000000"/>
					<stop  offset="1" style="stop-color:#000000"/>
				</radialGradient>
				<path class="st79" d="M120.2,109.1c0.3,0,0.5,0.8,0.3,1.9c-0.2,1-0.5,1.7-1,1.7c-0.3,0-0.5-0.8-0.3-1.9S119.8,109.1,120.2,109.1
					z"/>
			</g>
		</g>
	</g>
	<g>
		<path class="st80" d="M89.1,229.5v0.7H84v3h4.7v0.7H84v3.4h5.2v0.7H83v-8.5L89.1,229.5L89.1,229.5z"/>
		<path class="st80" d="M91.4,229.5l2.9,7.6l0,0l3-7.6h0.8l-3.6,8.5h-0.8l-3.4-8.5H91.4z"/>
		<path class="st80" d="M106.1,229.5v0.7h-5.1v3h4.7v0.7h-4.7v3.4h5.2v0.7H100v-8.5L106.1,229.5L106.1,229.5z"/>
		<path class="st80" d="M109.5,229.5l5.4,7.3l0,0v-7.3h0.8v8.5h-1l-5.4-7.3l0,0v7.3h-0.8v-8.5H109.5z"/>
		<path class="st80" d="M124.4,229.5v0.7h-2.9v7.8h-0.8v-7.8h-2.9v-0.7H124.4z"/>
		<path class="st80" d="M131.5,231.7c0-0.5-0.2-0.7-0.3-1c-0.3-0.5-1-0.7-1.9-0.7c-1.4,0-2.2,0.7-2.2,1.5c0,0.3,0,0.5,0.2,0.7
			c0.3,0.5,0.8,0.7,2,0.8c1.9,0.3,2.5,0.7,3,1.4c0.2,0.3,0.3,0.7,0.3,1.2c0,0.7-0.3,1.2-0.7,1.7c-0.7,0.5-1.5,0.8-2.7,0.8
			c-2,0-3.2-0.8-3.4-2.7h0.8c0,0.5,0.2,0.8,0.3,1.2c0.5,0.7,1.2,1,2.2,1c1.5,0,2.5-0.7,2.5-1.7c0-0.7-0.3-1.2-1.2-1.4
			c-0.3-0.2-0.8-0.2-1.4-0.3c-1.7-0.3-2.4-0.7-2.9-1.4c-0.2-0.3-0.3-0.7-0.3-1c0-1.4,1.2-2.2,2.9-2.2c2,0,3,0.8,3.2,2.4L131.5,231.7
			z"/>
	</g>
</g>
</svg>
