<?xml version="1.0" encoding="utf-8"?>
<!-- Generator: Adobe Illustrator 21.0.2, SVG Export Plug-In . SVG Version: 6.00 Build 0)  -->
<svg version="1.1" id="Calque_1" xmlns="http://www.w3.org/2000/svg" xmlns:xlink="http://www.w3.org/1999/xlink" x="0px" y="0px"
	 viewBox="0 0 241.9 291.6" style="enable-background:new 0 0 241.9 291.6;" xml:space="preserve">
<style type="text/css">
	.st0{opacity:0.4;}
	.st1{fill:url(#SVGID_1_);}
	.st2{clip-path:url(#SVGID_2_);}
	.st3{fill:#FF2E2A;}
	.st4{fill:#810010;}
	.st5{fill:#908C92;}
	.st6{fill:#3E7C37;}
	.st7{fill:#78CD41;}
	.st8{fill:url(#SVGID_3_);}
	.st9{fill:url(#SVGID_4_);}
	.st10{fill:url(#SVGID_5_);}
	.st11{fill:url(#SVGID_6_);}
	.st12{fill:url(#SVGID_7_);}
	.st13{fill:url(#SVGID_8_);}
	.st14{fill:url(#SVGID_9_);}
	.st15{fill:url(#SVGID_10_);}
	.st16{fill:url(#SVGID_11_);}
	.st17{fill:url(#SVGID_12_);}
	.st18{fill:url(#SVGID_13_);}
	.st19{fill:url(#SVGID_14_);}
	.st20{fill:url(#SVGID_15_);}
	.st21{fill:url(#SVGID_16_);}
	.st22{fill:url(#SVGID_17_);}
	.st23{fill:url(#SVGID_18_);}
	.st24{fill:url(#SVGID_19_);}
	.st25{fill:url(#SVGID_20_);}
	.st26{fill:url(#SVGID_21_);}
	.st27{fill:url(#SVGID_22_);}
	.st28{fill:url(#SVGID_23_);}
	.st29{fill:url(#SVGID_24_);}
	.st30{fill:url(#SVGID_25_);}
	.st31{fill:url(#SVGID_26_);}
	.st32{fill:url(#SVGID_27_);}
	.st33{fill:url(#SVGID_28_);}
	.st34{fill:url(#SVGID_29_);}
	.st35{fill:url(#SVGID_30_);}
	.st36{fill:url(#SVGID_31_);}
	.st37{fill:url(#SVGID_32_);}
	.st38{fill:url(#SVGID_33_);}
	.st39{fill:url(#SVGID_34_);}
	.st40{fill:url(#SVGID_35_);}
	.st41{fill:url(#SVGID_36_);}
	.st42{fill:url(#SVGID_37_);}
	.st43{fill:url(#SVGID_38_);}
	.st44{fill:url(#SVGID_39_);}
	.st45{fill:url(#SVGID_40_);}
	.st46{fill:url(#SVGID_41_);}
	.st47{fill:url(#SVGID_42_);}
	.st48{fill:url(#SVGID_43_);}
	.st49{fill:#CACCCE;}
	.st50{fill:#5C3922;}
	.st51{fill:url(#SVGID_44_);}
	.st52{fill:url(#SVGID_45_);}
	.st53{fill:url(#SVGID_46_);}
	.st54{fill:url(#SVGID_47_);}
	.st55{fill:url(#SVGID_48_);}
	.st56{fill:url(#SVGID_49_);}
	.st57{fill:url(#SVGID_50_);}
	.st58{fill:url(#SVGID_51_);}
	.st59{fill:url(#SVGID_52_);}
	.st60{fill:url(#SVGID_53_);}
	.st61{fill:url(#SVGID_54_);}
	.st62{fill:url(#SVGID_55_);}
	.st63{fill:url(#SVGID_56_);}
	.st64{fill:url(#SVGID_57_);}
	.st65{fill:url(#SVGID_58_);}
	.st66{fill:url(#SVGID_59_);}
	.st67{fill:url(#SVGID_60_);}
	.st68{fill:url(#SVGID_61_);}
	.st69{fill:url(#SVGID_62_);}
	.st70{fill:url(#SVGID_63_);}
	.st71{fill:url(#SVGID_64_);}
	.st72{fill:url(#SVGID_65_);}
	.st73{fill:url(#SVGID_66_);}
	.st74{fill:url(#SVGID_67_);}
	.st75{fill:url(#SVGID_68_);}
	.st76{fill:url(#SVGID_69_);}
	.st77{fill:url(#SVGID_70_);}
	.st78{fill:url(#SVGID_71_);}
	.st79{fill:url(#SVGID_72_);}
	.st80{fill:#FFFFFF;}
</style>
<g class="st0">
	
		<radialGradient id="SVGID_1_" cx="101.974" cy="100.8728" r="147.7528" gradientTransform="matrix(4.489659e-11 -0.859 1 3.856639e-11 20.0629 233.4854)" gradientUnits="userSpaceOnUse">
		<stop  offset="0" style="stop-color:#464548"/>
		<stop  offset="0.1928" style="stop-color:#333034"/>
		<stop  offset="0.3964" style="stop-color:#221C20"/>
		<stop  offset="0.5607" style="stop-color:#140B11"/>
		<stop  offset="0.6641" style="stop-color:#0E0209"/>
		<stop  offset="0.9889" style="stop-color:#0E0209"/>
		<stop  offset="1" style="stop-color:#0E0209"/>
	</radialGradient>
	<polygon class="st1" points="242.3,-0.2 242.3,292 -0.5,292 -0.5,-0.2 	"/>
</g>
<g>
	<g>
		<defs>
			<path id="SVGID_75_" d="M129.8,106.5l-3.2,58.5l2.2,44.1l22.7,4.6c0,0,29.1-31.5,29.1-32.3s7.8-68.6,6.7-68.6
				S129.8,106.5,129.8,106.5z"/>
		</defs>
		<clipPath id="SVGID_2_">
			<use xlink:href="#SVGID_75_"  style="overflow:visible;"/>
		</clipPath>
		<g class="st2">
			<g>
				<g>
					<path class="st3" d="M121.6,204.6c-5.4,0-10.7-1.1-15.6-3.2c-4.8-2-9.1-4.9-12.7-8.6c-3.7-3.7-6.6-8-8.6-12.7
						c-2.1-4.9-3.2-10.2-3.2-15.6c0-5.4,1.1-10.7,3.2-15.6c2-4.8,4.9-9.1,8.6-12.7c3.7-3.7,8-6.6,12.7-8.6
						c4.9-2.1,10.2-3.2,15.6-3.2c5.4,0,10.7,1.1,15.6,3.2c4.8,2,9.1,4.9,12.7,8.6c3.7,3.7,6.6,8,8.6,12.7c2.1,4.9,3.2,10.2,3.2,15.6
						c0,5.4-1.1,10.7-3.2,15.6c-2,4.8-4.9,9.1-8.6,12.7c-3.7,3.7-8,6.6-12.7,8.6C132.3,203.5,127,204.6,121.6,204.6z M121.6,128.8
						c-19.7,0-35.7,16-35.7,35.7s16,35.7,35.7,35.7s35.7-16,35.7-35.7S141.3,128.8,121.6,128.8z"/>
				</g>
				<g>
					<path class="st4" d="M121.6,191c-3.6,0-7.1-0.7-10.3-2.1c-3.2-1.3-6-3.3-8.4-5.7c-2.4-2.4-4.4-5.3-5.7-8.4
						c-1.4-3.3-2.1-6.7-2.1-10.3s0.7-7.1,2.1-10.3c1.3-3.2,3.3-6,5.7-8.4c2.4-2.4,5.3-4.4,8.4-5.7c3.3-1.4,6.7-2.1,10.3-2.1
						s7.1,0.7,10.3,2.1c3.2,1.3,6,3.3,8.4,5.7c2.4,2.4,4.4,5.3,5.7,8.4c1.4,3.3,2.1,6.7,2.1,10.3s-0.7,7.1-2.1,10.3
						c-1.3,3.2-3.3,6-5.7,8.4c-2.4,2.4-5.3,4.4-8.4,5.7C128.7,190.3,125.2,191,121.6,191z M121.6,140.2c-13.4,0-24.3,10.9-24.3,24.3
						c0,13.4,10.9,24.3,24.3,24.3c13.4,0,24.3-10.9,24.3-24.3C145.9,151.1,135,140.2,121.6,140.2z"/>
				</g>
			</g>
		</g>
	</g>
	<g>
		<g>
			<path class="st3" d="M66.2,204.6h-4.1c-1.7,0-3-1.5-3-3.4l0,0l1.5-44.9c0-0.6,0.5-1.1,1.1-1.1c0.6,0,1.1,0.5,1.1,1.1l-1.5,44.9
				c0,0.6,0.4,1.1,0.8,1.1h4.1c0.4,0,0.8-0.5,0.8-1.1l-1.4-44.9c0-0.6,0.5-1.1,1.1-1.1c0.6,0,1.1,0.5,1.1,1.1l1.4,45v0
				C69.2,203.1,67.8,204.6,66.2,204.6z"/>
		</g>
		<g>
			<path class="st3" d="M70.4,153.7H57.9c-1.9,0-3.4-1.5-3.4-3.4v-25.9c0-0.6,0.5-1.1,1.1-1.1c0.6,0,1.1,0.5,1.1,1.1v25.9
				c0,0.6,0.5,1.2,1.2,1.2h12.5c0.6,0,1.2-0.5,1.2-1.2v-25.9c0-0.6,0.5-1.1,1.1-1.1s1.1,0.5,1.1,1.1v25.9
				C73.8,152.2,72.3,153.7,70.4,153.7z"/>
		</g>
		<g>
			<path class="st3" d="M61.2,148.2c-0.6,0-1.1-0.5-1.1-1.1v-22.7c0-0.6,0.5-1.1,1.1-1.1s1.1,0.5,1.1,1.1v22.7
				C62.3,147.7,61.8,148.2,61.2,148.2z"/>
		</g>
		<g>
			<path class="st3" d="M67,148.2c-0.6,0-1.1-0.5-1.1-1.1v-22.7c0-0.6,0.5-1.1,1.1-1.1s1.1,0.5,1.1,1.1v22.7
				C68.1,147.7,67.6,148.2,67,148.2z"/>
		</g>
	</g>
	<rect x="59.4" y="215.8" class="st5" width="112.4" height="3"/>
	<path class="st4" d="M75.9,153c-4.2-5.3-6.3-11.5-6.3-18.9c0-9.4,3.3-16.9,10-22.6c6.1-5.1,15.9-7.7,29.6-7.7h18.3v103.3h-15.6
		v-42.3h-2.8l-29.5,42.3H60.5l32-44C85.6,161.6,80.1,158.3,75.9,153z M111.9,118.5h-5.6c-14.4,0-21.5,5.3-21.5,15.8
		c0,11.3,7.4,16.9,22.1,16.9h4.9V118.5z"/>
	<g>
		<g>
			<path class="st6" d="M128.3,188.2c-0.9-23.3,0.2-62.8,0.8-82.4l-2.8,0.2c-0.7,19.7-1.7,59-0.8,82.3c1.2,32.1,9.6,50.5,10,51.2
				l2.5-1.2C137.9,238.2,129.5,219.8,128.3,188.2z"/>
			<path class="st7" d="M136.6,237.4c-0.2-0.5-0.4-1.1-0.7-1.9c-0.2-0.7-0.5-1.6-0.8-2.5c-0.1-0.5-0.3-1-0.5-1.5
				c-0.2-0.5-0.3-1.1-0.5-1.7c-0.3-1.2-0.7-2.4-1-3.8c-0.2-0.7-0.3-1.4-0.5-2.1c-0.2-0.7-0.4-1.5-0.5-2.2c-0.2-0.8-0.3-1.5-0.5-2.3
				c-0.1-0.4-0.2-0.8-0.3-1.2c-0.1-0.4-0.2-0.8-0.2-1.2c-0.2-0.8-0.3-1.7-0.5-2.6c-0.2-0.9-0.3-1.8-0.4-2.7
				c-0.1-0.5-0.1-0.9-0.2-1.4c0-0.2-0.1-0.5-0.1-0.7c0-0.2-0.1-0.5-0.1-0.7c-0.1-0.9-0.3-1.9-0.4-2.9c-0.1-0.5-0.1-1-0.2-1.5
				c-0.1-0.5-0.1-1-0.2-1.5c-0.1-1-0.2-2-0.3-3c-0.1-1-0.2-2.1-0.3-3.1c-0.1-1-0.2-2.1-0.3-3.2c-0.1-1.1-0.1-2.1-0.2-3.2
				c0-0.5-0.1-1.1-0.1-1.6l0-0.8l0-0.8c-0.1-2.2-0.1-4.4-0.2-6.7c0-1.1-0.1-2.3-0.1-3.4c0-1.1-0.1-2.3-0.1-3.4c0-2.3,0-4.6-0.1-6.8
				c0-2.3,0-4.6,0-6.8c0-2.3,0-4.5,0-6.8c0-4.5,0-8.9,0.1-13.2c0.1-4.3,0.1-8.4,0.2-12.3c0.1-3.9,0.2-7.6,0.2-11.1
				c0.1-3.4,0.2-6.6,0.2-9.4c0-0.5,0-1,0-1.5l-0.3,0c0,0.5,0,1-0.1,1.5c-0.1,2.8-0.2,5.9-0.3,9.3c-0.1,3.4-0.2,7.1-0.4,11.1
				c-0.1,3.9-0.2,8.1-0.3,12.4c-0.1,4.3-0.2,8.7-0.2,13.2c0,2.2-0.1,4.5-0.1,6.8c0,2.3,0,4.6,0,6.9c0,2.3,0,4.6,0,6.9
				c0,1.1,0,2.3,0,3.4c0,1.1,0,2.3,0.1,3.4c0,2.2,0.1,4.5,0.1,6.7l0,0.8l0,0.8c0,0.5,0.1,1.1,0.1,1.6c0.1,1.1,0.1,2.2,0.2,3.2
				c0.1,1.1,0.2,2.1,0.3,3.2c0.1,1.1,0.2,2.1,0.3,3.1c0.1,1,0.2,2,0.4,3c0.1,0.5,0.1,1,0.2,1.5c0.1,0.5,0.1,1,0.2,1.5
				c0.1,1,0.3,1.9,0.4,2.9c0,0.2,0.1,0.5,0.1,0.7c0,0.2,0.1,0.5,0.1,0.7c0.1,0.5,0.2,0.9,0.2,1.4c0.2,0.9,0.3,1.8,0.5,2.7
				c0.2,0.9,0.4,1.7,0.5,2.6c0.1,0.4,0.2,0.8,0.3,1.2c0.1,0.4,0.2,0.8,0.3,1.2c0.2,0.8,0.4,1.6,0.6,2.3c0.2,0.8,0.4,1.5,0.6,2.2
				c0.2,0.7,0.4,1.4,0.6,2.1c0.8,2.7,1.5,5,2.2,6.9c0.3,0.9,0.7,1.8,0.9,2.5c0.3,0.7,0.5,1.3,0.8,1.8c0.2,0.5,0.4,0.9,0.5,1.1
				c0.1,0.3,0.2,0.4,0.2,0.4l0.1,0c0,0-0.1-0.1-0.2-0.4C136.9,238.3,136.8,237.9,136.6,237.4z"/>
		</g>
		<g>
			<g>
				
					<linearGradient id="SVGID_3_" gradientUnits="userSpaceOnUse" x1="76.4549" y1="119.2567" x2="86.1341" y2="112.535" gradientTransform="matrix(0.9997 2.356718e-02 -2.356718e-02 0.9997 -3.6995 -2.7)">
					<stop  offset="0" style="stop-color:#5F0000"/>
					<stop  offset="5.259776e-02" style="stop-color:#7D0000"/>
					<stop  offset="0.1099" style="stop-color:#9A0000"/>
					<stop  offset="0.1747" style="stop-color:#B60000"/>
					<stop  offset="0.248" style="stop-color:#CD0000"/>
					<stop  offset="0.3336" style="stop-color:#E00000"/>
					<stop  offset="0.4394" style="stop-color:#ED0000"/>
					<stop  offset="0.5878" style="stop-color:#F60000"/>
					<stop  offset="1" style="stop-color:#F90000"/>
				</linearGradient>
				<path class="st8" d="M73.5,110.8c-1-0.2-3-0.4-3-0.1c0,1.6,1.5,4.7,2.3,6.1c0.9,1.6,1.7,0.9,3.2,1.3c1.2,0.3,1.9,1.3,3.2,1.3
					c0.1-2.4-1.5-4.2-3-5.9c-0.6-0.7-1.4-2.1-2.2-2.6C74,110.9,73.8,110.9,73.5,110.8z"/>
				
					<radialGradient id="SVGID_4_" cx="105.6194" cy="98.3479" r="40.8961" gradientTransform="matrix(0.9997 2.356718e-02 -2.356718e-02 0.9997 -3.6995 -2.7)" gradientUnits="userSpaceOnUse">
					<stop  offset="0" style="stop-color:#5F0000"/>
					<stop  offset="0.2452" style="stop-color:#F90000"/>
					<stop  offset="0.2738" style="stop-color:#FB0000"/>
					<stop  offset="0.3691" style="stop-color:#FF2F00"/>
					<stop  offset="0.4634" style="stop-color:#FF4200"/>
					<stop  offset="0.5547" style="stop-color:#FF4800"/>
					<stop  offset="0.685" style="stop-color:#FF3D00"/>
					<stop  offset="0.8855" style="stop-color:#FC0A00"/>
					<stop  offset="1" style="stop-color:#F90000"/>
				</radialGradient>
				<path class="st9" d="M119.2,108c0,0-7.3-0.2-14.8-0.3c-6.7-0.1-13.7-0.3-15.6-0.3c-4.1-0.1-9.9,1.4-15.2,2.9
					c-1.7,0.5-2.8,0.2-1.7,1.9c0.8,1.2,2.5,1.7,3.4,2.8c1.5,1.9,2.1,4.2,4.4,5.5c1.2,0.6,2.2,0.9,3.2,1.8c1.1,0.9,1.7,1.8,3.1,2.2
					c2.8,0.9,5.6-0.1,8,1.8c2.4,1.9,4.3,2.7,7.1,3.6c1.5,0.5,2.4,0.8,4.1,0.8c1.8,0,2.3,0.3,3.9,1.1c1.2,0.6,2.3,1.2,3.7,1.2
					c1.5,0,2.7-1,4.2-1c1.5,0,2.2,0.9,3.7,0.1c1.2-0.6,1.9-2.1,3.2-2.8c1.7-0.9,3.6,0,5.2-0.6c1.8-0.7,3.1-2.2,5-2.8
					c2.1-0.7,3.7-0.9,5.9-0.9c1.3,0,4.9,0.7,5.5-0.5c-0.4,0.8-6.2-4.1-6.7-4.5c-2.3-1.9-4.6-2.3-7.2-3.6
					C127.3,114.3,123,111.2,119.2,108z"/>
				
					<radialGradient id="SVGID_5_" cx="60.2839" cy="135.1359" r="37.739" gradientTransform="matrix(1.0584 -1.505952e-02 1.044331e-02 1.0548 46.3209 -33.1294)" gradientUnits="userSpaceOnUse">
					<stop  offset="0" style="stop-color:#5F0000"/>
					<stop  offset="0.3983" style="stop-color:#F90000"/>
					<stop  offset="0.6077" style="stop-color:#FC0000"/>
					<stop  offset="0.9804" style="stop-color:#FF4400"/>
					<stop  offset="0.9892" style="stop-color:#FF4500"/>
				</radialGradient>
				<path class="st10" d="M119.2,107.8c-3-0.3-6.2,0.5-9.2-0.1c-1.6-0.3-3.1-0.9-4.9-1c-1.9-0.1-9.2-0.7-10.1,1.8
					c-1.2-1.1-4.9-2-6.6-2.1c-2.4-0.1-4.3,1.4-6.5,1.8c-3.5,0.7-8.3,0.9-11.5,2.8c3.1,0,5.6,0.6,8.3,2.1c1.5,0.8,2.5,1.4,4.1,1.8
					c0.7,0.2,1.2,0.1,1.9,0.4c0.7,0.4,1.1,1.4,1.7,1.8c1.5,0.9,2.7-0.7,4.3-1.1c1.3-0.3,2.4-0.1,3.7-0.9c0.7-0.5,0.3-0.9,1.2-1.3
					c0.8-0.3,1.1,0.2,1.8,0.2c1.4,0.1,2.7-0.2,4.1-0.3c0.8-0.1,1.7,0,2.5,0.1c-0.2,1.5,2.8,4.7,0.7,5c0.9,0,2-0.2,2.8,0.3
					c0.7,0.4,0.8,1.5,1.6,2c1.1,0.7,3.7,0.8,3.2,2.9c1.3,0.1,2.6-0.5,3.8-0.6c1.4-0.1,2.7,0.1,4-0.3c2.9-0.8,4.9-1.1,6.9-3.5
					c2.6-3.3,2.5-5.1-0.7-7.7c-2-1.6-3.8-3.7-6.5-4.1C119.5,107.9,119.4,107.8,119.2,107.8z"/>
				
					<linearGradient id="SVGID_6_" gradientUnits="userSpaceOnUse" x1="101.5673" y1="113.2887" x2="89.1302" y2="131.2338" gradientTransform="matrix(0.9997 2.356718e-02 -2.356718e-02 0.9997 -3.6995 -2.7)">
					<stop  offset="0" style="stop-color:#F90000"/>
					<stop  offset="8.361662e-02" style="stop-color:#FB0000"/>
					<stop  offset="0.3727" style="stop-color:#FF3400"/>
					<stop  offset="0.4766" style="stop-color:#FF4B00"/>
					<stop  offset="0.6542" style="stop-color:#FF631D"/>
					<stop  offset="0.8298" style="stop-color:#FF6F2D"/>
					<stop  offset="1" style="stop-color:#FF7232"/>
				</linearGradient>
				<path class="st11" d="M105.8,126.2c0.2-0.2,0.4-0.4,0.6-0.6c1.4-1.2,2.8-2.3,4.2-3.6c-2,1.2-3.8,2.3-5.9,3.1
					c-0.9,0.3-2.2,1.1-3.3,1c-0.5-0.1-0.7-0.6-1.2-0.8c-0.5-0.1-1.2,0-1.8-0.1c0.1-1.1,2.7-1.7,3.7-2.4c1.3-0.9,3.3-2.2,4.3-3.3
					c-2,1-4.1,1.8-6.3,2.3c-2.4,0.5-3.9,0-6.1-0.9c2.4-1.7,5.5-2.3,7.9-4.3c-2.3,0.8-4.6,1.4-7,1.9c-1.1,0.2-2.5,0.6-3.6,0.5
					c-1.5-0.2-1.2-0.8-2.4-1.6c-1-0.7-0.9-0.1-2-0.2c-3-0.4-5.3-1.6-7.9-3.2c-2.4-1.5-4.2-3.5-7.4-3.3l-0.2,0.4c0,0,0,0,0,0
					c0,0.2,0.2,0.5,0.4,1c0.7,1,2.1,1.5,3,2.4c0.4,0.2,0.7,0.4,0.9,0.7c1.1,1.3,1.5,3,2.6,4.2c0.4,0.4,0.8,0.7,1.3,0.9
					c1.2,0.6,2.2,0.9,3.2,1.8c1.1,0.9,1.7,1.8,3.1,2.2c2.8,0.9,5.6-0.1,8,1.8c2.4,1.9,4.3,2.7,7.1,3.6c1.5,0.5,2.4,0.8,4.1,0.8
					c0.8,0,1.3,0,1.8,0.2c-0.4-2.1-0.6-0.7-1.5-1.6c-0.5-0.5-0.9-0.8-0.7-1.6C104.9,127.1,105.3,126.6,105.8,126.2z"/>
				
					<linearGradient id="SVGID_7_" gradientUnits="userSpaceOnUse" x1="116.5096" y1="126.0426" x2="125.8313" y2="130.7035" gradientTransform="matrix(0.9997 2.356718e-02 -2.356718e-02 0.9997 -3.6995 -2.7)">
					<stop  offset="0" style="stop-color:#F90000"/>
					<stop  offset="8.361662e-02" style="stop-color:#FB0000"/>
					<stop  offset="0.3727" style="stop-color:#FF3400"/>
					<stop  offset="0.4766" style="stop-color:#FF4B00"/>
					<stop  offset="0.6542" style="stop-color:#FF631D"/>
					<stop  offset="0.8298" style="stop-color:#FF6F2D"/>
					<stop  offset="1" style="stop-color:#FF7232"/>
				</linearGradient>
				<path class="st12" d="M119.1,129.6c-0.3-1.4,0.6-3.3,0.4-4.8c-1.6,1.1-3.5,7.5-5.1,6.5c-0.3-2,2.1-3.2,2.6-4.9
					c-0.4,0.5-1.1,0.9-1.8,0.8c1.8-4.1-1.6-2.4-3.8-0.8c-1.1,0.8-3.2,3.2-4.9,4.4c0.9,0.1,1.5,0.5,2.7,1.1c1.2,0.6,2.3,1.2,3.7,1.2
					c1.5,0,2.7-1,4.2-1c1.5,0,2.2,0.9,3.7,0.1c0.6-0.3,1.1-0.8,1.6-1.4C121,130.8,119.6,131.7,119.1,129.6z"/>
				
					<linearGradient id="SVGID_8_" gradientUnits="userSpaceOnUse" x1="127.1325" y1="122.7899" x2="152.4287" y2="122.7899" gradientTransform="matrix(0.9997 2.356718e-02 -2.356718e-02 0.9997 -3.6995 -2.7)">
					<stop  offset="0" style="stop-color:#C20000"/>
					<stop  offset="0.3785" style="stop-color:#D70000"/>
					<stop  offset="1" style="stop-color:#F90000"/>
				</linearGradient>
				<path class="st13" d="M139.4,120.4c-2.2-1.7-4.4-2.1-6.9-3.1c-0.7-0.3-1.4-0.6-2-1c-0.4,0.1-0.8,0.2-1.1,0.3
					c-1.9,0.6-2.9,2-4.5,3c-1.1,0.7-2.3,1-2.8,2.2c-0.3,0.7,0.1,1.3-0.3,2c-0.3,0.5-1,0.7-1.2,1.2c2.1,1.1-1.4,6.4,2.5,4.6
					c1.1-0.5,1.8-1.1,3-1.5c1.2-0.4,2.3-0.4,3.4-0.9c2-0.8,3.4-1.4,5.1-1.6c0.1-0.1,0.3-0.1,0.4-0.1c2-0.6,3.5-0.8,5.6-0.8
					c1.3,0,4.7,0.6,5.3-0.5C145.4,125.1,139.9,120.8,139.4,120.4z"/>
				
					<linearGradient id="SVGID_9_" gradientUnits="userSpaceOnUse" x1="78.3016" y1="123.1995" x2="152.4287" y2="123.1995" gradientTransform="matrix(0.9997 2.356718e-02 -2.356718e-02 0.9997 -3.6995 -2.7)">
					<stop  offset="0" style="stop-color:#FCCBA4"/>
					<stop  offset="7.826372e-02" style="stop-color:#FFAE80"/>
					<stop  offset="0.1981" style="stop-color:#FF8751"/>
					<stop  offset="0.3036" style="stop-color:#FF6828"/>
					<stop  offset="0.3896" style="stop-color:#FF5200"/>
					<stop  offset="0.4453" style="stop-color:#FF4800"/>
					<stop  offset="0.5468" style="stop-color:#FF4200"/>
					<stop  offset="0.6273" style="stop-color:#FF3400"/>
					<stop  offset="0.9164" style="stop-color:#FB0000"/>
					<stop  offset="1" style="stop-color:#F90000"/>
				</linearGradient>
				<path class="st14" d="M71.9,112.2c0,0,0,0.1,0.1,0.2c0,0.1,0.1,0.1,0.2,0.2c0.1,0.1,0.2,0.2,0.3,0.3c0.2,0.2,0.5,0.4,0.9,0.6
					c0.4,0.2,0.8,0.5,1.3,0.8c0.2,0.2,0.5,0.4,0.7,0.6c0.2,0.2,0.4,0.5,0.6,0.8c0.4,0.6,0.8,1.2,1.2,1.9c0.4,0.7,0.9,1.3,1.6,1.9
					c0.3,0.3,0.7,0.5,1.1,0.7c0.4,0.2,0.8,0.4,1.3,0.6c0.4,0.2,0.9,0.4,1.3,0.7c0.2,0.1,0.4,0.3,0.6,0.5c0.2,0.2,0.4,0.3,0.6,0.5
					c0.4,0.4,0.8,0.7,1.2,1c0.4,0.3,0.9,0.5,1.4,0.7c1,0.3,2.2,0.4,3.3,0.4c0.6,0,1.2,0.1,1.8,0.2c0.6,0.1,1.2,0.3,1.8,0.5
					c0.1,0.1,0.3,0.2,0.4,0.2c0.1,0.1,0.3,0.2,0.4,0.3l0.2,0.1c0.1,0,0.1,0.1,0.2,0.1l0.4,0.3l0.4,0.3l0.4,0.3l0.4,0.3
					c0.1,0.1,0.3,0.2,0.4,0.2c1.1,0.6,2.2,1.1,3.4,1.6c0.6,0.2,1.2,0.4,1.8,0.6c0.6,0.2,1.2,0.4,1.8,0.5c0.6,0.1,1.2,0.2,1.9,0.2
					c0.3,0,0.6,0,1,0l0.3,0l0.3,0c0.1,0,0.2,0,0.3,0l0.3,0.1c0.7,0.2,1.3,0.5,1.8,0.8c0.6,0.3,1.1,0.6,1.7,0.9
					c0.6,0.2,1.2,0.4,1.8,0.5c0.1,0,0.3,0,0.4,0c0.1,0,0.2,0,0.2,0l0.2,0c0.3,0,0.6-0.1,0.9-0.2c0.6-0.2,1.2-0.4,1.8-0.6
					c0.3-0.1,0.7-0.1,1-0.1c0.1,0,0.2,0,0.2,0l0.3,0c0.2,0,0.3,0.1,0.5,0.1c0.3,0.1,0.6,0.2,0.9,0.2c0.3,0.1,0.5,0.1,0.8,0
					c0.3,0,0.5-0.1,0.8-0.2c0.3-0.1,0.5-0.3,0.7-0.5c0.4-0.4,0.8-0.8,1.2-1.3c0.2-0.2,0.4-0.4,0.7-0.6c0.1,0,0.1-0.1,0.2-0.1
					c0.1,0,0.1-0.1,0.2-0.1l0.1-0.1l0.1,0l0,0c0,0,0,0,0,0l0.2-0.1c0.6-0.3,1.2-0.3,1.8-0.3c0.6,0,1.2,0.1,1.7,0.1
					c0.3,0,0.5,0,0.8,0c0.1,0,0.3,0,0.4-0.1c0.1,0,0.1,0,0.2,0l0.2-0.1c0.2-0.1,0.5-0.2,0.7-0.3c0.1-0.1,0.2-0.1,0.3-0.2
					c0.1-0.1,0.2-0.1,0.3-0.2c0.9-0.5,1.7-1.2,2.6-1.6c0.1-0.1,0.2-0.1,0.3-0.2c0.1-0.1,0.2-0.1,0.3-0.1c0.1,0,0.2-0.1,0.3-0.1
					c0.1,0,0.2-0.1,0.3-0.1c0.4-0.1,0.9-0.3,1.3-0.4c0.9-0.2,1.7-0.3,2.5-0.4c0.8,0,1.5,0,2.2,0c0.7,0.1,1.3,0.1,1.9,0.2
					c1.1,0.1,2,0.1,2.6-0.1c0.3-0.1,0.5-0.2,0.6-0.3c0,0,0-0.1,0.1-0.1c0,0,0,0,0-0.1c0,0,0-0.1,0-0.1s0,0,0,0.1c0,0,0,0,0,0.1
					c0,0,0,0.1-0.1,0.1c-0.1,0.1-0.3,0.3-0.6,0.4c-0.6,0.2-1.5,0.3-2.6,0.2c-0.6,0-1.2-0.1-1.9-0.1c-0.7,0-1.4,0-2.2,0.1
					c-0.8,0.1-1.6,0.2-2.5,0.4c-0.4,0.1-0.8,0.2-1.3,0.4c-0.1,0-0.2,0.1-0.3,0.1c-0.1,0-0.2,0.1-0.3,0.1c-0.1,0-0.2,0.1-0.3,0.1
					c-0.1,0.1-0.2,0.1-0.3,0.2c-0.8,0.5-1.6,1.1-2.5,1.6c-0.1,0.1-0.2,0.1-0.3,0.2c-0.1,0.1-0.2,0.1-0.4,0.2
					c-0.2,0.1-0.5,0.2-0.7,0.3c-0.6,0.2-1.1,0.3-1.7,0.3c-0.6,0-1.1-0.1-1.7,0c-0.5,0-1.1,0.1-1.6,0.3l-0.2,0.1c0,0,0,0,0,0l0,0
					l-0.1,0.1c-0.1,0-0.1,0.1-0.2,0.1c-0.1,0-0.1,0.1-0.2,0.1c-0.2,0.2-0.4,0.4-0.6,0.6c-0.4,0.4-0.8,0.9-1.3,1.3
					c-0.2,0.2-0.5,0.4-0.8,0.6c-0.3,0.1-0.6,0.3-1,0.3c-0.3,0.1-0.7,0-1,0c-0.3-0.1-0.6-0.2-0.9-0.2c-0.1,0-0.3-0.1-0.4-0.1l-0.2,0
					c-0.1,0-0.2,0-0.2,0c-0.3,0-0.6,0-0.8,0.1c-0.6,0.1-1.2,0.4-1.8,0.6c-0.3,0.1-0.6,0.2-1,0.3l-0.3,0c-0.1,0-0.2,0-0.2,0
					c-0.2,0-0.3,0-0.5,0c-0.7,0-1.4-0.2-2-0.5c-0.6-0.3-1.2-0.6-1.8-0.9c-0.6-0.3-1.1-0.6-1.7-0.8l-0.2-0.1c-0.1,0-0.1,0-0.2,0
					l-0.2,0l-0.2,0c-0.3,0-0.6,0-0.9,0c-0.7,0-1.3-0.1-2-0.2c-0.7-0.1-1.3-0.4-1.9-0.6c-0.6-0.2-1.2-0.4-1.8-0.6
					c-1.2-0.4-2.4-1-3.5-1.6c-0.1-0.1-0.3-0.2-0.4-0.3l-0.4-0.3l-0.4-0.3l-0.4-0.3l-0.4-0.3l-0.2-0.1l-0.2-0.1
					c-0.1-0.1-0.2-0.2-0.4-0.2c-0.1-0.1-0.2-0.2-0.4-0.2c-1-0.5-2.2-0.6-3.4-0.7c-0.6,0-1.2-0.1-1.7-0.2c-0.1,0-0.3,0-0.4-0.1
					c-0.1,0-0.3,0-0.4-0.1c-0.1,0-0.3-0.1-0.4-0.1c-0.1,0-0.3-0.1-0.4-0.1c-0.6-0.2-1.1-0.4-1.5-0.8c-0.5-0.3-0.8-0.7-1.2-1.1
					c-0.2-0.2-0.4-0.4-0.6-0.5c-0.2-0.2-0.4-0.3-0.6-0.4c-0.4-0.3-0.8-0.5-1.3-0.7c-0.4-0.2-0.9-0.4-1.3-0.6
					c-0.4-0.2-0.8-0.5-1.1-0.8c-0.7-0.6-1.1-1.3-1.5-2c-0.4-0.7-0.7-1.3-1.1-1.9c-0.2-0.3-0.4-0.6-0.6-0.8c-0.2-0.2-0.4-0.4-0.6-0.6
					c-0.4-0.4-0.9-0.6-1.2-0.9c-0.4-0.2-0.7-0.5-0.9-0.7c-0.1-0.1-0.2-0.2-0.3-0.3c-0.1-0.1-0.1-0.2-0.2-0.2
					C72,112.3,71.9,112.2,71.9,112.2z"/>
			</g>
			<g>
				
					<linearGradient id="SVGID_10_" gradientUnits="userSpaceOnUse" x1="140.8168" y1="60.0375" x2="144.5822" y2="59.4269" gradientTransform="matrix(0.9997 2.356718e-02 -2.356718e-02 0.9997 -3.6995 -2.7)">
					<stop  offset="0" style="stop-color:#F90000"/>
					<stop  offset="0.9892" style="stop-color:#FF4500"/>
				</linearGradient>
				<path class="st15" d="M138,67.6c-0.7-1.5-2.5-2.3-3.6-3.5c-1.8-2-2.8-5.7-2-8.4c0.4-1.2,1.4-3,2.7-3.3c1.3-0.3,2.2,0.8,2.4,2.1
					c0.4,2.3,0.5,4.6,0.7,7c0.2,2.3-0.2,4.9,0.2,7.1L138,67.6z"/>
				
					<linearGradient id="SVGID_11_" gradientUnits="userSpaceOnUse" x1="139.8578" y1="63.732" x2="142.8899" y2="62.9631" gradientTransform="matrix(0.9997 2.356718e-02 -2.356718e-02 0.9997 -3.6995 -2.7)">
					<stop  offset="0" style="stop-color:#F90000"/>
					<stop  offset="0.9892" style="stop-color:#FF4500"/>
				</linearGradient>
				<path class="st16" d="M138,68.8c-0.8-2.2-3.7-2.9-4.3-5c-0.3-0.9,0.4-2.1,0.8-2.9c0.4-0.8,1.5-1.5,1.5-2.4c0,0,0,0.2,0,0.2
					c1.1,0.6,1.2,3.8,1.4,5c0.3,1.7,0.9,3.6,0.8,5.3L138,68.8z"/>
				
					<radialGradient id="SVGID_12_" cx="128.5714" cy="120.0502" r="78.0279" gradientTransform="matrix(0.9997 2.356718e-02 -2.356718e-02 0.9997 -3.6995 -2.7)" gradientUnits="userSpaceOnUse">
					<stop  offset="0" style="stop-color:#5F0000"/>
					<stop  offset="8.874080e-02" style="stop-color:#610000"/>
					<stop  offset="0.1658" style="stop-color:#6A0000"/>
					<stop  offset="0.2386" style="stop-color:#790000"/>
					<stop  offset="0.3088" style="stop-color:#900000"/>
					<stop  offset="0.3771" style="stop-color:#B00000"/>
					<stop  offset="0.443" style="stop-color:#DA0000"/>
					<stop  offset="0.4802" style="stop-color:#F90000"/>
					<stop  offset="0.6565" style="stop-color:#FF4800"/>
					<stop  offset="0.8257" style="stop-color:#FF3D00"/>
					<stop  offset="0.9713" style="stop-color:#FF2800"/>
					<stop  offset="1" style="stop-color:#F90000"/>
				</radialGradient>
				<path class="st17" d="M115.2,100.6c-3-2.4-5.6-4.6-8.1-7.5c-2.5-3-4.1-7.2-6.2-10.6c-1.8-2.8-2.6-5.9-4-8.9
					c-0.8-1.6-2.4-5.6-0.2-7.1c1-0.7,2.5-0.2,3.8-1c1.3-0.7,2.2-1.9,3.4-2.7c1-0.7,2.4-1.1,3.3-2c1-1,0.9-2.1,2.3-2.7
					c1.7-0.7,2.3-0.4,3.8-1.9c1.1-1.1,1.3-1.5,3-1.7c0.8-0.1,1,0.2,1.8-0.2c0.7-0.3,0.9-1.2,1.6-1.4c1.8-0.6,2,1.3,3.8,1.2
					c1.5-0.1,2.9-0.6,4.3-1.1c0.7-0.2,1.4-0.4,2.1-0.7c0.6-0.2,1.4,0,2.2,0c0.5,0,1.1-0.2,1.6-0.3c0.8-0.1,2,0,2.7,0.4
					c0.4,0.2,0.5,0.6,0.5,1c0,0.6-0.2,0.9-0.6,1.3c-0.3,0.3-0.6,0.7-0.9,1c-0.3,0.4-0.4,0.7-0.3,1.2c0.2,0.8,1,1.5,1,2.4
					c0,0.2-0.2,0.5-0.3,0.7c-0.3,0.5-0.8,0.7-1.1,1.1c-0.3,0.4-0.4,0.8-0.3,1.3c0.1,0.6,0.5,1.1,1,1.3c1,0.5,2,0.9,2.8,1.6
					c0.5,0.4,0.7,0.9,0.9,1.4c0.2,0.5,0.3,1,0.3,1.6c0,0.5-0.2,1-0.3,1.5c-0.1,1.2,0.9,1.8,1.5,2.6c0.7,1.1,0.5,2.6,0.4,3.8
					c0,0.4,0,0.9,0.2,1.3c0.7,1.3,2.3,0.8,3.4,1.3c0.5,0.2,1,0.7,1.2,1.2c0.2,0.5,0.6,1,0.8,1.5c0.2,0.5,0.3,1,0.5,1.5
					c0.2,0.6,0.3,1.1,0.5,1.7c0.2,0.6,0.6,1.1,0.8,1.7c0.3,0.7,0.5,1.5,0.9,2.1c0.5,0.9,0.7,1.5,0.8,2.4c0.1,1,0.2,1.8-0.1,2.7
					c-0.5,1.5-1.7,2.6-2.7,3.7c-1.2,1.4-2.4,2.7-3.8,3.9c-1.7,1.4-4,2.2-6.1,3.1c-2.2,0.9-5.1,1.7-7.4,1.8c-1.3,0.1-2.5,0.2-3.7,0.3
					C120.9,107,119,103.7,115.2,100.6z"/>
				
					<linearGradient id="SVGID_13_" gradientUnits="userSpaceOnUse" x1="138.3797" y1="72.3492" x2="156.2713" y2="72.3492" gradientTransform="matrix(0.9997 2.356718e-02 -2.356718e-02 0.9997 -3.6995 -2.7)">
					<stop  offset="0" style="stop-color:#FCCBA4"/>
					<stop  offset="7.826372e-02" style="stop-color:#FFAE80"/>
					<stop  offset="0.1981" style="stop-color:#FF8751"/>
					<stop  offset="0.3036" style="stop-color:#FF6828"/>
					<stop  offset="0.3896" style="stop-color:#FF5200"/>
					<stop  offset="0.4453" style="stop-color:#FF4800"/>
					<stop  offset="0.5468" style="stop-color:#FF4200"/>
					<stop  offset="0.6273" style="stop-color:#FF3400"/>
					<stop  offset="0.9164" style="stop-color:#FB0000"/>
					<stop  offset="1" style="stop-color:#F90000"/>
				</linearGradient>
				<path class="st18" d="M133.4,52.2c0,0,0.1,0,0.2,0c0.1,0,0.2,0,0.4,0c0.2,0,0.4,0,0.7,0c0.3,0,0.6,0.1,1,0.1
					c0.2,0,0.4,0.1,0.6,0.2c0.2,0.1,0.4,0.2,0.5,0.4c0.1,0.2,0.3,0.4,0.3,0.7c0,0.3-0.1,0.5-0.2,0.8c-0.1,0.1-0.1,0.2-0.2,0.4
					c0,0.1-0.1,0.1-0.1,0.2c0,0.1-0.1,0.1-0.1,0.2c-0.2,0.2-0.4,0.4-0.6,0.6c-0.2,0.2-0.4,0.4-0.5,0.6l0,0l0,0l0,0.1
					c0,0.1,0,0.1-0.1,0.2c0,0.1,0,0.3,0,0.4c0.1,0.3,0.2,0.5,0.4,0.8c0.2,0.3,0.3,0.6,0.5,0.9c0.1,0.1,0.2,0.3,0.2,0.5
					c0.1,0.2,0.1,0.4,0,0.6c-0.1,0.2-0.2,0.4-0.3,0.5c-0.1,0.2-0.2,0.3-0.4,0.4c-0.3,0.3-0.6,0.5-0.8,0.7c-0.2,0.2-0.4,0.5-0.4,0.8
					c0,0.3,0.1,0.6,0.4,0.9c0.2,0.3,0.5,0.5,0.8,0.7c0.6,0.4,1.4,0.7,2.1,1.1c0.2,0.1,0.4,0.2,0.5,0.3c0.1,0.1,0.2,0.1,0.3,0.2l0,0
					c0,0,0,0,0,0l0,0l0.1,0.1l0.1,0.1c0.1,0.1,0.1,0.2,0.2,0.3c0,0,0.1,0.1,0.1,0.1l0.1,0.1c0,0.1,0.1,0.2,0.1,0.3
					c0,0.1,0.1,0.2,0.1,0.3c0.1,0.4,0.2,0.8,0.3,1.3c0,0.1,0,0.2,0,0.3c0,0.1,0,0.1,0,0.2c0,0.1,0,0.1,0,0.2c0,0.2-0.1,0.4-0.1,0.6
					c0,0.2-0.1,0.4-0.1,0.6c0,0.1,0,0.2,0,0.3c0,0.1,0,0.2,0,0.2c0.1,0.3,0.4,0.6,0.7,0.8c0.3,0.3,0.6,0.6,0.8,1.1l0,0.1l0,0.1l0,0
					l0,0.1l0.1,0.3c0.1,0.2,0.1,0.4,0.2,0.6c0,0.1,0.1,0.2,0.1,0.3l0.1,0.3l0.1,0.3c0,0.1,0,0.2,0,0.3l0,0.3c0,0.1,0,0.1,0,0.2
					l0,0.2c0,0.2,0,0.4,0,0.6c0,0.4-0.1,0.8,0,1.1c0,0.2,0.1,0.3,0.2,0.4c0.1,0.1,0.1,0.1,0.2,0.2c0,0,0,0,0,0l0,0l0.1,0
					c0,0,0.1,0,0.1,0.1c0.3,0.2,0.7,0.2,1.1,0.3c0.4,0,0.8,0.1,1.2,0.2l0.2,0.1l0.1,0.1l0.1,0.1c0,0,0.1,0.1,0.1,0.1
					c0.2,0.1,0.3,0.2,0.5,0.4c0.3,0.3,0.6,0.6,0.8,0.9c0.4,0.7,0.7,1.4,0.9,2.1c0,0.2,0.1,0.4,0.1,0.5c0,0.2,0.1,0.3,0.1,0.5
					c0,0.1,0,0.2,0.1,0.3c0,0.1,0,0.2,0.1,0.2c0.1,0.2,0.1,0.3,0.2,0.5c0.2,0.6,0.5,1.2,0.7,1.8c0.3,0.6,0.5,1.1,0.8,1.6
					c0.1,0.3,0.2,0.5,0.3,0.8c0.1,0.3,0.2,0.5,0.3,0.7c0.2,0.5,0.3,1,0.4,1.4c0.1,0.4,0.1,0.8,0.2,1.2c0,0.7,0,1.3-0.1,1.7
					c0,0.1-0.1,0.2-0.1,0.2c0,0.1-0.1,0.1-0.1,0.2c0,0.1-0.1,0.1-0.1,0.1s0,0,0.1-0.1c0,0,0-0.1,0.1-0.2c0-0.1,0-0.2,0.1-0.3
					c0.1-0.4,0.1-1,0.1-1.7c0-0.4-0.1-0.8-0.2-1.2c-0.1-0.4-0.2-0.9-0.4-1.4c-0.1-0.2-0.2-0.5-0.3-0.7c-0.1-0.2-0.2-0.5-0.4-0.7
					c-0.3-0.5-0.5-1-0.8-1.6c-0.3-0.6-0.6-1.2-0.8-1.8c-0.1-0.2-0.1-0.3-0.2-0.5c0-0.1-0.1-0.2-0.1-0.3c0-0.1,0-0.2-0.1-0.3
					c0-0.2-0.1-0.3-0.1-0.5c0-0.2-0.1-0.3-0.1-0.5c-0.2-0.7-0.5-1.3-0.9-1.9c-0.2-0.3-0.4-0.6-0.7-0.8c-0.1-0.1-0.3-0.2-0.4-0.3
					c0,0-0.1,0-0.1-0.1l-0.1-0.1l-0.1-0.1c0,0,0,0,0,0l0,0l-0.1,0c-0.3-0.1-0.7-0.1-1.1-0.2c-0.4,0-0.8-0.1-1.3-0.3
					c-0.1,0-0.1-0.1-0.2-0.1l-0.1,0l0,0l0,0c0,0,0,0,0,0c-0.1-0.1-0.2-0.1-0.3-0.2c-0.2-0.2-0.3-0.4-0.3-0.6c-0.1-0.5-0.1-0.9,0-1.3
					c0-0.2,0-0.4,0-0.6l0-0.2l0-0.1l0-0.3c0-0.1,0-0.2,0-0.3l0-0.3l0-0.3c0-0.1,0-0.2-0.1-0.3c-0.1-0.2-0.1-0.4-0.2-0.6l-0.1-0.3
					l-0.1-0.1l0,0c0,0,0,0,0,0l0-0.1c-0.1-0.3-0.4-0.6-0.7-0.9c-0.1-0.1-0.3-0.3-0.5-0.5c-0.1-0.2-0.3-0.4-0.4-0.7
					c0-0.1,0-0.3,0-0.4c0-0.1,0-0.2,0.1-0.3c0-0.2,0.1-0.4,0.1-0.6c0-0.2,0.1-0.4,0.1-0.6c0,0,0-0.1,0-0.1c0,0,0-0.1,0-0.1
					c0-0.1,0-0.2,0-0.3c-0.1-0.4-0.1-0.8-0.2-1.2c0-0.1-0.1-0.2-0.1-0.3c0-0.1-0.1-0.2-0.1-0.3l-0.1-0.1c0,0,0-0.1-0.1-0.1
					c-0.1-0.1-0.1-0.1-0.2-0.2l-0.1-0.1l-0.1-0.1l0,0c0,0,0,0,0,0c-0.1-0.1-0.1-0.1-0.2-0.2c-0.2-0.1-0.3-0.2-0.5-0.3
					c-0.7-0.4-1.4-0.7-2.1-1.1c-0.3-0.2-0.7-0.5-0.9-0.8c-0.3-0.3-0.4-0.8-0.4-1.2c0-0.2,0.1-0.5,0.2-0.6c0.1-0.2,0.2-0.3,0.4-0.5
					c0.3-0.3,0.6-0.5,0.8-0.7c0.1-0.1,0.2-0.2,0.3-0.4c0.1-0.1,0.2-0.3,0.2-0.4c0-0.1,0-0.3,0-0.4c-0.1-0.1-0.1-0.3-0.2-0.4
					c-0.2-0.3-0.3-0.6-0.5-0.9c-0.2-0.3-0.3-0.6-0.4-0.9c0-0.2,0-0.4,0-0.5c0-0.1,0-0.2,0.1-0.2l0-0.1l0-0.1l0-0.1
					c0.2-0.3,0.4-0.5,0.6-0.7c0.2-0.2,0.4-0.4,0.6-0.6c0,0,0.1-0.1,0.1-0.1c0-0.1,0.1-0.1,0.1-0.2c0.1-0.1,0.1-0.2,0.2-0.3
					c0.1-0.2,0.2-0.4,0.2-0.7c0-0.2-0.1-0.4-0.2-0.6c-0.1-0.2-0.3-0.3-0.5-0.4c-0.2-0.1-0.3-0.2-0.5-0.2c-0.7-0.2-1.3-0.2-1.7-0.2
					c-0.2,0-0.3,0-0.4,0C133.5,52.2,133.4,52.2,133.4,52.2z"/>
				
					<linearGradient id="SVGID_14_" gradientUnits="userSpaceOnUse" x1="153.3075" y1="75.5845" x2="143.8062" y2="81.5005" gradientTransform="matrix(0.9997 2.356718e-02 -2.356718e-02 0.9997 -3.6995 -2.7)">
					<stop  offset="0" style="stop-color:#F90000"/>
					<stop  offset="8.361662e-02" style="stop-color:#FB0000"/>
					<stop  offset="0.3727" style="stop-color:#FF3400"/>
					<stop  offset="0.4766" style="stop-color:#FF4B00"/>
					<stop  offset="0.6542" style="stop-color:#FF631D"/>
					<stop  offset="0.8298" style="stop-color:#FF6F2D"/>
					<stop  offset="1" style="stop-color:#FF7232"/>
				</linearGradient>
				<path class="st19" d="M138.8,69.9c-0.2,0.9-0.3,0.8,0.3,1.5c0.4,0.4,0.9,0.7,1.3,1.1c0.8,1.1,0.6,3.1,0.7,4.3
					c0.1,0.9,0,1.5,0.8,2.1c0.6,0.4,1.4,0.4,2.1,0.8c1.5,0.8,2.1,2,2.5,3.6c0.2,0.6,0.3,1.4,0.3,2c0,0.5-0.1,0.5,0.2,0.9
					c0.2,0.2,0.6,0.2,0.7,0.7c0.2,0.8-0.6,1.3,0,2c0.4,0.5,1,0.7,1.3,1.4c0.9,1.7,0.6,3.3-0.6,4.8c-0.6,0.7-1.2,1.3-1.8,1.9
					c-0.4,0.5-1.2,1.9-1.7,1.9c-0.3-1.4-0.4-2.9-0.6-4.3c-0.1-0.7,0-1.5-0.1-2.2c-0.1-0.8-0.5-1.5-0.6-2.3c-0.1-0.3,0-0.8-0.1-1.1
					c-0.2-0.5-0.2-0.3-0.5-0.8c-0.4-0.6-0.8-1.2-1.1-1.8c-0.8-1.4-1.8-2.4-1.7-4.1c0.1-1.5,0.9-2.4,0.2-3.8c-0.6-1.4-0.9-3-1.3-4.5
					c-0.3-1.3-0.5-3-1.3-4.1c-0.8-1.2-1.4-2.4-2.1-3.7c-0.4-0.8-1.3-1.9-1.3-2.8c1,0.3,2,1.7,2.8,2.4
					C138.4,67,139.1,68.2,138.8,69.9z"/>
				
					<linearGradient id="SVGID_15_" gradientUnits="userSpaceOnUse" x1="127.6108" y1="75.3705" x2="130.1822" y2="74.903" gradientTransform="matrix(0.9997 2.356718e-02 -2.356718e-02 0.9997 -3.6995 -2.7)">
					<stop  offset="0" style="stop-color:#F90000"/>
					<stop  offset="0.9892" style="stop-color:#FF4500"/>
				</linearGradient>
				<path class="st20" d="M123.9,82.1c-0.3-4.1-1-8.3-1.8-12.1c-0.6-2.6-1.5-5-2.2-7.6c-0.4-1.3-0.5-2.7-0.9-4.1
					c-0.3-1.2-1-2.6-0.8-3.8c0.1,1.1,1.5,1.5,2.2,2.2c0.8,0.7,1.9,1.6,2.3,2.7c0.4,1.1,0,1.8-0.2,2.9c-0.1,1,0.1,2,0.2,3
					c0.1,1-0.1,2,0,3c0.1,1.2,0.8,2.3,1.1,3.5c0.8,2.4,1.1,4.5,1.4,6.9c0.2,1.7,0.3,3.5,0.6,5.2c0.2,1.7,0.8,3.1,0.7,4.8
					c-0.1,1.5-0.2,2.9-0.5,4.3c-0.1,0.7-0.4,1.4-0.5,2c-0.2,0.7,0,1.4-0.3,2.1c-0.8-1.7-0.2-4.4-0.4-6.2
					C124.6,87.8,124.1,85,123.9,82.1z"/>
				
					<linearGradient id="SVGID_16_" gradientUnits="userSpaceOnUse" x1="130.9815" y1="63.3401" x2="134.6616" y2="63.3401" gradientTransform="matrix(0.9997 2.356718e-02 -2.356718e-02 0.9997 -3.6995 -2.7)">
					<stop  offset="0" style="stop-color:#F90000"/>
					<stop  offset="0.9892" style="stop-color:#FF4500"/>
				</linearGradient>
				<path class="st21" d="M126.2,58.3c-0.2-0.9-0.7-1.8,0.2-2.7c0.3-0.3,0.8-0.1,1.1-0.6c0.2-0.4-0.2-1.1,0-1.4
					c0.3-0.5,2.1-1.2,2.6-1.2c1.3,0.1,0.8,1.1,0.5,2.2c-0.4,1.7-1.1,3.4-1.3,5.1c-0.2,1.8-0.3,3.6-0.6,5.4c-0.2,0.9-0.1,1.7-0.2,2.6
					c-0.1,0.9-0.6,1.5-0.8,2.4c-0.3,1.5-0.2,3.3-0.4,4.8c-1.5-1.7-0.1-4.8-0.1-6.8C127.2,64.9,126.9,61.6,126.2,58.3z"/>
				
					<linearGradient id="SVGID_17_" gradientUnits="userSpaceOnUse" x1="111.972" y1="65.3295" x2="117.3495" y2="62.2822" gradientTransform="matrix(0.9997 2.356718e-02 -2.356718e-02 0.9997 -3.6995 -2.7)">
					<stop  offset="0" style="stop-color:#F90000"/>
					<stop  offset="0.9892" style="stop-color:#FF4500"/>
				</linearGradient>
				<path class="st22" d="M107.5,60.2c0.5-0.5,1.6-1.5,2.3-1.4c0.2,1.1-0.1,1.7,0.5,2.7c0.5,1,0.8,1.4,0.7,2.7
					c-0.1,0.9,0.8,3.3-0.3,3.9c-0.8,0.5-1.2-0.5-1.7-1.1C107.8,65,105.4,62.4,107.5,60.2z"/>
				
					<linearGradient id="SVGID_18_" gradientUnits="userSpaceOnUse" x1="117.5801" y1="61.9912" x2="122.0618" y2="59.84" gradientTransform="matrix(0.9997 2.356718e-02 -2.356718e-02 0.9997 -3.6995 -2.7)">
					<stop  offset="0" style="stop-color:#F90000"/>
					<stop  offset="0.9892" style="stop-color:#FF4500"/>
				</linearGradient>
				<path class="st23" d="M112.6,59c-0.6-1-0.9-1.6,0-2.3c0.3-0.2,0.8-0.1,1.1-0.4c0.3-0.3,0.4-0.8,0.8-1c1.4-0.5,1.1,1.1,1.2,1.9
					c0.1,1,0.4,1.9,0.7,2.9c0.2,0.9,0.1,1.9,0.2,2.9c0,0.9,1,2.5-0.1,3.1C114.8,64.2,113.8,61.1,112.6,59z"/>
				
					<linearGradient id="SVGID_19_" gradientUnits="userSpaceOnUse" x1="129.0627" y1="91.6677" x2="153.0837" y2="75.8927" gradientTransform="matrix(0.9997 2.356718e-02 -2.356718e-02 0.9997 -3.6995 -2.7)">
					<stop  offset="0" style="stop-color:#F90000"/>
					<stop  offset="0.3983" style="stop-color:#F90000"/>
					<stop  offset="0.6077" style="stop-color:#FC0000"/>
					<stop  offset="0.9804" style="stop-color:#FF4400"/>
					<stop  offset="0.9892" style="stop-color:#FF4500"/>
				</linearGradient>
				<path class="st24" d="M131.6,87.1c0.5-1.9,0.4-4,0.7-5.9c0.3-2,1.1-4,1.5-6c0.4-2.3,0.5-4.6,0.5-6.9c0-1.4-0.1-2.8-0.1-4.2
					c1.8,3.6,0.9,7.2,0.6,11.1c-0.2,2.1-0.4,4.2-0.5,6.2c-0.1,1,0,2-0.3,3c-0.2,0.9-0.7,1.9-0.7,2.9c0,0.2-0.1,0.4-0.1,0.7
					c1.8,0.2,2.1-6.7,2.4-7.8c0.3-1.1,0.9-2,1-3.2c0.1-0.7-0.1-2.7,0.9-2.6c0,1.6-0.8,3.5-1.1,5.1c-0.2,1.4-0.1,2.9-0.1,4.3
					c-0.1,1.8-0.7,3.7-1.2,5.4c-0.5,1.6-1.4,3-1.5,4.6c-0.1,2.2,1.6,2.5,1.6,4.6c1-0.1,1.6-1.4,2.2-2.1c0.9-0.9,1.5-1.4,2.1-2.6
					c0.4-0.8,1.5-4.9,2.4-4.7c0.6,0.1,0.8,2.2,0.7,2.8c-0.2,1-1.2,1.9-1.8,2.7c-0.8,1-0.6,1.4-0.9,2.6c-0.2,0.9-1.3,1.6-1.2,2.6
					c1.2,0.1,2.5-1.7,3.2-2.5c0.5-0.7,1.2-2.9,2.1-3c0.1,3.6-3.9,10-7.6,10.2c-0.9,0-2.2,0.3-3.1,0.1c-1.5-0.5-1.3-1.9-1.5-3.2
					c-0.1-1.1-0.5-2-0.9-3c-0.3-0.6-1.2-1.7-1.2-2.2c-0.1-1.1,0.7-2.5,1-3.6C130.8,90.5,131.2,88.8,131.6,87.1z"/>
				
					<linearGradient id="SVGID_20_" gradientUnits="userSpaceOnUse" x1="101.4379" y1="71.6396" x2="106.7253" y2="71.6396" gradientTransform="matrix(0.9997 2.356718e-02 -2.356718e-02 0.9997 -3.6995 -2.7)">
					<stop  offset="0" style="stop-color:#F90000"/>
					<stop  offset="0.9892" style="stop-color:#FF4500"/>
				</linearGradient>
				<path class="st25" d="M96.3,68.7c0.2-0.4,0.9-1.7,1.4-1.9c0.8-0.3,1,0.6,1.6,1.3c0.3,0.3,0.6,0.3,0.8,0.7c0.2,0.3,0,1.2,0.1,1.5
					c0.2,1,0.8,1.9,1,2.9c0.2,1,0.1,2.1-1,2.6c-1.4,0.6-2.5-1.1-3.2-2.1C96.1,72.5,95.8,70.2,96.3,68.7z"/>
			</g>
			<g>
				
					<linearGradient id="SVGID_21_" gradientUnits="userSpaceOnUse" x1="15.1021" y1="214.3129" x2="24.4058" y2="205.8254" gradientTransform="matrix(1.0594 -0.169 0.1812 1.1361 30.3473 -129.2385)">
					<stop  offset="0" style="stop-color:#EE0000"/>
					<stop  offset="1" style="stop-color:#FF0000"/>
				</linearGradient>
				<path class="st26" d="M76.2,101.5c0,0-3,5,6.8,6.4c9,1.3,16.9,5.9,17.3,5.6C100.6,113.2,88.1,97.3,76.2,101.5z"/>
				
					<radialGradient id="SVGID_22_" cx="43.4485" cy="215.1571" r="44.9955" gradientTransform="matrix(1.0594 -0.169 0.1812 1.1361 30.3473 -129.2385)" gradientUnits="userSpaceOnUse">
					<stop  offset="0" style="stop-color:#5F0000"/>
					<stop  offset="0.3322" style="stop-color:#F90000"/>
					<stop  offset="0.8441" style="stop-color:#FF4800"/>
					<stop  offset="0.8897" style="stop-color:#FF3D00"/>
					<stop  offset="0.9599" style="stop-color:#FC0A00"/>
					<stop  offset="1" style="stop-color:#F90000"/>
				</radialGradient>
				<path class="st27" d="M123.2,107.2c0,0-8.3,1.5-13.9,4.6c-5.5,3.2-10.5,5-15.6-1.1c-5.1-6.1-4.6-6.9-9.5-5.4
					c-4.9,1.5-7.6,3.3-9-4.3c-1.4-7.6-2.2-12.4-0.5-16.5c1.7-4.1,3.7-8.2,6.2-9.7c2.6-1.6,0.8-3,4.1-4.5c3.3-1.5,5.7-1.7,7.8-3.5
					c2.1-1.9,4.2-0.1,5.6-0.9c1.5-0.8-0.7-2.2,3.7-2.5c4.4-0.3,6,1,9.5-1.6c3.5-2.6,2.6-0.2,2.4,3.1c-0.2,3.3,0.2,16.7,2.1,22.3
					C118.2,92.9,123.2,107.2,123.2,107.2z"/>
				
					<linearGradient id="SVGID_23_" gradientUnits="userSpaceOnUse" x1="7.3945" y1="187.095" x2="49.2863" y2="187.095" gradientTransform="matrix(1.0594 -0.169 0.1812 1.1361 30.3473 -129.2385)">
					<stop  offset="0" style="stop-color:#F90000"/>
					<stop  offset="8.361662e-02" style="stop-color:#FB0000"/>
					<stop  offset="0.3727" style="stop-color:#FF3400"/>
					<stop  offset="0.4532" style="stop-color:#FF4200"/>
					<stop  offset="0.5547" style="stop-color:#FF4800"/>
					<stop  offset="0.6104" style="stop-color:#FF5200"/>
					<stop  offset="0.6964" style="stop-color:#FF6828"/>
					<stop  offset="0.8019" style="stop-color:#FF8751"/>
					<stop  offset="0.9217" style="stop-color:#FFAE80"/>
					<stop  offset="1" style="stop-color:#FCCBA4"/>
				</linearGradient>
				<path class="st28" d="M74.7,84.7c1.7-4.1,3.7-8.2,6.2-9.7c2.6-1.6,0.8-3,4.1-4.5c3.3-1.5,5.7-1.7,7.8-3.5
					c2.1-1.9,4.2-0.1,5.6-0.9c1.5-0.8-0.7-2.2,3.7-2.5c4.4-0.3,6,1,9.5-1.6c1.8-1.3,2.4-1.3,2.6-0.6c-0.1-1-0.7-1.1-2.6,0.4
					c-3.5,2.6-5.1,1.3-9.5,1.6c-4.4,0.3-2.2,1.7-3.7,2.5c-1.5,0.8-3.5-1-5.6,0.9c-2.1,1.9-4.5,2.1-7.8,3.5c-3.3,1.5-1.5,2.9-4.1,4.5
					c-2.6,1.6-4.6,5.7-6.2,9.7c-1.3,3.2-1.1,6.9-0.3,12C73.6,91.4,73.4,87.8,74.7,84.7z"/>
				
					<linearGradient id="SVGID_24_" gradientUnits="userSpaceOnUse" x1="37.5538" y1="216.3885" x2="18.9367" y2="202.1807" gradientTransform="matrix(1.0594 -0.169 0.1812 1.1361 30.3473 -129.2385)">
					<stop  offset="0" style="stop-color:#F90000"/>
					<stop  offset="8.361662e-02" style="stop-color:#FB0000"/>
					<stop  offset="0.3727" style="stop-color:#FF3400"/>
					<stop  offset="0.4532" style="stop-color:#FF4200"/>
					<stop  offset="0.5547" style="stop-color:#FF4800"/>
					<stop  offset="0.6104" style="stop-color:#FF5200"/>
					<stop  offset="0.6964" style="stop-color:#FF6828"/>
					<stop  offset="0.8019" style="stop-color:#FF8751"/>
					<stop  offset="0.9217" style="stop-color:#FFAE80"/>
					<stop  offset="1" style="stop-color:#FCCBA4"/>
				</linearGradient>
				<path class="st29" d="M94.1,111.2c4.7,5.6,10.2,3,13.3,0.9c3.1-2.1,14.1-5.4,14.1-5.4s-24.2,5.6-29.4,1.4
					C91.6,109,94.1,111.2,94.1,111.2z"/>
				<g>
					
						<linearGradient id="SVGID_25_" gradientUnits="userSpaceOnUse" x1="2.8603" y1="201.7795" x2="26.0401" y2="215.9812" gradientTransform="matrix(1.0594 -0.169 0.1812 1.1361 30.3473 -129.2385)">
						<stop  offset="0" style="stop-color:#F90000"/>
						<stop  offset="8.361662e-02" style="stop-color:#FB0000"/>
						<stop  offset="0.3727" style="stop-color:#FF3400"/>
						<stop  offset="0.4532" style="stop-color:#FF4200"/>
						<stop  offset="0.5547" style="stop-color:#FF4800"/>
						<stop  offset="0.6104" style="stop-color:#FF5200"/>
						<stop  offset="0.6964" style="stop-color:#FF6828"/>
						<stop  offset="0.8019" style="stop-color:#FF8751"/>
						<stop  offset="0.9217" style="stop-color:#FFAE80"/>
						<stop  offset="1" style="stop-color:#FCCBA4"/>
					</linearGradient>
					<path class="st30" d="M93.7,108.4c-1.3-0.3-4.1-4-6.4-4.4c-2.3-0.4-3.8,1.3-5.3,1.7c-1.1,0.3-3.1,0.5-4.2-0.2
						c-1.5-0.9-2.7-4.6-2.7-4.6c0,0.1,0,0.2,0.1,0.3c0.7,3.7,1.7,5.1,3,5.5c0.6,0.1,1.3,0,1.9,0c1.2-0.2,2.5-0.7,4.1-1.2
						c4.9-1.5,4.5-0.7,9.5,5.4c0.1,0.2,0.3,0.3,0.4,0.4c0.6,0.6,1.1,1.1,1.5,1.4C93.9,110.8,95,108.7,93.7,108.4z"/>
					
						<linearGradient id="SVGID_26_" gradientUnits="userSpaceOnUse" x1="2.1377" y1="202.8921" x2="25.3484" y2="217.1127" gradientTransform="matrix(1.0594 -0.169 0.1812 1.1361 30.3473 -129.2385)">
						<stop  offset="0" style="stop-color:#F90000"/>
						<stop  offset="8.361662e-02" style="stop-color:#FB0000"/>
						<stop  offset="0.3727" style="stop-color:#FF3400"/>
						<stop  offset="0.4532" style="stop-color:#FF4200"/>
						<stop  offset="0.5547" style="stop-color:#FF4800"/>
						<stop  offset="0.6104" style="stop-color:#FF5200"/>
						<stop  offset="0.6964" style="stop-color:#FF6828"/>
						<stop  offset="0.8019" style="stop-color:#FF8751"/>
						<stop  offset="0.9217" style="stop-color:#FFAE80"/>
						<stop  offset="1" style="stop-color:#FCCBA4"/>
					</linearGradient>
					<path class="st31" d="M95.6,112.6c0.1,0.1,0.3,0.3,0.4,0.4C96,113,95.9,112.9,95.6,112.6z"/>
				</g>
				<g>
					
						<linearGradient id="SVGID_27_" gradientUnits="userSpaceOnUse" x1="32.5306" y1="186.3256" x2="27.1436" y2="172.4498" gradientTransform="matrix(1.0594 -0.169 0.1812 1.1361 30.3473 -129.2385)">
						<stop  offset="0" style="stop-color:#F90000"/>
						<stop  offset="0.9892" style="stop-color:#FF4500"/>
					</linearGradient>
					<path class="st32" d="M101.8,78.1c-0.9-3.5-3.3-6.3-5.1-6.5c-0.9-1.5-2.2-3.6-3.2-5.1c-0.3,0.1-0.5,0.3-0.8,0.5
						c-0.7,0.6-1.4,1-2.2,1.4c1.4,0.9,3.3,2.1,4.3,3C96.7,72.8,99,76.6,101.8,78.1z"/>
					
						<linearGradient id="SVGID_28_" gradientUnits="userSpaceOnUse" x1="33.9968" y1="178.8348" x2="37.0033" y2="178.8348" gradientTransform="matrix(1.0594 -0.169 0.1812 1.1361 30.3473 -129.2385)">
						<stop  offset="0" style="stop-color:#F90000"/>
						<stop  offset="0.9892" style="stop-color:#FF4500"/>
					</linearGradient>
					<path class="st33" d="M98.5,66C98.5,66.1,98.5,66.1,98.5,66c1,2.1,2.5,4.8,3.7,5.7c-0.1-1.7-0.3-5.7-0.9-8.1
						C98.1,64.1,99.8,65.3,98.5,66z"/>
					
						<linearGradient id="SVGID_29_" gradientUnits="userSpaceOnUse" x1="14.2472" y1="199.683" x2="15.5513" y2="195.2691" gradientTransform="matrix(1.0594 -0.169 0.1812 1.1361 30.3473 -129.2385)">
						<stop  offset="0" style="stop-color:#F90000"/>
						<stop  offset="0.9892" style="stop-color:#FF4500"/>
					</linearGradient>
					<path class="st34" d="M82.3,90.7c-0.6-0.6-5.6-1-8.4-2.9c-0.1,0.5-0.1,1.1-0.1,1.6c1.9,2,5,5,6.1,4.6c1.6-0.6,3,0.1,4.6,0.8
						c1.7,0.7,5.1,0.7,5.6,1.2C87.6,93.1,83,91.3,82.3,90.7z"/>
					
						<linearGradient id="SVGID_30_" gradientUnits="userSpaceOnUse" x1="11.4339" y1="204.7391" x2="10.8044" y2="200.3327" gradientTransform="matrix(1.0594 -0.169 0.1812 1.1361 30.3473 -129.2385)">
						<stop  offset="0" style="stop-color:#F90000"/>
						<stop  offset="0.9892" style="stop-color:#FF4500"/>
					</linearGradient>
					<path class="st35" d="M74.6,97.6c0.2,1,0.4,2.1,0.6,3.2c1.3-0.1,2.9-0.3,3.2-0.8c0.6-0.9,2.9-0.1,4.5-1.6
						c-1.4-0.1-2.8-0.3-4-0.9C78,97.2,76,97.4,74.6,97.6z"/>
				</g>
				
					<radialGradient id="SVGID_31_" cx="46.9501" cy="215.9095" r="48.369" gradientTransform="matrix(1.0594 -0.169 0.1812 1.1361 30.3473 -129.2385)" gradientUnits="userSpaceOnUse">
					<stop  offset="0" style="stop-color:#5F0000"/>
					<stop  offset="9.107846e-02" style="stop-color:#790000"/>
					<stop  offset="0.2199" style="stop-color:#9B0000"/>
					<stop  offset="0.3546" style="stop-color:#BB0000"/>
					<stop  offset="0.4946" style="stop-color:#D50000"/>
					<stop  offset="0.6424" style="stop-color:#E80000"/>
					<stop  offset="0.803" style="stop-color:#F40000"/>
					<stop  offset="1" style="stop-color:#F90000"/>
				</radialGradient>
				<path class="st36" d="M116.3,87.4c-2-5.6-2.3-19-2.1-22.3c0.1-1.5,0.8-2.8-1-2.6c-1.2,0.1-2.4,1.5-3.4,2c-1.9,1-3.2,0.4-5.1,0.9
					c-0.4,0.1-0.5,0.8-0.8,0.8c-0.5,0.1-0.9-0.3-1.3-0.3c-0.7,0.1-2.3-0.3-2.7,0.6c-0.8,1.6,2.7,2.7,1.5,4.7
					c-2.4-1.9-5.6,0.3-8.2,0.6c0,0.5-0.3,0.8-0.3,1.2c-1.6-0.6-2.8-2.2-4.6-2.2c-1.5-0.1-2.7,1.1-4,1.6c-0.5,0.2-1,0.3-1.6,0.4
					c-0.2,0.5-0.4,1-0.9,1.6c0.6,0.5,1.2,1.1,1.5,1.1c0.5,0.2,2.7,4.4,1.2,3.2c-1-0.8-3.4-1.9-4.9-2.6c-0.6,0.6-1.1,1.3-1.6,2
					l4.5,1.7c0,0,2.8,3.2,1.4,2.4c-0.8-0.5-4.9-0.9-7.6-1.1c-0.2,0.5-0.5,1-0.7,1.4c1.3,1.2,2.9,3,3.8,4.6c1.3,2.4,4.1,1.5,5.8,2.9
					c1.6,1.4,4.2,5.2,5.7,8.9c1.5,3.7,5.7,3.2,9.2,8c3.4,4.8,5.2,1.7,8.1,0.1c2.9-1.7,12.2-0.9,12.2-0.9c0.3-1.3,0.6-2.7,0.7-4.1
					C119.6,97.6,117.5,90.9,116.3,87.4z"/>
				
					<linearGradient id="SVGID_32_" gradientUnits="userSpaceOnUse" x1="106.8167" y1="73.0992" x2="103.62" y2="66.3693" gradientTransform="matrix(0.9997 2.356718e-02 -2.356718e-02 0.9997 -3.6995 -2.7)">
					<stop  offset="0" style="stop-color:#F90000"/>
					<stop  offset="8.361662e-02" style="stop-color:#FB0000"/>
					<stop  offset="0.3727" style="stop-color:#FF3400"/>
					<stop  offset="0.4766" style="stop-color:#FF4B00"/>
					<stop  offset="0.6542" style="stop-color:#FF631D"/>
					<stop  offset="0.8298" style="stop-color:#FF6F2D"/>
					<stop  offset="1" style="stop-color:#FF7232"/>
				</linearGradient>
				<path class="st37" d="M92.8,67.4c0.2-0.1,0.3-0.2,0.5-0.3c1.6-1,3.3-0.2,5.1-0.9c1.3-0.5,0.7-1.1,1.5-1.9
					c0.6-0.6,1.8-0.3,2.6-0.3c0.9,0,1.8-0.1,2.7-0.1c1.9,0,3.8-0.3,5.5-1.1c0.4-0.2,3.2-1.8,2.8-0.5c-0.4,1.3-2.9,2-4,2.3
					c-0.9,0.3-5.9,0.7-6.1,1.3c-0.4,1.6-3.8-0.1-3.1,2c0.5,1.5,2.7,1.7,2.2,3.8c-0.7,0.3-1.8-0.2-2.6-0.4c-1.1-0.2-1.9-0.2-3,0.1
					c-2,0.4-3.4,1.1-4.2,3.1c0,0-0.5,0-0.5,0c-0.4-1.3-2.1-2.7-3.2-3.3c-1.6-0.8-3.4,0.6-5.1,0c0.8-1.1,3.6-1.7,4.8-2.1
					C90,68.9,91.5,68.2,92.8,67.4z"/>
				
					<linearGradient id="SVGID_33_" gradientUnits="userSpaceOnUse" x1="109.4279" y1="87.2606" x2="104.767" y2="91.2045" gradientTransform="matrix(0.9997 2.356718e-02 -2.356718e-02 0.9997 -3.6995 -2.7)">
					<stop  offset="0" style="stop-color:#C20000"/>
					<stop  offset="0.4795" style="stop-color:#E10000"/>
					<stop  offset="1" style="stop-color:#FF0000"/>
				</linearGradient>
				<path class="st38" d="M113.8,100.4c-1.5-1.3-2.6-2.9-3.9-4.5c-2.5-3-5.3-5.4-7.5-8.6c-2.2-3.2-4.6-5.9-6.9-9
					c-2.5-3.2-3.5-6.9-8.1-7.5c-1.3-0.2-2.6-0.7-3.5,0.7c1.5,1.3,3.6,1.3,5,2.3c2,1.4,2.2,3.7,3.4,5.7c2.4,4,6.2,7,8.8,11
					c2.1,3.2,5,5.6,7.9,7.9c2.9,2.3,5.6,5.4,9,6.6c0.5,0.2,1.1,0.4,1.6,0.5C118.3,105.3,115,101.4,113.8,100.4z"/>
				
					<linearGradient id="SVGID_34_" gradientUnits="userSpaceOnUse" x1="100.2578" y1="84.2392" x2="97.031" y2="90.8721" gradientTransform="matrix(0.9997 2.356718e-02 -2.356718e-02 0.9997 -3.6995 -2.7)">
					<stop  offset="0" style="stop-color:#C20000"/>
					<stop  offset="0.4795" style="stop-color:#E10000"/>
					<stop  offset="1" style="stop-color:#FF0000"/>
				</linearGradient>
				<path class="st39" d="M97.5,93.1c-2.3-2.3-3.7-4.9-5.5-7.5c-1.3-1.8-2.3-4.5-4.2-5.6c-1.1-0.7-2.3-1-3.5-1.8
					c-0.9-0.6-2.4-1.4-3.6-1.5c-0.5,0-0.9,0-1.4,0.1c1.4,1.9,3.8,3.1,5.2,5.2c1.8,2.4,4.3,3.7,6.7,5.7c1.3,1.1,1.9,2.2,3,3.5
					c0.9,1.1,2.3,2,3.4,3c1.8,1.6,4.3,3.2,6.4,4.4c0.5,0.3,0.9,0.6,1.5,0.7c-0.9-1.2-2.6-1.6-3.8-2.5
					C100.2,95.7,98.8,94.4,97.5,93.1z"/>
			</g>
			<g>
				
					<linearGradient id="SVGID_35_" gradientUnits="userSpaceOnUse" x1="-52.5371" y1="-29.0423" x2="-24.5116" y2="-18.3417" gradientTransform="matrix(1.3612 0.3519 -0.2371 0.9171 185.4353 145.6118)">
					<stop  offset="0" style="stop-color:#5F0000"/>
					<stop  offset="0.1022" style="stop-color:#610000"/>
					<stop  offset="0.1875" style="stop-color:#6A0000"/>
					<stop  offset="0.2668" style="stop-color:#780000"/>
					<stop  offset="0.3423" style="stop-color:#8E0000"/>
					<stop  offset="0.4152" style="stop-color:#AD0000"/>
					<stop  offset="0.4852" style="stop-color:#D60000"/>
					<stop  offset="0.5312" style="stop-color:#F90000"/>
					<stop  offset="0.8441" style="stop-color:#FF4800"/>
					<stop  offset="0.8897" style="stop-color:#FF3D00"/>
					<stop  offset="0.9599" style="stop-color:#FC0A00"/>
					<stop  offset="1" style="stop-color:#F90000"/>
				</linearGradient>
				<path class="st40" d="M120.4,105.6c0,0,5.5-1.6,11.7-3.1c6.2-1.5,13.1-2.8,14.9-4.1c3.8-3.1,10.9-5.7,12.3-6
					c1.5-0.4,0.1-1.3,4-0.4c3.9,1,3,1.3,1.5,2c-1.4,0.8-1.2,3.6-0.6,5.1c0.7,1.4,0.1,8.4-4.6,9.7c-4.6,0.9-15.3,3.1-17,5.5
					c-1.8,2.1-6.6,6-6.6,6.1c-0.1,0-12.8,0.7-13.6,2.1c-1,1.4,0.4,3.3,1.2,5.6c0.8,2.2,1.2,8.3-2.4,4.6c-3.5-3.8-4.1-6.6-2.3-8.6
					c1.8-2.1,1-2.5,1.3-4.5c0.2-2,2-3.7,2.9-7C123.8,109.4,120.4,105.6,120.4,105.6z"/>
				
					<linearGradient id="SVGID_36_" gradientUnits="userSpaceOnUse" x1="-22.936" y1="-45.9635" x2="-29.217" y2="-47.6084" gradientTransform="matrix(1.3612 0.3519 -0.2371 0.9171 185.4353 145.6118)">
					<stop  offset="0" style="stop-color:#5F0000"/>
					<stop  offset="0.3322" style="stop-color:#F90000"/>
					<stop  offset="0.8441" style="stop-color:#FF4800"/>
					<stop  offset="0.8897" style="stop-color:#FF3D00"/>
					<stop  offset="0.9599" style="stop-color:#FC0A00"/>
					<stop  offset="1" style="stop-color:#F90000"/>
				</linearGradient>
				<path class="st41" d="M166,93.1c0,0-0.4-0.1-1.2-0.4c-0.4-0.1-0.9-0.3-1.5-0.4c-0.3-0.1-0.6-0.2-0.9-0.2
					c-0.3-0.1-0.6-0.1-0.9-0.2c-0.3,0-0.6,0-0.7,0.1c-0.1,0.1-0.1,0.3,0,0.5c0.1,0.4,0.5,0.9,0.8,1.3c0.7,1,1.4,2.1,1.9,3.2
					c0.1,0.2,0.2,0.3,0.2,0.5c-0.2-1.4,0-2.9,1-3.4C165.7,93.7,166.4,93.4,166,93.1z"/>
				
					<linearGradient id="SVGID_37_" gradientUnits="userSpaceOnUse" x1="-43.2485" y1="-4.7674" x2="-52.2347" y2="5.8906" gradientTransform="matrix(1.3612 0.3519 -0.2371 0.9171 185.4353 145.6118)">
					<stop  offset="0" style="stop-color:#5F0000"/>
					<stop  offset="0.3322" style="stop-color:#F90000"/>
					<stop  offset="0.8441" style="stop-color:#FF4800"/>
					<stop  offset="0.8897" style="stop-color:#FF3D00"/>
					<stop  offset="0.9599" style="stop-color:#FC0A00"/>
					<stop  offset="1" style="stop-color:#F90000"/>
				</linearGradient>
				<path class="st42" d="M122.4,122.6c0.1-0.1,0.1-0.1,0.3-0.2c-0.7,0.3-1.4,0.7-2,1.1c-0.5,0.3-1,0.7-1.5,1.1
					c-0.2,0.2-0.4,0.4-0.6,0.6c-0.1,0.1-0.2,0.2-0.3,0.3c-0.1,0.1-0.1,0.2-0.2,0.2c-0.4,1.6,0.3,3.5,2.3,6c0.7,0.7,1.3,1.2,1.7,1.6
					c0.4,0.4,0.7,0.6,0.7,0.6c2,0.7,1.6-3.8,0.9-5.7C122.7,125.9,121.3,124,122.4,122.6z"/>
				
					<linearGradient id="SVGID_38_" gradientUnits="userSpaceOnUse" x1="-50.2864" y1="-22.0593" x2="-21.9394" y2="-22.0593" gradientTransform="matrix(1.3612 0.3519 -0.2371 0.9171 185.4353 145.6118)">
					<stop  offset="0" style="stop-color:#FF734F"/>
					<stop  offset="3.089669e-02" style="stop-color:#FF6F48"/>
					<stop  offset="0.1642" style="stop-color:#FF5E29"/>
					<stop  offset="0.297" style="stop-color:#FF4F01"/>
					<stop  offset="0.4279" style="stop-color:#FF4600"/>
					<stop  offset="0.5547" style="stop-color:#FF4200"/>
					<stop  offset="0.6422" style="stop-color:#FF4B00"/>
					<stop  offset="0.7774" style="stop-color:#FD5D25"/>
					<stop  offset="0.9423" style="stop-color:#F4744D"/>
					<stop  offset="1" style="stop-color:#F17C59"/>
				</linearGradient>
				<path class="st43" d="M122.6,133.9c0,0-0.3-0.2-0.7-0.5c-0.5-0.4-1.1-0.9-1.9-1.7c-0.4-0.4-0.8-0.8-1.2-1.4
					c-0.4-0.5-0.8-1.1-1.1-1.9c-0.1-0.4-0.3-0.8-0.3-1.2c0-0.2,0-0.5,0-0.7c0-0.2,0.1-0.5,0.3-0.8c0.1-0.1,0.2-0.2,0.3-0.4
					c0.1-0.1,0.2-0.2,0.3-0.3c0.2-0.2,0.4-0.4,0.7-0.6c0.5-0.4,0.9-0.8,1.5-1.1c1.1-0.7,2.3-1.3,3.6-1.8c1.3-0.4,2.7-0.7,4.2-0.8
					c0.7-0.1,1.5-0.1,2.2-0.1c0.4,0,0.7,0,1.1,0c0.4,0,0.7,0,1.1,0c0.4,0,0.8,0,1.1,0c0.4,0,0.8,0,1.1-0.1c0.4-0.1,0.7-0.1,1.1-0.3
					c0.3-0.1,0.6-0.3,0.9-0.5c0.5-0.4,1-0.9,1.4-1.4c0.4-0.5,0.9-1,1.4-1.5c0.9-1,1.8-1.9,2.9-2.8c1.2-0.9,2.6-1.6,4.1-2.2
					c1.5-0.6,3.1-1.1,4.7-1.5c1.6-0.4,3.3-0.8,4.9-1.1c0.8-0.2,1.6-0.3,2.3-0.5c0.4-0.1,0.7-0.2,1-0.3c0.3-0.1,0.6-0.2,0.9-0.4
					c1.1-0.5,1.7-1.2,2.2-1.8c0.4-0.7,0.7-1.4,0.9-2c0.4-1.3,0.5-2.6,0.4-3.9c-0.1-1.2-0.4-2.4-0.9-3.6c-0.2-0.6-0.5-1.1-0.8-1.7
					c-0.3-0.5-0.7-1.1-1-1.5c-0.3-0.5-0.6-1-0.8-1.3c-0.1-0.2-0.1-0.4,0-0.5c0.1-0.1,0.4-0.1,0.7-0.1c0.3,0,0.7,0.1,1,0.2
					c0.3,0.1,0.6,0.2,0.9,0.3c0.6,0.2,1.1,0.3,1.5,0.4c0.8,0.3,1.2,0.4,1.2,0.4s-0.4-0.1-1.2-0.4c-0.4-0.1-0.9-0.3-1.5-0.4
					c-0.3-0.1-0.6-0.2-0.9-0.2c-0.3-0.1-0.6-0.1-0.9-0.2c-0.3,0-0.6,0-0.7,0.1c-0.1,0.1-0.1,0.3,0,0.5c0.1,0.4,0.5,0.9,0.8,1.3
					c0.7,1,1.4,2.1,1.9,3.2c0.5,1.1,0.9,2.3,1,3.6c0.1,1.2,0,2.5-0.3,3.9c-0.1,0.3-0.2,0.7-0.3,1c-0.1,0.3-0.3,0.7-0.5,1
					c-0.2,0.3-0.5,0.7-0.9,1c-0.4,0.3-0.8,0.6-1.4,0.9c-0.3,0.1-0.6,0.3-1,0.4c-0.3,0.1-0.7,0.2-1.1,0.3c-0.8,0.2-1.6,0.4-2.4,0.6
					c-1.6,0.3-3.3,0.7-4.9,1.1c-1.6,0.4-3.2,0.9-4.7,1.5c-1.5,0.6-2.9,1.2-4,2.1c-1.1,0.8-2,1.8-2.9,2.7c-0.5,0.5-0.9,1-1.4,1.5
					c-0.5,0.5-0.9,1-1.5,1.5c-0.3,0.2-0.7,0.5-1.1,0.6c-0.4,0.2-0.9,0.3-1.3,0.3c-0.4,0.1-0.8,0.1-1.2,0.1c-0.4,0-0.8,0-1.2,0
					c-0.8,0-1.5-0.1-2.2-0.1c-0.7,0-1.4,0-2.1,0c-1.4,0.1-2.8,0.4-4.1,0.8c-1.3,0.4-2.5,1-3.5,1.7c-0.5,0.3-1,0.7-1.5,1.1
					c-0.2,0.2-0.4,0.4-0.6,0.6c-0.1,0.1-0.2,0.2-0.3,0.3c-0.1,0.1-0.2,0.2-0.2,0.3c-0.3,0.4-0.3,0.9-0.3,1.3c0,0.4,0.1,0.8,0.3,1.2
					c0.3,0.7,0.7,1.3,1,1.9c0.4,0.5,0.8,1,1.1,1.4c0.7,0.8,1.4,1.4,1.8,1.8C122.3,133.7,122.6,133.9,122.6,133.9z"/>
				
					<linearGradient id="SVGID_39_" gradientUnits="userSpaceOnUse" x1="-23.5111" y1="-48.5709" x2="-32.5471" y2="-29.8246" gradientTransform="matrix(1.3612 0.3519 -0.2371 0.9171 185.4353 145.6118)">
					<stop  offset="0" style="stop-color:#FF7232"/>
					<stop  offset="0.1702" style="stop-color:#FF6F2D"/>
					<stop  offset="0.3458" style="stop-color:#FF631D"/>
					<stop  offset="0.5234" style="stop-color:#FF4B00"/>
					<stop  offset="0.6273" style="stop-color:#FF3400"/>
					<stop  offset="0.9164" style="stop-color:#FB0000"/>
					<stop  offset="1" style="stop-color:#F90000"/>
				</linearGradient>
				<path class="st44" d="M160.6,92.4c0-0.1-5.6,1.4-7.9,2.6c-2.2,1.1-4.1,4.6-5.4,5.4c-1.2,0.6-8.9,5.1-2.7,4.1
					c6.3-0.9,8.7-2.1,12.5-1.9c3.8,0.2,6.5-0.4,7-0.8C164.7,101.3,165.6,96.8,160.6,92.4z"/>
				
					<linearGradient id="SVGID_40_" gradientUnits="userSpaceOnUse" x1="-40.2867" y1="-21.0035" x2="-51.1866" y2="-0.1315" gradientTransform="matrix(1.3612 0.3519 -0.2371 0.9171 185.4353 145.6118)">
					<stop  offset="0" style="stop-color:#F90000"/>
					<stop  offset="8.361662e-02" style="stop-color:#FB0000"/>
					<stop  offset="0.3727" style="stop-color:#FF3400"/>
					<stop  offset="0.4766" style="stop-color:#FF4B00"/>
					<stop  offset="0.6542" style="stop-color:#FF631D"/>
					<stop  offset="0.8298" style="stop-color:#FF6F2D"/>
					<stop  offset="1" style="stop-color:#FF7232"/>
				</linearGradient>
				<path class="st45" d="M120.4,123.3c0,0,5.5-2.6,7.8-2.6c2.2,0,4.7,0.7,6.7-0.1c2-0.9,5.2-3.7,1.6-5.3c-3.6-1.6-10.7-4.2-13-1.8
					c-2.4,2.4-2.4,4.9-1.3,6.1C123.1,120.6,121.9,122.2,120.4,123.3z"/>
				
					<linearGradient id="SVGID_41_" gradientUnits="userSpaceOnUse" x1="-37.6658" y1="-27.0157" x2="-28.6417" y2="-21.4372" gradientTransform="matrix(1.3612 0.3519 -0.2371 0.9171 185.4353 145.6118)">
					<stop  offset="0" style="stop-color:#F90000"/>
					<stop  offset="8.361662e-02" style="stop-color:#FB0000"/>
					<stop  offset="0.3727" style="stop-color:#FF3400"/>
					<stop  offset="0.4766" style="stop-color:#FF4B00"/>
					<stop  offset="0.6542" style="stop-color:#FF631D"/>
					<stop  offset="0.8298" style="stop-color:#FF6F2D"/>
					<stop  offset="1" style="stop-color:#FF7232"/>
				</linearGradient>
				<path class="st46" d="M142.6,114.1c0,0,3.7-2.7,10.8-4.5c-3.8-2-6.6-1.2-8.9-1.2c-2.3-0.1-7.9,3.6-7.9,3.7
					C141.5,111.3,143.4,112.9,142.6,114.1z"/>
				
					<linearGradient id="SVGID_42_" gradientUnits="userSpaceOnUse" x1="-43.3814" y1="-24.8205" x2="-17.3719" y2="-44.0529" gradientTransform="matrix(1.3612 0.3519 -0.2371 0.9171 185.4353 145.6118)">
					<stop  offset="0" style="stop-color:#DF0000"/>
					<stop  offset="0.9892" style="stop-color:#FF3D00"/>
				</linearGradient>
				<path class="st47" d="M141.6,100.6c2-0.6,4.1-1.2,5.8-1.9c1.3-0.6,2.1-1.9,4-1.8c-0.7,1.2-2.6,2.3-3.9,3.5
					c-1.1,0.9-3.6,2.6-4,3.9c-0.8,2.4,4.1,0,5.2-0.5c1.2-0.7,3.3-2.3,5.6-1.6c-0.2,0.3-0.2,0.7-0.5,1c2.9-0.3,5-1.7,8.2-1.4
					c-1.4,1-3.7,2-5.2,3.3c0.7,0,1.6,0.1,2.2,0c-0.4,0.6-2.5,0.5-3.4,0.9c0.7,0.1,1.5,0.3,2.1,0.3c-2.6,0.9-8,1.3-11.2,1.9
					c3.1,0.7,5.7-0.6,8.6-0.2c-0.9,0.8-2.8,0.9-4.4,1.3c0.4,0.3,0.6,0.8,1,1.1c-2.3,0.4-5.3-1.2-7.8-0.9c-2,0.3-3.6,1.5-5.4,2.2
					c-0.3-1.3-0.2-3.8-2.2-4.7c-2.2-1-5-0.1-7.3-0.3c0.6-1.1,2.9-1.9,4.3-2.6C136,102.7,138.6,101.4,141.6,100.6z"/>
			</g>
			
				<radialGradient id="SVGID_43_" cx="130.5784" cy="103.7594" r="10.1995" gradientTransform="matrix(0.9997 2.356718e-02 -2.356718e-02 0.9997 -3.6995 -2.7)" gradientUnits="userSpaceOnUse">
				<stop  offset="0" style="stop-color:#000000"/>
				<stop  offset="0.1071" style="stop-color:#050505"/>
				<stop  offset="0.2308" style="stop-color:#131313"/>
				<stop  offset="0.3628" style="stop-color:#2A2A2A"/>
				<stop  offset="0.5006" style="stop-color:#4A4A4A"/>
				<stop  offset="0.6429" style="stop-color:#747474"/>
				<stop  offset="0.789" style="stop-color:#A7A7A7"/>
				<stop  offset="0.9354" style="stop-color:#E2E2E2"/>
				<stop  offset="1" style="stop-color:#FFFFFF"/>
			</radialGradient>
			<path class="st48" d="M130,101.5c-0.3-0.8-1.2-1.2-1.6-2.2c-0.9-2.2-1.7-3.1-4.6-2.8c-2.3,0.3-4.4,0.7-5.4,2.9
				c-0.5,1.1-0.9,1.9-0.5,3c0.4,1.1,1.6,1.4,1.4,2.7c-1,0.3-1.9,0.7-2.8,1.3c0.2,0.8,1,1,1.4,1.6c0.5,0.6,0.5,1.7,1,2.2
				c0.3,0.3,1.6,0.9,2,1.2c0.8,0.6,0.8,1.2,2.3,0.8c0,0.7,0,1.4,0,2.1c2.3,0.5,2.7-3,4.5-3.8c0.9-0.4,1.9,0.1,2.7,0
				c1.6-0.3,0.9-0.9,1.8-1.9c1.3-1.4,3.2-1.1,2.5-3.9c-0.5-1.9-1.4-0.8-2.7-0.5C129.2,104.7,130.7,103.4,130,101.5z"/>
			<g>
				<path class="st49" d="M136.8,104.1c-1.2,0.2-2.3,0.6-3.4,0.9c-1.2,0.4-2.4,0.6-3.7,0.8c-1.1,0.2-2.2,0.2-3.4,0.2
					c-0.1,0-0.2,0-0.3,0c0-0.3-0.1-0.5-0.2-0.7c0.5,0,1.1-0.1,1.6-0.1c1.1-0.1,2.1-0.1,3.2-0.4c1.9-0.5,3.7-1.7,5-3.2c0,0,0-0.1,0,0
					c-1.4,1.5-3,2.6-5,3.1c-1,0.3-2.1,0.3-3.1,0.4c-0.6,0-1.1,0.1-1.6,0.1c0,0,0,0,0,0c0.5-0.2,1.1-0.5,1.6-0.9
					c0.8-0.3,1.6-0.7,2.4-1.1c0.9-0.5,1.8-1,2.6-1.5c0.9-0.5,1.7-1,2.4-1.7c0,0,0-0.1,0,0c-0.7,0.7-1.6,1.2-2.4,1.6
					c-0.9,0.5-1.7,0.9-2.6,1.4c-0.7,0.4-1.3,0.7-2,1c0.5-0.3,0.9-0.7,1.4-1.1c0.8-0.8,1.6-1.6,2.4-2.4c0.5-0.5,1-1,1.5-1.5
					c0.3-0.3,0.5-0.5,0.8-0.8c0.2-0.2,0.4-0.5,0.7-0.6c0,0,0,0,0,0c-0.5,0.2-0.8,0.6-1.1,1c-0.5,0.5-1,1-1.5,1.5
					c-0.8,0.8-1.6,1.7-2.5,2.5c-0.6,0.6-1.3,1.2-2,1.7c-0.1,0-0.1,0-0.2,0.1c-0.9,0.3-1.8,0.5-2.8,0.6l0,0c1.7-1.2,3.5-2.5,5-4
					c0.8-0.8,1.4-1.6,2.1-2.5c0.7-0.9,1.3-1.7,2.1-2.5c0,0,0,0,0,0c-0.8,0.7-1.4,1.5-2.1,2.4c-0.6,0.9-1.3,1.7-2,2.5
					c-1.5,1.6-3.3,2.8-5.1,4.2c-0.1,0-0.1-0.1-0.2-0.1c0.7-0.7,1.3-1.4,2-2.1c0.8-0.8,1.5-1.6,2.3-2.5c1.5-1.7,2.8-3.4,4-5.4
					c0,0,0,0,0,0c-1.1,1.9-2.5,3.7-4,5.3c-0.7,0.8-1.5,1.6-2.2,2.4c-0.7,0.7-1.4,1.4-2,2.2c-0.1-0.1-0.2-0.1-0.3-0.2
					c0.5-0.9,1-1.8,1.5-2.7c0.6-1.1,1.2-2.2,1.6-3.3c0.9-2.3,1.2-4.8,2.4-6.9c0,0,0,0,0,0c-0.6,1-1,2.1-1.3,3.2
					c-0.3,1.2-0.6,2.4-1.1,3.6c-0.5,1.2-1,2.3-1.6,3.4c-0.5,0.9-1.1,1.9-1.6,2.8c0-0.2,0.1-0.4,0.1-0.6c0.1-0.4,0.2-0.8,0.3-1.1
					c0.1-0.6,0.3-1.1,0.4-1.7c0.3-1.3,0.7-2.6,1-3.9c0.3-1.1,0.6-2.2,0.9-3.4c0.3-1.1,0.6-2.3,1.2-3.3c0,0,0,0,0,0
					c-0.5,1-0.9,2.1-1.2,3.1c-0.3,1.2-0.6,2.3-1,3.4c-0.4,1.3-0.7,2.6-1.1,3.9c-0.1,0.3-0.2,0.6-0.3,1c0-0.1,0-0.2,0-0.3
					c0.2-1.3,0.3-2.5,0.3-3.8c0-0.6,0.1-1.2,0.1-1.8c0-0.6,0-1.2,0-1.8c0-1.2,0.1-2.6,0.6-3.7c0,0,0,0,0,0c-0.5,1.1-0.6,2.3-0.6,3.4
					c0,0.6,0,1.2,0,1.9c0,0.6-0.1,1.2-0.1,1.7c-0.1,1.3-0.2,2.6-0.3,3.9c-0.1,0.5-0.1,0.9-0.2,1.3c0,0.1-0.1,0.3-0.1,0.4
					c0-0.5,0-1.1,0-1.6c0-1.1-0.1-2.1-0.2-3.2c-0.1-2.4-0.5-4.8-0.5-7.3c0,0-0.1,0-0.1,0c0,2.4,0.4,4.8,0.5,7.2
					c0.1,1.1,0.1,2.1,0.1,3.2c0,0.5,0,1,0,1.6c0,0.2,0,0.4,0,0.6c-0.1,0.3-0.1,0.5-0.2,0.8c-0.1,0.2-0.1,0.4-0.2,0.6c0,0,0,0,0,0
					c0.1-0.2,0.2-0.5,0.3-0.8c0,0.1,0,0.2,0,0.3c0,0,0,0,0,0c0,0.1-0.1,0.2-0.1,0.2c0,0,0,0,0,0c0-0.1,0.1-0.2,0.1-0.2c0,0,0,0,0,0
					c0,0,0,0,0,0c0,0,0-0.1,0.1-0.1c0.1,0.1,0.2,0.1,0.2,0.2c-0.1,0.1-0.1,0.1-0.2,0.2c0,0,0,0,0,0c0.1-0.1,0.1-0.1,0.2-0.2
					c0.1,0,0.1,0.1,0.2,0.1c0,0,0,0,0,0c-0.1,0-0.1,0.1-0.2,0.1c0,0,0,0,0,0c0.1,0,0.1-0.1,0.2-0.1c0,0,0,0,0,0
					c0.1,0.1,0.2,0.2,0.4,0.3c-0.1,0-0.2,0-0.3,0c0,0,0,0,0,0c0,0,0,0,0,0c0,0,0,0.1,0,0.1c0,0,0,0,0.1,0c0.1,0.1,0.1,0.1,0.2,0.2
					c-0.1,0-0.1,0-0.2,0c0,0,0,0,0,0c0,0,0-0.1,0,0c0,0,0,0,0,0.1c-0.2,0-0.4,0.1-0.6,0.1c-0.1,0-0.3,0-0.4,0c0,0,0,0,0,0
					c0,0-0.1,0-0.1,0c-0.1-0.2-0.2-0.3-0.4-0.5c0.2,0.1,0.3,0.2,0.5,0.4c0,0,0.1,0,0-0.1c-0.1-0.1-0.2-0.1-0.3-0.2c0,0,0,0,0.1,0
					c0,0,0.1-0.1,0-0.1c-0.2-0.1-0.4-0.2-0.5-0.4c-0.5-1.3-0.9-2.7-1.2-4c-0.6-2.6-1.5-5-1.6-7.7c0,0,0,0,0,0c0.1,2.7,1,5.1,1.5,7.7
					c0.2,1.1,0.5,2.2,0.9,3.2c0.1,0.2,0.1,0.3,0.2,0.5c-0.3-0.5-0.6-1.1-0.8-1.6c-0.5-1.1-0.9-2.2-1.3-3.3c-0.8-2.1-1.8-4.2-2-6.5
					c0,0,0,0,0,0c0.1,2.3,1.2,4.5,2,6.7c0.4,1.2,0.9,2.3,1.4,3.4c0.1,0.3,0.3,0.7,0.5,1.1c-0.4-0.5-0.8-1-1.2-1.5
					c-0.7-1-1.4-2-2.1-3.1c-0.6-1-1.1-2.1-1.6-3.1c-0.5-1.1-1-2.2-1.1-3.4c0,0,0,0,0,0c0.1,1.2,0.5,2.2,1,3.3
					c0.5,1.1,1.1,2.2,1.6,3.2c0.6,1.1,1.3,2.2,2.1,3.2c0.4,0.5,0.7,1,1.1,1.4c-0.6-0.5-1.2-1-1.8-1.6c-0.2-0.1-0.3-0.3-0.5-0.4
					c-0.7-0.8-1.4-1.6-2-2.4c-1.5-1.9-2.8-4.1-3.6-6.4c0,0-0.1,0,0,0c0.8,2.4,2.1,4.5,3.6,6.5c0.3,0.4,0.7,0.8,1,1.2
					c-0.5-0.5-1-1-1.4-1.5c-1.6-1.8-2.6-4.2-4.6-5.6c0,0-0.1,0,0,0c1,0.7,1.7,1.8,2.4,2.8c0.7,1,1.3,2,2.1,2.9
					c0.8,0.9,1.6,1.7,2.4,2.5c1,1.1,2,2.1,3.2,3.1c0,0,0.1,0,0,0c-0.5-0.5-1.1-1-1.6-1.5c0.4,0.4,0.8,0.7,1.3,1.1
					c0.1,0.1,0.2,0.3,0.3,0.4c0.1,0.1,0.1,0.2,0.2,0.3c-0.1,0-0.2,0-0.2-0.1c0,0-0.1,0,0,0.1c0.1,0,0.2,0.1,0.3,0.1
					c0,0,0,0.1,0.1,0.1c0,0-0.1,0-0.1,0c-0.9-0.7-1.9-1.3-2.8-1.9c-1-0.7-2-1.5-2.9-2.4c-1.9-1.8-3.3-4.1-4.9-6.2c0,0-0.1,0,0,0
					c1.6,2.1,2.9,4.4,4.8,6.2c0.9,0.9,1.9,1.6,2.9,2.4c0.7,0.5,1.5,1.1,2.3,1.6c-0.5,0-1.1-0.1-1.6-0.2c-1.4-0.7-2.6-1.9-3.7-3
					c-1-1-1.9-2-2.9-2.9c-0.6-0.6-1.2-1.1-1.8-1.7c-0.5-0.5-1.1-0.9-1.5-1.6c0,0,0,0,0,0c0.3,0.6,0.8,1,1.3,1.5
					c0.6,0.6,1.2,1.1,1.8,1.7c1,1,2,1.9,2.9,2.9c0.9,0.9,1.8,1.8,2.8,2.5c0.2,0.1,0.4,0.3,0.6,0.4c0,0-0.1,0-0.1,0
					c-0.2-0.1-0.3-0.2-0.5-0.3c-1.1-0.7-2.3-1.5-3.4-2.2c-1.1-0.7-2.2-1.4-3.4-2c-0.5-0.3-1.1-0.6-1.7-0.9c-0.6-0.3-1.1-0.6-1.5-1
					c0,0,0,0,0,0c0.4,0.4,0.9,0.7,1.4,1c0.6,0.3,1.2,0.6,1.7,0.9c1.2,0.7,2.3,1.4,3.4,2.1c1.2,0.7,2.4,1.5,3.5,2.3c0,0,0,0,0.1,0
					c-0.1,0-0.3-0.1-0.4-0.1c-0.1,0-0.3-0.1-0.4-0.1c-0.9-0.4-1.8-0.8-2.7-1.3c-1.1-0.5-2.3-0.9-3.5-1.1c-1.2-0.2-2.4-0.4-3.7-0.4
					c0,0,0,0,0,0c2.5,0.1,5.1,0.6,7.4,1.7c0.6,0.3,1.3,0.6,1.9,0.9c-0.8-0.2-1.5-0.2-2.3-0.3c-1-0.1-2-0.2-3-0.2
					c-1,0-1.9,0.1-2.8,0.5c0,0,0,0,0,0c0.9-0.4,1.9-0.4,2.9-0.4c1,0,2,0.1,3,0.2c0.9,0.1,1.8,0.2,2.7,0.4c0.4,0.2,0.8,0.3,1.2,0.4
					c0.1,0,0.1,0,0.2,0.1c0.6,0.4,1.1,0.8,1.7,1.1c0,0-0.1,0.1-0.1,0.1c-0.4,0.1-0.9,0.2-1.3,0.2c-1.2,0.1-2.4-0.2-3.6-0.3
					c-2.1-0.3-4.3-0.3-6.4,0.3c0,0,0,0,0,0c1.1-0.2,2.1-0.4,3.2-0.5c1.2,0,2.3,0.1,3.5,0.2c1.1,0.2,2.3,0.4,3.4,0.3
					c0.3,0,0.7-0.1,1-0.2c-0.3,0.3-0.7,0.6-1,0.9c-0.5,0.2-1,0.3-1.4,0.5c-1,0.1-2,0.1-3,0.2c-1,0.1-1.9,0.2-2.9,0.3
					c-0.9,0.1-1.8,0.3-2.5,0.9c0,0,0,0,0,0c0.7-0.6,1.8-0.8,2.7-0.9c0.5-0.1,1-0.1,1.5-0.1c0.5,0,1-0.1,1.5-0.2
					c0.8-0.1,1.6-0.1,2.4-0.1c0,0,0,0,0,0c-1,0.4-1.9,0.9-2.8,1.4c-0.9,0.4-1.7,0.8-2.6,1.2c-0.8,0.4-1.5,0.8-1.9,1.6c0,0,0,0.1,0,0
					c0.5-0.8,1.3-1.2,2-1.6c0.8-0.4,1.7-0.7,2.5-1.1c0.9-0.5,1.8-0.9,2.8-1.4c0.1,0,0.2-0.1,0.3-0.1c0.2,0,0.5-0.1,0.7-0.1
					c-1.1,0.8-2.4,1.5-3.5,2.2c-0.9,0.6-1.7,1.2-2.5,1.9c-0.7,0.6-1.4,1.4-1.5,2.4c0,0,0,0,0.1,0c0.1-1.1,0.9-1.9,1.7-2.6
					c0.8-0.7,1.6-1.3,2.5-1.8c1.2-0.7,2.5-1.4,3.6-2.2c0,0,0,0,0.1,0c0.4-0.1,0.7-0.3,1.1-0.5c0.1,0,0.2-0.1,0.4-0.1
					c0,0,0-0.1,0-0.1c0,0-0.1,0-0.1,0c0.3-0.2,0.6-0.4,0.9-0.6c0.1,0,0.2,0.1,0.3,0.1c0,0,0,0,0,0c0,0.1-0.1,0.2-0.1,0.3
					c-0.4,0.3-0.8,0.5-1.2,0.7c-1.1,0.6-2.2,1.3-3.2,2.2c-1,0.8-1.9,1.8-2.6,2.9c-0.7,1.1-1.3,2.3-1.5,3.5c0,0,0,0,0,0
					c0.2-1.3,0.8-2.5,1.6-3.6c0.8-1.1,1.7-2.1,2.7-2.9c1-0.8,2.1-1.5,3.2-2.1c0.3-0.2,0.6-0.3,0.9-0.5c-0.2,0.4-0.3,0.9-0.5,1.3
					c-0.2,0.2-0.3,0.4-0.5,0.6c-0.9,0.9-1.8,1.7-2.5,2.7c-0.6,0.8-1.1,1.8-1.6,2.8c-0.4,0.8-0.9,1.9-0.6,2.8c0,0,0,0,0,0
					c-0.2-1,0.4-2.2,0.8-3c0.5-1,1-2,1.7-2.8c0.8-1,1.8-1.8,2.6-2.7c-0.5,1.2-1,2.4-1.5,3.6c-0.8,2-1.4,4.3-0.5,6.4c0,0,0,0,0,0
					c-0.8-2.1-0.2-4.4,0.6-6.4c0.4-1.1,0.9-2.2,1.4-3.2c0.1-0.2,0.1-0.3,0.2-0.5c0.2-0.2,0.4-0.5,0.6-0.7c-0.2,0.4-0.4,0.8-0.5,1.3
					c-0.4,1.2-0.5,2.5-0.5,3.8c0,1,0.1,2.1,0.3,3.1c0.1,0.8,0.2,1.8,0.9,2.3c0,0,0.1,0,0,0c-0.6-0.7-0.7-1.6-0.8-2.5
					c-0.1-1-0.2-2-0.2-3c0-1.3,0.1-2.5,0.5-3.7c0.2-0.5,0.4-1,0.6-1.5c0.1-0.1,0.2-0.2,0.2-0.3c-0.1,1.5,0,3.1,0.3,4.6
					c0.3,1.7,0.6,3.4,1,5.1c0,0,0.1,0,0.1,0c-0.3-1.6-0.7-3.3-0.9-4.9c-0.1-0.9-0.2-1.8-0.3-2.6c0-0.8,0-1.5,0-2.3
					c0.2-0.3,0.4-0.6,0.6-1c0,0,0,0,0,0c0,0,0.1-0.1,0.1-0.1c0.4,0.1,0.8,0.1,1.2,0.2c0.2,0.2,0.4,0.3,0.6,0.4
					c0,0.2,0.1,0.3,0.1,0.5c-0.3-0.4-0.6-0.7-1.1-0.9c0,0-0.1,0,0,0.1c0.5,0.3,0.8,0.6,1.1,1.1c0.1,0.8,0.3,1.7,0.5,2.5
					c0.2,0.8,0.5,1.6,0.9,2.4c0.4,0.8,0.9,1.5,1.3,2.3c0,0,0.1,0,0,0c-0.4-0.8-0.8-1.4-1.2-2.2c-0.4-0.8-0.7-1.6-0.9-2.4
					c-0.2-0.8-0.3-1.5-0.5-2.3c0.1,0.1,0.1,0.1,0.2,0.2c0.5,0.7,1,1.3,1.5,1.9c1,1.3,2.1,2.6,3.1,4c0,0,0.1,0,0,0
					c-0.4-0.7-1-1.3-1.5-1.9c-0.5-0.7-1.1-1.4-1.6-2.1c-0.5-0.7-1.1-1.4-1.6-2.1c0-0.1-0.1-0.1-0.1-0.2c0-0.2-0.1-0.4-0.1-0.6
					c0.1,0.1,0.2,0.2,0.4,0.2c0.1,0.1,0.1,0.1,0.2,0.2c0.6,0.7,1.3,1.4,1.9,2.1c0.6,0.6,1.2,1,1.9,1.4c0.6,0.4,1.4,0.8,1.7,1.5
					c0,0,0.1,0,0.1,0c-0.2-0.6-0.8-1-1.3-1.4c-0.3-0.2-0.6-0.4-0.9-0.6c-0.4-0.3-0.8-0.6-1.1-0.9c-0.5-0.4-0.9-0.9-1.3-1.4
					c0.3,0.2,0.5,0.4,0.8,0.6c0.8,0.6,1.7,1.1,2.7,1.4c1.1,0.3,2.2,0.6,3.3,1.1c0,0,0.1,0,0-0.1c-0.9-0.5-2-0.8-3-1.1
					c-1-0.3-2-0.8-2.9-1.4c-0.5-0.4-1-0.9-1.5-1.3c0.9,0.5,1.8,0.8,2.7,1.1c0.9,0.3,1.9,0.5,2.8,0.5c0.9,0,1.9-0.3,2.7,0.1
					c0,0,0.1,0,0-0.1c-0.7-0.4-1.6-0.2-2.3-0.1c-1,0.1-1.9-0.1-2.9-0.4c-1-0.3-2-0.6-2.9-1.1c-0.2-0.1-0.3-0.2-0.4-0.2
					c-0.1-0.1-0.2-0.2-0.3-0.4c0.3,0.1,0.6,0.2,1,0.2c0.7,0.1,1.4,0.2,2.1,0.3c0.7,0.1,1.4,0.2,2.2,0.2c0.6,0,1.2,0.1,1.8,0
					c0.3-0.1,0.6-0.2,0.9-0.2c0.2-0.1,1.9-0.6,1.9-0.2c0,0,0,0,0,0c0-0.4-1.2-0.1-1.3-0.1c-0.4,0.1-0.7,0.2-1.1,0.3
					c-0.5,0.1-0.9,0.1-1.4,0.1c-1.6,0-3.1-0.3-4.7-0.5c-0.5-0.1-0.9-0.2-1.4-0.3c0,0,0,0,0,0c1.2,0.1,2.3,0,3.5-0.2
					c1.2-0.2,2.4-0.4,3.5-0.7C134.3,104.8,135.5,104.4,136.8,104.1C136.8,104.2,136.8,104.1,136.8,104.1z M120.3,107.7
					c-0.2,0.1-0.4,0.1-0.6,0.2c0.2-0.1,0.5-0.2,0.7-0.3C120.4,107.6,120.3,107.6,120.3,107.7z M126,105.9c-0.2-0.2-0.4-0.4-0.6-0.6
					c0,0,0,0,0.1,0c0.2,0,0.3,0,0.4,0C125.9,105.4,125.9,105.7,126,105.9z M127.1,104.4c-0.4,0.2-0.8,0.4-1.2,0.6
					c0-0.1,0-0.2-0.1-0.3C126.2,104.6,126.7,104.5,127.1,104.4z M125.8,104.7c0,0.1,0,0.2,0.1,0.3c-0.1,0-0.2,0.1-0.3,0.1
					c-0.1,0-0.2,0-0.3,0c-0.1-0.1-0.3-0.2-0.4-0.3C125.1,104.8,125.4,104.8,125.8,104.7z M124.6,104.8c0,0,0.1,0,0.1,0c0,0,0,0,0,0
					c0.1,0.1,0.2,0.2,0.3,0.3c0,0,0,0,0,0C124.9,105,124.8,104.9,124.6,104.8z M124.7,105.2c0.1,0,0.2,0,0.3,0c0,0,0,0,0,0
					c-0.1,0-0.1,0-0.2,0.1C124.7,105.3,124.7,105.2,124.7,105.2z M123.4,105.6c0.2,0.1,0.4,0.1,0.5,0.1c-0.1,0-0.2,0-0.2,0.1
					c0,0,0-0.1,0-0.1c-0.1,0-0.1,0.1-0.2,0.1c0,0-0.1,0-0.1,0c0-0.1-0.1-0.1-0.1-0.2C123.3,105.7,123.3,105.7,123.4,105.6
					C123.4,105.6,123.4,105.6,123.4,105.6z M123.4,106C123.5,106,123.5,106,123.4,106c0.2-0.1,0.3-0.1,0.5-0.2
					c-0.1,0.1-0.1,0.3-0.2,0.4c0,0-0.1,0.1-0.1,0.1C123.6,106.2,123.5,106.1,123.4,106z M123.6,106.4c-0.1,0.1-0.2,0.2-0.4,0.3
					c-0.1,0-0.1,0.1-0.2,0.1c0.1-0.2,0.1-0.5,0.2-0.7c0,0,0.1-0.1,0.1-0.1C123.5,106.2,123.5,106.3,123.6,106.4z M123.3,105.6
					C123.3,105.6,123.3,105.6,123.3,105.6C123.3,105.6,123.2,105.6,123.3,105.6C123.2,105.6,123.2,105.6,123.3,105.6
					C123.2,105.5,123.2,105.5,123.3,105.6z M123,105.7C123,105.8,123.1,105.8,123,105.7c-0.1,0-0.2,0-0.4,0
					C122.7,105.7,122.9,105.7,123,105.7z M122.3,105.3c0.2,0.1,0.3,0.2,0.5,0.3c-0.4,0-0.8-0.1-1.2-0.2c-0.1,0-0.2-0.1-0.3-0.1
					C121.6,105.4,122,105.4,122.3,105.3z M120.6,105.2c0.1,0,0.2,0.1,0.3,0.1c0.6,0.3,1.2,0.5,1.8,0.5c0.2,0,0.4,0,0.5,0
					c0,0,0,0,0,0c-0.3,0.1-0.7,0.2-1,0.3c0,0,0,0-0.1,0c0,0-0.1,0-0.1-0.1c0,0,0,0,0,0c0,0,0-0.1,0,0c0,0,0,0-0.1,0.1
					C121.5,105.9,121.1,105.6,120.6,105.2z M121.5,107.2c-0.1,0-0.3,0.1-0.4,0.1c0.3-0.3,0.6-0.6,0.9-0.9c0.1,0,0.2,0,0.3-0.1
					c0.1,0.1,0.3,0.1,0.4,0.2C122.2,106.7,121.8,106.9,121.5,107.2z M122.7,106.4c-0.1,0-0.2-0.1-0.3-0.1c0.3-0.1,0.5-0.1,0.8-0.2
					C123,106.2,122.9,106.3,122.7,106.4z M122.8,106.4c0.1-0.1,0.2-0.2,0.3-0.3c0,0.1-0.1,0.2-0.1,0.3c0,0,0,0,0,0
					C123,106.5,122.9,106.5,122.8,106.4z M123.3,107.2c-0.2,0.3-0.5,0.6-0.7,0.9c0.2-0.4,0.3-0.8,0.4-1.1c0.2-0.1,0.4-0.3,0.6-0.5
					C123.5,106.7,123.4,107,123.3,107.2z M123.7,106.8C123.7,106.7,123.7,106.7,123.7,106.8C123.7,106.7,123.7,106.7,123.7,106.8
					c0-0.1,0.1-0.2,0.1-0.3c0,0,0,0,0,0c0,0,0,0,0,0c0,0,0,0,0,0c0,0,0-0.1,0-0.1c0.1-0.1,0.2-0.2,0.3-0.4
					C124,106.2,123.8,106.5,123.7,106.8z M123.9,106.1c0-0.1,0.1-0.2,0.1-0.3c0,0,0.1,0,0.1,0C124.1,105.9,124,106,123.9,106.1z
					 M124.2,105.7c-0.2,0-0.4-0.1-0.7-0.2C123.8,105.6,124,105.6,124.2,105.7C124.3,105.7,124.2,105.7,124.2,105.7z M124.1,105.5
					c0.1,0,0.2,0,0.3,0c0,0,0,0.1-0.1,0.1C124.2,105.5,124.1,105.5,124.1,105.5z M124.6,105.8c-0.1,0-0.2,0-0.2,0c0,0,0,0,0,0
					c0.1,0,0.2,0.1,0.3,0.1C124.6,105.8,124.6,105.8,124.6,105.8z M124.4,105.6c0,0,0.1-0.1,0.1-0.1c0.1,0,0.2,0,0.3,0
					c0.1,0.1,0.3,0.3,0.4,0.4C124.9,105.7,124.7,105.6,124.4,105.6z M125.5,105.9C125.5,105.9,125.5,105.9,125.5,105.9
					c-0.2-0.2-0.4-0.3-0.7-0.5c0.1,0,0.1,0,0.2,0c0.2,0.2,0.4,0.4,0.6,0.6C125.6,105.9,125.6,105.9,125.5,105.9z M125.8,106.1
					c0,0,0.1,0,0.1,0c0,0,0.1,0.1,0.1,0.1c0,0,0,0,0,0C126,106.2,125.9,106.2,125.8,106.1z M128.4,98.6c1.1-2,1.8-4.2,3.1-6.1
					c0,0,0,0,0,0c-1.3,1.9-2,4.2-3.1,6.2c-1.2,2-2.6,3.9-4.2,5.6c0,0,0,0,0,0C125.8,102.6,127.2,100.7,128.4,98.6z M121.7,94.2
					c-0.2-1-0.3-2-0.1-2.9c0,0,0,0,0,0c-0.2,1.1,0,2.2,0.2,3.2c0.2,1,0.5,2,0.6,3c0.2,1.3,0.4,2.5,0.6,3.8c0.2,1.3,0.4,2.6,0.5,3.9
					c0,0,0,0,0,0c-0.2-1.3-0.3-2.6-0.5-3.9c-0.2-1.3-0.4-2.7-0.6-4C122.2,96.3,121.9,95.3,121.7,94.2z"/>
				<path class="st50" d="M138.1,103.9c-0.2-0.4-0.6-0.5-0.7-0.8c-0.3-0.7,0-1.9,0.2-2.7c0.5-1.6,0.4-3.7,0.3-5.4
					c0-0.9,0.6-2.3,0-3.1c-0.5-0.7-1.7-0.3-1.8-1.3c-0.9,0.9-0.8,0-1.5-0.4c-0.1-0.1-0.9-0.2-1-0.3c-0.4-0.4-0.1-0.6-0.3-1.1
					c-0.7-1.3-2.3-0.7-3.2-2.1c-1.2,0.8-1.1,0-2.3-0.2c-0.8-0.1-1.5,0.8-2.3-0.2c-0.6,0.3-0.9,0.4-1.5,0.6c-0.2,0-0.4-0.3-0.7-0.3
					c-0.2,0-0.4,0.4-0.6,0.4c-1.2,0.2-1.8-0.5-2.6,0.9c-0.2-0.3-0.5-0.3-0.7-0.5c-0.1,1,1,3.1,0.3,3.8c-0.2-0.5-0.8-1.1-1.3-1.2
					c-1-0.3-0.9,0.4-1.8,0.6c-0.3,0.1-0.9-0.2-1-0.2c-0.2,0.1-0.5,0.6-0.5,0.6c-0.5,0.2-1.1,0.2-1.8,0.2c-0.1,1.2-0.8,0.2-1.5,0.4
					c-0.7,0.2-0.5,1.3-1.4,0.6c0,0.3-0.2,0.6-0.2,0.9c-0.4-0.2-0.7,0-1.1,0c0.1,0.4,0.1,0.8,0.2,1.2c-1.7-0.9-1.2,1-1.4,1.9
					c-0.2-0.1-0.5-0.1-0.7-0.2c0.4,0.6-0.1,2.3-0.6,2.4c0.1,0.3,0,0.7,0.1,0.9c-0.9,0.1-0.2,0.5-0.1,1.1c0,0.4,0.1,0.9,0.1,1.1
					c0.1,0.7,1.1,2.3,0.9,2.6c0.4,0.6,1.1,1,1.6,1.5c-0.5,1.9,3.6,0.4,1.2,2.9c-0.9,1-2.3,1.1-1.8,2.8c0.5,1.7,0.3,2.6,2.2,3.1
					c-0.3,1.5,2.2,2.1,3.2,2.7c0.5,0.3,0.3,0.6,0.9,0.7c0.3,0.1,0.8-0.4,1.2-0.2c0.7,0.3,0.5,1.4,1.1,1.8c1.1,0.7,3.1-0.1,4.4,0
					c1.6,0.1,2.6-0.6,4.3-0.6c0.4-1,0.2-2.6,1.5-3.1c0.4-0.1,0.7,0.3,1.1,0.2c0.3-0.1,0.3-0.4,0.6-0.5c0.5-0.2,1.2-0.3,1.7-0.5
					c0.5-0.3,0.8-0.9,1.3-1.3c0.5-0.4,1.3-0.5,1.8-1c0.3-0.3,1.1-1.1,1.3-1.4c0.2-0.6,0-1,0.4-1.6c0.6-0.9,1.2-1.4,1.6-2.4
					c0.2-0.7,0.6-1.4,0.8-2.2C138.2,104.5,138.4,104.5,138.1,103.9z M134.2,107.7c-0.2,0.5-0.1,1.1-0.3,1.5c-0.6,1-1.3,0.1-2.3,0.8
					c-1.1,0.8-0.4,1.3-1.9,1c-1.4-0.3-1.6-0.6-2.1,0.9c-0.1,0.4-0.1,0.9-0.4,1.2c-0.5,0.4-0.8,0-1.2,0.2c-0.6,0.4-0.8,1.7-1.6,2
					c-0.4,0.1-0.9-0.3-1.3-0.3c-0.6,0.1-0.8,0.7-1.5,0.6c-0.1,0-0.4-0.5-0.5-0.5c-0.3-0.1-0.5,0.2-0.8,0c-0.4-0.2-0.6-0.7-0.6-1
					c-0.1,0.1-0.5,0.2-0.7,0.3c0.1-1.2-1.4-0.5-2.1-1.2c-0.6-0.6-0.7-1.8-1.9-1.3c-0.2-0.9,0.4-1,0.6-1.6c0.1-0.3-0.4-0.5-0.2-0.9
					c0.1-0.2,0.4-0.3,0.5-0.5c0.5-1.2,2.2-1.9,0.7-2.7c-1-0.6-2.3-0.3-2.5-1.9c-0.1-0.6,0.5-0.5,0-1.3c-0.3-0.5-1-0.4-0.8-1.3
					c-0.4-0.3-1.1-0.6-1.2-1.2c-0.3-1.2,0.5-0.5,1.2-1c0.2-0.2,0.2-1.2,0.5-1.5c0.4-0.5,1-0.3,1.3-0.9c0.7,0,1.4,0.2,2.1,0.2
					c0.4,0,0.6-0.3,1-0.2c0.5,0.1,0.5,0.4,0.9,0.6c0.9,0.5,2.5,0.6,2.9-0.6c0.2-0.4-0.3-1-0.1-1.4c0.2-0.4,0.9-0.6,1.2-0.8
					c0.4-0.3,0.6-0.6,1.1-0.8c0.1-0.1,0.4-0.4,0.5-0.4c0.2,0,0.6,0.2,0.7,0.2c0.6-0.2,2-1.7,2.8-1.3c0.4,0.2,0.3,1.1,0.6,1.3
					c0.3,0.2,1.1,0.1,1.6,0.1c0,1,1.6,0.6,2.3,1.2c0.9,0.8,0.7,1.7,0.6,2.8c-0.1,1.3,0.4,1.7-0.4,2.7c-0.5,0.7-1.4,2.1,0.3,2.1
					c-1.1,1,1.8,2.5,1.7,4.1C134.8,107.5,134.4,107.3,134.2,107.7z"/>
			</g>
			<g>
				
					<radialGradient id="SVGID_44_" cx="129.3822" cy="102.7847" r="9.3909" gradientTransform="matrix(0.9997 2.356718e-02 -2.356718e-02 0.9997 -3.6995 -2.7)" gradientUnits="userSpaceOnUse">
					<stop  offset="0" style="stop-color:#553E20"/>
					<stop  offset="9.355849e-02" style="stop-color:#4A361D"/>
					<stop  offset="0.5201" style="stop-color:#1C1004"/>
					<stop  offset="0.8344" style="stop-color:#000000"/>
					<stop  offset="1" style="stop-color:#000000"/>
				</radialGradient>
				<path class="st51" d="M119.5,100.7c-0.2,0.3-0.4,0.6-0.4,0.9c0,0.4,0.1,0.7,0,1.1c-0.2,0.7-0.4,1.4-0.6,2.1
					c-0.4,1.4,0,3,1.5,3.6c0.8,0.3,1.3,0.5,2,1c0.6,0.4,1.3,0.7,2.1,0.4c0.3-0.1,0.5-0.4,0.8-0.5c0.3-0.2,0.7-0.1,1.1-0.2
					c0.3-0.1,0.8-0.1,1-0.2c0.1-0.1,0.1-0.2,0.2-0.3c0.1-0.1,0.3-0.1,0.5-0.2c0.7-0.5,0.7-1.1,0.8-1.9c0-0.3,0-0.8,0.2-1.1
					c0.2-0.3,0.6-0.5,0.8-0.8c0.9-1.5-0.3-2.3-1.3-3.3c-0.6-0.6-0.8-1.3-1.5-1.7c-1.1-0.8-2.7-1.1-4-0.9c-0.7,0.1-1.5,0.1-2,0.5
					C120.2,99.4,119.8,100.1,119.5,100.7z"/>
				
					<radialGradient id="SVGID_45_" cx="128.8686" cy="101.793" r="4.6121" gradientTransform="matrix(0.9997 2.356718e-02 -2.356718e-02 0.9997 -3.6995 -2.7)" gradientUnits="userSpaceOnUse">
					<stop  offset="0" style="stop-color:#D2CA2A"/>
					<stop  offset="0.1099" style="stop-color:#C2B328"/>
					<stop  offset="0.5238" style="stop-color:#97731D"/>
					<stop  offset="0.8286" style="stop-color:#7E5215"/>
					<stop  offset="0.9892" style="stop-color:#764712"/>
				</radialGradient>
				<path class="st52" d="M119.2,100.3c0.1,0.1,0.3,0.2,0.4,0.2c0.1,0.1,0.4,0.1,0.2,0.3c-0.1,0.1-0.4,0-0.5,0
					c-0.2,0-0.3,0.1-0.5,0.2c-0.3,0.1-0.6,0.2-0.8,0.5c-0.2,0.3-0.2,0.6-0.1,0.9c0.1,0.3,0,0.7,0.1,1c0.1,0.4,0.4,0.4,0.8,0.4
					c0.2,0,0.3-0.1,0.4,0.2c0.1,0.2,0.1,0.4,0.1,0.6c0,0.3-0.2,0.8-0.1,1c0.1,0.2,0.4,0.3,0.5,0.4c0.2,0.2,0.4,0.2,0.6,0.3
					c0.4,0.1,0.8-0.1,1-0.4c0.2-0.3,0.4-0.7,0.9-0.5c0.4,0.2,0.6,0.5,0.8,0.8c0.2,0.3,0.9,0.2,1.2,0.1c0.4-0.1,0.7-0.2,0.7-0.7
					c0-0.4-0.3-0.7,0.1-1.1c0.3-0.3,0.6-0.5,1.1-0.5c0.2,0,0.4,0,0.5-0.2c0.1-0.2,0.2-0.5,0.3-0.7c0.2-0.3,0.6-0.5,0.4-1
					c-0.2-0.4-0.6-0.6-0.8-1c-0.3-0.5,0.4-0.5,0.7-0.8c0.2-0.2,0-0.4-0.1-0.6c-0.1-0.2-0.2-0.5-0.3-0.8c-0.1-0.3-0.4-0.3-0.6-0.4
					c-0.2-0.1-0.3-0.3-0.5-0.3c-0.2,0-0.5,0.2-0.7,0.3c-0.2,0.1-0.3,0.2-0.6,0.1c-0.4-0.3,0-1-0.5-1.2c-0.2-0.1-0.6,0.1-0.8,0.1
					c-0.3,0-0.4,0-0.7,0c-0.4-0.1-0.4,0.4-0.5,0.7c0,0.2,0,0.5-0.2,0.5c-0.1,0-0.4-0.2-0.5-0.2c-0.4-0.1-0.6-0.3-1-0.1
					c-0.2,0.1-0.3,0.2-0.5,0.3c-0.2,0.1-0.3,0.3-0.5,0.4C119,99.6,118.8,99.9,119.2,100.3z"/>
				
					<radialGradient id="SVGID_46_" cx="128.7482" cy="101.8418" r="5.3618" gradientTransform="matrix(0.9997 2.356718e-02 -2.356718e-02 0.9997 -3.6995 -2.7)" gradientUnits="userSpaceOnUse">
					<stop  offset="0" style="stop-color:#E3D192"/>
					<stop  offset="0.7849" style="stop-color:#BA756B"/>
					<stop  offset="0.8792" style="stop-color:#994543"/>
					<stop  offset="0.9583" style="stop-color:#812129"/>
					<stop  offset="1" style="stop-color:#781020"/>
				</radialGradient>
				<path class="st53" d="M122.4,102.2c-0.1,0.5-0.2,1-0.5,1.5c-0.2,0.5-0.5,1-0.6,1.6c-0.1,0.4,0,0.8-0.1,1.2
					c0,0.4-0.5,0.4-0.8,0.2c-0.1-0.1-0.2-0.3-0.4-0.4c-0.1-0.1-0.3-0.1-0.4-0.2c-0.4-0.2-0.6-0.6-0.5-1c0.1-0.4,0.6-0.8,0.8-1.2
					c0.2-0.4,0.5-0.6,0.8-1c0.2-0.3,0.4-0.5,0.6-0.7c0.2-0.2,0.4-0.4,0.6-0.6c-0.2,0.1-0.4,0.3-0.6,0.4c-0.3,0.1-0.5,0.2-0.8,0.3
					c-0.4,0.1-0.9,0.3-1.3,0.5c-0.2,0.1-0.5,0.2-0.7,0.3c-0.1,0.1-0.4,0.4-0.6,0.3c-0.1,0-0.2-0.4-0.2-0.5c0-0.2,0.2-0.3,0.3-0.5
					c0.1-0.4-0.5-0.6-0.2-1c0.2-0.4,1-0.5,1.4-0.4c0.5,0,0.9,0,1.4,0c0.2,0,0.4,0,0.6,0c0.2,0,0.4,0.1,0.6,0.1
					c-0.1-0.4-0.7-0.5-1.1-0.7c-0.2-0.1-0.4-0.2-0.6-0.4c-0.2-0.1-0.3-0.3-0.5-0.4c-0.3-0.1-1,0.1-1.1-0.3c-0.1-0.4,0.7-0.5,0.7-0.9
					c0-0.2,0-0.3,0.1-0.4c0.2-0.1,0.5-0.1,0.7,0c0.4,0.2,1,0.4,1.3,0.8c0.1,0.2,0.3,0.4,0.4,0.6c0.1,0.2,0.2,0.3,0.3,0.5
					c0.1,0.3,0.2,0.6,0.3,0.9c0-0.6-0.1-1.2-0.2-1.8c0-0.2,0-0.5,0-0.7c0-0.2-0.1-0.3-0.2-0.5c-0.1-0.2-0.1-0.3,0-0.5
					c0.1-0.2,0.4-0.3,0.6-0.2c0.2,0.1,0.3,0.3,0.6,0.2c0.2-0.1,0.3-0.2,0.6-0.2c0.4,0,0.5,0.4,0.4,0.7c-0.1,0.2-0.2,0.3-0.3,0.5
					c-0.1,0.2-0.2,0.4-0.3,0.6c-0.3,0.6-0.7,1.2-0.8,1.9c0.3-0.3,0.4-0.7,0.7-0.9c0.3-0.2,0.6-0.4,0.9-0.6c0.4-0.3,0.9-0.8,1.4-0.9
					c0.3-0.1,0.6,0.1,0.8,0.3c0.1,0.2,0,0.4,0.1,0.5c0.1,0.1,0.2,0.1,0.3,0.1c0.1,0.1,0.2,0.1,0.3,0.2c0.1,0.1,0.3,0.4,0.1,0.6
					c-0.1,0.2-0.6,0.1-0.8,0.1c-0.4,0-0.7-0.1-1.1,0c-0.8,0.2-1.5,0.7-2.3,1c1.3,0,2.8,0,3.8,0.8c0.3,0.2,0.9,0.7,0.7,1.1
					c-0.1,0.2-0.3,0.2-0.5,0.4c-0.1,0.2,0,0.3,0,0.5c0,0.3-0.2,0.8-0.6,0.6c-0.2-0.1-0.4-0.4-0.6-0.6c-0.2-0.2-0.3-0.4-0.5-0.6
					c-0.8-0.8-2.1-0.9-2.9-1.7c0.4,0.3,0.7,0.8,1,1.2c0.3,0.4,0.4,0.8,0.7,1.1c0.3,0.5,0.6,1,0.7,1.6c0.1,0.4,0.1,0.8-0.4,0.9
					c-0.2,0-0.4,0-0.6,0.1c-0.2,0.1-0.3,0.3-0.5,0.4c-0.5,0.1-0.6-0.7-0.6-1c0-0.5-0.3-0.9-0.5-1.4c-0.1-0.2-0.1-0.5-0.1-0.8
					c0-0.2-0.1-0.5-0.1-0.7C122.4,102.9,122.5,102.6,122.4,102.2L122.4,102.2z"/>
			</g>
			<g>
				
					<radialGradient id="SVGID_47_" cx="7.4997" cy="294.4901" r="2.0247" gradientTransform="matrix(0.88 -0.2828 0.2992 0.8382 40.0616 -144.3646)" gradientUnits="userSpaceOnUse">
					<stop  offset="0" style="stop-color:#5B191F"/>
					<stop  offset="0.4714" style="stop-color:#250004"/>
					<stop  offset="0.8175" style="stop-color:#000000"/>
					<stop  offset="1" style="stop-color:#000000"/>
				</radialGradient>
				<path class="st54" d="M136.5,100.1c0.1,0.3-0.5,0.8-1.4,1.1c-0.9,0.3-1.7,0.3-1.9-0.1c-0.1-0.3,0.5-0.8,1.4-1.1
					C135.6,99.7,136.4,99.7,136.5,100.1z"/>
				
					<radialGradient id="SVGID_48_" cx="-41.9816" cy="406.8398" r="2.025" gradientTransform="matrix(0.7371 -0.5373 0.5663 0.7027 -68.5518 -209.1598)" gradientUnits="userSpaceOnUse">
					<stop  offset="0" style="stop-color:#5B191F"/>
					<stop  offset="0.4714" style="stop-color:#250004"/>
					<stop  offset="0.8175" style="stop-color:#000000"/>
					<stop  offset="1" style="stop-color:#000000"/>
				</radialGradient>
				<path class="st55" d="M132.4,98.5c0.2,0.3-0.2,0.9-1,1.5c-0.8,0.6-1.6,0.8-1.8,0.5c-0.2-0.3,0.2-0.9,1-1.5
					C131.4,98.5,132.2,98.2,132.4,98.5z"/>
				
					<radialGradient id="SVGID_49_" cx="-128.0494" cy="498.1935" r="2.0249" gradientTransform="matrix(0.5121 -0.7371 0.7757 0.4891 -191.0399 -240.7054)" gradientUnits="userSpaceOnUse">
					<stop  offset="0" style="stop-color:#5B191F"/>
					<stop  offset="0.4714" style="stop-color:#250004"/>
					<stop  offset="0.8175" style="stop-color:#000000"/>
					<stop  offset="1" style="stop-color:#000000"/>
				</radialGradient>
				<path class="st56" d="M131,96.1c0.3,0.2,0.1,1-0.4,1.7c-0.5,0.8-1.2,1.2-1.5,1c-0.3-0.2-0.1-1,0.4-1.7
					C130,96.4,130.7,95.9,131,96.1z"/>
				
					<radialGradient id="SVGID_50_" cx="-126.1327" cy="496.2062" r="2.0254" gradientTransform="matrix(0.5121 -0.7371 0.7757 0.4891 -191.0399 -240.7054)" gradientUnits="userSpaceOnUse">
					<stop  offset="0" style="stop-color:#5B191F"/>
					<stop  offset="0.4714" style="stop-color:#250004"/>
					<stop  offset="0.8175" style="stop-color:#000000"/>
					<stop  offset="1" style="stop-color:#000000"/>
				</radialGradient>
				<path class="st57" d="M130.4,93.7c0.3,0.2,0.1,1-0.4,1.7c-0.5,0.8-1.2,1.2-1.5,1c-0.3-0.2-0.1-1,0.4-1.7
					C129.5,94,130.1,93.6,130.4,93.7z"/>
				
					<radialGradient id="SVGID_51_" cx="-218.6011" cy="542.0735" r="2.0253" gradientTransform="matrix(0.2965 -0.8377 0.8809 0.2841 -285.5695 -242.2569)" gradientUnits="userSpaceOnUse">
					<stop  offset="0" style="stop-color:#5B191F"/>
					<stop  offset="0.4714" style="stop-color:#250004"/>
					<stop  offset="0.8175" style="stop-color:#000000"/>
					<stop  offset="1" style="stop-color:#000000"/>
				</radialGradient>
				<path class="st58" d="M128,93.4c0.3,0.1,0.4,0.9,0.1,1.8c-0.3,0.9-0.8,1.5-1.2,1.4c-0.3-0.1-0.4-0.9-0.1-1.8
					C127.1,93.9,127.6,93.3,128,93.4z"/>
				
					<radialGradient id="SVGID_52_" cx="-218.4927" cy="540.0768" r="2.0252" gradientTransform="matrix(0.2965 -0.8377 0.8809 0.2841 -285.5695 -242.2569)" gradientUnits="userSpaceOnUse">
					<stop  offset="0" style="stop-color:#5B191F"/>
					<stop  offset="0.4714" style="stop-color:#250004"/>
					<stop  offset="0.8175" style="stop-color:#000000"/>
					<stop  offset="1" style="stop-color:#000000"/>
				</radialGradient>
				<path class="st59" d="M126.2,92.8c0.3,0.1,0.4,0.9,0.1,1.8c-0.3,0.9-0.8,1.5-1.2,1.4c-0.3-0.1-0.4-0.9-0.1-1.8
					C125.4,93.3,125.9,92.7,126.2,92.8z"/>
				
					<radialGradient id="SVGID_53_" cx="-386.0653" cy="562.2762" r="2.0248" gradientTransform="matrix(-6.020774e-02 -0.883 0.9276 -5.525538e-02 -422.9183 -215.1437)" gradientUnits="userSpaceOnUse">
					<stop  offset="0" style="stop-color:#5B191F"/>
					<stop  offset="0.4714" style="stop-color:#250004"/>
					<stop  offset="0.8175" style="stop-color:#000000"/>
					<stop  offset="1" style="stop-color:#000000"/>
				</radialGradient>
				<path class="st60" d="M122,93c0.4,0,0.7,0.7,0.8,1.6c0.1,0.9-0.2,1.7-0.5,1.7c-0.4,0-0.7-0.7-0.8-1.6
					C121.4,93.8,121.7,93,122,93z"/>
				
					<radialGradient id="SVGID_54_" cx="-617.8011" cy="486.0886" r="2.0249" gradientTransform="matrix(-0.5364 -0.7236 0.7591 -0.5089 -580.7568 -104.3479)" gradientUnits="userSpaceOnUse">
					<stop  offset="0" style="stop-color:#5B191F"/>
					<stop  offset="0.4714" style="stop-color:#250004"/>
					<stop  offset="0.8175" style="stop-color:#000000"/>
					<stop  offset="1" style="stop-color:#000000"/>
				</radialGradient>
				<path class="st61" d="M118.8,93.9c0.3-0.2,1,0.2,1.5,1c0.6,0.8,0.8,1.5,0.5,1.7c-0.3,0.2-1-0.2-1.5-1
					C118.8,94.8,118.5,94.1,118.8,93.9z"/>
				
					<radialGradient id="SVGID_55_" cx="-731.2394" cy="375.6035" r="2.0251" gradientTransform="matrix(-0.7607 -0.5101 0.5341 -0.7228 -639.5411 -6.427)" gradientUnits="userSpaceOnUse">
					<stop  offset="0" style="stop-color:#5B191F"/>
					<stop  offset="0.4714" style="stop-color:#250004"/>
					<stop  offset="0.8175" style="stop-color:#000000"/>
					<stop  offset="1" style="stop-color:#000000"/>
				</radialGradient>
				<path class="st62" d="M116,93.9c0.2-0.3,1-0.1,1.8,0.4c0.8,0.5,1.3,1.2,1.1,1.5c-0.2,0.3-1,0.1-1.8-0.4
					C116.3,94.8,115.8,94.2,116,93.9z"/>
				
					<radialGradient id="SVGID_56_" cx="-831.7492" cy="172.4707" r="2.0248" gradientTransform="matrix(-0.9177 -0.1424 0.1474 -0.8732 -675.4557 132.3755)" gradientUnits="userSpaceOnUse">
					<stop  offset="0" style="stop-color:#5B191F"/>
					<stop  offset="0.4714" style="stop-color:#250004"/>
					<stop  offset="0.8175" style="stop-color:#000000"/>
					<stop  offset="1" style="stop-color:#000000"/>
				</radialGradient>
				<path class="st63" d="M111.6,99.7c0.1-0.3,0.9-0.5,1.8-0.3c1,0.1,1.7,0.5,1.6,0.9c-0.1,0.3-0.9,0.5-1.8,0.3
					C112.3,100.4,111.5,100,111.6,99.7z"/>
				
					<radialGradient id="SVGID_57_" cx="-297.7852" cy="531.2383" r="2.0248" gradientTransform="matrix(0.1056 -0.8787 0.9234 0.1026 -341.7487 -218.9331)" gradientUnits="userSpaceOnUse">
					<stop  offset="0" style="stop-color:#5B191F"/>
					<stop  offset="0.4714" style="stop-color:#250004"/>
					<stop  offset="0.8175" style="stop-color:#000000"/>
					<stop  offset="1" style="stop-color:#000000"/>
				</radialGradient>
				<path class="st64" d="M117.8,95.6c0.4,0,0.6,0.8,0.5,1.7c-0.1,0.9-0.5,1.6-0.9,1.6c-0.4,0-0.6-0.8-0.5-1.7
					C117.1,96.3,117.5,95.6,117.8,95.6z"/>
				
					<radialGradient id="SVGID_58_" cx="-10.7278" cy="324.8101" r="2.0244" gradientTransform="matrix(0.72 -0.5579 0.5878 0.6865 -67.3002 -127.983)" gradientUnits="userSpaceOnUse">
					<stop  offset="0" style="stop-color:#5B191F"/>
					<stop  offset="0.4714" style="stop-color:#250004"/>
					<stop  offset="0.8175" style="stop-color:#000000"/>
					<stop  offset="1" style="stop-color:#000000"/>
				</radialGradient>
				<path class="st65" d="M117.4,100.2c0.2,0.3-0.2,1-0.9,1.5c-0.7,0.6-1.5,0.8-1.8,0.6c-0.2-0.3,0.2-1,0.9-1.5
					C116.4,100.1,117.2,99.9,117.4,100.2z"/>
				
					<radialGradient id="SVGID_59_" cx="39.7041" cy="4.1014" r="2.0246" gradientTransform="matrix(0.9292 2.280545e-02 -2.184725e-02 0.8843 79.9286 100.7057)" gradientUnits="userSpaceOnUse">
					<stop  offset="0" style="stop-color:#5B191F"/>
					<stop  offset="0.4714" style="stop-color:#250004"/>
					<stop  offset="0.8175" style="stop-color:#000000"/>
					<stop  offset="1" style="stop-color:#000000"/>
				</radialGradient>
				<path class="st66" d="M118.5,105.5c0,0.3-0.8,0.6-1.8,0.6c-1,0-1.7-0.3-1.7-0.7c0-0.3,0.8-0.6,1.8-0.6
					C117.7,104.9,118.5,105.2,118.5,105.5z"/>
				
					<radialGradient id="SVGID_60_" cx="34.2159" cy="2.8132" r="2.025" gradientTransform="matrix(0.9292 2.280545e-02 -2.184725e-02 0.8843 79.9286 100.7057)" gradientUnits="userSpaceOnUse">
					<stop  offset="0" style="stop-color:#5B191F"/>
					<stop  offset="0.4714" style="stop-color:#250004"/>
					<stop  offset="0.8175" style="stop-color:#000000"/>
					<stop  offset="1" style="stop-color:#000000"/>
				</radialGradient>
				<path class="st67" d="M113.4,104.3c0,0.3-0.8,0.6-1.8,0.6c-1,0-1.7-0.3-1.7-0.7c0-0.3,0.8-0.6,1.8-0.6
					C112.6,103.6,113.4,103.9,113.4,104.3z"/>
				
					<radialGradient id="SVGID_61_" cx="-289.0781" cy="574.4559" r="2.025" gradientTransform="matrix(8.577999e-02 -0.8807 0.9255 8.363432e-02 -390.9104 -194.6486)" gradientUnits="userSpaceOnUse">
					<stop  offset="0" style="stop-color:#5B191F"/>
					<stop  offset="0.4714" style="stop-color:#250004"/>
					<stop  offset="0.8175" style="stop-color:#000000"/>
					<stop  offset="1" style="stop-color:#000000"/>
				</radialGradient>
				<path class="st68" d="M116.4,106.4c0.4,0,0.6,0.8,0.5,1.7c-0.1,0.9-0.5,1.6-0.8,1.6c-0.4,0-0.6-0.8-0.5-1.7
					C115.6,107.1,116,106.3,116.4,106.4z"/>
				
					<radialGradient id="SVGID_62_" cx="-27.2569" cy="366.3195" r="2.0245" gradientTransform="matrix(0.6876 -0.5938 0.6255 0.6557 -91.6971 -148.3215)" gradientUnits="userSpaceOnUse">
					<stop  offset="0" style="stop-color:#5B191F"/>
					<stop  offset="0.4714" style="stop-color:#250004"/>
					<stop  offset="0.8175" style="stop-color:#000000"/>
					<stop  offset="1" style="stop-color:#000000"/>
				</radialGradient>
				<path class="st69" d="M120.2,107.2c0.2,0.3-0.1,1-0.8,1.6c-0.7,0.6-1.5,0.9-1.7,0.7c-0.2-0.3,0.1-1,0.8-1.6
					C119.1,107.2,119.9,106.9,120.2,107.2z"/>
				
					<radialGradient id="SVGID_63_" cx="-27.3148" cy="365.0209" r="2.0245" gradientTransform="matrix(0.6876 -0.5938 0.6255 0.6557 -91.6971 -148.3215)" gradientUnits="userSpaceOnUse">
					<stop  offset="0" style="stop-color:#5B191F"/>
					<stop  offset="0.4714" style="stop-color:#250004"/>
					<stop  offset="0.8175" style="stop-color:#000000"/>
					<stop  offset="1" style="stop-color:#000000"/>
				</radialGradient>
				<path class="st70" d="M119.3,106.3c0.2,0.3-0.1,1-0.8,1.6c-0.7,0.6-1.5,0.9-1.7,0.7c-0.2-0.3,0.1-1,0.8-1.6
					C118.3,106.4,119.1,106.1,119.3,106.3z"/>
				
					<radialGradient id="SVGID_64_" cx="-233.3358" cy="556.7616" r="2.025" gradientTransform="matrix(0.186 -0.8664 0.9107 0.179 -343.0582 -193.6397)" gradientUnits="userSpaceOnUse">
					<stop  offset="0" style="stop-color:#5B191F"/>
					<stop  offset="0.4714" style="stop-color:#250004"/>
					<stop  offset="0.8175" style="stop-color:#000000"/>
					<stop  offset="1" style="stop-color:#000000"/>
				</radialGradient>
				<path class="st71" d="M121.2,106.6c0.4,0.1,0.5,0.9,0.3,1.8c-0.2,0.9-0.6,1.6-1,1.5c-0.4-0.1-0.5-0.9-0.3-1.8
					C120.4,107.2,120.9,106.5,121.2,106.6z"/>
				
					<radialGradient id="SVGID_65_" cx="-23.5623" cy="339.5889" r="2.025" gradientTransform="matrix(0.7395 -0.5343 0.5631 0.7051 -49.6815 -142.695)" gradientUnits="userSpaceOnUse">
					<stop  offset="0" style="stop-color:#5B191F"/>
					<stop  offset="0.4714" style="stop-color:#250004"/>
					<stop  offset="0.8175" style="stop-color:#000000"/>
					<stop  offset="1" style="stop-color:#000000"/>
				</radialGradient>
				<path class="st72" d="M125.7,108.5c0.2,0.3-0.2,0.9-1,1.5c-0.8,0.6-1.6,0.8-1.8,0.5c-0.2-0.3,0.2-0.9,1-1.5
					C124.7,108.5,125.5,108.3,125.7,108.5z"/>
				
					<radialGradient id="SVGID_66_" cx="-622.5312" cy="495.0729" r="2.0245" gradientTransform="matrix(-0.7146 -0.5672 0.5944 -0.6789 -609.976 90.1499)" gradientUnits="userSpaceOnUse">
					<stop  offset="0" style="stop-color:#5B191F"/>
					<stop  offset="0.4714" style="stop-color:#250004"/>
					<stop  offset="0.8175" style="stop-color:#000000"/>
					<stop  offset="1" style="stop-color:#000000"/>
				</radialGradient>
				<path class="st73" d="M128,105.9c0.2-0.3,1,0,1.8,0.6c0.7,0.6,1.2,1.3,0.9,1.5c-0.2,0.3-1,0-1.8-0.6
					C128.2,106.9,127.8,106.2,128,105.9z"/>
				
					<radialGradient id="SVGID_67_" cx="-620.1317" cy="495.3783" r="2.0249" gradientTransform="matrix(-0.7146 -0.5672 0.5944 -0.6789 -609.976 90.1499)" gradientUnits="userSpaceOnUse">
					<stop  offset="0" style="stop-color:#5B191F"/>
					<stop  offset="0.4714" style="stop-color:#250004"/>
					<stop  offset="0.8175" style="stop-color:#000000"/>
					<stop  offset="1" style="stop-color:#000000"/>
				</radialGradient>
				<path class="st74" d="M126.5,104.3c0.2-0.3,1,0,1.8,0.6c0.7,0.6,1.2,1.3,0.9,1.5c-0.2,0.3-1,0-1.8-0.6
					C126.6,105.3,126.2,104.6,126.5,104.3z"/>
				
					<radialGradient id="SVGID_68_" cx="-760.3522" cy="196.6136" r="2.0249" gradientTransform="matrix(-0.9184 0.134 -0.1429 -0.8744 -542.2645 377.6515)" gradientUnits="userSpaceOnUse">
					<stop  offset="0" style="stop-color:#5B191F"/>
					<stop  offset="0.4714" style="stop-color:#250004"/>
					<stop  offset="0.8175" style="stop-color:#000000"/>
					<stop  offset="1" style="stop-color:#000000"/>
				</radialGradient>
				<path class="st75" d="M126.2,103.8c-0.1-0.3,0.7-0.7,1.6-0.9c1-0.1,1.8,0,1.8,0.4c0.1,0.3-0.7,0.7-1.6,0.9
					C127.1,104.3,126.3,104.2,126.2,103.8z"/>
				
					<radialGradient id="SVGID_69_" cx="-761.1578" cy="199.2311" r="2.0248" gradientTransform="matrix(-0.9184 0.134 -0.1429 -0.8744 -542.2645 377.6515)" gradientUnits="userSpaceOnUse">
					<stop  offset="0" style="stop-color:#5B191F"/>
					<stop  offset="0.4714" style="stop-color:#250004"/>
					<stop  offset="0.8175" style="stop-color:#000000"/>
					<stop  offset="1" style="stop-color:#000000"/>
				</radialGradient>
				<path class="st76" d="M126.6,101.4c-0.1-0.3,0.7-0.7,1.6-0.9c1-0.1,1.8,0,1.8,0.4c0.1,0.3-0.7,0.7-1.6,0.9
					C127.4,102,126.6,101.8,126.6,101.4z"/>
				
					<radialGradient id="SVGID_70_" cx="-713.5357" cy="27.808" r="2.025" gradientTransform="matrix(-0.7626 0.5042 -0.5315 -0.7269 -401.2862 479.7562)" gradientUnits="userSpaceOnUse">
					<stop  offset="0" style="stop-color:#5B191F"/>
					<stop  offset="0.4714" style="stop-color:#250004"/>
					<stop  offset="0.8175" style="stop-color:#000000"/>
					<stop  offset="1" style="stop-color:#000000"/>
				</radialGradient>
				<path class="st77" d="M126.5,100.5c-0.2-0.3,0.3-0.9,1.1-1.5c0.8-0.5,1.6-0.7,1.8-0.4c0.2,0.3-0.3,0.9-1.1,1.5
					C127.5,100.6,126.7,100.8,126.5,100.5z"/>
				
					<radialGradient id="SVGID_71_" cx="-428.1311" cy="575.0503" r="2.0247" gradientTransform="matrix(-0.5449 -0.7179 0.753 -0.5169 -542.8004 102.4076)" gradientUnits="userSpaceOnUse">
					<stop  offset="0" style="stop-color:#5B191F"/>
					<stop  offset="0.4714" style="stop-color:#250004"/>
					<stop  offset="0.8175" style="stop-color:#000000"/>
					<stop  offset="1" style="stop-color:#000000"/>
				</radialGradient>
				<path class="st78" d="M122.7,111.1c0.3-0.2,1,0.2,1.6,1c0.6,0.7,0.8,1.5,0.5,1.7c-0.3,0.2-1-0.2-1.6-1
					C122.6,112,122.4,111.3,122.7,111.1z"/>
				
					<radialGradient id="SVGID_72_" cx="-113.2082" cy="557.4902" r="2.0247" gradientTransform="matrix(0.1377 -0.8746 0.9192 0.133 -369.8085 -60.8327)" gradientUnits="userSpaceOnUse">
					<stop  offset="0" style="stop-color:#5B191F"/>
					<stop  offset="0.4714" style="stop-color:#250004"/>
					<stop  offset="0.8175" style="stop-color:#000000"/>
					<stop  offset="1" style="stop-color:#000000"/>
				</radialGradient>
				<path class="st79" d="M127.6,110.7c0.4,0.1,0.5,0.8,0.4,1.7c-0.1,0.9-0.5,1.6-0.9,1.5c-0.4-0.1-0.5-0.8-0.4-1.7
					C126.8,111.4,127.2,110.7,127.6,110.7z"/>
			</g>
		</g>
	</g>
	<g>
		<path class="st80" d="M90.9,225.7v0.7h-2.7v7.4h-0.8v-7.4h-2.7v-0.7H90.9z"/>
		<path class="st80" d="M96.6,225.7c1.7,0,2.7,0.8,2.7,2.2c0,1.2-0.9,2-2.6,2.1v0c0.5,0.2,0.7,0.3,1,0.6c0.2,0.2,0.3,0.4,0.6,0.8
			l1.7,2.4H99l-1.2-1.7l-0.2-0.3c-0.6-0.9-1.2-1.4-1.7-1.6c-0.2-0.1-0.6-0.1-0.9-0.1h-1.3v3.7h-0.9v-8.1H96.6z M93.7,229.4H96
			c0.9,0,1.5-0.1,1.9-0.5c0.3-0.3,0.5-0.6,0.5-1.1c0-0.7-0.4-1.2-1-1.4c-0.3-0.1-0.9-0.1-1.3-0.1h-2.4V229.4z"/>
		<path class="st80" d="M102.6,231.2l-1.1,2.6h-0.9l3.6-8.1h0.9l3.8,8.1h-1l-1.2-2.6H102.6z M104.6,226.5l-1.8,4.1h3.6L104.6,226.5z
			"/>
		<path class="st80" d="M111.6,225.7v8.1h-0.8v-8.1H111.6z"/>
		<path class="st80" d="M120,225.7v0.7h-2.7v7.4h-0.8v-7.4h-2.7v-0.7H120z"/>
		<path class="st80" d="M127.6,225.7v0.7h-4.9v2.9h4.5v0.7h-4.5v3.2h5v0.7h-5.9v-8.1H127.6z"/>
		<path class="st80" d="M130.9,225.7v5.2c0,0.9,0.2,1.5,0.7,1.9c0.5,0.3,1.1,0.5,1.8,0.5c1.7,0,2.6-0.8,2.6-2.4v-5.2h0.9v5.1
			c0,1.1-0.3,1.9-1,2.4c-0.6,0.5-1.3,0.7-2.4,0.7c-2.3,0-3.4-1-3.4-3.1v-5.1H130.9z"/>
		<path class="st80" d="M143.3,225.7c1.7,0,2.7,0.8,2.7,2.2c0,1.2-0.9,2-2.6,2.1v0c0.5,0.2,0.7,0.3,1,0.6c0.2,0.2,0.3,0.4,0.6,0.8
			l1.7,2.4h-1.1l-1.2-1.7l-0.2-0.3c-0.6-0.9-1.2-1.4-1.7-1.6c-0.2-0.1-0.6-0.1-0.9-0.1h-1.3v3.7h-0.9v-8.1H143.3z M140.4,229.4h2.3
			c0.9,0,1.5-0.1,1.9-0.5c0.3-0.3,0.5-0.6,0.5-1.1c0-0.7-0.4-1.2-1-1.4c-0.3-0.1-0.9-0.1-1.3-0.1h-2.4V229.4z"/>
	</g>
	<g>
		<g>
			<path class="st3" d="M172.1,204.6h-3.5c-1.5,0-2.8-1.4-2.8-3.1l0-0.1l1.4-30.1c0-0.6,0.6-1.1,1.2-1.1c0.6,0,1.1,0.5,1.1,1.2
				l-1.4,30.1c0,0.5,0.3,0.8,0.6,0.8h3.5c0.3,0,0.5-0.4,0.6-0.9l-1.1-30.1c0-0.6,0.5-1.1,1.1-1.2c0.6,0,1.1,0.5,1.2,1.1l1.1,30.1v0
				C174.8,203.2,173.6,204.6,172.1,204.6z"/>
		</g>
		<g>
			<path class="st3" d="M170,168.8c-2.3,0-3-1-3.2-1.8c-1.5-5.9-3.1-12-3.4-18.2c-0.2-3.3,0-6.3,0.5-9.2c0.6-3.3,1.6-6.4,3-9.5
				c0.6-1.2,1.6-3,2.5-4.4c1.7-2.6,2.4-3,3.1-3c0.6,0,1.3,0.5,1.3,1.5c0.1,10.9-0.1,42.8-0.1,43.2l0,0.9l-0.9,0.2
				C172.8,168.5,171.4,168.8,170,168.8z M169,166.4c0.1,0.1,0.4,0.2,1.1,0.2c0.5,0,1-0.1,1.4-0.1c0-5,0.1-28.9,0.1-40
				c-0.2,0.3-0.4,0.5-0.6,0.9c-0.8,1.2-1.6,2.7-2.1,3.7C163.1,143.4,165.9,154.6,169,166.4z"/>
		</g>
	</g>
</g>
</svg>
