<?xml version="1.0" encoding="utf-8"?>
<!-- Generator: Adobe Illustrator 21.0.2, SVG Export Plug-In . SVG Version: 6.00 Build 0)  -->
<svg version="1.1" id="Calque_1" xmlns="http://www.w3.org/2000/svg" xmlns:xlink="http://www.w3.org/1999/xlink" x="0px" y="0px"
	 viewBox="0 0 241.9 291.6" style="enable-background:new 0 0 241.9 291.6;" xml:space="preserve">
<style type="text/css">
	.st0{opacity:0.4;}
	.st1{fill:url(#SVGID_1_);}
	.st2{fill:#810010;}
	.st3{fill:#FF0000;}
	.st4{clip-path:url(#SVGID_3_);}
	.st5{fill:none;stroke:#908C92;stroke-width:1.8528;stroke-miterlimit:10;}
	.st6{fill:#3E7C37;}
	.st7{fill:#78CD41;}
	.st8{fill:url(#SVGID_4_);}
	.st9{fill:url(#SVGID_5_);}
	.st10{fill:url(#SVGID_6_);}
	.st11{fill:url(#SVGID_7_);}
	.st12{fill:url(#SVGID_8_);}
	.st13{fill:url(#SVGID_9_);}
	.st14{fill:url(#SVGID_10_);}
	.st15{fill:url(#SVGID_11_);}
	.st16{fill:url(#SVGID_12_);}
	.st17{fill:url(#SVGID_13_);}
	.st18{fill:url(#SVGID_14_);}
	.st19{fill:url(#SVGID_15_);}
	.st20{fill:url(#SVGID_16_);}
	.st21{fill:url(#SVGID_17_);}
	.st22{fill:url(#SVGID_18_);}
	.st23{fill:url(#SVGID_19_);}
	.st24{fill:url(#SVGID_20_);}
	.st25{fill:url(#SVGID_21_);}
	.st26{fill:url(#SVGID_22_);}
	.st27{fill:url(#SVGID_23_);}
	.st28{fill:url(#SVGID_24_);}
	.st29{fill:url(#SVGID_25_);}
	.st30{fill:url(#SVGID_26_);}
	.st31{fill:url(#SVGID_27_);}
	.st32{fill:url(#SVGID_28_);}
	.st33{fill:url(#SVGID_29_);}
	.st34{fill:url(#SVGID_30_);}
	.st35{fill:url(#SVGID_31_);}
	.st36{fill:url(#SVGID_32_);}
	.st37{fill:url(#SVGID_33_);}
	.st38{fill:url(#SVGID_34_);}
	.st39{fill:url(#SVGID_35_);}
	.st40{fill:url(#SVGID_36_);}
	.st41{fill:url(#SVGID_37_);}
	.st42{fill:url(#SVGID_38_);}
	.st43{fill:url(#SVGID_39_);}
	.st44{fill:url(#SVGID_40_);}
	.st45{fill:url(#SVGID_41_);}
	.st46{fill:url(#SVGID_42_);}
	.st47{fill:url(#SVGID_43_);}
	.st48{fill:url(#SVGID_44_);}
	.st49{fill:#CACCCE;}
	.st50{fill:#5C3922;}
	.st51{fill:url(#SVGID_45_);}
	.st52{fill:url(#SVGID_46_);}
	.st53{fill:url(#SVGID_47_);}
	.st54{fill:url(#SVGID_48_);}
	.st55{fill:url(#SVGID_49_);}
	.st56{fill:url(#SVGID_50_);}
	.st57{fill:url(#SVGID_51_);}
	.st58{fill:url(#SVGID_52_);}
	.st59{fill:url(#SVGID_53_);}
	.st60{fill:url(#SVGID_54_);}
	.st61{fill:url(#SVGID_55_);}
	.st62{fill:url(#SVGID_56_);}
	.st63{fill:url(#SVGID_57_);}
	.st64{fill:url(#SVGID_58_);}
	.st65{fill:url(#SVGID_59_);}
	.st66{fill:url(#SVGID_60_);}
	.st67{fill:url(#SVGID_61_);}
	.st68{fill:url(#SVGID_62_);}
	.st69{fill:url(#SVGID_63_);}
	.st70{fill:url(#SVGID_64_);}
	.st71{fill:url(#SVGID_65_);}
	.st72{fill:url(#SVGID_66_);}
	.st73{fill:url(#SVGID_67_);}
	.st74{fill:url(#SVGID_68_);}
	.st75{fill:url(#SVGID_69_);}
	.st76{fill:url(#SVGID_70_);}
	.st77{fill:url(#SVGID_71_);}
	.st78{fill:url(#SVGID_72_);}
	.st79{fill:url(#SVGID_73_);}
	.st80{fill:#FFFFFF;}
</style>
<g class="st0">
	
		<radialGradient id="SVGID_1_" cx="-125.4128" cy="98.3357" r="199.7666" gradientTransform="matrix(0 -0.8486 -1 0 236.5226 38.6075)" gradientUnits="userSpaceOnUse">
		<stop  offset="0" style="stop-color:#464548"/>
		<stop  offset="0.1596" style="stop-color:#333034"/>
		<stop  offset="0.3282" style="stop-color:#221C20"/>
		<stop  offset="0.4643" style="stop-color:#140B11"/>
		<stop  offset="0.5499" style="stop-color:#0E0209"/>
		<stop  offset="0.9851" style="stop-color:#0E0209"/>
		<stop  offset="1" style="stop-color:#0E0209"/>
	</radialGradient>
	<polygon class="st1" points="245.4,-2.2 245.4,293.8 -3.6,293.8 -3.6,-2.2 	"/>
</g>
<g>
	<g>
		<path class="st2" d="M150.9,134.9c-4.5,0-8.5,2.7-10.1,6.9c-1.1,2.7-1,5.6,0.2,8.3c1.1,2.7,3.4,4.6,6.1,5.8
			c1.3,0.5,2.6,0.8,3.8,0.8c4.5,0,8.5-2.7,10.1-6.9c2.1-5.6-0.6-11.8-6.2-14.1C153.6,135.2,152.2,134.9,150.9,134.9z"/>
		<path class="st2" d="M179.2,158.5c-5.1-3.4-10.7-5.8-16.6-7.2c-2.1,4.5-6.7,7.4-11.7,7.4c-1.6,0-3.2-0.3-4.6-1
			c-3.2-1.3-5.8-3.7-7.2-6.9c-5.9,1.3-11.7,3.5-16.8,6.7c-2.6,1.6-3.4,5-1.8,7.5c1.6,2.6,5,3.4,7.5,1.8c2.7-1.8,5.6-3,8.6-4v14.2
			c0,7.8,6.2,14.1,14.1,14.1c7.8,0,14.1-6.2,14.1-14.1v-13.8c3,1.1,5.8,2.6,8.5,4.3c1,0.6,1.9,1,3,1c1.8,0,3.5-0.8,4.6-2.4
			C182.4,163.7,181.7,160.1,179.2,158.5z M136.6,163c1-0.3,2.1-0.6,3.2-1C138.7,162.4,137.8,162.5,136.6,163z"/>
	</g>
	<rect x="136.6" y="165.3" class="st2" width="28.1" height="26.1"/>
	<rect x="122.9" y="201.6" class="st3" width="27" height="13.6"/>
	<g>
		<g>
			<defs>
				<rect id="SVGID_2_" x="126.9" y="155.2" width="45.6" height="62.8"/>
			</defs>
			<clipPath id="SVGID_3_">
				<use xlink:href="#SVGID_2_"  style="overflow:visible;"/>
			</clipPath>
			<g class="st4">
				<path class="st3" d="M166.1,174.2c-1.6-2.6-5-3.4-7.5-1.8c-3.7,2.2-7.7,4-11.8,5c-2.4,3.4-6.4,5.6-10.6,5.6
					c-1.6,0-3.2-0.3-4.6-1c-2.6-1-4.6-2.7-6.1-5c-4.2-1.1-8.3-3-12-5.4c-2.6-1.6-5.9-1-7.5,1.6c-1.6,2.6-1,5.9,1.6,7.5
					c4.5,3,9.4,5.1,14.6,6.7v13.4c0,7.8,6.2,14.1,14.1,14.1c7.8,0,14.1-6.2,14.1-14.1v-13.3c5.1-1.3,9.9-3.4,14.4-6.2
					C166.9,180.3,167.7,176.8,166.1,174.2z"/>
				<path class="st3" d="M136,159.2c-4.5,0-8.5,2.7-10.1,6.9c-1.1,2.7-1,5.6,0.2,8.3c1.1,2.7,3.4,4.6,6.1,5.8
					c1.3,0.5,2.6,0.8,3.8,0.8c4.5,0,8.5-2.7,10.1-6.9c2.2-5.6-0.6-11.8-6.2-14.1C138.7,159.5,137.4,159.2,136,159.2z"/>
			</g>
		</g>
	</g>
	<line class="st5" x1="171.7" y1="225.2" x2="60.2" y2="225.2"/>
	<path class="st2" d="M76.5,161.6c-4.2-5.3-6.2-11.5-6.2-18.7c0-9.3,3.4-16.8,9.9-22.4c6.1-5.1,15.8-7.7,29.3-7.7h18.1v102.3H112
		v-41.9h-2.7L80,215.1H61.3L93,171.5C86.3,170.2,80.7,166.9,76.5,161.6z M112.2,127.4h-5.4c-14.2,0-21.3,5.3-21.3,15.7
		c0,11.2,7.4,16.8,21.9,16.8h5v-32.5H112.2z"/>
	<g>
		<g>
			<path class="st6" d="M128.5,196.4c-1-23,0.2-62.2,0.8-81.6l-2.7,0.2c-0.6,19.5-1.8,58.5-0.8,81.6c1.3,31.8,9.4,50.1,9.9,50.7
				l2.4-1.1C137.9,246,129.6,227.8,128.5,196.4z"/>
			<path class="st7" d="M136.6,245.2c-0.2-0.5-0.3-1.1-0.6-1.8c-0.2-0.8-0.5-1.6-0.8-2.6c-0.2-0.5-0.3-1-0.5-1.4
				c-0.2-0.5-0.3-1.1-0.5-1.6c-0.3-1.1-0.6-2.4-1-3.7c-0.2-0.6-0.3-1.3-0.5-2.1c-0.2-0.6-0.3-1.4-0.5-2.2c-0.2-0.8-0.3-1.6-0.5-2.4
				c-0.2-0.3-0.2-0.8-0.3-1.3c0-0.5-0.2-0.8-0.2-1.3c-0.2-0.8-0.3-1.8-0.5-2.6c-0.2-0.8-0.3-1.8-0.5-2.7c0-0.5-0.2-1-0.2-1.4
				c0-0.2,0-0.5-0.2-0.6c0-0.2,0-0.5-0.2-0.6c-0.2-1-0.3-1.9-0.3-2.9c0-0.5-0.2-1-0.2-1.4c0-0.5-0.2-1-0.2-1.4c-0.2-1-0.2-1.9-0.3-3
				c-0.2-1-0.2-2.1-0.3-3c-0.2-1-0.2-2.1-0.3-3.2c0-1.1-0.2-2.1-0.2-3.2c0-0.5,0-1.1-0.2-1.6v-0.8v-0.8c0-2.2-0.2-4.3-0.2-6.6
				c0-1.1,0-2.2-0.2-3.4c0-1.1,0-2.2,0-3.4c0-2.2,0-4.5,0-6.7c0-2.2,0-4.5,0-6.7c0-2.2,0-4.5,0-6.7c0-4.5,0-8.8,0.2-13.1
				c0-4.3,0.2-8.3,0.2-12.3c0.2-3.8,0.2-7.5,0.2-11c0.2-3.4,0.2-6.6,0.2-9.3c0-0.5,0-1,0-1.6H128c0,0.5,0,1,0,1.4
				c-0.2,2.7-0.2,5.9-0.3,9.3c-0.2,3.4-0.2,7-0.3,11c-0.2,3.8-0.2,8-0.3,12.3c-0.2,4.3-0.2,8.6-0.3,13.1c0,2.2,0,4.5-0.2,6.7
				c0,2.2,0,4.5,0,6.7c0,2.2,0,4.5,0,6.7c0,1.1,0,2.2,0,3.4c0,1.1,0,2.2,0,3.4c0,2.2,0,4.5,0.2,6.6v0.8v0.8c0,0.5,0,1.1,0.2,1.6
				c0,1.1,0.2,2.1,0.2,3.2c0,1.1,0.2,2.1,0.3,3.2c0.2,1.1,0.2,2.1,0.3,3c0.2,1,0.2,2.1,0.3,3c0,0.5,0.2,1,0.2,1.4
				c0,0.5,0.2,1,0.2,1.4c0.2,1,0.3,1.9,0.5,2.9c0,0.2,0,0.5,0.2,0.6c0,0.2,0.2,0.5,0.2,0.6c0.2,0.5,0.2,1,0.3,1.4
				c0.2,1,0.3,1.8,0.5,2.7c0.2,0.8,0.3,1.8,0.5,2.6c0.2,0.5,0.2,0.8,0.3,1.3c0.2,0.5,0.2,0.8,0.3,1.3c0.2,0.8,0.3,1.6,0.5,2.4
				c0.2,0.8,0.3,1.4,0.6,2.2c0.2,0.6,0.3,1.4,0.6,2.1c0.8,2.7,1.4,5,2.2,6.9c0.3,1,0.6,1.8,1,2.6c0.3,0.6,0.5,1.3,0.8,1.8
				c0.2,0.5,0.3,0.8,0.5,1.1c0.2,0.3,0.2,0.3,0.2,0.3h0.2c0,0,0-0.2-0.2-0.3C137,246,136.8,245.7,136.6,245.2z"/>
		</g>
		<g>
			<g>
				
					<linearGradient id="SVGID_4_" gradientUnits="userSpaceOnUse" x1="79.7213" y1="168.9693" x2="89.3092" y2="175.6276" gradientTransform="matrix(0.9997 2.356718e-02 2.356718e-02 -0.9997 -13.0941 294.1975)">
					<stop  offset="0" style="stop-color:#5F0000"/>
					<stop  offset="5.259776e-02" style="stop-color:#7D0000"/>
					<stop  offset="0.1099" style="stop-color:#9A0000"/>
					<stop  offset="0.1747" style="stop-color:#B60000"/>
					<stop  offset="0.248" style="stop-color:#CD0000"/>
					<stop  offset="0.3336" style="stop-color:#E00000"/>
					<stop  offset="0.4394" style="stop-color:#ED0000"/>
					<stop  offset="0.5878" style="stop-color:#F60000"/>
					<stop  offset="1" style="stop-color:#F90000"/>
				</linearGradient>
				<path class="st8" d="M74.1,119.8c-1-0.2-3-0.5-3-0.2c0,1.6,1.4,4.6,2.2,6.1c1,1.6,1.6,1,3.2,1.3c1.1,0.3,1.9,1.3,3.2,1.3
					c0.2-2.4-1.4-4.2-2.9-5.9c-0.6-0.6-1.4-2.1-2.1-2.6C74.6,120,74.4,119.8,74.1,119.8z"/>
				
					<radialGradient id="SVGID_5_" cx="108.6586" cy="189.612" r="40.5103" gradientTransform="matrix(0.9997 2.356718e-02 2.356718e-02 -0.9997 -13.0941 294.1975)" gradientUnits="userSpaceOnUse">
					<stop  offset="0" style="stop-color:#5F0000"/>
					<stop  offset="0.2452" style="stop-color:#F90000"/>
					<stop  offset="0.2738" style="stop-color:#FB0000"/>
					<stop  offset="0.3691" style="stop-color:#FF2F00"/>
					<stop  offset="0.4634" style="stop-color:#FF4200"/>
					<stop  offset="0.5547" style="stop-color:#FF4800"/>
					<stop  offset="0.685" style="stop-color:#FF3D00"/>
					<stop  offset="0.8855" style="stop-color:#FC0A00"/>
					<stop  offset="1" style="stop-color:#F90000"/>
				</radialGradient>
				<path class="st9" d="M119.5,117c0,0-7.2-0.2-14.7-0.3c-6.7-0.2-13.6-0.3-15.5-0.3c-4-0.2-9.8,1.4-15,2.9
					c-1.8,0.5-2.9,0.2-1.8,1.9c0.8,1.1,2.6,1.6,3.4,2.7c1.4,1.9,2.1,4.2,4.3,5.4c1.1,0.6,2.1,1,3.2,1.8c1.1,0.8,1.8,1.8,3,2.2
					c2.9,1,5.6,0,8,1.8c2.4,1.9,4.2,2.6,7,3.5c1.4,0.5,2.4,0.8,4,0.8c1.8,0,2.2,0.3,3.8,1.1c1.1,0.6,2.2,1.3,3.7,1.1
					c1.4,0,2.7-1,4.2-1c1.4,0,2.1,0.8,3.7,0.2c1.3-0.6,1.9-2.1,3.2-2.7c1.8-1,3.5,0,5.1-0.6c1.8-0.6,3-2.1,5-2.9
					c2.1-0.8,3.7-1,5.9-1c1.3,0,4.8,0.6,5.4-0.5c-0.5,0.8-6.1-4-6.6-4.5c-2.2-1.9-4.6-2.4-7.2-3.5
					C127.5,123.2,123.2,120.2,119.5,117z"/>
				
					<radialGradient id="SVGID_6_" cx="52.456" cy="153.9715" r="37.383" gradientTransform="matrix(1.0584 -1.505952e-02 -1.044331e-02 -1.0548 57.9421 280.6986)" gradientUnits="userSpaceOnUse">
					<stop  offset="0" style="stop-color:#5F0000"/>
					<stop  offset="0.3983" style="stop-color:#F90000"/>
					<stop  offset="0.6077" style="stop-color:#FC0000"/>
					<stop  offset="0.9804" style="stop-color:#FF4400"/>
					<stop  offset="0.9892" style="stop-color:#FF4500"/>
				</radialGradient>
				<path class="st10" d="M119.5,116.8c-3-0.3-6.1,0.5-9.1-0.2c-1.6-0.3-3-0.8-4.8-1c-1.9-0.2-9.1-0.6-9.9,1.8
					c-1.3-1.1-4.8-1.9-6.6-2.1c-2.4-0.2-4.2,1.3-6.4,1.8c-3.5,0.6-8.2,1-11.4,2.7c3,0,5.6,0.6,8.3,2.1c1.4,0.8,2.4,1.4,4,1.8
					c0.6,0.2,1.3,0.2,1.9,0.5c0.6,0.3,1.1,1.4,1.6,1.8c1.4,0.8,2.7-0.6,4.3-1.1c1.3-0.3,2.4,0,3.7-1c0.6-0.5,0.3-1,1.3-1.3
					c0.8-0.3,1.1,0.2,1.8,0.2c1.4,0.2,2.7-0.2,4.2-0.3c0.8,0,1.6,0,2.4,0.2c-0.2,1.6,2.7,4.6,0.6,5c0.8,0,2.1-0.2,2.7,0.3
					c0.6,0.5,0.8,1.4,1.6,1.9c1.1,0.6,3.7,0.8,3.2,2.9c1.3,0,2.6-0.5,3.7-0.5c1.3-0.2,2.7,0.2,3.8-0.3c2.9-0.8,5-1.1,6.7-3.5
					c2.6-3.4,2.4-5.1-0.6-7.7c-1.9-1.6-3.8-3.7-6.4-4C119.9,116.8,119.7,116.8,119.5,116.8z"/>
				
					<linearGradient id="SVGID_7_" gradientUnits="userSpaceOnUse" x1="104.8501" y1="174.6697" x2="92.5303" y2="156.894" gradientTransform="matrix(0.9997 2.356718e-02 2.356718e-02 -0.9997 -13.0941 294.1975)">
					<stop  offset="0" style="stop-color:#F90000"/>
					<stop  offset="8.361662e-02" style="stop-color:#FB0000"/>
					<stop  offset="0.3727" style="stop-color:#FF3400"/>
					<stop  offset="0.4766" style="stop-color:#FF4B00"/>
					<stop  offset="0.6542" style="stop-color:#FF631D"/>
					<stop  offset="0.8298" style="stop-color:#FF6F2D"/>
					<stop  offset="1" style="stop-color:#FF7232"/>
				</linearGradient>
				<path class="st11" d="M106.1,135c0.2-0.2,0.5-0.3,0.6-0.5c1.3-1.3,2.7-2.2,4.2-3.5c-1.9,1.1-3.7,2.2-5.8,3c-1,0.3-2.2,1.1-3.2,1
					c-0.5,0-0.8-0.6-1.3-0.8s-1.3,0-1.8,0c0.2-1.1,2.7-1.8,3.7-2.4c1.3-1,3.4-2.1,4.3-3.4c-1.9,1-4,1.8-6.2,2.2
					c-2.4,0.5-3.8,0-6.1-0.8c2.4-1.8,5.4-2.2,7.8-4.2c-2.2,0.8-4.6,1.4-6.9,1.9c-1.1,0.2-2.4,0.6-3.5,0.5c-1.4-0.2-1.3-0.8-2.4-1.6
					c-1-0.6-1,0-1.9-0.2c-2.9-0.3-5.3-1.6-7.8-3.2c-2.4-1.6-4.2-3.5-7.4-3.2l-0.2,0.3l0,0c0,0.2,0.2,0.5,0.5,1c0.6,1,2.1,1.4,3,2.4
					c0.3,0.2,0.6,0.5,1,0.8c1.1,1.3,1.4,2.9,2.6,4.2c0.3,0.3,0.8,0.6,1.3,1c1.1,0.6,2.1,1,3.2,1.8c1.1,0.8,1.8,1.8,3,2.2
					c2.9,1,5.6,0,8,1.8c2.4,1.9,4.2,2.6,7,3.5c1.4,0.5,2.4,0.8,4,0.8c0.8,0,1.3,0,1.8,0.2c-0.3-2.1-0.6-0.6-1.4-1.6
					c-0.5-0.5-1-0.8-0.8-1.6C105.3,136,105.8,135.5,106.1,135z"/>
				
					<linearGradient id="SVGID_8_" gradientUnits="userSpaceOnUse" x1="119.4327" y1="162.1521" x2="128.6665" y2="157.5351" gradientTransform="matrix(0.9997 2.356718e-02 2.356718e-02 -0.9997 -13.0941 294.1975)">
					<stop  offset="0" style="stop-color:#F90000"/>
					<stop  offset="8.361662e-02" style="stop-color:#FB0000"/>
					<stop  offset="0.3727" style="stop-color:#FF3400"/>
					<stop  offset="0.4766" style="stop-color:#FF4B00"/>
					<stop  offset="0.6542" style="stop-color:#FF631D"/>
					<stop  offset="0.8298" style="stop-color:#FF6F2D"/>
					<stop  offset="1" style="stop-color:#FF7232"/>
				</linearGradient>
				<path class="st12" d="M119.4,138.4c-0.3-1.4,0.6-3.2,0.5-4.8c-1.6,1.1-3.4,7.5-5.1,6.4c-0.3-1.9,2.1-3.2,2.6-4.8
					c-0.5,0.5-1.1,1-1.8,0.8c1.8-4.2-1.6-2.4-3.8-0.8c-1.1,0.8-3.2,3.2-4.8,4.5c1,0.2,1.4,0.5,2.6,1.1c1.1,0.6,2.2,1.3,3.7,1.1
					c1.4,0,2.7-1,4.2-1c1.4,0,2.1,0.8,3.7,0.2c0.6-0.3,1.1-0.8,1.6-1.3C121.1,139.7,119.9,140.5,119.4,138.4z"/>
				
					<linearGradient id="SVGID_9_" gradientUnits="userSpaceOnUse" x1="129.9687" y1="165.347" x2="155.0262" y2="165.347" gradientTransform="matrix(0.9997 2.356718e-02 2.356718e-02 -0.9997 -13.0941 294.1975)">
					<stop  offset="0" style="stop-color:#C20000"/>
					<stop  offset="0.3785" style="stop-color:#D70000"/>
					<stop  offset="1" style="stop-color:#F90000"/>
				</linearGradient>
				<path class="st13" d="M139.5,129.3c-2.2-1.6-4.3-2.1-6.9-3c-0.6-0.3-1.3-0.6-2.1-1c-0.3,0.2-0.8,0.2-1.1,0.3
					c-1.9,0.6-2.9,1.9-4.5,2.9c-1.1,0.6-2.4,1-2.7,2.2c-0.3,0.6,0,1.3-0.3,1.9c-0.3,0.5-1,0.6-1.3,1.3c2.1,1.1-1.4,6.4,2.6,4.6
					c1.1-0.5,1.8-1.1,2.9-1.4c1.3-0.3,2.2-0.3,3.4-0.8c2.1-0.8,3.4-1.4,5.1-1.6c0.2,0,0.3-0.2,0.3-0.2c1.9-0.6,3.4-0.8,5.6-0.8
					c1.3,0,4.6,0.6,5.3-0.5C145.4,133.9,140,129.6,139.5,129.3z"/>
				
					<linearGradient id="SVGID_10_" gradientUnits="userSpaceOnUse" x1="81.5984" y1="164.8913" x2="155.0952" y2="164.8913" gradientTransform="matrix(0.9997 2.356718e-02 2.356718e-02 -0.9997 -13.0941 294.1975)">
					<stop  offset="0" style="stop-color:#FCCBA4"/>
					<stop  offset="7.826372e-02" style="stop-color:#FFAE80"/>
					<stop  offset="0.1981" style="stop-color:#FF8751"/>
					<stop  offset="0.3036" style="stop-color:#FF6828"/>
					<stop  offset="0.3896" style="stop-color:#FF5200"/>
					<stop  offset="0.4453" style="stop-color:#FF4800"/>
					<stop  offset="0.5468" style="stop-color:#FF4200"/>
					<stop  offset="0.6273" style="stop-color:#FF3400"/>
					<stop  offset="0.9164" style="stop-color:#FB0000"/>
					<stop  offset="1" style="stop-color:#F90000"/>
				</linearGradient>
				<path class="st14" d="M72.7,121.1c0,0,0,0,0.2,0.2l0.2,0.2c0.2,0,0.2,0.2,0.3,0.3c0.2,0.2,0.5,0.3,1,0.6
					c0.3,0.2,0.8,0.5,1.3,0.8c0.2,0.2,0.5,0.3,0.6,0.6c0.2,0.3,0.3,0.5,0.6,0.8c0.3,0.6,0.8,1.3,1.1,1.9c0.5,0.6,1,1.3,1.6,1.9
					c0.3,0.3,0.6,0.5,1.1,0.8c0.5,0.2,0.8,0.5,1.3,0.6c0.5,0.2,1,0.5,1.3,0.6c0.2,0.2,0.5,0.3,0.6,0.5s0.3,0.3,0.6,0.5
					c0.3,0.3,0.8,0.6,1.1,1c0.5,0.3,1,0.5,1.4,0.6c1.1,0.3,2.1,0.3,3.4,0.5c0.6,0,1.1,0,1.8,0.2s1.3,0.3,1.8,0.5
					c0.2,0,0.3,0.2,0.5,0.2c0.2,0,0.3,0.2,0.5,0.3l0.2,0.2l0.2,0.2l0.3,0.3l0.3,0.3l0.3,0.3l0.3,0.3c0.2,0.2,0.3,0.2,0.3,0.2
					c1.1,0.6,2.2,1.1,3.4,1.6c0.6,0.2,1.1,0.5,1.8,0.6c0.6,0.2,1.3,0.3,1.8,0.5c0.6,0.2,1.3,0.2,1.8,0.2c0.3,0,0.6,0,1,0h0.3h0.3
					c0.2,0,0.2,0,0.3,0h0.3c0.6,0.2,1.3,0.5,1.8,0.8c0.6,0.3,1.1,0.6,1.8,0.8c0.6,0.3,1.1,0.5,1.8,0.5c0.2,0,0.3,0,0.5,0h0.2h0.2
					c0.3,0,0.6-0.2,0.8-0.2c0.6-0.2,1.1-0.5,1.8-0.6c0.3,0,0.6-0.2,1-0.2h0.2h0.3c0.2,0,0.3,0,0.5,0.2c0.3,0,0.6,0.2,1,0.2
					c0.3,0,0.5,0,0.8,0c0.3,0,0.5-0.2,0.8-0.3c0.3-0.2,0.5-0.3,0.6-0.5c0.5-0.3,0.8-0.8,1.3-1.3c0.2-0.2,0.5-0.5,0.6-0.6l0.2-0.2
					l0.2-0.2h0.2l0,0l0,0l0,0l0.2-0.2c0.6-0.3,1.3-0.3,1.8-0.3c0.6,0,1.1,0,1.8,0c0.3,0,0.5,0,0.8,0c0.2,0,0.3,0,0.3,0h0.2h0.2
					c0.3-0.2,0.5-0.2,0.8-0.3c0.2,0,0.2-0.2,0.3-0.2c0.2,0,0.2-0.2,0.3-0.2c0.8-0.5,1.8-1.1,2.6-1.6c0.2,0,0.2-0.2,0.3-0.2
					c0.2,0,0.2-0.2,0.3-0.2c0.2,0,0.2-0.2,0.3-0.2c0.2,0,0.2,0,0.3-0.2c0.5-0.2,0.8-0.3,1.3-0.3c0.8-0.2,1.8-0.3,2.6-0.3
					s1.6,0,2.2,0c0.6,0,1.3,0.2,1.9,0.2c1.1,0.2,2.1,0,2.6-0.2c0.3-0.2,0.5-0.2,0.6-0.3l0,0l0,0l0,0l0,0l0,0c0,0,0,0,0,0.2
					c-0.2,0.2-0.3,0.3-0.6,0.3c-0.6,0.2-1.4,0.3-2.6,0.2c-0.6,0-1.1-0.2-1.9-0.2c-0.6,0-1.4,0-2.2,0s-1.6,0.2-2.4,0.5
					c-0.5,0.2-0.8,0.3-1.3,0.3c-0.2,0-0.2,0-0.3,0.2c-0.2,0-0.2,0.2-0.3,0.2s-0.2,0.2-0.3,0.2c-0.2,0-0.2,0.2-0.3,0.2
					c-0.8,0.5-1.6,1.1-2.6,1.6c-0.2,0-0.2,0.2-0.3,0.2c-0.2,0-0.2,0.2-0.3,0.2c-0.3,0.2-0.5,0.2-0.8,0.3c-0.6,0.2-1.1,0.3-1.8,0.3
					c-0.6,0-1.1,0-1.6,0s-1.1,0.2-1.6,0.3l-0.2,0.2l0,0l0,0h-0.2c0,0-0.2,0-0.2,0.2c0,0-0.2,0-0.2,0.2c-0.2,0.2-0.5,0.3-0.6,0.6
					c-0.3,0.5-0.8,1-1.3,1.3c-0.2,0.2-0.5,0.5-0.8,0.5c-0.3,0.2-0.6,0.3-1,0.3c-0.3,0-0.6,0-1,0s-0.6-0.2-1-0.2c-0.2,0-0.3,0-0.5,0
					h-0.2h-0.2c-0.3,0-0.5,0-0.8,0.2c-0.6,0.2-1.1,0.3-1.8,0.6c-0.3,0.2-0.6,0.2-1,0.3h-0.3c-0.2,0-0.2,0-0.3,0s-0.3,0-0.5,0
					c-0.6,0-1.3-0.3-1.9-0.5c-0.6-0.3-1.1-0.6-1.8-0.8c-0.6-0.3-1.1-0.6-1.8-0.8h-0.2h-0.2h-0.2h-0.2c-0.3,0-0.6,0-1,0
					c-0.6,0-1.3,0-1.9-0.2c-0.6-0.2-1.3-0.3-1.9-0.5c-0.6-0.2-1.3-0.5-1.8-0.6c-1.3-0.5-2.4-1-3.5-1.6c-0.2-0.2-0.3-0.2-0.5-0.3
					l-0.3-0.3l-0.3-0.3l-0.3-0.3l-0.3-0.3l-0.2-0.2l-0.2-0.2c-0.2-0.2-0.2-0.2-0.3-0.2s-0.3-0.2-0.3-0.2c-1-0.5-2.2-0.6-3.4-0.6
					c-0.6,0-1.1,0-1.8-0.2c-0.2,0-0.3,0-0.5,0c-0.2,0-0.3,0-0.5,0c-0.2,0-0.3,0-0.5-0.2c-0.2,0-0.3,0-0.5-0.2
					c-0.5-0.2-1.1-0.5-1.6-0.8s-0.8-0.6-1.3-1.1c-0.2-0.2-0.3-0.3-0.6-0.5c-0.2-0.2-0.3-0.3-0.6-0.5c-0.5-0.3-0.8-0.5-1.3-0.6
					c-0.5-0.2-0.8-0.5-1.3-0.6c-0.5-0.3-0.8-0.5-1.1-0.8c-0.6-0.6-1.1-1.3-1.6-2.1c-0.3-0.6-0.8-1.3-1.1-1.9
					c-0.2-0.3-0.3-0.5-0.5-0.8c-0.2-0.2-0.3-0.5-0.6-0.6c-0.5-0.3-0.8-0.6-1.3-0.8c-0.3-0.3-0.6-0.5-1-0.6c-0.2-0.2-0.2-0.2-0.3-0.3
					c0-0.2-0.2-0.2-0.2-0.2C72.7,121.3,72.7,121.1,72.7,121.1z"/>
			</g>
			<g>
				
					<linearGradient id="SVGID_11_" gradientUnits="userSpaceOnUse" x1="143.5263" y1="227.546" x2="147.2561" y2="228.1508" gradientTransform="matrix(0.9997 2.356718e-02 2.356718e-02 -0.9997 -13.0941 294.1975)">
					<stop  offset="0" style="stop-color:#F90000"/>
					<stop  offset="0.9892" style="stop-color:#FF4500"/>
				</linearGradient>
				<path class="st15" d="M138.1,77c-0.8-1.4-2.4-2.2-3.5-3.5c-1.8-2.1-2.9-5.6-2.1-8.3c0.3-1.1,1.4-2.9,2.7-3.2
					c1.3-0.3,2.1,0.8,2.4,2.1c0.5,2.2,0.5,4.6,0.8,6.9c0.2,2.4-0.2,4.8,0.2,7L138.1,77z"/>
				
					<linearGradient id="SVGID_12_" gradientUnits="userSpaceOnUse" x1="142.5876" y1="223.8472" x2="145.5911" y2="224.6088" gradientTransform="matrix(0.9997 2.356718e-02 2.356718e-02 -0.9997 -13.0941 294.1975)">
					<stop  offset="0" style="stop-color:#F90000"/>
					<stop  offset="0.9892" style="stop-color:#FF4500"/>
				</linearGradient>
				<path class="st16" d="M138.1,78.3c-0.8-2.1-3.7-2.9-4.3-5c-0.3-1,0.5-2.1,0.8-2.9C135,69.6,136,69,136,68v0.2
					c1.1,0.5,1.1,3.8,1.4,5c0.3,1.6,1,3.5,0.8,5.3L138.1,78.3z"/>
				
					<radialGradient id="SVGID_13_" cx="131.394" cy="168.1145" r="77.2917" gradientTransform="matrix(0.9997 2.356718e-02 2.356718e-02 -0.9997 -13.0941 294.1975)" gradientUnits="userSpaceOnUse">
					<stop  offset="0" style="stop-color:#5F0000"/>
					<stop  offset="8.874080e-02" style="stop-color:#610000"/>
					<stop  offset="0.1658" style="stop-color:#6A0000"/>
					<stop  offset="0.2386" style="stop-color:#790000"/>
					<stop  offset="0.3088" style="stop-color:#900000"/>
					<stop  offset="0.3771" style="stop-color:#B00000"/>
					<stop  offset="0.443" style="stop-color:#DA0000"/>
					<stop  offset="0.4802" style="stop-color:#F90000"/>
					<stop  offset="0.6565" style="stop-color:#FF4800"/>
					<stop  offset="0.8257" style="stop-color:#FF3D00"/>
					<stop  offset="0.9713" style="stop-color:#FF2800"/>
					<stop  offset="1" style="stop-color:#F90000"/>
				</radialGradient>
				<path class="st17" d="M115.5,109.6c-2.9-2.4-5.6-4.6-8-7.5c-2.6-2.9-4.2-7.2-6.2-10.4c-1.8-2.9-2.6-5.9-4-8.8
					c-0.8-1.6-2.4-5.6-0.2-7c1-0.6,2.4-0.2,3.7-1c1.3-0.8,2.2-1.9,3.4-2.7c1-0.6,2.4-1.1,3.4-1.9c1-1,1-2.1,2.4-2.7
					c1.8-0.6,2.2-0.3,3.7-1.9c1.1-1.1,1.3-1.4,2.9-1.6c0.8-0.2,1,0.2,1.8-0.2c0.6-0.3,0.8-1.1,1.6-1.4c1.8-0.5,1.9,1.3,3.7,1.3
					c1.4,0,2.9-0.6,4.3-1.1c0.6-0.2,1.4-0.5,2.1-0.6c0.6-0.2,1.4,0,2.1,0c0.5,0,1.1-0.2,1.6-0.3c0.8-0.2,1.9,0,2.7,0.3
					c0.5,0.2,0.5,0.6,0.5,1c0,0.6-0.2,1-0.6,1.3c-0.3,0.3-0.6,0.6-1,1s-0.5,0.8-0.3,1.3c0.2,0.8,1,1.6,1,2.4c0,0.3-0.2,0.5-0.3,0.6
					c-0.3,0.5-0.8,0.6-1.1,1.1c-0.3,0.5-0.5,0.8-0.3,1.3s0.5,1.1,1,1.3c1,0.5,1.9,1,2.9,1.6c0.5,0.3,0.6,0.8,1,1.4
					c0.2,0.5,0.3,1,0.3,1.6c0,0.5-0.2,1-0.3,1.4c-0.2,1.1,1,1.8,1.6,2.6c0.8,1.1,0.5,2.6,0.5,3.7c0,0.5,0,1,0.2,1.3
					c0.6,1.3,2.2,0.8,3.4,1.3c0.5,0.2,1,0.6,1.3,1.1c0.2,0.5,0.6,1,0.8,1.4c0.2,0.5,0.3,1,0.5,1.4c0.2,0.5,0.3,1.1,0.5,1.6
					c0.2,0.6,0.6,1.1,0.8,1.6c0.3,0.6,0.5,1.4,1,2.1c0.5,0.8,0.6,1.4,0.8,2.4c0.2,1,0.2,1.8-0.2,2.7c-0.5,1.4-1.8,2.6-2.7,3.7
					c-1.1,1.3-2.4,2.7-3.7,3.8c-1.8,1.4-4,2.2-6.1,3c-2.2,1-5,1.6-7.4,1.8c-1.3,0.2-2.6,0.2-3.7,0.3
					C121.1,116,119.2,112.6,115.5,109.6z"/>
				
					<linearGradient id="SVGID_14_" gradientUnits="userSpaceOnUse" x1="141.1098" y1="215.3854" x2="158.8324" y2="215.3854" gradientTransform="matrix(0.9997 2.356718e-02 2.356718e-02 -0.9997 -13.0941 294.1975)">
					<stop  offset="0" style="stop-color:#FCCBA4"/>
					<stop  offset="7.826372e-02" style="stop-color:#FFAE80"/>
					<stop  offset="0.1981" style="stop-color:#FF8751"/>
					<stop  offset="0.3036" style="stop-color:#FF6828"/>
					<stop  offset="0.3896" style="stop-color:#FF5200"/>
					<stop  offset="0.4453" style="stop-color:#FF4800"/>
					<stop  offset="0.5468" style="stop-color:#FF4200"/>
					<stop  offset="0.6273" style="stop-color:#FF3400"/>
					<stop  offset="0.9164" style="stop-color:#FB0000"/>
					<stop  offset="1" style="stop-color:#F90000"/>
				</linearGradient>
				<path class="st18" d="M133.6,61.6L133.6,61.6c0.3,0,0.3,0,0.6,0c0.2,0,0.5,0,0.6,0c0.3,0,0.6,0,1,0.2c0.2,0,0.3,0.2,0.5,0.2
					c0.2,0.2,0.3,0.2,0.5,0.3c0.2,0.2,0.3,0.5,0.3,0.6c0,0.3,0,0.5-0.2,0.8c0,0.2-0.2,0.2-0.2,0.3c0,0,0,0.2-0.2,0.2l-0.2,0.2
					c-0.2,0.2-0.3,0.3-0.6,0.6c-0.2,0.2-0.5,0.3-0.5,0.6l0,0l0,0v0.2V66c0,0.2,0,0.3,0,0.5c0,0.3,0.2,0.5,0.3,0.8
					c0.2,0.3,0.3,0.6,0.5,0.8c0.2,0.2,0.2,0.3,0.3,0.5c0,0.2,0.2,0.5,0,0.6c0,0.2-0.2,0.3-0.3,0.5c-0.2,0.2-0.2,0.3-0.3,0.5
					c-0.3,0.3-0.6,0.5-0.8,0.6c-0.3,0.2-0.5,0.5-0.5,0.8c0,0.3,0.2,0.6,0.3,1c0.2,0.3,0.5,0.5,0.8,0.6c0.6,0.5,1.4,0.6,2.1,1.1
					c0.2,0.2,0.3,0.2,0.5,0.3c0.2,0,0.2,0.2,0.3,0.2l0,0l0,0l0,0l0,0l0.2,0.2c0,0,0.2,0.2,0.2,0.3c0,0,0,0.2,0.2,0.2v0.2
					c0,0.2,0.2,0.2,0.2,0.3s0.2,0.2,0.2,0.3c0.2,0.5,0.2,0.8,0.3,1.3c0,0.2,0,0.2,0,0.3v0.2v0.2c0,0.2,0,0.5-0.2,0.6
					c0,0.2-0.2,0.5-0.2,0.6s0,0.2,0,0.3c0,0.2,0,0.2,0,0.2c0,0.3,0.3,0.5,0.6,0.8s0.6,0.6,0.8,1.1v0.2l0,0l0,0v0.2l0.2,0.3
					c0,0.2,0.2,0.5,0.2,0.6s0,0.2,0,0.3v0.3V84c0,0.2,0,0.2,0,0.3v0.3v0.2V85c0,0.2,0,0.5,0,0.6c0,0.5,0,0.8,0,1.1
					c0,0.2,0.2,0.3,0.2,0.5l0.2,0.2l0,0l0,0l0,0c0,0,0,0,0.2,0c0.3,0.2,0.6,0.2,1.1,0.3c0.3,0,0.8,0.2,1.3,0.2h0.2h0.2h0.2
					c0,0,0.2,0,0.2,0.2c0.2,0.2,0.3,0.2,0.5,0.3c0.3,0.3,0.6,0.6,0.8,1c0.5,0.6,0.6,1.4,1,2.1c0,0.2,0.2,0.3,0.2,0.5
					c0,0.2,0,0.3,0.2,0.5c0,0.2,0,0.2,0,0.3c0,0.2,0,0.2,0,0.2c0,0.2,0.2,0.3,0.2,0.5c0.2,0.6,0.5,1.3,0.8,1.8
					c0.3,0.6,0.5,1.1,0.8,1.6c0.2,0.3,0.3,0.5,0.3,0.8c0.2,0.3,0.2,0.5,0.3,0.8c0.2,0.5,0.3,1,0.3,1.4c0.2,0.5,0.2,0.8,0.2,1.1
					c0,0.8,0,1.3-0.2,1.8c0,0.2,0,0.2,0,0.3v0.2c0,0.2,0,0.2,0,0.2s0,0,0-0.2v-0.2c0,0,0-0.2,0-0.3c0.2-0.3,0.2-1,0-1.6
					c0-0.3-0.2-0.8-0.2-1.1c-0.2-0.5-0.2-0.8-0.5-1.3c-0.2-0.2-0.2-0.5-0.3-0.6c-0.2-0.3-0.2-0.5-0.3-0.8c-0.3-0.5-0.5-1-0.8-1.6
					c-0.3-0.6-0.5-1.1-0.8-1.8c0-0.2-0.2-0.3-0.2-0.5c0-0.2,0-0.2-0.2-0.3c0-0.2,0-0.2,0-0.3c0-0.2-0.2-0.3-0.2-0.5
					c0-0.2-0.2-0.3-0.2-0.5c-0.2-0.6-0.5-1.3-1-1.9c-0.2-0.3-0.5-0.6-0.6-0.8c-0.2-0.2-0.3-0.2-0.5-0.3c0,0,0,0-0.2,0H144h-0.2l0,0
					l0,0l0,0c-0.3-0.2-0.6-0.2-1.1-0.2c-0.3,0-0.8-0.2-1.3-0.3c0,0-0.2,0-0.2-0.2l0,0l0,0l0,0l0,0c-0.2,0-0.2-0.2-0.3-0.2
					c-0.2-0.2-0.3-0.3-0.3-0.6c-0.2-0.5,0-1,0-1.3c0-0.2,0-0.3,0-0.6v-0.2V85v-0.3c0-0.2,0-0.2,0-0.3V84v-0.3c0-0.2,0-0.2,0-0.3
					s-0.2-0.3-0.2-0.6l-0.2-0.3v-0.2l0,0l0,0l0,0c-0.2-0.3-0.5-0.6-0.8-0.8c-0.2-0.2-0.3-0.3-0.5-0.5c-0.2-0.2-0.3-0.3-0.3-0.6
					c0-0.2,0-0.3,0-0.3c0-0.2,0-0.2,0-0.3s0.2-0.5,0.2-0.6s0.2-0.3,0.2-0.6v-0.2v-0.2c0,0,0-0.2,0-0.3c0-0.5-0.2-0.8-0.2-1.1
					c0-0.2,0-0.2-0.2-0.3c0-0.2,0-0.2-0.2-0.3v-0.2c0,0,0,0,0-0.2c0,0,0-0.2-0.2-0.2l-0.2-0.2l0,0l0,0l0,0l-0.2-0.2
					c-0.2-0.2-0.3-0.2-0.5-0.3c-0.6-0.3-1.4-0.6-2.1-1.1c-0.3-0.2-0.6-0.5-1-0.8c-0.3-0.3-0.5-0.8-0.5-1.1c0-0.2,0-0.5,0.2-0.6
					c0.2-0.2,0.3-0.3,0.3-0.5c0.3-0.3,0.6-0.5,0.8-0.6c0.2-0.2,0.2-0.3,0.3-0.3c0.2-0.2,0.2-0.3,0.2-0.5c0-0.2,0-0.3,0-0.3
					c0-0.2-0.2-0.3-0.2-0.5c-0.2-0.3-0.3-0.6-0.5-0.8c-0.2-0.3-0.3-0.6-0.3-1c0-0.2,0-0.3,0-0.5c0-0.2,0-0.2,0-0.3v-0.2l0,0l0,0
					c0.2-0.3,0.3-0.5,0.6-0.6c0.2-0.2,0.5-0.3,0.6-0.5l0.2-0.2c0,0,0-0.2,0.2-0.2c0-0.2,0.2-0.2,0.2-0.3c0.2-0.2,0.2-0.5,0.2-0.6
					c0-0.2,0-0.5-0.2-0.6c-0.2-0.2-0.3-0.3-0.5-0.3c-0.2-0.2-0.3-0.2-0.5-0.2c-0.6-0.2-1.3-0.2-1.6-0.2
					C133.9,61.6,133.8,61.6,133.6,61.6L133.6,61.6z"/>
				
					<linearGradient id="SVGID_15_" gradientUnits="userSpaceOnUse" x1="155.9463" y1="212.0809" x2="146.5346" y2="206.2209" gradientTransform="matrix(0.9997 2.356718e-02 2.356718e-02 -0.9997 -13.0941 294.1975)">
					<stop  offset="0" style="stop-color:#F90000"/>
					<stop  offset="8.361662e-02" style="stop-color:#FB0000"/>
					<stop  offset="0.3727" style="stop-color:#FF3400"/>
					<stop  offset="0.4766" style="stop-color:#FF4B00"/>
					<stop  offset="0.6542" style="stop-color:#FF631D"/>
					<stop  offset="0.8298" style="stop-color:#FF6F2D"/>
					<stop  offset="1" style="stop-color:#FF7232"/>
				</linearGradient>
				<path class="st19" d="M138.9,79.2c-0.2,0.8-0.3,0.8,0.3,1.4c0.3,0.3,1,0.6,1.3,1.1c0.8,1.1,0.6,3,0.8,4.3c0.2,0.8,0,1.4,0.8,2.1
					c0.5,0.3,1.4,0.5,2.1,0.8c1.4,0.8,2.1,2.1,2.4,3.5c0.2,0.6,0.3,1.4,0.3,2.1c0,0.5-0.2,0.5,0.2,1c0.2,0.3,0.6,0.2,0.6,0.8
					c0.2,0.8-0.6,1.3,0,2.1c0.3,0.5,1,0.8,1.3,1.4c0.8,1.8,0.6,3.4-0.6,4.6c-0.5,0.6-1.1,1.3-1.8,1.9c-0.5,0.5-1.1,1.9-1.6,1.9
					c-0.3-1.4-0.5-2.9-0.6-4.3c-0.2-0.8,0-1.4,0-2.2c-0.2-0.8-0.5-1.4-0.6-2.2c0-0.3,0-0.8-0.2-1.1c-0.2-0.5-0.2-0.3-0.5-0.8
					c-0.5-0.6-0.8-1.1-1.1-1.8c-0.8-1.4-1.8-2.4-1.8-4c0.2-1.4,1-2.4,0.3-3.8c-0.6-1.4-1-3-1.3-4.5c-0.3-1.3-0.5-3-1.3-4.2
					c-0.8-1.3-1.4-2.4-2.1-3.7c-0.3-0.8-1.3-1.9-1.3-2.9c1,0.3,2.1,1.8,2.7,2.4C138.6,76.3,139.2,77.6,138.9,79.2z"/>
				
					<linearGradient id="SVGID_16_" gradientUnits="userSpaceOnUse" x1="130.4778" y1="212.1785" x2="133.0249" y2="212.6416" gradientTransform="matrix(0.9997 2.356718e-02 2.356718e-02 -0.9997 -13.0941 294.1975)">
					<stop  offset="0" style="stop-color:#F90000"/>
					<stop  offset="0.9892" style="stop-color:#FF4500"/>
				</linearGradient>
				<path class="st20" d="M124,91.4c-0.3-4-1-8.2-1.8-12c-0.6-2.6-1.4-5-2.2-7.5c-0.3-1.3-0.5-2.7-0.8-4c-0.3-1.1-1-2.6-0.8-3.8
					c0.2,1.1,1.4,1.6,2.2,2.1c0.8,0.6,1.9,1.6,2.2,2.7c0.5,1.1,0,1.8-0.2,2.9c-0.2,1,0.2,1.9,0.2,3c0,1,0,2.1,0,3
					c0.2,1.1,0.8,2.2,1.1,3.4c0.8,2.4,1.1,4.5,1.4,6.9c0.2,1.8,0.3,3.5,0.5,5.1c0.2,1.6,0.8,3,0.8,4.8c0,1.4-0.2,2.9-0.5,4.3
					c-0.2,0.6-0.3,1.3-0.5,2.1c-0.2,0.6,0,1.4-0.3,2.1c-0.8-1.6-0.2-4.3-0.3-6.2C124.8,97,124.3,94.3,124,91.4z"/>
				
					<linearGradient id="SVGID_17_" gradientUnits="userSpaceOnUse" x1="133.7813" y1="224.2662" x2="137.4267" y2="224.2662" gradientTransform="matrix(0.9997 2.356718e-02 2.356718e-02 -0.9997 -13.0941 294.1975)">
					<stop  offset="0" style="stop-color:#F90000"/>
					<stop  offset="0.9892" style="stop-color:#FF4500"/>
				</linearGradient>
				<path class="st21" d="M126.4,67.9c-0.2-1-0.6-1.8,0.2-2.7c0.3-0.3,0.8-0.2,1.1-0.5c0.2-0.5-0.2-1.1,0-1.4
					c0.3-0.5,2.1-1.3,2.6-1.1c1.3,0.2,0.8,1.1,0.5,2.1c-0.3,1.8-1.1,3.4-1.3,5.1c-0.2,1.8-0.3,3.5-0.6,5.3c-0.2,0.8,0,1.8-0.2,2.6
					c-0.2,0.8-0.6,1.4-0.8,2.4c-0.3,1.4-0.2,3.2-0.3,4.8c-1.4-1.8,0-4.6-0.2-6.7C127.4,74.3,127,71.1,126.4,67.9z"/>
				
					<linearGradient id="SVGID_18_" gradientUnits="userSpaceOnUse" x1="114.9123" y1="222.3875" x2="120.2391" y2="225.406" gradientTransform="matrix(0.9997 2.356718e-02 2.356718e-02 -0.9997 -13.0941 294.1975)">
					<stop  offset="0" style="stop-color:#F90000"/>
					<stop  offset="0.9892" style="stop-color:#FF4500"/>
				</linearGradient>
				<path class="st22" d="M107.9,69.6c0.5-0.5,1.6-1.4,2.2-1.4c0.2,1.1-0.2,1.8,0.5,2.7c0.5,1,0.8,1.4,0.8,2.6c0,1,0.8,3.2-0.3,3.8
					c-0.8,0.5-1.3-0.5-1.6-1.1C108.2,74.4,105.8,71.9,107.9,69.6z"/>
				
					<linearGradient id="SVGID_19_" gradientUnits="userSpaceOnUse" x1="120.4697" y1="225.7019" x2="124.9091" y2="227.8328" gradientTransform="matrix(0.9997 2.356718e-02 2.356718e-02 -0.9997 -13.0941 294.1975)">
					<stop  offset="0" style="stop-color:#F90000"/>
					<stop  offset="0.9892" style="stop-color:#FF4500"/>
				</linearGradient>
				<path class="st23" d="M112.8,68.4c-0.6-1-1-1.6,0-2.2c0.3-0.2,0.8-0.2,1.1-0.5c0.3-0.3,0.5-0.8,0.8-1c1.3-0.5,1.1,1.1,1.1,1.9
					c0.2,1,0.5,1.9,0.6,2.9c0.2,1,0.2,1.9,0.2,2.9c0,1,1,2.6,0,3C115.1,73.6,114.1,70.6,112.8,68.4z"/>
				
					<linearGradient id="SVGID_20_" gradientUnits="userSpaceOnUse" x1="131.8822" y1="196.2269" x2="155.6765" y2="211.853" gradientTransform="matrix(0.9997 2.356718e-02 2.356718e-02 -0.9997 -13.0941 294.1975)">
					<stop  offset="0" style="stop-color:#F90000"/>
					<stop  offset="0.3983" style="stop-color:#F90000"/>
					<stop  offset="0.6077" style="stop-color:#FC0000"/>
					<stop  offset="0.9804" style="stop-color:#FF4400"/>
					<stop  offset="0.9892" style="stop-color:#FF4500"/>
				</linearGradient>
				<path class="st24" d="M131.8,96.3c0.5-1.9,0.3-4,0.6-5.8c0.3-2.1,1.1-4,1.4-5.9c0.3-2.2,0.5-4.5,0.5-6.9c0-1.4-0.2-2.9-0.2-4.2
					c1.8,3.5,0.8,7.2,0.6,11c-0.2,2.1-0.3,4.2-0.5,6.1c-0.2,1,0,1.9-0.3,2.9c-0.3,1-0.8,1.9-0.6,2.9c0,0.2-0.2,0.5-0.2,0.6
					c1.8,0.2,2.1-6.6,2.4-7.7c0.3-1.1,0.8-1.9,1-3.2c0.2-0.6,0-2.7,0.8-2.6c0,1.6-0.8,3.4-1.1,5.1c-0.2,1.4,0,2.9-0.2,4.3
					c0,1.8-0.6,3.7-1.3,5.3c-0.5,1.6-1.4,2.9-1.4,4.6c-0.2,2.1,1.6,2.6,1.6,4.5c1-0.2,1.6-1.4,2.2-2.1c0.8-0.8,1.4-1.4,2.1-2.6
					c0.3-0.8,1.4-4.8,2.4-4.6c0.6,0.2,0.8,2.1,0.6,2.7c-0.2,1-1.1,1.9-1.8,2.7c-0.8,1-0.6,1.4-1,2.6c-0.2,1-1.3,1.6-1.3,2.6
					c1.1,0,2.6-1.6,3.2-2.6c0.5-0.8,1.3-2.9,2.1-3c0.2,3.5-3.8,9.9-7.5,10.1c-1,0-2.2,0.3-3,0c-1.6-0.5-1.3-1.9-1.4-3.2
					c-0.2-1.1-0.5-2.1-1-3c-0.3-0.5-1.1-1.8-1.3-2.2c-0.2-1.1,0.8-2.4,1-3.5C130.9,99.7,131.4,97.9,131.8,96.3z"/>
				
					<linearGradient id="SVGID_21_" gradientUnits="userSpaceOnUse" x1="104.5166" y1="216.0862" x2="109.754" y2="216.0862" gradientTransform="matrix(0.9997 2.356718e-02 2.356718e-02 -0.9997 -13.0941 294.1975)">
					<stop  offset="0" style="stop-color:#F90000"/>
					<stop  offset="0.9892" style="stop-color:#FF4500"/>
				</linearGradient>
				<path class="st25" d="M96.8,78.1c0.2-0.5,1-1.8,1.3-1.9c0.8-0.3,1,0.6,1.6,1.3c0.3,0.3,0.6,0.3,0.8,0.8c0.2,0.3,0,1.1,0,1.4
					c0.2,1,0.8,1.9,1,2.9c0.2,1,0.2,2.1-1,2.6c-1.4,0.6-2.4-1.1-3.2-2.1C96.5,81.8,96.2,79.5,96.8,78.1z"/>
			</g>
			<g>
				
					<linearGradient id="SVGID_22_" gradientUnits="userSpaceOnUse" x1="-11.0045" y1="68.9901" x2="-1.7886" y2="77.3974" gradientTransform="matrix(1.0594 -0.169 -0.1812 -1.1361 109.8869 197.1612)">
					<stop  offset="0" style="stop-color:#EE0000"/>
					<stop  offset="1" style="stop-color:#FF0000"/>
				</linearGradient>
				<path class="st26" d="M76.8,110.6c0,0-3,5,6.7,6.4c9,1.3,16.8,5.9,17.1,5.6C101,122.2,88.7,106.4,76.8,110.6z"/>
				
					<radialGradient id="SVGID_23_" cx="17.0934" cy="68.1328" r="44.5709" gradientTransform="matrix(1.0594 -0.169 -0.1812 -1.1361 109.8869 197.1612)" gradientUnits="userSpaceOnUse">
					<stop  offset="0" style="stop-color:#5F0000"/>
					<stop  offset="0.3322" style="stop-color:#F90000"/>
					<stop  offset="0.8441" style="stop-color:#FF4800"/>
					<stop  offset="0.8897" style="stop-color:#FF3D00"/>
					<stop  offset="0.9599" style="stop-color:#FC0A00"/>
					<stop  offset="1" style="stop-color:#F90000"/>
				</radialGradient>
				<path class="st27" d="M123.4,116.2c0,0-8.3,1.4-13.8,4.6c-5.4,3.2-10.4,5-15.5-1.1c-5-6.1-4.6-6.9-9.4-5.3s-7.5,3.2-9-4.2
					c-1.4-7.5-2.1-12.3-0.5-16.3c1.6-4,3.7-8.2,6.2-9.6c2.6-1.6,0.8-2.9,4-4.5c3.4-1.4,5.6-1.6,7.8-3.5c2.1-1.9,4.2-0.2,5.6-1
					c1.4-0.8-0.6-2.1,3.7-2.4c4.3-0.3,5.9,1,9.4-1.6c3.5-2.6,2.6-0.2,2.4,3c-0.2,3.2,0.2,16.5,2.1,22.1
					C118.4,102.1,123.4,116.2,123.4,116.2z"/>
				
					<linearGradient id="SVGID_24_" gradientUnits="userSpaceOnUse" x1="-18.6204" y1="96.0263" x2="22.8762" y2="96.0263" gradientTransform="matrix(1.0594 -0.169 -0.1812 -1.1361 109.8869 197.1612)">
					<stop  offset="0" style="stop-color:#F90000"/>
					<stop  offset="8.361662e-02" style="stop-color:#FB0000"/>
					<stop  offset="0.3727" style="stop-color:#FF3400"/>
					<stop  offset="0.4532" style="stop-color:#FF4200"/>
					<stop  offset="0.5547" style="stop-color:#FF4800"/>
					<stop  offset="0.6104" style="stop-color:#FF5200"/>
					<stop  offset="0.6964" style="stop-color:#FF6828"/>
					<stop  offset="0.8019" style="stop-color:#FF8751"/>
					<stop  offset="0.9217" style="stop-color:#FFAE80"/>
					<stop  offset="1" style="stop-color:#FCCBA4"/>
				</linearGradient>
				<path class="st28" d="M75.4,93.9c1.6-4,3.7-8.2,6.2-9.6c2.6-1.6,0.8-2.9,4-4.5c3.4-1.4,5.6-1.6,7.8-3.5c2.1-1.9,4.2-0.2,5.6-1
					c1.4-0.8-0.6-2.1,3.7-2.4c4.3-0.3,5.9,1,9.4-1.6c1.8-1.3,2.4-1.3,2.6-0.6c-0.2-1-0.6-1.1-2.6,0.3c-3.5,2.6-5.1,1.3-9.4,1.6
					c-4.3,0.3-2.2,1.6-3.7,2.4c-1.4,0.8-3.5-1-5.6,1c-2.1,1.9-4.5,2.1-7.8,3.5c-3.4,1.4-1.4,2.9-4,4.5c-2.6,1.6-4.5,5.6-6.2,9.6
					c-1.3,3.2-1.1,6.9-0.3,11.8C74.3,100.7,74.1,97,75.4,93.9z"/>
				
					<linearGradient id="SVGID_25_" gradientUnits="userSpaceOnUse" x1="11.2537" y1="66.912" x2="-7.1879" y2="80.9857" gradientTransform="matrix(1.0594 -0.169 -0.1812 -1.1361 109.8869 197.1612)">
					<stop  offset="0" style="stop-color:#F90000"/>
					<stop  offset="8.361662e-02" style="stop-color:#FB0000"/>
					<stop  offset="0.3727" style="stop-color:#FF3400"/>
					<stop  offset="0.4532" style="stop-color:#FF4200"/>
					<stop  offset="0.5547" style="stop-color:#FF4800"/>
					<stop  offset="0.6104" style="stop-color:#FF5200"/>
					<stop  offset="0.6964" style="stop-color:#FF6828"/>
					<stop  offset="0.8019" style="stop-color:#FF8751"/>
					<stop  offset="0.9217" style="stop-color:#FFAE80"/>
					<stop  offset="1" style="stop-color:#FCCBA4"/>
				</linearGradient>
				<path class="st29" d="M94.6,120.2c4.6,5.6,10.1,3,13.1,1c3-2.1,13.9-5.4,13.9-5.4s-24,5.6-29.1,1.4
					C92.2,117.9,94.6,120.2,94.6,120.2z"/>
				<g>
					
						<linearGradient id="SVGID_26_" gradientUnits="userSpaceOnUse" x1="-23.1346" y1="81.347" x2="-0.1735" y2="67.2792" gradientTransform="matrix(1.0594 -0.169 -0.1812 -1.1361 109.8869 197.1612)">
						<stop  offset="0" style="stop-color:#F90000"/>
						<stop  offset="8.361662e-02" style="stop-color:#FB0000"/>
						<stop  offset="0.3727" style="stop-color:#FF3400"/>
						<stop  offset="0.4532" style="stop-color:#FF4200"/>
						<stop  offset="0.5547" style="stop-color:#FF4800"/>
						<stop  offset="0.6104" style="stop-color:#FF5200"/>
						<stop  offset="0.6964" style="stop-color:#FF6828"/>
						<stop  offset="0.8019" style="stop-color:#FF8751"/>
						<stop  offset="0.9217" style="stop-color:#FFAE80"/>
						<stop  offset="1" style="stop-color:#FCCBA4"/>
					</linearGradient>
					<path class="st30" d="M94.3,117.4c-1.3-0.3-4-4-6.4-4.3c-2.2-0.3-3.8,1.3-5.3,1.6c-1.1,0.3-3,0.5-4.2-0.2
						c-1.4-1-2.7-4.6-2.7-4.6c0,0.2,0,0.2,0,0.3c0.6,3.7,1.6,5.1,3,5.4c0.6,0,1.3,0,1.9,0c1.1-0.2,2.6-0.8,4-1.3
						c4.8-1.6,4.5-0.6,9.4,5.3c0.2,0.2,0.3,0.3,0.3,0.5c0.6,0.6,1.1,1.1,1.4,1.4C94.4,119.8,95.4,117.8,94.3,117.4z"/>
					
						<linearGradient id="SVGID_27_" gradientUnits="userSpaceOnUse" x1="-23.8316" y1="80.2753" x2="-0.84" y2="66.189" gradientTransform="matrix(1.0594 -0.169 -0.1812 -1.1361 109.8869 197.1612)">
						<stop  offset="0" style="stop-color:#F90000"/>
						<stop  offset="8.361662e-02" style="stop-color:#FB0000"/>
						<stop  offset="0.3727" style="stop-color:#FF3400"/>
						<stop  offset="0.4532" style="stop-color:#FF4200"/>
						<stop  offset="0.5547" style="stop-color:#FF4800"/>
						<stop  offset="0.6104" style="stop-color:#FF5200"/>
						<stop  offset="0.6964" style="stop-color:#FF6828"/>
						<stop  offset="0.8019" style="stop-color:#FF8751"/>
						<stop  offset="0.9217" style="stop-color:#FFAE80"/>
						<stop  offset="1" style="stop-color:#FCCBA4"/>
					</linearGradient>
					<path class="st31" d="M96,121.6c0.2,0.2,0.3,0.3,0.5,0.3C96.5,121.9,96.3,121.8,96,121.6z"/>
				</g>
				<g>
					
						<linearGradient id="SVGID_28_" gradientUnits="userSpaceOnUse" x1="6.2309" y1="96.6738" x2="0.8945" y2="110.4187" gradientTransform="matrix(1.0594 -0.169 -0.1812 -1.1361 109.8869 197.1612)">
						<stop  offset="0" style="stop-color:#F90000"/>
						<stop  offset="0.9892" style="stop-color:#FF4500"/>
					</linearGradient>
					<path class="st32" d="M102.3,87.4c-0.8-3.5-3.2-6.2-5-6.6c-0.8-1.6-2.2-3.7-3.2-5c-0.3,0.2-0.5,0.3-0.8,0.5
						c-0.6,0.6-1.4,1-2.2,1.4c1.4,0.8,3.2,2.1,4.2,2.9C97.1,82.1,99.4,85.9,102.3,87.4z"/>
					
						<linearGradient id="SVGID_29_" gradientUnits="userSpaceOnUse" x1="7.7309" y1="104.0865" x2="10.709" y2="104.0865" gradientTransform="matrix(1.0594 -0.169 -0.1812 -1.1361 109.8869 197.1612)">
						<stop  offset="0" style="stop-color:#F90000"/>
						<stop  offset="0.9892" style="stop-color:#FF4500"/>
					</linearGradient>
					<path class="st33" d="M98.9,75.4L98.9,75.4c1,2.1,2.4,4.6,3.7,5.8c-0.2-1.8-0.3-5.6-1-8C98.6,73.5,100.3,74.7,98.9,75.4z"/>
					
						<linearGradient id="SVGID_30_" gradientUnits="userSpaceOnUse" x1="-11.7524" y1="83.4374" x2="-10.4607" y2="87.8096" gradientTransform="matrix(1.0594 -0.169 -0.1812 -1.1361 109.8869 197.1612)">
						<stop  offset="0" style="stop-color:#F90000"/>
						<stop  offset="0.9892" style="stop-color:#FF4500"/>
					</linearGradient>
					<path class="st34" d="M82.9,99.9c-0.6-0.5-5.6-1-8.3-2.9c0,0.5-0.2,1.1-0.2,1.6c1.8,1.9,5,5,6.1,4.6c1.6-0.6,2.9,0.2,4.6,0.8
						c1.6,0.6,5,0.6,5.6,1.3C88.2,102.3,83.6,100.5,82.9,99.9z"/>
					
						<linearGradient id="SVGID_31_" gradientUnits="userSpaceOnUse" x1="-14.5629" y1="78.4606" x2="-15.1865" y2="82.8254" gradientTransform="matrix(1.0594 -0.169 -0.1812 -1.1361 109.8869 197.1612)">
						<stop  offset="0" style="stop-color:#F90000"/>
						<stop  offset="0.9892" style="stop-color:#FF4500"/>
					</linearGradient>
					<path class="st35" d="M75.2,106.7c0.2,1,0.3,2.1,0.6,3.2c1.3-0.2,2.9-0.3,3.2-0.8c0.6-0.8,2.9,0,4.5-1.6
						c-1.4-0.2-2.7-0.3-4-0.8C78.8,106.3,76.7,106.6,75.2,106.7z"/>
				</g>
				
					<radialGradient id="SVGID_32_" cx="20.5621" cy="67.3875" r="47.9126" gradientTransform="matrix(1.0594 -0.169 -0.1812 -1.1361 109.8869 197.1612)" gradientUnits="userSpaceOnUse">
					<stop  offset="0" style="stop-color:#5F0000"/>
					<stop  offset="9.107846e-02" style="stop-color:#790000"/>
					<stop  offset="0.2199" style="stop-color:#9B0000"/>
					<stop  offset="0.3546" style="stop-color:#BB0000"/>
					<stop  offset="0.4946" style="stop-color:#D50000"/>
					<stop  offset="0.6424" style="stop-color:#E80000"/>
					<stop  offset="0.803" style="stop-color:#F40000"/>
					<stop  offset="1" style="stop-color:#F90000"/>
				</radialGradient>
				<path class="st36" d="M116.5,96.5c-1.9-5.6-2.2-18.9-2.1-22.1c0.2-1.6,0.8-2.9-1-2.6c-1.1,0.2-2.4,1.4-3.4,2.1
					c-1.9,1-3.2,0.5-5.1,1c-0.5,0.2-0.5,0.8-0.8,0.8c-0.5,0.2-1-0.3-1.3-0.3c-0.8,0-2.2-0.3-2.7,0.6c-0.8,1.6,2.7,2.7,1.4,4.6
					c-2.4-1.9-5.6,0.3-8.2,0.6c0,0.5-0.3,0.8-0.3,1.1c-1.6-0.6-2.9-2.1-4.6-2.2c-1.6,0-2.6,1.1-4,1.6c-0.5,0.2-1,0.3-1.6,0.3
					c-0.2,0.5-0.3,1-1,1.6c0.6,0.5,1.3,1.1,1.4,1.1c0.5,0.2,2.7,4.3,1.3,3.2c-1-0.8-3.4-1.9-4.8-2.6c-0.6,0.6-1.1,1.3-1.6,2.1
					l4.5,1.8c0,0,2.7,3.2,1.4,2.4c-0.8-0.5-4.8-1-7.5-1.1c-0.2,0.5-0.5,1-0.6,1.4c1.3,1.1,2.9,2.9,3.7,4.6c1.3,2.4,4.2,1.4,5.8,2.9
					c1.6,1.4,4.2,5.1,5.6,8.8c1.6,3.7,5.6,3.2,9.1,8c3.4,4.8,5.1,1.8,8,0c2.9-1.6,12.2-1,12.2-1c0.3-1.3,0.5-2.7,0.6-4.2
					C119.9,106.7,117.8,100.2,116.5,96.5z"/>
				
					<linearGradient id="SVGID_33_" gradientUnits="userSpaceOnUse" x1="109.7442" y1="214.5748" x2="106.5776" y2="221.2412" gradientTransform="matrix(0.9997 2.356718e-02 2.356718e-02 -0.9997 -13.0941 294.1975)">
					<stop  offset="0" style="stop-color:#F90000"/>
					<stop  offset="8.361662e-02" style="stop-color:#FB0000"/>
					<stop  offset="0.3727" style="stop-color:#FF3400"/>
					<stop  offset="0.4766" style="stop-color:#FF4B00"/>
					<stop  offset="0.6542" style="stop-color:#FF631D"/>
					<stop  offset="0.8298" style="stop-color:#FF6F2D"/>
					<stop  offset="1" style="stop-color:#FF7232"/>
				</linearGradient>
				<path class="st37" d="M93.3,76.8c0.2-0.2,0.3-0.2,0.5-0.3c1.6-1,3.4-0.2,5.1-0.8c1.3-0.5,0.8-1.1,1.4-1.9
					c0.6-0.6,1.8-0.3,2.6-0.3c1,0,1.8-0.2,2.6-0.2c1.9,0,3.8-0.3,5.4-1.1c0.3-0.2,3.2-1.8,2.7-0.5c-0.3,1.3-2.9,1.9-4,2.2
					c-0.8,0.3-5.9,0.6-6.1,1.3c-0.5,1.6-3.7-0.2-3,2.1c0.5,1.4,2.7,1.6,2.1,3.7c-0.6,0.3-1.8-0.2-2.6-0.3c-1.1-0.2-1.9-0.2-3,0
					c-1.9,0.3-3.4,1.1-4.2,3h-0.5c-0.3-1.3-2.1-2.7-3.2-3.2c-1.6-0.8-3.4,0.6-5.1,0c0.8-1.1,3.5-1.8,4.8-2.1
					C90.6,78.3,92,77.6,93.3,76.8z"/>
				
					<linearGradient id="SVGID_34_" gradientUnits="userSpaceOnUse" x1="112.2873" y1="200.7645" x2="107.6703" y2="196.8579" gradientTransform="matrix(0.9997 2.356718e-02 2.356718e-02 -0.9997 -13.0941 294.1975)">
					<stop  offset="0" style="stop-color:#C20000"/>
					<stop  offset="0.4795" style="stop-color:#E10000"/>
					<stop  offset="1" style="stop-color:#FF0000"/>
				</linearGradient>
				<path class="st38" d="M114.1,109.4c-1.4-1.3-2.6-2.9-3.8-4.5c-2.4-3-5.3-5.3-7.5-8.5c-2.1-3.2-4.5-5.9-6.9-9
					c-2.4-3.2-3.5-6.9-8-7.4c-1.3-0.2-2.6-0.6-3.5,0.6c1.4,1.3,3.5,1.3,5,2.2c1.9,1.4,2.1,3.7,3.4,5.8c2.4,4,6.1,7,8.6,10.9
					c2.1,3.2,5,5.6,7.8,7.8s5.6,5.3,9,6.6c0.5,0.2,1.1,0.3,1.6,0.5C118.6,114.4,115.2,110.6,114.1,109.4z"/>
				
					<linearGradient id="SVGID_35_" gradientUnits="userSpaceOnUse" x1="103.3877" y1="203.568" x2="100.1914" y2="196.9976" gradientTransform="matrix(0.9997 2.356718e-02 2.356718e-02 -0.9997 -13.0941 294.1975)">
					<stop  offset="0" style="stop-color:#C20000"/>
					<stop  offset="0.4795" style="stop-color:#E10000"/>
					<stop  offset="1" style="stop-color:#FF0000"/>
				</linearGradient>
				<path class="st39" d="M97.9,102.3c-2.2-2.2-3.7-5-5.4-7.5c-1.3-1.8-2.2-4.5-4.2-5.6c-1.1-0.6-2.2-1-3.5-1.8
					c-1-0.6-2.4-1.4-3.5-1.4c-0.5,0-1,0-1.4,0.2c1.4,1.9,3.7,3,5.3,5.1c1.8,2.4,4.3,3.7,6.7,5.6c1.3,1.1,1.9,2.2,2.9,3.5
					c1,1.1,2.2,2.1,3.4,3c1.8,1.6,4.2,3.2,6.4,4.3c0.5,0.3,1,0.6,1.4,0.8c-1-1.1-2.6-1.6-3.7-2.6C100.7,104.8,99.2,103.5,97.9,102.3
					z"/>
			</g>
			<g>
				
					<linearGradient id="SVGID_36_" gradientUnits="userSpaceOnUse" x1="-72.3228" y1="345.2679" x2="-44.5616" y2="334.6682" gradientTransform="matrix(1.3612 0.3519 0.2371 -0.9171 137.5402 451.7437)">
					<stop  offset="0" style="stop-color:#5F0000"/>
					<stop  offset="0.1022" style="stop-color:#610000"/>
					<stop  offset="0.1875" style="stop-color:#6A0000"/>
					<stop  offset="0.2668" style="stop-color:#780000"/>
					<stop  offset="0.3423" style="stop-color:#8E0000"/>
					<stop  offset="0.4152" style="stop-color:#AD0000"/>
					<stop  offset="0.4852" style="stop-color:#D60000"/>
					<stop  offset="0.5312" style="stop-color:#F90000"/>
					<stop  offset="0.8441" style="stop-color:#FF4800"/>
					<stop  offset="0.8897" style="stop-color:#FF3D00"/>
					<stop  offset="0.9599" style="stop-color:#FC0A00"/>
					<stop  offset="1" style="stop-color:#F90000"/>
				</linearGradient>
				<path class="st40" d="M120.7,114.6c0,0,5.4-1.6,11.5-3c6.1-1.4,13-2.7,14.7-4c3.7-3,10.7-5.6,12.2-5.9c1.4-0.3,0.2-1.3,4-0.3
					c3.8,1,2.9,1.3,1.4,1.9c-1.4,0.8-1.3,3.5-0.6,5.1c0.8,1.4,0,8.3-4.6,9.6c-4.6,1-15.2,3.2-16.8,5.4c-1.8,2.1-6.6,5.9-6.6,6.1
					c-0.2,0-12.6,0.6-13.6,2.1c-1,1.4,0.3,3.2,1.1,5.4c0.8,2.2,1.1,8.3-2.4,4.5s-4-6.6-2.2-8.6c1.8-2.1,1-2.6,1.3-4.5
					c0.2-1.9,2.1-3.7,2.9-6.9C124,118.4,120.7,114.7,120.7,114.6z"/>
				
					<linearGradient id="SVGID_37_" gradientUnits="userSpaceOnUse" x1="-42.9967" y1="361.9967" x2="-49.2185" y2="363.6261" gradientTransform="matrix(1.3612 0.3519 0.2371 -0.9171 137.5402 451.7437)">
					<stop  offset="0" style="stop-color:#5F0000"/>
					<stop  offset="0.3322" style="stop-color:#F90000"/>
					<stop  offset="0.8441" style="stop-color:#FF4800"/>
					<stop  offset="0.8897" style="stop-color:#FF3D00"/>
					<stop  offset="0.9599" style="stop-color:#FC0A00"/>
					<stop  offset="1" style="stop-color:#F90000"/>
				</linearGradient>
				<path class="st41" d="M165.7,102.3c0,0-0.5-0.2-1.3-0.3c-0.3-0.2-0.8-0.3-1.4-0.5c-0.3,0-0.6-0.2-1-0.2c-0.3,0-0.6-0.2-1-0.2
					c-0.3,0-0.5,0-0.6,0.2c-0.2,0.2,0,0.3,0,0.5c0.2,0.3,0.5,0.8,0.8,1.3c0.6,1,1.4,2.1,1.9,3.2c0,0.2,0.2,0.3,0.2,0.5
					c-0.2-1.4,0-2.9,1-3.4C165.4,102.7,166.2,102.6,165.7,102.3z"/>
				
					<linearGradient id="SVGID_38_" gradientUnits="userSpaceOnUse" x1="-62.94" y1="321.2093" x2="-71.8413" y2="310.6519" gradientTransform="matrix(1.3612 0.3519 0.2371 -0.9171 137.5402 451.7437)">
					<stop  offset="0" style="stop-color:#5F0000"/>
					<stop  offset="0.3322" style="stop-color:#F90000"/>
					<stop  offset="0.8441" style="stop-color:#FF4800"/>
					<stop  offset="0.8897" style="stop-color:#FF3D00"/>
					<stop  offset="0.9599" style="stop-color:#FC0A00"/>
					<stop  offset="1" style="stop-color:#F90000"/>
				</linearGradient>
				<path class="st42" d="M122.6,131.5c0,0,0.2-0.2,0.3-0.2c-0.6,0.3-1.4,0.6-2.1,1.1c-0.5,0.3-1,0.6-1.4,1.1
					c-0.2,0.2-0.5,0.3-0.6,0.6c-0.2,0.2-0.2,0.2-0.3,0.3c0,0-0.2,0.2-0.2,0.3c-0.3,1.6,0.3,3.5,2.2,5.9c0.6,0.6,1.3,1.3,1.6,1.6
					c0.5,0.3,0.6,0.5,0.6,0.6c1.9,0.8,1.6-3.8,1-5.6C122.9,134.7,121.6,132.8,122.6,131.5z"/>
				
					<linearGradient id="SVGID_39_" gradientUnits="userSpaceOnUse" x1="-70.0677" y1="338.4532" x2="-41.9882" y2="338.4532" gradientTransform="matrix(1.3612 0.3519 0.2371 -0.9171 137.5402 451.7437)">
					<stop  offset="0" style="stop-color:#FF734F"/>
					<stop  offset="3.089669e-02" style="stop-color:#FF6F48"/>
					<stop  offset="0.1642" style="stop-color:#FF5E29"/>
					<stop  offset="0.297" style="stop-color:#FF4F01"/>
					<stop  offset="0.4279" style="stop-color:#FF4600"/>
					<stop  offset="0.5547" style="stop-color:#FF4200"/>
					<stop  offset="0.6422" style="stop-color:#FF4B00"/>
					<stop  offset="0.7774" style="stop-color:#FD5D25"/>
					<stop  offset="0.9423" style="stop-color:#F4744D"/>
					<stop  offset="1" style="stop-color:#F17C59"/>
				</linearGradient>
				<path class="st43" d="M122.7,142.7c0,0-0.3-0.2-0.6-0.5c-0.5-0.3-1.1-1-1.9-1.8c-0.3-0.3-0.8-0.8-1.1-1.3
					c-0.3-0.5-0.8-1.1-1.1-1.9c-0.2-0.3-0.3-0.8-0.3-1.3c0-0.2,0-0.5,0-0.6c0-0.3,0.2-0.5,0.3-0.8c0-0.2,0.2-0.3,0.3-0.3
					c0.2-0.2,0.2-0.2,0.3-0.3c0.2-0.2,0.5-0.5,0.6-0.6c0.5-0.3,1-0.8,1.4-1.1c1.1-0.6,2.2-1.3,3.5-1.8c1.3-0.5,2.7-0.6,4.2-0.8
					c0.8,0,1.4,0,2.2,0c0.3,0,0.8,0,1.1,0c0.3,0,0.8,0,1.1,0s0.8,0,1.1,0c0.3,0,0.8,0,1.1-0.2c0.3,0,0.8-0.2,1.1-0.3
					c0.3-0.2,0.6-0.3,1-0.5c0.5-0.5,1-1,1.4-1.4c0.5-0.5,1-1,1.4-1.4c1-1,1.8-1.9,2.9-2.7c1.1-0.8,2.6-1.6,4-2.1
					c1.4-0.6,3-1.1,4.6-1.4c1.6-0.5,3.2-0.8,4.8-1.1c0.8-0.2,1.6-0.3,2.2-0.5c0.3-0.2,0.6-0.2,1-0.3c0.3-0.2,0.6-0.2,1-0.3
					c1.1-0.5,1.8-1.1,2.2-1.8c0.5-0.6,0.6-1.3,1-2.1c0.3-1.3,0.5-2.6,0.5-3.8c0-1.3-0.3-2.4-0.8-3.5c-0.3-0.6-0.5-1.1-0.8-1.6
					s-0.6-1.1-1-1.6c-0.3-0.5-0.6-1-0.8-1.3c0-0.2-0.2-0.3,0-0.5c0.2-0.2,0.5-0.2,0.8-0.2s0.6,0.2,1,0.2c0.3,0.2,0.6,0.2,1,0.3
					c0.6,0.2,1.1,0.3,1.4,0.5c0.8,0.3,1.3,0.3,1.3,0.3s-0.5-0.2-1.3-0.3c-0.3-0.2-0.8-0.3-1.4-0.5c-0.3,0-0.6-0.2-1-0.2
					c-0.3,0-0.6-0.2-1-0.2c-0.3,0-0.5,0-0.6,0.2c-0.2,0.2,0,0.3,0,0.5c0.2,0.3,0.5,0.8,0.8,1.3c0.6,1,1.4,2.1,1.9,3.2s0.8,2.4,1,3.5
					c0.2,1.3,0,2.6-0.3,3.8c-0.2,0.3-0.2,0.6-0.3,1c-0.2,0.3-0.3,0.6-0.5,1c-0.2,0.3-0.5,0.6-0.8,1c-0.3,0.3-0.8,0.6-1.4,1
					c-0.3,0.2-0.6,0.3-1,0.3c-0.3,0.2-0.6,0.2-1.1,0.3c-0.8,0.2-1.6,0.3-2.4,0.5c-1.6,0.3-3.2,0.6-4.8,1.1c-1.6,0.5-3.2,1-4.6,1.4
					c-1.4,0.6-2.9,1.3-4,2.1c-1.1,0.8-1.9,1.8-2.9,2.7c-0.5,0.5-1,1-1.4,1.4c-0.5,0.5-1,1-1.6,1.4c-0.3,0.2-0.6,0.5-1.1,0.6
					c-0.5,0.2-0.8,0.3-1.3,0.3s-0.8,0.2-1.3,0.2c-0.3,0-0.8,0-1.1,0c-0.8,0-1.4,0-2.2-0.2c-0.6,0-1.4,0-2.1,0
					c-1.4,0.2-2.7,0.3-4,0.8c-1.3,0.5-2.4,1-3.5,1.6c-0.5,0.3-1,0.6-1.4,1.1c-0.2,0.2-0.5,0.3-0.6,0.6c-0.2,0.2-0.2,0.2-0.3,0.3
					c-0.2,0.2-0.2,0.2-0.2,0.3c-0.3,0.5-0.3,0.8-0.3,1.3s0.2,0.8,0.3,1.1c0.3,0.6,0.6,1.3,1,1.9c0.3,0.5,0.8,1,1.1,1.4
					c0.8,0.8,1.4,1.4,1.8,1.8C122.6,142.4,122.7,142.7,122.7,142.7z"/>
				
					<linearGradient id="SVGID_40_" gradientUnits="userSpaceOnUse" x1="-43.6388" y1="364.771" x2="-52.5897" y2="346.2016" gradientTransform="matrix(1.3612 0.3519 0.2371 -0.9171 137.5402 451.7437)">
					<stop  offset="0" style="stop-color:#FF7232"/>
					<stop  offset="0.1702" style="stop-color:#FF6F2D"/>
					<stop  offset="0.3458" style="stop-color:#FF631D"/>
					<stop  offset="0.5234" style="stop-color:#FF4B00"/>
					<stop  offset="0.6273" style="stop-color:#FF3400"/>
					<stop  offset="0.9164" style="stop-color:#FB0000"/>
					<stop  offset="1" style="stop-color:#F90000"/>
				</linearGradient>
				<path class="st44" d="M160.5,101.5c0-0.2-5.6,1.3-7.8,2.6c-2.2,1.1-4.2,4.5-5.4,5.3c-1.3,0.6-8.8,5-2.6,4
					c6.2-1,8.6-2.1,12.3-1.9c3.7,0.2,6.4-0.5,6.9-0.8C164.5,110.4,165.4,105.9,160.5,101.5z"/>
				
					<linearGradient id="SVGID_41_" gradientUnits="userSpaceOnUse" x1="-60.2017" y1="337.4397" x2="-70.9988" y2="316.7646" gradientTransform="matrix(1.3612 0.3519 0.2371 -0.9171 137.5402 451.7437)">
					<stop  offset="0" style="stop-color:#F90000"/>
					<stop  offset="8.361662e-02" style="stop-color:#FB0000"/>
					<stop  offset="0.3727" style="stop-color:#FF3400"/>
					<stop  offset="0.4766" style="stop-color:#FF4B00"/>
					<stop  offset="0.6542" style="stop-color:#FF631D"/>
					<stop  offset="0.8298" style="stop-color:#FF6F2D"/>
					<stop  offset="1" style="stop-color:#FF7232"/>
				</linearGradient>
				<path class="st45" d="M120.7,132.2c0,0,5.4-2.6,7.7-2.6c2.2,0,4.6,0.8,6.6-0.2c1.9-0.8,5.1-3.7,1.6-5.3
					c-3.7-1.6-10.6-4.2-13-1.8s-2.4,4.8-1.3,6.1C123.4,129.4,122.1,131,120.7,132.2z"/>
				
					<linearGradient id="SVGID_42_" gradientUnits="userSpaceOnUse" x1="-57.5372" y1="343.3893" x2="-48.5982" y2="337.8635" gradientTransform="matrix(1.3612 0.3519 0.2371 -0.9171 137.5402 451.7437)">
					<stop  offset="0" style="stop-color:#F90000"/>
					<stop  offset="8.361662e-02" style="stop-color:#FB0000"/>
					<stop  offset="0.3727" style="stop-color:#FF3400"/>
					<stop  offset="0.4766" style="stop-color:#FF4B00"/>
					<stop  offset="0.6542" style="stop-color:#FF631D"/>
					<stop  offset="0.8298" style="stop-color:#FF6F2D"/>
					<stop  offset="1" style="stop-color:#FF7232"/>
				</linearGradient>
				<path class="st46" d="M142.6,123c0,0,3.7-2.7,10.7-4.5c-3.7-1.9-6.6-1.3-8.8-1.1c-2.4-0.2-7.8,3.5-7.8,3.7
					C141.4,120.3,143.4,121.9,142.6,123z"/>
				
					<linearGradient id="SVGID_43_" gradientUnits="userSpaceOnUse" x1="-63.1931" y1="341.1656" x2="-37.429" y2="360.2165" gradientTransform="matrix(1.3612 0.3519 0.2371 -0.9171 137.5402 451.7437)">
					<stop  offset="0" style="stop-color:#DF0000"/>
					<stop  offset="0.9892" style="stop-color:#FF3D00"/>
				</linearGradient>
				<path class="st47" d="M141.6,109.6c1.9-0.6,4-1.3,5.8-1.9c1.3-0.6,2.1-1.9,4-1.8c-0.6,1.1-2.6,2.2-3.8,3.5c-1.1,1-3.5,2.6-4,3.8
					c-0.8,2.4,4,0,5.1-0.5c1.3-0.6,3.2-2.2,5.6-1.6c-0.2,0.3-0.2,0.8-0.5,1c2.9-0.3,5-1.8,8.2-1.4c-1.4,1-3.7,1.9-5.1,3.2
					c0.6,0,1.6,0.2,2.2,0c-0.3,0.6-2.4,0.5-3.4,1c0.6,0,1.4,0.3,2.1,0.3c-2.6,1-7.8,1.3-11.2,1.9c3,0.6,5.6-0.5,8.5-0.2
					c-0.8,0.8-2.9,0.8-4.3,1.3c0.5,0.3,0.6,0.8,1,1.1c-2.2,0.3-5.3-1.1-7.7-0.8c-2.1,0.3-3.5,1.6-5.4,2.1c-0.3-1.3-0.2-3.8-2.1-4.6
					c-2.2-1-5-0.2-7.2-0.3c0.6-1.1,2.9-1.9,4.3-2.6C136,111.8,138.7,110.6,141.6,109.6z"/>
			</g>
			
				<radialGradient id="SVGID_44_" cx="133.3821" cy="184.2515" r="10.1033" gradientTransform="matrix(0.9997 2.356718e-02 2.356718e-02 -0.9997 -13.0941 294.1975)" gradientUnits="userSpaceOnUse">
				<stop  offset="0" style="stop-color:#000000"/>
				<stop  offset="0.1071" style="stop-color:#050505"/>
				<stop  offset="0.2308" style="stop-color:#131313"/>
				<stop  offset="0.3628" style="stop-color:#2A2A2A"/>
				<stop  offset="0.5006" style="stop-color:#4A4A4A"/>
				<stop  offset="0.6429" style="stop-color:#747474"/>
				<stop  offset="0.789" style="stop-color:#A7A7A7"/>
				<stop  offset="0.9354" style="stop-color:#E2E2E2"/>
				<stop  offset="1" style="stop-color:#FFFFFF"/>
			</radialGradient>
			<path class="st48" d="M130.1,110.6c-0.3-0.8-1.1-1.3-1.6-2.2c-0.8-2.2-1.8-3-4.5-2.7c-2.4,0.3-4.3,0.6-5.4,2.9
				c-0.5,1.1-1,1.9-0.5,3c0.5,1.1,1.6,1.4,1.4,2.7c-1,0.3-1.9,0.6-2.9,1.3c0.2,0.8,1,1,1.4,1.6c0.5,0.6,0.5,1.6,1,2.1
				c0.3,0.3,1.6,1,1.9,1.1c0.8,0.6,0.8,1.1,2.2,0.8c0,0.6,0,1.4,0,2.1c2.2,0.5,2.7-3,4.5-3.7c1-0.3,1.9,0.2,2.7,0
				c1.6-0.3,0.8-1,1.8-1.9c1.3-1.4,3.2-1.1,2.4-3.8c-0.5-1.9-1.4-0.8-2.7-0.5C129.3,113.8,130.9,112.5,130.1,110.6z"/>
			<g>
				<path class="st49" d="M136.8,113.1c-1.1,0.2-2.2,0.5-3.4,1c-1.1,0.3-2.4,0.6-3.7,0.8c-1.1,0.2-2.2,0.2-3.4,0.2
					c-0.2,0-0.2,0-0.3,0c0-0.3-0.2-0.5-0.2-0.8c0.5,0,1.1-0.2,1.6-0.2c1.1,0,2.1-0.2,3.2-0.3c1.9-0.5,3.7-1.6,5-3.2l0,0
					c-1.3,1.4-3,2.6-5,3c-1,0.3-2.1,0.3-3,0.3c-0.5,0-1.1,0.2-1.6,0.2l0,0c0.5-0.2,1.1-0.5,1.6-0.8c0.8-0.3,1.6-0.6,2.4-1.1
					c0.8-0.5,1.8-1,2.6-1.4c0.8-0.5,1.8-1,2.4-1.6l0,0c-0.8,0.6-1.6,1.1-2.4,1.6c-0.8,0.5-1.8,1-2.6,1.4c-0.6,0.3-1.3,0.6-2.1,1
					c0.5-0.3,1-0.8,1.3-1.1c0.8-0.8,1.6-1.6,2.4-2.4c0.5-0.5,1-1,1.4-1.4c0.3-0.3,0.5-0.5,0.8-0.8c0.2-0.3,0.5-0.5,0.6-0.6l0,0
					c-0.5,0.2-0.8,0.6-1.1,1c-0.5,0.5-1,1-1.4,1.4c-0.8,0.8-1.6,1.8-2.4,2.6c-0.6,0.6-1.3,1.1-1.9,1.6h-0.2c-1,0.3-1.8,0.5-2.7,0.6
					l0,0c1.8-1.3,3.5-2.4,5-4c0.8-0.8,1.4-1.6,2.1-2.6c0.6-0.8,1.3-1.8,2.1-2.4l0,0c-0.8,0.6-1.4,1.6-2.1,2.4
					c-0.6,0.8-1.3,1.6-2.1,2.4c-1.4,1.6-3.4,2.7-5.1,4.2l-0.2-0.2c0.6-0.6,1.3-1.4,1.9-2.1c0.8-0.8,1.4-1.6,2.2-2.4
					c1.4-1.6,2.7-3.4,3.8-5.3l0,0c-1.1,1.9-2.6,3.7-4,5.3c-0.6,0.8-1.4,1.6-2.2,2.4c-0.6,0.8-1.4,1.4-2.1,2.2
					c-0.2,0-0.2-0.2-0.3-0.2c0.5-0.8,1-1.8,1.4-2.7c0.6-1.1,1.1-2.2,1.6-3.4c1-2.2,1.1-4.8,2.4-6.9l0,0c-0.6,1-1,2.1-1.3,3.2
					c-0.3,1.3-0.6,2.4-1.1,3.5c-0.5,1.1-1,2.2-1.6,3.4c-0.5,1-1.1,1.8-1.6,2.7c0-0.2,0-0.5,0.2-0.6c0.2-0.3,0.2-0.8,0.3-1.1
					c0.2-0.6,0.3-1.1,0.5-1.8c0.3-1.3,0.6-2.6,1-3.8c0.3-1.1,0.6-2.2,1-3.4c0.3-1.1,0.6-2.2,1.1-3.2l0,0c-0.5,1-0.8,2.1-1.1,3
					c-0.3,1.1-0.6,2.2-1,3.4c-0.3,1.3-0.6,2.6-1.1,3.8c-0.2,0.3-0.2,0.6-0.3,1c0-0.2,0-0.2,0-0.3c0.2-1.3,0.3-2.6,0.3-3.8
					c0-0.6,0.2-1.1,0.2-1.8c0-0.6,0-1.3,0-1.8c0-1.3,0-2.6,0.6-3.7l0,0c-0.5,1.1-0.6,2.2-0.6,3.4c0,0.6,0,1.3,0,1.9
					c0,0.6-0.2,1.1-0.2,1.8c-0.2,1.3-0.2,2.6-0.3,3.8c0,0.5-0.2,1-0.2,1.3c0,0.2,0,0.3-0.2,0.5c0-0.5,0-1.1,0-1.6
					c0-1.1-0.2-2.1-0.2-3.2c-0.2-2.4-0.5-4.8-0.5-7.2l0,0c0,2.4,0.3,4.8,0.5,7c0,1.1,0.2,2.1,0.2,3.2c0,0.5,0,1,0,1.6
					c0,0.2,0,0.5,0,0.6c0,0.3-0.2,0.5-0.2,0.8c0,0.2-0.2,0.5-0.2,0.6l0,0c0.2-0.3,0.2-0.5,0.3-0.8c0,0.2,0,0.2,0,0.3l0,0
					c0,0.2-0.2,0.2-0.2,0.3l0,0c0,0,0.2-0.2,0.2-0.3l0,0l0,0c0,0,0,0,0-0.2l0.2,0.2l-0.2,0.2l0,0l0.2-0.2l0.2,0.2l0,0l-0.2,0.2l0,0
					l0.2-0.2l0,0c0.2,0.2,0.3,0.2,0.3,0.3c-0.2,0-0.2,0-0.3,0l0,0l0,0l0,0l0,0l0.2,0.2h-0.2l0,0l0,0l0,0c-0.2,0-0.5,0-0.6,0.2
					c-0.2,0-0.3,0-0.5,0l0,0h-0.2c-0.2-0.2-0.2-0.3-0.3-0.5c0.2,0.2,0.3,0.3,0.5,0.3l0,0c-0.2,0-0.2-0.2-0.3-0.2l0,0l0,0
					c-0.2-0.2-0.3-0.2-0.5-0.3c-0.5-1.3-0.8-2.7-1.1-4c-0.6-2.6-1.4-5-1.6-7.7l0,0c0.2,2.6,1,5.1,1.6,7.7c0.3,1.1,0.5,2.1,0.8,3.2
					c0,0.2,0.2,0.3,0.2,0.5c-0.3-0.5-0.5-1.1-0.8-1.6c-0.5-1.1-0.8-2.1-1.3-3.2c-0.8-2.1-1.8-4.2-1.9-6.4l0,0
					c0.2,2.2,1.1,4.5,1.9,6.6c0.5,1.1,1,2.2,1.3,3.4c0.2,0.3,0.3,0.6,0.5,1.1c-0.5-0.5-0.8-1-1.1-1.4c-0.8-1-1.4-1.9-2.1-3
					c-0.6-1-1.1-2.1-1.6-3c-0.5-1.1-1-2.2-1.1-3.4l0,0c0,1.1,0.5,2.2,1,3.2c0.5,1.1,1.1,2.1,1.6,3.2c0.6,1.1,1.3,2.1,2.1,3.2
					c0.3,0.5,0.8,1,1.1,1.4c-0.6-0.5-1.3-1-1.8-1.6c-0.2-0.2-0.3-0.3-0.5-0.5c-0.6-0.8-1.4-1.6-2.1-2.4c-1.4-1.9-2.7-4-3.5-6.4l0,0
					c0.8,2.4,2.1,4.5,3.5,6.4c0.3,0.5,0.6,0.8,1,1.3c-0.5-0.5-1-1-1.4-1.6c-1.6-1.8-2.6-4.2-4.5-5.6l0,0c1,0.8,1.8,1.8,2.4,2.7
					c0.6,1,1.3,1.9,2.1,2.9c0.8,0.8,1.6,1.6,2.4,2.4c1,1.1,2.1,2.1,3.2,3l0,0c-0.5-0.5-1.1-1-1.6-1.6c0.5,0.3,0.8,0.8,1.3,1.1
					c0.2,0.2,0.2,0.3,0.3,0.3c0,0.2,0.2,0.2,0.2,0.3c-0.2,0-0.2,0-0.3,0l0,0c0.2,0,0.2,0.2,0.3,0.2v0.2c0,0,0,0-0.2,0
					c-1-0.6-1.9-1.3-2.7-1.9c-1-0.8-2.1-1.4-2.9-2.4c-1.9-1.8-3.2-4-4.8-6.1l0,0c1.6,2.1,2.9,4.3,4.8,6.1c1,0.8,1.9,1.6,2.9,2.4
					c0.8,0.5,1.4,1.1,2.2,1.6c-0.5,0-1.1,0-1.6-0.2c-1.4-0.8-2.6-1.9-3.7-3c-1-1-1.9-1.9-2.9-2.9c-0.6-0.6-1.3-1.1-1.8-1.6
					c-0.5-0.5-1.1-1-1.4-1.6l0,0c0.3,0.6,0.8,1,1.3,1.4c0.6,0.6,1.3,1.1,1.8,1.6c1,1,1.9,1.9,2.9,2.9c0.8,1,1.8,1.8,2.7,2.6
					c0.2,0.2,0.5,0.3,0.6,0.5c0,0,0,0-0.2,0c-0.2-0.2-0.3-0.2-0.5-0.3c-1.1-0.8-2.2-1.4-3.4-2.2c-1.1-0.6-2.2-1.4-3.4-2.1
					c-0.5-0.3-1.1-0.6-1.6-1c-0.5-0.3-1.1-0.6-1.6-1l0,0c0.3,0.5,0.8,0.6,1.4,1c0.6,0.3,1.1,0.6,1.8,1c1.1,0.6,2.2,1.4,3.4,2.1
					c1.1,0.8,2.4,1.4,3.5,2.2l0,0c-0.2,0-0.3-0.2-0.5-0.2c-0.2,0-0.3,0-0.5-0.2c-1-0.3-1.8-0.8-2.7-1.3c-1.1-0.5-2.2-0.8-3.5-1.1
					c-1.1-0.3-2.4-0.3-3.7-0.5l0,0c2.6,0.2,5.1,0.6,7.4,1.8c0.6,0.3,1.3,0.6,1.9,1c-0.8-0.2-1.6-0.2-2.2-0.3c-1-0.2-1.9-0.2-3-0.2
					c-1,0-1.9,0-2.9,0.5l0,0c1-0.3,1.9-0.5,2.9-0.5c1,0,2.1,0.2,3,0.3c1,0.2,1.8,0.2,2.7,0.5c0.3,0.2,0.8,0.3,1.1,0.5h0.2
					c0.5,0.3,1.1,0.8,1.8,1.1c0,0,0,0,0,0.2c-0.5,0.2-0.8,0.2-1.3,0.2c-1.1,0.2-2.4-0.2-3.5-0.3c-2.1-0.3-4.3-0.3-6.2,0.3l0,0
					c1.1-0.2,2.1-0.5,3.2-0.5c1.1,0,2.2,0,3.5,0.2c1.1,0.2,2.2,0.3,3.4,0.3c0.3,0,0.6-0.2,1-0.2c-0.3,0.3-0.6,0.6-1,1
					c-0.5,0.2-1,0.3-1.4,0.5c-1,0.2-1.9,0-3,0.2c-1,0.2-1.9,0.2-2.9,0.3c-0.8,0.2-1.8,0.3-2.4,1l0,0c0.8-0.6,1.8-0.8,2.7-1
					c0.5,0,1-0.2,1.4-0.2s1-0.2,1.4-0.2c0.8,0,1.6,0,2.4-0.2l0,0c-1,0.5-1.9,1-2.7,1.4c-0.8,0.5-1.8,0.8-2.6,1.1s-1.4,0.8-1.9,1.6
					l0,0c0.5-0.8,1.3-1.3,2.1-1.6c0.8-0.3,1.6-0.6,2.4-1.1c1-0.5,1.8-1,2.7-1.3c0.2,0,0.2-0.2,0.3-0.2c0.3,0,0.5,0,0.8-0.2
					c-1.1,0.8-2.4,1.4-3.5,2.2c-0.8,0.5-1.8,1.1-2.4,1.9c-0.6,0.6-1.3,1.4-1.4,2.4l0,0c0.2-1.1,1-1.9,1.6-2.6
					c0.8-0.6,1.6-1.3,2.6-1.8c1.1-0.8,2.4-1.4,3.5-2.2l0,0c0.3-0.2,0.6-0.3,1.1-0.5c0.2,0,0.3,0,0.3-0.2l0,0c0,0,0,0-0.2,0
					c0.3-0.2,0.6-0.3,0.8-0.5c0.2,0,0.2,0,0.3,0.2l0,0c0,0.2,0,0.2-0.2,0.3c-0.3,0.3-0.8,0.5-1.1,0.6c-1.1,0.6-2.2,1.3-3.2,2.1
					c-1,0.8-1.8,1.8-2.6,2.9c-0.8,1.1-1.3,2.2-1.4,3.5l0,0c0.2-1.3,0.8-2.6,1.6-3.5c0.8-1.1,1.8-2.1,2.7-2.9c1-0.8,2.1-1.4,3.2-2.1
					c0.3-0.2,0.6-0.3,0.8-0.5c-0.2,0.5-0.3,0.8-0.5,1.3c-0.2,0.2-0.3,0.3-0.5,0.5c-0.8,0.8-1.8,1.8-2.6,2.7
					c-0.6,0.8-1.1,1.8-1.6,2.7c-0.3,0.8-1,1.9-0.6,2.9l0,0c-0.2-1,0.3-2.1,0.8-3c0.5-1,1-1.9,1.8-2.7c0.8-1,1.8-1.8,2.6-2.7
					c-0.5,1.1-1,2.4-1.4,3.5c-0.8,1.9-1.3,4.3-0.5,6.4l0,0c-0.8-2.1-0.2-4.3,0.6-6.4c0.5-1.1,1-2.1,1.4-3.2c0-0.2,0.2-0.3,0.2-0.5
					c0.2-0.2,0.5-0.5,0.6-0.6c-0.2,0.5-0.3,0.8-0.5,1.3c-0.3,1.3-0.5,2.4-0.5,3.7c0,1,0.2,2.1,0.3,3c0.2,0.8,0.2,1.8,0.8,2.2l0,0
					c-0.6-0.6-0.8-1.6-0.8-2.4c-0.2-1-0.2-1.9-0.2-3c0-1.3,0.2-2.6,0.5-3.7c0.2-0.5,0.3-1,0.6-1.6c0-0.2,0.2-0.2,0.2-0.3
					c-0.2,1.4,0,3,0.3,4.6c0.3,1.8,0.6,3.4,1,5.1l0,0c-0.3-1.6-0.6-3.2-1-5c-0.2-0.8-0.2-1.8-0.3-2.6c0-0.8,0-1.4,0-2.2
					c0.2-0.3,0.3-0.6,0.5-1l0,0c0,0,0-0.2,0.2-0.2c0.3,0,0.8,0.2,1.1,0.2c0.2,0.2,0.5,0.3,0.6,0.5c0,0.2,0,0.3,0.2,0.5
					c-0.3-0.3-0.6-0.8-1.1-1l0,0c0.5,0.3,0.8,0.6,1.1,1.1c0.2,0.8,0.3,1.6,0.5,2.6c0.2,0.8,0.5,1.6,0.8,2.4c0.3,0.8,0.8,1.4,1.3,2.2
					l0,0c-0.3-0.8-0.8-1.4-1.1-2.2c-0.3-0.8-0.6-1.6-1-2.4c-0.2-0.8-0.3-1.4-0.5-2.2l0.2,0.2c0.5,0.6,1,1.3,1.4,1.9
					c1,1.3,2.1,2.6,3,3.8l0,0c-0.5-0.6-1-1.3-1.4-1.9s-1.1-1.4-1.6-2.1c-0.5-0.6-1.1-1.4-1.6-2.1l-0.2-0.2c0-0.2,0-0.5-0.2-0.6
					c0.2,0,0.3,0.2,0.3,0.2l0.2,0.2c0.6,0.6,1.3,1.4,1.9,2.1c0.6,0.5,1.1,1,1.9,1.4c0.6,0.3,1.4,0.8,1.6,1.4l0,0
					c-0.2-0.6-0.8-1-1.3-1.4c-0.3-0.2-0.6-0.3-1-0.5c-0.5-0.3-0.8-0.6-1.1-1c-0.5-0.5-1-1-1.3-1.4c0.3,0.2,0.5,0.5,0.8,0.6
					c0.8,0.6,1.8,1.1,2.7,1.4c1.1,0.3,2.2,0.5,3.2,1.1l0,0c-1-0.5-1.9-0.8-3-1.1c-1-0.3-1.9-0.8-2.9-1.4c-0.5-0.5-1-0.8-1.4-1.3
					c0.8,0.5,1.8,0.8,2.7,1.1c1,0.3,1.9,0.5,2.7,0.5s1.9-0.3,2.7,0l0,0c-0.6-0.3-1.6-0.2-2.4-0.2c-1,0-1.9-0.2-2.9-0.3
					c-1-0.3-1.9-0.6-2.9-1.1c-0.2,0-0.3-0.2-0.5-0.3c-0.2-0.2-0.2-0.3-0.3-0.3c0.3,0.2,0.6,0.2,1,0.2c0.6,0.2,1.4,0.2,2.1,0.3
					c0.6,0.2,1.4,0.2,2.1,0.2c0.5,0,1.1,0.2,1.8,0c0.3,0,0.6-0.2,0.8-0.2c0.2,0,1.9-0.6,1.9-0.2l0,0c0-0.5-1.1-0.2-1.3,0
					c-0.3,0.2-0.8,0.2-1.1,0.3c-0.5,0.2-1,0.2-1.4,0.2c-1.6,0-3-0.3-4.6-0.5c-0.5,0-1-0.2-1.4-0.3l0,0c1.1,0.2,2.2,0,3.5-0.2
					c1.1-0.2,2.4-0.3,3.5-0.6C134.4,113.9,135.7,113.4,136.8,113.1C137,113.3,136.8,113.1,136.8,113.1z M120.5,116.6
					c-0.2,0-0.3,0.2-0.6,0.2C120.2,116.8,120.5,116.6,120.5,116.6C120.7,116.6,120.5,116.6,120.5,116.6z M126.1,114.9
					c-0.2-0.2-0.5-0.5-0.6-0.6l0,0c0.2,0,0.3,0,0.5,0C126.1,114.4,126.1,114.7,126.1,114.9z M127.2,113.4c-0.3,0.2-0.8,0.5-1.1,0.6
					c0-0.2,0-0.2,0-0.3C126.4,113.6,126.9,113.6,127.2,113.4z M125.9,113.8c0,0.2,0,0.2,0,0.3c-0.2,0-0.2,0-0.3,0.2
					c-0.2,0-0.2,0-0.3,0c-0.2-0.2-0.3-0.2-0.3-0.3C125.3,113.8,125.6,113.8,125.9,113.8z M124.8,113.8
					C124.8,113.8,125,113.8,124.8,113.8C125,113.9,125,113.9,124.8,113.8c0.2,0.2,0.3,0.2,0.3,0.3l0,0
					C125.1,114.1,125,113.9,124.8,113.8z M124.8,114.2c0.2,0,0.2,0,0.3,0l0,0C125.1,114.2,125,114.4,124.8,114.2
					C125,114.2,125,114.2,124.8,114.2z M123.5,114.6c0.2,0,0.3,0.2,0.5,0.2c0,0-0.2,0-0.3,0l0,0c0,0-0.2,0-0.2,0.2c0,0,0,0-0.2,0
					C123.5,114.9,123.5,114.7,123.5,114.6C123.5,114.7,123.5,114.7,123.5,114.6C123.5,114.7,123.5,114.6,123.5,114.6z M123.7,115
					L123.7,115c0.2,0,0.3-0.2,0.5-0.2c0,0.2-0.2,0.3-0.2,0.5c0,0,0,0-0.2,0.2C123.9,115.2,123.7,115,123.7,115z M123.9,115.4
					c-0.2,0.2-0.2,0.2-0.3,0.3l-0.2,0.2c0-0.2,0.2-0.5,0.2-0.6c0,0,0,0,0.2,0C123.7,115.2,123.7,115.2,123.9,115.4z M123.5,114.6
					L123.5,114.6C123.5,114.6,123.4,114.6,123.5,114.6C123.4,114.6,123.4,114.6,123.5,114.6C123.4,114.6,123.4,114.6,123.5,114.6z
					 M123.2,114.7L123.2,114.7c0,0-0.2,0-0.3,0C122.9,114.7,123.1,114.7,123.2,114.7z M122.6,114.4c0.2,0.2,0.3,0.2,0.5,0.3
					c-0.3,0-0.8-0.2-1.1-0.2c-0.2,0-0.2,0-0.3-0.2C121.9,114.4,122.3,114.4,122.6,114.4z M120.8,114.2c0.2,0,0.2,0,0.3,0.2
					c0.5,0.3,1.1,0.5,1.8,0.5c0.2,0,0.3,0,0.5,0l0,0c-0.3,0.2-0.6,0.2-1,0.3l0,0h-0.2l0,0l0,0l0,0
					C121.8,114.9,121.3,114.6,120.8,114.2z M121.6,116.2c-0.2,0-0.3,0-0.5,0.2c0.3-0.3,0.6-0.5,0.8-0.8c0.2,0,0.2,0,0.3,0
					c0.2,0,0.3,0.2,0.3,0.2C122.4,115.7,122.1,116,121.6,116.2z M122.9,115.4c-0.2,0-0.2,0-0.3-0.2c0.3,0,0.5-0.2,0.8-0.2
					C123.2,115.2,123.1,115.4,122.9,115.4z M123.1,115.5c0.2-0.2,0.2-0.2,0.3-0.3c0,0.2,0,0.2-0.2,0.3l0,0
					C123.2,115.5,123.1,115.5,123.1,115.5z M123.5,116.3c-0.2,0.3-0.5,0.6-0.6,0.8c0.2-0.3,0.3-0.8,0.5-1.1c0.2-0.2,0.5-0.3,0.6-0.5
					C123.7,115.7,123.7,116,123.5,116.3z M123.9,115.8C123.9,115.7,123.9,115.7,123.9,115.8C123.9,115.7,123.9,115.7,123.9,115.8
					c0-0.2,0-0.2,0.2-0.3l0,0l0,0l0,0c0,0,0,0,0-0.2c0.2-0.2,0.2-0.2,0.3-0.3C124.2,115.2,124,115.5,123.9,115.8z M124.2,115
					c0-0.2,0-0.2,0.2-0.3h0.2C124.3,114.9,124.2,115,124.2,115z M124.5,114.7c-0.2,0-0.5-0.2-0.6-0.2
					C124,114.6,124.2,114.6,124.5,114.7L124.5,114.7z M124.3,114.6c0.2,0,0.2,0,0.3,0c0,0,0,0,0,0.2
					C124.5,114.6,124.3,114.6,124.3,114.6z M124.8,114.7h-0.2l0,0C124.7,114.7,124.8,114.7,124.8,114.7L124.8,114.7z M124.7,114.6
					L124.7,114.6c0.2-0.2,0.3-0.2,0.3-0.2c0.2,0.2,0.3,0.3,0.5,0.3C125.1,114.7,124.8,114.7,124.7,114.6z M125.8,114.9L125.8,114.9
					c-0.2-0.2-0.5-0.3-0.6-0.5h0.2c0.2,0.2,0.5,0.3,0.6,0.6C125.8,114.9,125.8,114.9,125.8,114.9z M125.9,115.2
					C126.1,115.2,126.1,115.2,125.9,115.2c0.2,0,0.2,0.2,0.2,0.2l0,0C126.1,115.2,126.1,115.2,125.9,115.2z M128.5,107.7
					c1.1-1.9,1.8-4.2,3-6.1l0,0C130.4,103.7,129.8,105.9,128.5,107.7c-1.1,2.1-2.6,4-4.2,5.6l0,0
					C125.9,111.7,127.4,109.8,128.5,107.7z M121.9,103.4c-0.2-1-0.3-1.9-0.2-2.9l0,0c-0.2,1.1,0,2.2,0.2,3.2c0.2,1,0.5,1.9,0.6,3
					c0.2,1.3,0.3,2.6,0.6,3.8c0.2,1.3,0.5,2.6,0.5,3.8l0,0c-0.2-1.3-0.3-2.6-0.5-3.8c-0.2-1.3-0.5-2.6-0.6-4
					C122.4,105.5,122.1,104.3,121.9,103.4z"/>
				<path class="st50" d="M138.2,113c-0.2-0.3-0.6-0.5-0.6-0.8c-0.3-0.6,0-1.9,0.2-2.7c0.5-1.6,0.3-3.7,0.3-5.3c0-0.8,0.6-2.2,0-3
					c-0.5-0.6-1.6-0.3-1.8-1.3c-0.8,1-0.8,0-1.4-0.5c-0.2-0.2-1-0.2-1-0.3c-0.5-0.5,0-0.6-0.3-1.1c-0.6-1.3-2.4-0.6-3.2-2.1
					c-1.3,0.8-1.1,0-2.2-0.2c-0.8-0.2-1.4,0.8-2.2-0.2c-0.6,0.3-1,0.5-1.6,0.5c-0.2,0-0.5-0.3-0.6-0.3s-0.3,0.5-0.6,0.5
					c-1.1,0.2-1.8-0.5-2.6,1c-0.2-0.3-0.5-0.3-0.6-0.5c-0.2,1,1,3,0.3,3.8c-0.2-0.5-0.8-1.1-1.3-1.3c-1-0.3-1,0.3-1.8,0.6
					c-0.3,0-0.8-0.2-1-0.2c-0.2,0.2-0.5,0.6-0.5,0.6c-0.5,0.2-1.1,0.2-1.8,0.2c-0.2,1.3-0.8,0.2-1.4,0.5c-0.6,0.2-0.5,1.3-1.4,0.6
					c0,0.3-0.2,0.5-0.2,1c-0.3-0.2-0.6,0-1.1,0c0,0.3,0.2,0.8,0.2,1.1c-1.8-0.8-1.1,1-1.3,1.9c-0.2-0.2-0.5-0.2-0.6-0.2
					c0.3,0.6,0,2.2-0.6,2.4c0,0.3,0,0.6,0,1c-1,0.2-0.2,0.5-0.2,1.1c0,0.3,0,1,0.2,1.1c0,0.6,1.1,2.2,1,2.6c0.5,0.6,1.1,1,1.6,1.4
					c-0.5,1.8,3.5,0.3,1.3,2.9c-1,1-2.2,1.1-1.8,2.7c0.5,1.6,0.3,2.6,2.1,3c-0.3,1.4,2.2,2.1,3.2,2.7c0.5,0.3,0.3,0.6,1,0.6
					c0.3,0,0.8-0.3,1.1-0.2c0.6,0.3,0.5,1.4,1.1,1.8c1.1,0.6,3,0,4.3,0c1.6,0,2.6-0.6,4.3-0.6c0.5-1,0.2-2.6,1.4-3
					c0.3-0.2,0.6,0.3,1.1,0.2c0.3-0.2,0.3-0.3,0.6-0.5c0.5-0.2,1.3-0.3,1.8-0.5c0.5-0.3,0.8-1,1.3-1.3c0.5-0.3,1.3-0.5,1.8-1
					c0.3-0.3,1.1-1.1,1.3-1.4c0.3-0.6,0-1,0.3-1.6c0.6-0.8,1.1-1.4,1.6-2.4c0.3-0.6,0.6-1.4,0.8-2.2
					C138.2,113.6,138.4,113.6,138.2,113z M134.4,116.8c-0.2,0.5,0,1.1-0.3,1.4c-0.5,1-1.3,0.2-2.2,0.8c-1.1,0.8-0.3,1.3-1.9,1
					c-1.4-0.3-1.6-0.6-2.1,1c-0.2,0.3-0.2,1-0.5,1.1c-0.5,0.5-0.8,0-1.1,0.2c-0.6,0.5-0.8,1.8-1.6,1.9c-0.3,0.2-0.8-0.3-1.3-0.3
					s-0.8,0.6-1.4,0.6c-0.2,0-0.3-0.5-0.5-0.5c-0.3-0.2-0.5,0.2-0.8,0c-0.3-0.3-0.6-0.6-0.6-1c-0.2,0.2-0.5,0.2-0.6,0.3
					c0.2-1.3-1.4-0.5-2.1-1.3c-0.6-0.6-0.6-1.8-1.9-1.3c-0.2-1,0.5-1,0.6-1.6c0.2-0.3-0.3-0.5-0.2-0.8c0.2-0.2,0.3-0.3,0.5-0.5
					c0.5-1.1,2.2-1.9,0.6-2.7c-1-0.5-2.2-0.3-2.4-1.8c0-0.6,0.5-0.5,0-1.3c-0.3-0.5-1-0.5-0.8-1.3c-0.5-0.3-1.1-0.6-1.3-1.1
					c-0.3-1.1,0.5-0.5,1.1-1c0.2-0.2,0.2-1.1,0.5-1.4c0.5-0.5,1-0.3,1.3-0.8c0.8,0,1.4,0.2,2.1,0.2c0.3,0,0.5-0.3,1-0.2
					c0.5,0.2,0.5,0.3,0.8,0.6c1,0.5,2.6,0.6,2.9-0.6c0.2-0.5-0.3-1,0-1.4c0.2-0.5,0.8-0.6,1.3-0.8c0.5-0.3,0.6-0.5,1.1-0.8
					c0.2,0,0.5-0.5,0.5-0.5c0.2,0,0.6,0.2,0.6,0.2c0.5-0.2,2.1-1.8,2.7-1.3c0.5,0.2,0.3,1.1,0.6,1.3c0.3,0.2,1.1,0.2,1.6,0.2
					c0,1,1.6,0.6,2.2,1.1c1,0.8,0.6,1.8,0.6,2.7c-0.2,1.3,0.3,1.6-0.5,2.7c-0.5,0.6-1.4,2.1,0.3,2.1c-1.1,1,1.8,2.4,1.8,4
					C134.9,116.5,134.6,116.3,134.4,116.8z"/>
			</g>
			<g>
				
					<radialGradient id="SVGID_45_" cx="132.1972" cy="185.2171" r="9.3023" gradientTransform="matrix(0.9997 2.356718e-02 2.356718e-02 -0.9997 -13.0941 294.1975)" gradientUnits="userSpaceOnUse">
					<stop  offset="0" style="stop-color:#553E20"/>
					<stop  offset="9.355849e-02" style="stop-color:#4A361D"/>
					<stop  offset="0.5201" style="stop-color:#1C1004"/>
					<stop  offset="0.8344" style="stop-color:#000000"/>
					<stop  offset="1" style="stop-color:#000000"/>
				</radialGradient>
				<path class="st51" d="M119.7,109.8c-0.2,0.3-0.3,0.5-0.3,1c0,0.3,0.2,0.6,0,1.1c-0.2,0.6-0.5,1.4-0.6,2.1c-0.3,1.3,0,3,1.4,3.5
					c0.8,0.3,1.3,0.5,1.9,1s1.3,0.6,2.1,0.3c0.3-0.2,0.5-0.3,0.8-0.5c0.3-0.2,0.6-0.2,1.1-0.2c0.3,0,0.8,0,1-0.2
					c0.2,0,0.2-0.2,0.2-0.3c0.2-0.2,0.3-0.2,0.5-0.3c0.6-0.5,0.6-1.1,0.8-1.9c0-0.3,0-0.8,0.2-1.1c0.2-0.3,0.6-0.5,0.8-0.8
					c0.8-1.4-0.3-2.2-1.3-3.2c-0.6-0.5-0.8-1.3-1.4-1.8c-1.1-0.8-2.7-1.1-4-1c-0.6,0-1.4,0.2-2.1,0.5
					C120.5,108.5,120,109.1,119.7,109.8z"/>
				
					<radialGradient id="SVGID_46_" cx="131.6883" cy="186.1994" r="4.5685" gradientTransform="matrix(0.9997 2.356718e-02 2.356718e-02 -0.9997 -13.0941 294.1975)" gradientUnits="userSpaceOnUse">
					<stop  offset="0" style="stop-color:#D2CA2A"/>
					<stop  offset="0.1099" style="stop-color:#C2B328"/>
					<stop  offset="0.5238" style="stop-color:#97731D"/>
					<stop  offset="0.8286" style="stop-color:#7E5215"/>
					<stop  offset="0.9892" style="stop-color:#764712"/>
				</radialGradient>
				<path class="st52" d="M119.5,109.3c0.2,0.2,0.3,0.2,0.5,0.2c0.2,0,0.5,0.2,0.2,0.3c-0.2,0-0.3,0-0.5,0c-0.2,0-0.3,0.2-0.5,0.2
					c-0.3,0.2-0.6,0.2-0.8,0.5c-0.2,0.3-0.2,0.6,0,1c0.2,0.3,0,0.6,0.2,1c0.2,0.5,0.3,0.5,0.8,0.5c0.2,0,0.3,0,0.3,0.2
					c0,0.2,0.2,0.3,0.2,0.6c0,0.3-0.2,0.8,0,1c0,0.2,0.3,0.3,0.5,0.5c0.2,0.2,0.3,0.2,0.6,0.3c0.3,0.2,0.8,0,1-0.5
					c0.2-0.3,0.5-0.6,0.8-0.5c0.3,0.2,0.6,0.5,0.8,0.8c0.2,0.3,1,0.2,1.3,0c0.3-0.2,0.8-0.2,0.8-0.6c0-0.5-0.3-0.6,0-1.1
					c0.3-0.3,0.6-0.5,1.1-0.5c0.2,0,0.3,0,0.5-0.2c0.2-0.2,0.2-0.5,0.3-0.6c0.2-0.3,0.6-0.5,0.5-1c-0.2-0.3-0.6-0.6-0.8-1
					c-0.3-0.5,0.5-0.5,0.6-0.8c0.2-0.2,0-0.3-0.2-0.6c-0.2-0.3-0.2-0.5-0.3-0.8c-0.2-0.3-0.3-0.3-0.6-0.3c-0.2,0-0.3-0.3-0.5-0.3
					c-0.2,0-0.5,0.2-0.6,0.3c-0.2,0.2-0.3,0.2-0.6,0c-0.5-0.3,0-1-0.5-1.3c-0.2-0.2-0.5,0-0.8,0c-0.3,0-0.5,0-0.6,0
					c-0.5-0.2-0.5,0.3-0.5,0.8c0,0.2,0,0.5-0.2,0.5c-0.2,0-0.3-0.2-0.5-0.2c-0.3-0.2-0.6-0.3-1-0.2c-0.2,0-0.3,0.2-0.5,0.3
					c-0.2,0.2-0.3,0.3-0.5,0.5C119.2,108.6,119.1,109,119.5,109.3z"/>
				
					<radialGradient id="SVGID_47_" cx="131.569" cy="186.151" r="5.3113" gradientTransform="matrix(0.9997 2.356718e-02 2.356718e-02 -0.9997 -13.0941 294.1975)" gradientUnits="userSpaceOnUse">
					<stop  offset="0" style="stop-color:#E3D192"/>
					<stop  offset="0.7849" style="stop-color:#BA756B"/>
					<stop  offset="0.8792" style="stop-color:#994543"/>
					<stop  offset="0.9583" style="stop-color:#812129"/>
					<stop  offset="1" style="stop-color:#781020"/>
				</radialGradient>
				<path class="st53" d="M122.6,111.2c-0.2,0.5-0.2,1-0.5,1.4c-0.2,0.5-0.5,1-0.6,1.6c0,0.5,0,0.8,0,1.3c0,0.3-0.5,0.5-0.8,0.2
					c-0.2-0.2-0.2-0.3-0.3-0.3c-0.2-0.2-0.3-0.2-0.5-0.2c-0.3-0.2-0.6-0.5-0.5-1c0.2-0.5,0.6-0.8,0.8-1.1c0.2-0.3,0.5-0.6,0.8-1
					c0.2-0.3,0.3-0.5,0.6-0.6c0.2-0.2,0.3-0.5,0.6-0.6c-0.2,0-0.3,0.3-0.5,0.3c-0.3,0.2-0.5,0.2-0.8,0.3c-0.5,0.2-0.8,0.3-1.3,0.5
					c-0.2,0.2-0.5,0.2-0.6,0.3c-0.2,0.2-0.3,0.3-0.6,0.3c-0.2,0-0.3-0.3-0.2-0.5c0-0.2,0.2-0.3,0.3-0.5c0.2-0.3-0.5-0.6-0.2-1
					c0.3-0.5,1-0.5,1.4-0.5s1,0,1.3,0c0.2,0,0.5,0,0.6,0c0.2,0,0.3,0.2,0.6,0.2c-0.2-0.3-0.8-0.5-1.1-0.6c-0.2-0.2-0.5-0.2-0.6-0.3
					c-0.2-0.2-0.3-0.3-0.5-0.3c-0.3-0.2-1,0-1.1-0.3c0-0.5,0.6-0.5,0.8-0.8c0-0.2,0-0.3,0.2-0.3c0.2-0.2,0.5-0.2,0.6,0
					c0.5,0.2,1,0.5,1.3,0.8c0.2,0.2,0.3,0.3,0.3,0.6c0.2,0.2,0.2,0.3,0.3,0.5c0.2,0.3,0.2,0.6,0.3,1c0-0.6-0.2-1.3-0.2-1.8
					c0-0.2,0-0.5,0-0.6s-0.2-0.3-0.2-0.5c0-0.2-0.2-0.3,0-0.5c0.2-0.2,0.3-0.3,0.6-0.2c0.2,0.2,0.3,0.3,0.6,0.2
					c0.2,0,0.3-0.2,0.6-0.2c0.3,0,0.5,0.3,0.5,0.6c0,0.2-0.2,0.3-0.3,0.5c-0.2,0.2-0.2,0.5-0.3,0.6c-0.3,0.6-0.6,1.1-0.8,1.9
					c0.3-0.3,0.3-0.6,0.6-1c0.3-0.2,0.6-0.5,1-0.6c0.5-0.3,0.8-0.8,1.3-1c0.3,0,0.6,0,0.8,0.3c0.2,0.2,0,0.3,0.2,0.5
					c0,0.2,0.2,0,0.3,0.2c0.2,0,0.2,0.2,0.3,0.2c0.2,0.2,0.3,0.5,0.2,0.6c-0.2,0.2-0.6,0.2-0.8,0.2c-0.3,0-0.8-0.2-1.1,0
					c-0.8,0.2-1.4,0.6-2.2,1c1.3,0,2.7,0,3.8,0.8c0.3,0.2,1,0.6,0.6,1.1c-0.2,0.2-0.3,0.2-0.5,0.3c-0.2,0.2,0,0.3,0,0.5
					c0,0.3-0.2,0.8-0.6,0.6c-0.2-0.2-0.3-0.3-0.6-0.6c-0.2-0.2-0.3-0.5-0.5-0.6c-0.8-0.8-2.1-1-2.9-1.8c0.5,0.3,0.6,0.8,1,1.3
					c0.3,0.3,0.5,0.8,0.6,1.1c0.3,0.5,0.6,1,0.8,1.6c0.2,0.5,0.2,0.8-0.3,1c-0.2,0-0.3,0-0.6,0.2c-0.2,0.2-0.3,0.3-0.5,0.3
					c-0.5,0.2-0.6-0.6-0.6-1c0-0.5-0.3-1-0.5-1.3c0-0.3-0.2-0.5-0.2-0.8c0-0.2-0.2-0.5-0.2-0.6C122.6,112,122.7,111.7,122.6,111.2
					L122.6,111.2z"/>
			</g>
			<g>
				
					<radialGradient id="SVGID_48_" cx="-30.7033" cy="-61.5006" r="2.0055" gradientTransform="matrix(0.88 -0.2828 -0.2992 -0.8382 143.484 49.2024)" gradientUnits="userSpaceOnUse">
					<stop  offset="0" style="stop-color:#5B191F"/>
					<stop  offset="0.4714" style="stop-color:#250004"/>
					<stop  offset="0.8175" style="stop-color:#000000"/>
					<stop  offset="1" style="stop-color:#000000"/>
				</radialGradient>
				<path class="st54" d="M136.6,109.1c0.2,0.3-0.5,0.8-1.4,1.1c-1,0.3-1.8,0.3-1.9,0c-0.2-0.3,0.5-0.8,1.4-1.1
					S136.5,108.8,136.6,109.1z"/>
				
					<radialGradient id="SVGID_49_" cx="-137.6654" cy="-194.044" r="2.0059" gradientTransform="matrix(0.7371 -0.5373 -0.5663 -0.7027 122.6181 -101.9623)" gradientUnits="userSpaceOnUse">
					<stop  offset="0" style="stop-color:#5B191F"/>
					<stop  offset="0.4714" style="stop-color:#250004"/>
					<stop  offset="0.8175" style="stop-color:#000000"/>
					<stop  offset="1" style="stop-color:#000000"/>
				</radialGradient>
				<path class="st55" d="M132.5,107.5c0.2,0.3-0.2,1-1,1.4s-1.6,0.8-1.8,0.5c-0.2-0.3,0.2-1,1-1.4S132.3,107.4,132.5,107.5z"/>
				
					<radialGradient id="SVGID_50_" cx="-285.5706" cy="-285.8904" r="2.0057" gradientTransform="matrix(0.5121 -0.7371 -0.7757 -0.4891 54.4618 -243.8815)" gradientUnits="userSpaceOnUse">
					<stop  offset="0" style="stop-color:#5B191F"/>
					<stop  offset="0.4714" style="stop-color:#250004"/>
					<stop  offset="0.8175" style="stop-color:#000000"/>
					<stop  offset="1" style="stop-color:#000000"/>
				</radialGradient>
				<path class="st56" d="M131.2,105.3c0.3,0.2,0.2,1-0.5,1.8c-0.5,0.8-1.1,1.3-1.4,1c-0.3-0.2-0.2-1,0.5-1.8
					C130.2,105.5,130.9,105.1,131.2,105.3z"/>
				
					<radialGradient id="SVGID_51_" cx="-283.6718" cy="-283.9218" r="2.0063" gradientTransform="matrix(0.5121 -0.7371 -0.7757 -0.4891 54.4618 -243.8815)" gradientUnits="userSpaceOnUse">
					<stop  offset="0" style="stop-color:#5B191F"/>
					<stop  offset="0.4714" style="stop-color:#250004"/>
					<stop  offset="0.8175" style="stop-color:#000000"/>
					<stop  offset="1" style="stop-color:#000000"/>
				</radialGradient>
				<path class="st57" d="M130.6,102.9c0.3,0.2,0.2,1-0.5,1.8c-0.5,0.8-1.1,1.3-1.4,1c-0.3-0.2-0.2-1,0.5-1.8
					C129.6,103.2,130.2,102.7,130.6,102.9z"/>
				
					<radialGradient id="SVGID_52_" cx="-422.4307" cy="-316.0846" r="2.0062" gradientTransform="matrix(0.2965 -0.8377 -0.8809 -0.2841 -25.9002 -339.6948)" gradientUnits="userSpaceOnUse">
					<stop  offset="0" style="stop-color:#5B191F"/>
					<stop  offset="0.4714" style="stop-color:#250004"/>
					<stop  offset="0.8175" style="stop-color:#000000"/>
					<stop  offset="1" style="stop-color:#000000"/>
				</radialGradient>
				<path class="st58" d="M128.2,102.6c0.3,0.2,0.3,1,0,1.8c-0.3,0.8-0.8,1.4-1.1,1.4c-0.3-0.2-0.3-1,0-1.8
					C127.2,103.1,127.8,102.4,128.2,102.6z"/>
				
					<radialGradient id="SVGID_53_" cx="-422.3234" cy="-314.107" r="2.006" gradientTransform="matrix(0.2965 -0.8377 -0.8809 -0.2841 -25.9002 -339.6948)" gradientUnits="userSpaceOnUse">
					<stop  offset="0" style="stop-color:#5B191F"/>
					<stop  offset="0.4714" style="stop-color:#250004"/>
					<stop  offset="0.8175" style="stop-color:#000000"/>
					<stop  offset="1" style="stop-color:#000000"/>
				</radialGradient>
				<path class="st59" d="M126.4,101.9c0.3,0.2,0.3,1,0,1.8c-0.3,0.8-0.8,1.4-1.1,1.4c-0.3-0.2-0.3-1,0-1.8
					C125.6,102.4,126.1,101.8,126.4,101.9z"/>
				
					<radialGradient id="SVGID_54_" cx="-649.1667" cy="-294.7502" r="2.0057" gradientTransform="matrix(-6.020774e-02 -0.883 -0.9276 5.525538e-02 -190.3677 -453.1041)" gradientUnits="userSpaceOnUse">
					<stop  offset="0" style="stop-color:#5B191F"/>
					<stop  offset="0.4714" style="stop-color:#250004"/>
					<stop  offset="0.8175" style="stop-color:#000000"/>
					<stop  offset="1" style="stop-color:#000000"/>
				</radialGradient>
				<path class="st60" d="M122.3,102.1c0.3,0,0.6,0.6,0.8,1.6c0,1-0.2,1.6-0.5,1.8c-0.3,0-0.6-0.6-0.8-1.6
					C121.6,102.9,121.9,102.3,122.3,102.1z"/>
				
					<radialGradient id="SVGID_55_" cx="-928.6558" cy="-128.8206" r="2.0059" gradientTransform="matrix(-0.5364 -0.7236 -0.7591 0.5089 -476.0533 -502.002)" gradientUnits="userSpaceOnUse">
					<stop  offset="0" style="stop-color:#5B191F"/>
					<stop  offset="0.4714" style="stop-color:#250004"/>
					<stop  offset="0.8175" style="stop-color:#000000"/>
					<stop  offset="1" style="stop-color:#000000"/>
				</radialGradient>
				<path class="st61" d="M119.1,103.1c0.3-0.2,1,0.3,1.6,1c0.5,0.8,0.8,1.4,0.5,1.8c-0.3,0.2-1-0.3-1.6-1
					C119.1,104,118.7,103.2,119.1,103.1z"/>
				
					<radialGradient id="SVGID_56_" cx="-1044.8344" cy="45.5685" r="2.006" gradientTransform="matrix(-0.7607 -0.5101 -0.5341 0.7228 -652.873 -461.6714)" gradientUnits="userSpaceOnUse">
					<stop  offset="0" style="stop-color:#5B191F"/>
					<stop  offset="0.4714" style="stop-color:#250004"/>
					<stop  offset="0.8175" style="stop-color:#000000"/>
					<stop  offset="1" style="stop-color:#000000"/>
				</radialGradient>
				<path class="st62" d="M116.3,103.1c0.2-0.3,1-0.2,1.8,0.5c0.8,0.5,1.3,1.1,1.1,1.4c-0.2,0.3-1,0.2-1.8-0.5
					C116.7,104,116.2,103.4,116.3,103.1z"/>
				
					<radialGradient id="SVGID_57_" cx="-1116.0807" cy="327.4055" r="2.0057" gradientTransform="matrix(-0.9177 -0.1424 -0.1474 0.8732 -862.4035 -335.5121)" gradientUnits="userSpaceOnUse">
					<stop  offset="0" style="stop-color:#5B191F"/>
					<stop  offset="0.4714" style="stop-color:#250004"/>
					<stop  offset="0.8175" style="stop-color:#000000"/>
					<stop  offset="1" style="stop-color:#000000"/>
				</radialGradient>
				<path class="st63" d="M111.9,108.8c0-0.3,0.8-0.5,1.8-0.3c1,0.2,1.6,0.5,1.6,0.8c0,0.3-0.8,0.5-1.8,0.3
					C112.7,109.4,111.9,109.1,111.9,108.8z"/>
				
					<radialGradient id="SVGID_58_" cx="-535.696" cy="-285.7072" r="2.0057" gradientTransform="matrix(0.1056 -0.8787 -0.9234 -0.1026 -89.6421 -393.6745)" gradientUnits="userSpaceOnUse">
					<stop  offset="0" style="stop-color:#5B191F"/>
					<stop  offset="0.4714" style="stop-color:#250004"/>
					<stop  offset="0.8175" style="stop-color:#000000"/>
					<stop  offset="1" style="stop-color:#000000"/>
				</radialGradient>
				<path class="st64" d="M118.1,104.8c0.3,0,0.5,0.8,0.5,1.8c-0.2,1-0.5,1.6-0.8,1.6s-0.5-0.8-0.5-1.8
					C117.3,105.5,117.8,104.7,118.1,104.8z"/>
				
					<radialGradient id="SVGID_59_" cx="-111.7314" cy="-112.9852" r="2.0054" gradientTransform="matrix(0.72 -0.5579 -0.5878 -0.6865 130.2164 -29.8537)" gradientUnits="userSpaceOnUse">
					<stop  offset="0" style="stop-color:#5B191F"/>
					<stop  offset="0.4714" style="stop-color:#250004"/>
					<stop  offset="0.8175" style="stop-color:#000000"/>
					<stop  offset="1" style="stop-color:#000000"/>
				</radialGradient>
				<path class="st65" d="M117.6,109.3c0.2,0.3-0.2,1-1,1.4c-0.8,0.6-1.6,0.8-1.8,0.5c-0.2-0.3,0.2-1,1-1.4
					C116.7,109.3,117.5,109,117.6,109.3z"/>
				
					<radialGradient id="SVGID_60_" cx="52.64" cy="269.8464" r="2.0055" gradientTransform="matrix(0.9292 2.280545e-02 2.184725e-02 -0.8843 62.1928 351.6919)" gradientUnits="userSpaceOnUse">
					<stop  offset="0" style="stop-color:#5B191F"/>
					<stop  offset="0.4714" style="stop-color:#250004"/>
					<stop  offset="0.8175" style="stop-color:#000000"/>
					<stop  offset="1" style="stop-color:#000000"/>
				</radialGradient>
				<path class="st66" d="M118.7,114.6c0,0.3-0.8,0.6-1.8,0.6c-1,0-1.8-0.3-1.8-0.6c0-0.3,0.8-0.6,1.8-0.6
					C117.9,113.9,118.7,114.2,118.7,114.6z"/>
				
					<radialGradient id="SVGID_61_" cx="47.2036" cy="271.1224" r="2.0059" gradientTransform="matrix(0.9292 2.280545e-02 2.184725e-02 -0.8843 62.1928 351.6919)" gradientUnits="userSpaceOnUse">
					<stop  offset="0" style="stop-color:#5B191F"/>
					<stop  offset="0.4714" style="stop-color:#250004"/>
					<stop  offset="0.8175" style="stop-color:#000000"/>
					<stop  offset="1" style="stop-color:#000000"/>
				</radialGradient>
				<path class="st67" d="M113.6,113.3c0,0.3-0.8,0.6-1.8,0.6c-1,0-1.8-0.3-1.8-0.6c0-0.3,0.8-0.6,1.8-0.6
					C113,112.6,113.6,113,113.6,113.3z"/>
				
					<radialGradient id="SVGID_62_" cx="-530.0918" cy="-326.5388" r="2.0059" gradientTransform="matrix(8.577999e-02 -0.8807 -0.9255 -8.363432e-02 -140.5071 -377.1754)" gradientUnits="userSpaceOnUse">
					<stop  offset="0" style="stop-color:#5B191F"/>
					<stop  offset="0.4714" style="stop-color:#250004"/>
					<stop  offset="0.8175" style="stop-color:#000000"/>
					<stop  offset="1" style="stop-color:#000000"/>
				</radialGradient>
				<path class="st68" d="M116.7,115.4c0.3,0,0.6,0.8,0.5,1.8s-0.5,1.6-0.8,1.6c-0.3,0-0.6-0.8-0.5-1.8
					C115.9,116,116.3,115.4,116.7,115.4z"/>
				
					<radialGradient id="SVGID_63_" cx="-138.1891" cy="-155.5859" r="2.0054" gradientTransform="matrix(0.6876 -0.5938 -0.6255 -0.6557 116.6392 -67.015)" gradientUnits="userSpaceOnUse">
					<stop  offset="0" style="stop-color:#5B191F"/>
					<stop  offset="0.4714" style="stop-color:#250004"/>
					<stop  offset="0.8175" style="stop-color:#000000"/>
					<stop  offset="1" style="stop-color:#000000"/>
				</radialGradient>
				<path class="st69" d="M120.3,116.2c0.3,0.3-0.2,1-0.8,1.6s-1.4,1-1.8,0.6c-0.3-0.3,0.2-1,0.8-1.6
					C119.4,116.2,120.2,115.8,120.3,116.2z"/>
				
					<radialGradient id="SVGID_64_" cx="-138.2465" cy="-154.2995" r="2.0054" gradientTransform="matrix(0.6876 -0.5938 -0.6255 -0.6557 116.6392 -67.015)" gradientUnits="userSpaceOnUse">
					<stop  offset="0" style="stop-color:#5B191F"/>
					<stop  offset="0.4714" style="stop-color:#250004"/>
					<stop  offset="0.8175" style="stop-color:#000000"/>
					<stop  offset="1" style="stop-color:#000000"/>
				</radialGradient>
				<path class="st70" d="M119.5,115.4c0.3,0.3-0.2,1-0.8,1.6c-0.6,0.6-1.4,1-1.8,0.6c-0.3-0.3,0.2-1,0.8-1.6
					C118.6,115.4,119.4,115,119.5,115.4z"/>
				
					<radialGradient id="SVGID_65_" cx="-457.4698" cy="-320.1844" r="2.0059" gradientTransform="matrix(0.186 -0.8664 -0.9107 -0.179 -85.7023 -336.4759)" gradientUnits="userSpaceOnUse">
					<stop  offset="0" style="stop-color:#5B191F"/>
					<stop  offset="0.4714" style="stop-color:#250004"/>
					<stop  offset="0.8175" style="stop-color:#000000"/>
					<stop  offset="1" style="stop-color:#000000"/>
				</radialGradient>
				<path class="st71" d="M121.5,115.7c0.3,0,0.5,0.8,0.3,1.8c-0.2,1-0.6,1.6-1,1.4c-0.3,0-0.5-0.8-0.3-1.8
					C120.7,116.2,121.1,115.5,121.5,115.7z"/>
				
					<radialGradient id="SVGID_66_" cx="-118.3368" cy="-126.6066" r="2.0059" gradientTransform="matrix(0.7395 -0.5343 -0.5631 -0.7051 140.5252 -34.1607)" gradientUnits="userSpaceOnUse">
					<stop  offset="0" style="stop-color:#5B191F"/>
					<stop  offset="0.4714" style="stop-color:#250004"/>
					<stop  offset="0.8175" style="stop-color:#000000"/>
					<stop  offset="1" style="stop-color:#000000"/>
				</radialGradient>
				<path class="st72" d="M125.9,117.6c0.2,0.3-0.2,1-1,1.4c-0.8,0.5-1.6,0.8-1.8,0.5c-0.2-0.3,0.2-1,1-1.4
					C124.8,117.4,125.6,117.3,125.9,117.6z"/>
				
					<radialGradient id="SVGID_67_" cx="-937.301" cy="-89.1289" r="2.0054" gradientTransform="matrix(-0.7146 -0.5672 -0.5944 0.6789 -593.468 -354.975)" gradientUnits="userSpaceOnUse">
					<stop  offset="0" style="stop-color:#5B191F"/>
					<stop  offset="0.4714" style="stop-color:#250004"/>
					<stop  offset="0.8175" style="stop-color:#000000"/>
					<stop  offset="1" style="stop-color:#000000"/>
				</radialGradient>
				<path class="st73" d="M128.2,114.9c0.2-0.3,1,0,1.8,0.6c0.8,0.6,1.1,1.3,1,1.6c-0.2,0.3-1,0-1.8-0.6
					C128.3,115.8,128,115.2,128.2,114.9z"/>
				
					<radialGradient id="SVGID_68_" cx="-934.924" cy="-89.4315" r="2.0057" gradientTransform="matrix(-0.7146 -0.5672 -0.5944 0.6789 -593.468 -354.975)" gradientUnits="userSpaceOnUse">
					<stop  offset="0" style="stop-color:#5B191F"/>
					<stop  offset="0.4714" style="stop-color:#250004"/>
					<stop  offset="0.8175" style="stop-color:#000000"/>
					<stop  offset="1" style="stop-color:#000000"/>
				</radialGradient>
				<path class="st74" d="M126.6,113.4c0.2-0.3,1,0,1.8,0.6c0.8,0.6,1.1,1.3,1,1.6c-0.2,0.3-1,0-1.8-0.6
					C126.9,114.2,126.4,113.6,126.6,113.4z"/>
				
					<radialGradient id="SVGID_69_" cx="-1005.1769" cy="346.4248" r="2.0059" gradientTransform="matrix(-0.9184 0.134 0.1429 0.8744 -844.551 -55.3333)" gradientUnits="userSpaceOnUse">
					<stop  offset="0" style="stop-color:#5B191F"/>
					<stop  offset="0.4714" style="stop-color:#250004"/>
					<stop  offset="0.8175" style="stop-color:#000000"/>
					<stop  offset="1" style="stop-color:#000000"/>
				</radialGradient>
				<path class="st75" d="M126.4,113c0-0.3,0.6-0.8,1.6-0.8c1-0.2,1.8,0,1.8,0.3c0,0.3-0.6,0.8-1.6,0.8
					C127.2,113.4,126.4,113.3,126.4,113z"/>
				
					<radialGradient id="SVGID_70_" cx="-1005.9748" cy="343.8319" r="2.0057" gradientTransform="matrix(-0.9184 0.134 0.1429 0.8744 -844.551 -55.3333)" gradientUnits="userSpaceOnUse">
					<stop  offset="0" style="stop-color:#5B191F"/>
					<stop  offset="0.4714" style="stop-color:#250004"/>
					<stop  offset="0.8175" style="stop-color:#000000"/>
					<stop  offset="1" style="stop-color:#000000"/>
				</radialGradient>
				<path class="st76" d="M126.7,110.6c0-0.3,0.6-0.8,1.6-0.8c1-0.2,1.8,0,1.8,0.3c0,0.3-0.6,0.8-1.6,0.8
					C127.5,111,126.7,110.9,126.7,110.6z"/>
				
					<radialGradient id="SVGID_71_" cx="-882.3939" cy="551.7065" r="2.0059" gradientTransform="matrix(-0.7626 0.5042 0.5315 0.7269 -837.9045 152.7145)" gradientUnits="userSpaceOnUse">
					<stop  offset="0" style="stop-color:#5B191F"/>
					<stop  offset="0.4714" style="stop-color:#250004"/>
					<stop  offset="0.8175" style="stop-color:#000000"/>
					<stop  offset="1" style="stop-color:#000000"/>
				</radialGradient>
				<path class="st77" d="M126.7,109.6c-0.2-0.3,0.3-1,1.1-1.4c0.8-0.5,1.6-0.6,1.8-0.5c0.2,0.3-0.3,1-1.1,1.4
					C127.7,109.8,126.9,109.9,126.7,109.6z"/>
				
					<radialGradient id="SVGID_72_" cx="-739.2462" cy="-215.793" r="2.0057" gradientTransform="matrix(-0.5449 -0.7179 -0.753 0.5169 -441.6066 -297.6929)" gradientUnits="userSpaceOnUse">
					<stop  offset="0" style="stop-color:#5B191F"/>
					<stop  offset="0.4714" style="stop-color:#250004"/>
					<stop  offset="0.8175" style="stop-color:#000000"/>
					<stop  offset="1" style="stop-color:#000000"/>
				</radialGradient>
				<path class="st78" d="M122.9,120c0.3-0.2,1,0.2,1.6,1c0.6,0.8,0.8,1.4,0.5,1.8c-0.3,0.2-1-0.2-1.6-1
					C122.9,121,122.6,120.2,122.9,120z"/>
				
					<radialGradient id="SVGID_73_" cx="-345.6438" cy="-315.5606" r="2.0055" gradientTransform="matrix(0.1377 -0.8746 -0.9192 -0.133 -115.2605 -222.9805)" gradientUnits="userSpaceOnUse">
					<stop  offset="0" style="stop-color:#5B191F"/>
					<stop  offset="0.4714" style="stop-color:#250004"/>
					<stop  offset="0.8175" style="stop-color:#000000"/>
					<stop  offset="1" style="stop-color:#000000"/>
				</radialGradient>
				<path class="st79" d="M127.7,119.7c0.3,0,0.5,0.8,0.3,1.8c-0.2,1-0.5,1.6-1,1.6c-0.3,0-0.5-0.8-0.3-1.8
					C127,120.3,127.4,119.7,127.7,119.7z"/>
			</g>
		</g>
	</g>
	<g>
		<path class="st80" d="M71.6,233.5v0.6h-2.7v7.4H68v-7.4h-2.7v-0.6H71.6z"/>
		<path class="st80" d="M79.2,233.5v0.6h-4.8v2.9h4.5v0.6h-4.5v3.2h5v0.6h-5.9v-8L79.2,233.5L79.2,233.5z"/>
		<path class="st80" d="M82.6,239l-1.1,2.6h-1l3.7-8H85l3.8,8h-1l-1.1-2.6H82.6z M84.5,234.3l-1.8,4h3.5L84.5,234.3z"/>
		<path class="st80" d="M91.6,233.5l2.9,6.9l2.9-6.9h1.1v8h-0.8l0.2-7.2l0,0l-3,7.2h-0.6l-2.9-7.2l0,0l0.2,7.2h-0.8v-8H91.6z"/>
		<path class="st80" d="M105.8,233.5h3.4c1,0,1.8,0.3,2.2,0.8c0.3,0.3,0.5,0.8,0.5,1.3c0,0.6-0.3,1.3-0.8,1.6
			c-0.2,0-0.2,0.2-0.3,0.2c0.6,0.2,0.8,0.3,1.1,0.6c0.3,0.3,0.5,0.8,0.5,1.4c0,1.3-1.1,2.2-2.7,2.2h-3.7v-8.2H105.8z M109.1,237.1
			c1.1,0,1.8-0.5,1.8-1.4c0-0.6-0.3-1.1-1-1.3c-0.3,0-0.6-0.2-1.3-0.2h-2.1v2.9H109.1z M106.6,240.9h2.7c1.3,0,2.1-0.6,2.1-1.6
			s-0.8-1.6-1.9-1.6h-2.7v3.2H106.6z"/>
		<path class="st80" d="M115.4,233.5v5.1c0,1,0.2,1.4,0.6,1.9c0.5,0.3,1.1,0.5,1.8,0.5c1.8,0,2.6-0.8,2.6-2.4v-5.1h0.8v5.1
			c0,1.1-0.3,1.9-1,2.4s-1.3,0.6-2.4,0.6c-2.2,0-3.4-1-3.4-3v-5.1H115.4z"/>
		<path class="st80" d="M125,233.5v8h-0.8v-8H125z"/>
		<path class="st80" d="M128.6,233.5v7.4h4.5v0.6h-5.3v-8H128.6z"/>
		<path class="st80" d="M135.2,233.5h3.4c2.4,0,3.7,1.4,3.7,4c0,2.6-1.4,4-3.7,4h-3.4C135.2,241.5,135.2,233.5,135.2,233.5z
			 M138.2,240.9c1.1,0,1.6-0.2,2.1-0.5c0.8-0.6,1.3-1.4,1.3-2.9c0-1.8-0.8-2.9-2.1-3.2c-0.3,0-0.6-0.2-1.3-0.2h-2.1v6.7L138.2,240.9
			L138.2,240.9z"/>
		<path class="st80" d="M145.8,233.5v8H145v-8H145.8z"/>
		<path class="st80" d="M149.4,233.5l5.1,6.9l0,0v-6.9h0.8v8h-1l-5.1-6.9l0,0v6.9h-0.8v-8H149.4z"/>
		<path class="st80" d="M165.7,237.5v3c-1,0.6-1.3,0.8-2.2,1c-0.5,0.2-1,0.2-1.4,0.2c-1.3,0-2.1-0.3-2.9-0.8c-1-0.8-1.4-1.8-1.4-3.2
			c0-2.6,1.8-4.3,4.5-4.3c1.9,0,3,0.8,3.5,2.2l-0.8,0.2c-0.5-1.3-1.4-1.9-2.7-1.9c-2.2,0-3.5,1.3-3.5,3.7c0,1.9,1.4,3.4,3.5,3.4
			c1,0,1.9-0.3,2.7-0.6c0,0,0.2-0.2,0.3-0.2v-1.9h-2.9v-0.6L165.7,237.5L165.7,237.5z"/>
	</g>
</g>
</svg>
